<svg xmlns="http://www.w3.org/2000/svg" viewBox="0 0 303.7 74" enable-background="new 0 0 303.7 74"><style type="text/css">.st0{display:none;} .st1{display:inline;fill:#808080;} .st2{display:inline;fill:#FFFFFF;} .st3{display:inline;fill:#414141;} .st4{fill:#FFFFFF;} .st5{fill:#414141;}</style><path class="st1" d="M-807.2-73.7h1359.7v398.7h-1359.7z" id="Layer_1"/><g id="good_clouds"><path class="st4" d="M17.1 68.9l-10.1-9.7v-13.8l17-11 17.8-4 25.4-2.3 14 1 11.5-7.1 12.6-8.8 13.3-6.8 24-3 17.7 1.1 14.2 7.8 8 13.4 1.2 1.9 12.6-6.1 8.3-2.5 27.5.2 9.2 8-2 8.9.3 1.6 20.3-.1 13.8.1 13 4.6 6.9 8.4 5.5 10.6-2.9 7.6-4.5.7-47.8-2.2-45.8-.9-51.5.9-32.4-1.4-77.8 2.5z"/><path class="st5" d="M302.2 60.3c-.1-.7-.1-1.4 0-2-.5-1.1-1-2.1-1.4-3.2-1-2.6-1.8-5.1-3.4-7.4-.5-.4-1.2-1-2.1-2l-.5-.6c-6.6-6.3-14.1-10.4-23.4-11.2-7-.6-13.8-.1-20.8.7-6 .7-6 .5-6-5.5s-2.7-9.6-8.3-11.7c-8.6-3.3-17.4-2.5-26.2-1.8-7.4.6-14.3 2.9-21 5.8-3.3 1.4-4.2 2.2-5.6-2.5-1.5-4.8-4.4-8.6-8.9-10.8-7.6-3.7-15.6-6.1-24-6.4-15.8-.6-31.2 1.9-45.8 8.4-8.3 3.7-16.1 8.3-22.8 14.7-1.6 1.5-3.3 1.6-5.2 1.2-2.6-.4-5.2-.8-7.8-1-12.6-.7-24.9 1.9-37 5-8.8 2-16.9 5.7-24 11.6-6.3 5.2-7.7 12.8-2.7 19.2 1.9 2.5 3.9 4.9 6.2 7 2.7 2.5 6 4.1 9.9 4 6.8-.3 13.6-.6 20.5-.7 14.5-.1 29-.1 43.6-.1l30.3-.4c9.9-.1 19.7.1 29.6-.1 11-.2 22-.7 32.9-1 5.8-.1 11.6 0 20.2 0 3.8.1 9.4.3 15.4.6 2.8-.8 6-.4 8.8-.3 3.5.2 7.1.7 10.6 1h1.6c1.5-.3 3-.4 4.6-.3 8.1.5 16.2.6 24.2.9v.3h.9c.2 0 .3.1.5.2h25.599999999999998c.5 0 1 0 1.5.1.1-.1.3-.2.6-.2s.5.2.6.4c4.6.5 4.9.3 7.1-4.2.9-2.5 2-5.3 1.7-7.7zm-6.8 3.6c-.5 3.1-1.2 3.7-4.2 3.4-7.6-.6-15.1-1.3-22.7-1.8-4.7-.3-9.3-.5-14-.6-13.1-.3-26.3-.7-39.4-.9l-6.7.6c-14.9-.1-29.8-.4-44.7-.4-16.7-.1-33.4.1-50 .1-4.7 0-9.3-.6-14-.5-11.9.2-23.7.5-35.6 1-11.7.5-23.4 1.6-35.2 2.1-3.3.1-6.9-.2-10.1-1.3-7.5-2.5-11.4-9.8-6.1-18.6 2.6-4.3 6.2-7.5 11.2-9.2 10.8-3.7 21.6-7.1 33.1-7.6 3.7-.2 7.5.3 11.3.4 4.7.1 9.3.3 14 .2 1.2 0 2.7-.3 3.4-1.1 4-4.6 9.6-6.9 14.5-10.2 1.9-1.3 3.8-2.5 5.6-3.8 6.6-4.5 14-6.9 21.9-7.9 9-1.1 18-2.2 27.2-1.5 9.5.7 16.3 5.3 20.6 13.8 1 1.9 1.7 3.9 2.5 5.9 1.4 3.7 4 4.9 7.7 3.3 4.9-2.1 9.6-4.7 14.6-6.2 10.2-3 20.5-3.8 30.7.7 5.7 2.6 7.7 7.8 4.9 13.3-.4.8-.8 2.4-.5 2.6.8.6 2 1 3.1.9 3.9-.3 7.8-.6 11.7-1.1 8.1-1.1 16.2-.6 24.1.9 9.8 1.9 16.4 8 20.7 16.7.7 1.3.7 2.9.9 3.7-.3 1.6-.4 2.4-.5 3.1z"/></g></svg>