<svg xmlns="http://www.w3.org/2000/svg" viewBox="0 0 35.8 15.5" enable-background="new 0 0 35.8 15.5"><style type="text/css">.st0{fill:#EDEDED;}</style><path class="st0" d="M17.8 14.5c-.6-.3-1.2-.6-1.7-1-4.9-3.7-9.8-7.5-14.6-11.2-.2-.2-.1-.6-.2-.8.5 0 1.1-.1 1.5.1 4.2 2.6 8.5 5.1 12.6 8 2 1.4 3.4.3 4.9-.6 4.2-2.4 8.4-4.9 12.6-7.2.3-.1.7.1 1.1.2-.1.4 0 .9-.3 1l-15.1 11.1c-.2.1-.5.2-.8.4zM-60.7 12.5c0-3.1 2.2-2.2 3.3-2.4 6.5-1.2 13-2.1 19.5-3.1.3 0 .7.3 1.1.5-.3.4-.5 1.1-.9 1.2-4.5 1.1-9 2.2-13.6 3.2-2.8.6-5.7 1.2-8.6 1.6-.2 0-.7-.9-.8-1zM-38.3 4.3c-7.1-.7-13.8-1.3-20.4-2-.4 0-.8-1-1.2-1.5.5-.3 1-.7 1.5-.7 6.7.2 13.4.4 20.1.8.5 0 1.3 1.3 1.4 2 0 .4-1 1-1.4 1.4zM-59.3-2.2c-.4-.6-.9-1.2-1.2-2-.1-.1.7-.8 1.1-.9 6.2-1.2 12.4-2.4 18.6-3.5.7-.1 1.5 0 2.3.1.3.1.6.6.7 1 0 .2-.5.6-.8.7l-19.8 4.4c-.2.1-.3.1-.9.2z"/></svg>