<?xml version="1.0" encoding="utf-8"?>
<!-- Generator: Adobe Illustrator 18.1.0, SVG Export Plug-In . SVG Version: 6.00 Build 0)  -->
<!DOCTYPE svg PUBLIC "-//W3C//DTD SVG 1.1//EN" "http://www.w3.org/Graphics/SVG/1.1/DTD/svg11.dtd">
<svg version="1.1" id="Layer_1" xmlns="http://www.w3.org/2000/svg" xmlns:xlink="http://www.w3.org/1999/xlink" x="0px" y="0px"
	 viewBox="0 0 612 607.2" style="enable-background:new 0 0 612 607.2;" xml:space="preserve">
<g>
	<path d="M58.6,468.9c0.1-0.5,0.3-1,0.2-1.4c-0.2-0.6-0.1-1.1,0.2-1.7c0.2-0.4,0.1-1,0.1-1.6c0-0.5-0.1-1-0.1-1.6
		c-0.3-0.1-0.6-0.1-1.1-0.2c0-0.4-0.1-0.9,0.1-1.1c1.7-1.7,1.4-3.8,1.4-5.9c0-1.9,0.2-3.8,0.1-5.7c0-1.5-0.2-2.9-0.3-4.2
		c0.2-1.1,0.4-2.1,0.4-3.1c0-1.8-0.1-3.5-0.1-5.3c0-0.3,0.2-0.6,0.3-1c0.1-0.4,0.4-0.9,0.2-1.2c-0.7-1.8,0.3-3.6-0.1-5.4
		c-0.2-0.8,0-1.7,0.1-2.6c0.4-8,0.8-16,1.2-24c0.1-2.7,0.1-5.5,0.2-8.2c0.2-4,0.6-8,0.8-12c0.2-3.5,0.4-7,0.6-10.4
		c0.2-2.9,0.4-5.9,0.5-8.8c0.2-3.2,0.3-6.4,0.5-9.6c0.2-3,0.6-6,0.8-9c0.3-4.9,0.4-9.9,0.7-14.8c0.1-1.7,0.4-3.4,0.5-5.1
		c0.2-4.5,0.5-9,0.6-13.5c0.2-4.1,0.3-8.2,0.4-12.3c0.1-1.4,0.3-2.9,0.5-4.3c0.1-0.7,0-1.3,0-2.5c-1.1,0.7-2,1.1-2.5,1.8
		c-1.3,1.6-3,2.6-4.6,3.7c-2.3,1.7-4.5,3.4-6.2,5.9c-1.2,1.8-3,3.2-4.5,4.7c-0.7,0.7-1.5,1.2-2.1,1.9c-1.9,2.4-4.6,3.8-6.9,5.7
		c-0.1,0-0.1,0.1-0.2,0.1c-0.8,0.5-6.7,0.5-7.5,0c-0.9-0.5-1.6-2.3-1.3-3.4c0.4-1.4,0.7-2.8,1.1-4.1c0.1-0.3,0.2-0.5,0.4-0.7
		c1.3-1.9,2.9-3.7,3.8-5.7c0.7-1.6,1.9-2.7,3-4c0-0.1,0.1-0.1,0.1-0.1c0.3-0.8,0.4-1.7,0.8-2.4c0.5-0.7,1.2-1.1,1.6-2
		c1.2-2.1,2.7-4,4.1-6.1c0.9-1.4,1.7-2.9,2.6-4.3c0.3-0.6,0.7-1.1,1.2-1.6c0.3-0.4,0.7-0.6,1.1-0.9c0.8-0.8,1.3-1.7,0.5-2.7
		c1.9-1.6,3.7-3.1,5.6-4.8c-0.5-0.6-0.8-1-1.2-1.5c0.4-1.2,1.4-0.7,2.2-1.1c0.4-0.6,0.8-1.2,1.2-1.9c-0.4-0.7-0.8-1.4-1.2-2.1
		c1.3-1.2,2.9-0.3,3.7-0.7c1.7-2.4,3.1-4.5,4.7-6.7c0.6,0.4,1.1,0.7,1.7,1.1c0.7-0.4,1.4-0.9,2.2-1.4c-0.1-0.5-0.2-1-0.2-1.5
		c0.1-0.8,0-1.6,1.4-1.5c0.9,0.1,1.8-0.6,2.8-1c-0.4-0.8-1.2-1-1.9-1.2c-1.5-0.4-2.3-1.3-2.4-2.9c0-0.9-0.3-1.8-0.7-2.5
		c-0.4-0.9-0.4-1.5,0.2-2.3c0.4-0.6,0.7-1.4,1-2.2c0.4-1.2,1-2,2.2-2.7c2.1-1.3,4.3-1.9,6.5-2.7c1.9-0.7,3.6-1.9,5.4-2.8
		c2.5-1.2,5.1-2.2,7.6-3.5c2.7-1.4,5.6-2.1,8.6-2.6c0.4-0.1,0.9-0.1,1.2-0.4c3.2-2.3,6.9-3.8,9.8-6.6c0.4-0.4,0.9-0.9,1.2-1.4
		c0.4-0.9,1-1.6,2-2c0.2-0.1,0.5-0.2,0.5-0.3c0.1-1.6,1.4-1.6,2.4-2.1c1.1-0.5,1.4-1.6,2.1-2.5c0.7-0.8,2.3-0.5,2.6-1.7
		c0.4-1.6,2.1-2.1,2.6-3.7c0.3-1,1.7-1.9,2.8-2.2c2-0.5,2.2-2.9,4-3.4c-0.4-1.5,1.1-1.4,1.6-2.1c0.7-0.9,1.5-1.7,2.2-2.6
		c0.2-0.2,0.4-0.5,0.6-0.5c2.4-0.8,3.9-2.9,5.9-4.4c1.7-1.3,3.5-2.5,4.8-4c1.1-1.3,2.8-1.9,3.7-3.4c0.2-0.4,0.8-0.5,1.2-0.8
		c0.3-0.2,0.9-0.4,1-0.7c0.4-1,1.2-1.4,1.9-2c2-1.7,3.8-3.5,5.7-5.2c2.1-1.9,4.3-3.8,6.4-5.7c3-2.7,5.9-5.4,8.9-8
		c1.6-1.4,3.2-2.6,4.8-3.9c0.6-0.5,1.1-1.1,2.1-2c-4.4-0.1-7.1-2.4-9.7-5.4c0.4-0.7,0.6-1.5,1.1-2.1c2.2-2.4,4.6-4.3,8.2-4.4
		c2.6,0,5.1,0,7.7-0.4c1.1-0.2,2.3,0.3,3.4,0.2c3.3-0.3,6.2-1.3,8.3-4.1c0.7-1,1.9-1.7,2.9-2.6c1.6-1.4,3.3-2.9,4.9-4.3
		c2.5-2.2,5-4.4,7.5-6.6c0.9-0.8,1.8-1.7,2.7-2.5c0.4-0.4,0.8-1,1.4-1.2c1.4-0.7,2.7-1.6,3.2-3.3c0.1-0.5,0.9-0.7,1.4-1
		c0.5-0.3,1.2-0.3,1.4-0.7c1-1.6,2.8-2.2,3.8-3.6c1-1.3,2.4-2.2,3.5-3.5c0.6-0.7,1.4-1.3,2.1-1.9c2.6-2.4,5.2-4.8,7.8-7.2
		c0.3-0.2,0.4-0.6,0.7-0.7c2.8-0.9,4-3.4,5.9-5.2c0.7-0.7,1.7-1.2,2.3-2c1.4-1.7,3.6-2.6,5-4.1c3.8-4.1,8.5-7.2,12.7-11
		c3-2.8,6.1-5.5,9.2-8.1c1.7-1.5,3.5-2.8,5.2-4.3c0.6-0.5,1.1-1.1,1.7-1.7c-0.8-1.1-1.7-0.7-2.6-0.6c-2.4,0.2-4.9,0.4-7.3,0.4
		c-1.4,0-2.4-0.8-2.8-2c-0.4-1.2-0.4-2.5,0.7-3.4c0.6-0.5,0.9-1,0.8-1.8c-0.2-1.8,1.1-3,1.8-4.5c0.1-0.2,0.2-0.4,0.4-0.4
		c1.6-0.8,3.2-1.5,4.8-2.3c0.3-0.1,0.7-0.4,1-0.3c1.5,0.5,3-0.3,4.4-0.1c2.3,0.2,4.5-0.5,6.7-0.8c1-0.2,2-0.5,3-0.6
		c2.6-0.4,5.1-1.2,7.5-2c1.4-0.5,2.9-0.8,4.3-1.3c0.9-0.3,1.8-0.8,2.5-1.4c3-2.8,5.9-5.7,9.4-7.8c0.4-0.2,0.7-1,0.7-1.6
		c0-2.7,0-5.5,0-8.2c0-1.9-0.3-3.8-1.5-5.5c-0.6-0.9-0.2-2.2,0.9-2.7c2.4-1.1,4.8-2.3,7.3-3.1c1.7-0.6,3.7-0.9,5.4-0.7
		c1.2,0.2,2.6,1.2,3.4,2.2c1,1.2,1.7,2.6,1.1,4.4c-0.2,0.6,0,1.4,0,2.5c1.1-0.3,1.9-0.5,2.6-0.7c1.6-0.4,3.3-1.1,4.9-1.2
		c1.3,0,2.7,0.6,3.8,1.4c2.2,1.7,4.3,3.5,5.6,6.1c0.5,0.9,1.4,1.7,2.2,2.4c1.7,1.6,3.5,3.1,5.1,4.8c1.7,1.8,3.1,3.8,4.7,5.6
		c0.5,0.6,1.2,1.1,1.8,1.6c1.3,1.1,2.6,2.2,3.8,3.4c2,2,4,4,5.9,6.1c1.7,1.8,3.3,3.6,5,5.4c1.5,1.6,3.1,3.1,5.3,4
		c2.4,0.9,4.6,2.3,6.9,3.5c2.6,1.4,5.2,2.7,7.7,4.1c1,0.6,1.9,1.3,2.9,1.9c0.9,0.5,1.9,1,2.9,1.5c0.2,0.1,0.5,0.3,0.7,0.4
		c1,0.7,1.9,1.5,2.9,2.2c1.4,1.1,3.1,1.7,4,3.4c0.3,0.5,1.1,1.1,1.6,1.1c1.6,0.2,2.6,1.2,3.7,2.1c0.6,0.5,1.3,1.1,2.1,1.3
		c1.3,0.3,1.9,1.1,1.9,2.3c0,1.3-0.8,2.3-1.9,2.7c-1.1,0.4-2.4,0.6-3.6,0.7c-0.9,0.1-1.7,0.1-2.9,0.1c0.4,0.7,0.5,1.1,0.8,1.4
		c2.5,2.6,4.9,5.3,7.7,7.6c2.3,1.8,4.2,4,6.5,5.8c1.5,1.1,3.1,2.1,4.3,3.7c1,1.3,2.8,2.1,4.2,3.2c0.6,0.5,1.1,1,1.6,1.6
		c1.4,1.4,2.9,2.7,4.3,4.1c2,1.9,4,3.7,6,5.6c0.3,0.3,0.6,0.6,0.9,0.8c2.8,2,5,4.6,7.5,7c1.3,1.2,2.6,2.3,4,3.5
		c2,1.7,4.2,3.1,5.8,5.1c2.3,2.7,5.5,2.8,8.5,3.7c1.6,0.5,3.1,0.8,4.7,1.2c1.9,0.4,3.8,0.7,5.6,1.1c0.6,0.1,1.2,0.3,1.8,0.3
		c2.2,0,2.9,1.8,3.9,3.1c0.5,0.7,0.3,1.7-0.5,2.2c-1.6,0.8-2.9,2.2-4.8,2.6c-1.2,0.3-2.3,1.1-3.7,1.8c1.2,1.4,2.1,2.7,3.2,3.8
		c1.5,1.6,3.1,3,4.7,4.6c1.2,1.2,2.4,2.4,3.6,3.6c0.2,0.2,0.6,0.4,0.7,0.7c1.5,2.5,3.9,4.1,5.7,6.3c0.4,0.5,0.8,0.9,1.3,1.3
		c0.6,0.4,1.1,0.7,1.2,1.5c0.1,0.5,0.6,0.9,1,1.2c2.9,1.9,5,4.6,7.5,6.9c2.1,2,4.4,3.9,6.5,5.8c0.2,0.2,0.5,0.3,0.7,0.3
		c2.7,0.4,5.1,1.6,7.7,2.3c2.6,0.7,4.9,1.9,7.4,2.8c2.5,0.9,5.3,1.3,7.3,3.4c0.1,0.1,0.4,0.4,0.5,0.3c2.3-0.7,3.2,1.8,5,2.1
		c1.7,2.3,5,3.7,4,7.7c-1.9,1.2-4.3,1.2-6.6,1.1c-1.2-0.1-2.4-0.4-3.7,0.3c0.2,1.3,1.3,1.9,2.2,2.6c2,1.6,3.2,3.8,4.6,5.7
		c0.5,0.6,0.5,1.5,0.7,2.3c0.2,0.8,0.4,1.6,0.7,2.6c-0.3,1-1.1,1.8-2,2.6c-0.9,0.9-1.5,2.1-2.1,3.1c-0.2,0.3-0.3,0.8-0.6,1.1
		c-1.3,1.2-2.8,2.4-4,3.7c-1.2,1.3-2.2,2.7-3.3,4.1c-0.4,0.5-0.7,1.1-1.1,1.7c-0.2,0.3-0.4,0.6-0.4,0.9c0.4,2.7-0.4,5.5,1.2,8.1
		c1.5,2.4,1.4,5.4,1.7,8.1c0.3,2.6,0.6,5.3,0.8,7.9c0.1,1.2,0,2.3,0.1,3.5c0.2,2.2,0.5,4.5,0.8,6.7c0.2,1.3,0.4,2.7,0.4,4
		c0.1,5.2,0.9,10.4,1.5,15.6c0.2,2,0.7,3.9,1,5.8c0.2,1.7,0.3,3.4,0.6,5.1c0.6,3.6,1.3,7.1,1.8,10.7c0.3,1.8,0.3,3.5,0.5,5.3
		c0.2,1.6,0.6,3.2,0.8,4.9c0.5,3.7,0.8,7.3,1.3,11c0.3,2,0.3,3.9,0.5,5.9c0.2,3.3,0.8,6.5,1.3,9.7c0.2,1.5,0.5,3,0.7,4.4
		c0.2,1.8,0.2,3.7,0.4,5.5c0.6,4,0.7,8,1.6,11.9c0.9,3.9,1.1,7.8,0.9,11.8c-0.1,0.9-0.1,2,0.2,2.8c0.6,1.4,0.2,2.8-0.3,4
		c-0.7,1.7-1.5,3.5-3.6,4.2c-0.5,0.2-0.9,0.7-1.1,1.1c-0.9,1.6-2.2,2.9-3.6,4.1c-1.1,0.9-2.1,2-2.9,3.1c-0.7,1-1.6,1.6-2.5,2.3
		c-1,0.9-1.6,2.3-2.5,3.4c-1.1,1.4-2.3,2.7-3.4,4c-0.6,0.7-1.2,1.5-1.8,2.3c-2,2.6-4,5.3-6.1,7.9c-1.1,1.3-2.5,2.3-3.6,3.5
		c-0.6,0.6-1,1.4-1.6,2.1c-0.6,0.8-1.3,1.5-2,2.3c-1.1,1.1-2.2,2.2-3.2,3.4c-0.6,0.7-1,1.6-1.6,2.3c-0.9,1.1-1.8,2.1-2.7,3.2
		c-0.5,0.7-0.9,1.4-1.5,2.1c-0.9,1-1.9,1.9-2.8,2.9c-0.9,1-2,1.9-2.8,3c-0.8,1-1.3,2.2-2.6,2.8c-0.2,0.1-0.5,0.4-0.5,0.6
		c0.2,1.5-1.1,1.9-1.9,2.8c-1.5,1.8-2.8,3.8-4.2,5.7c-0.3,0.4-0.6,0.9-0.9,1.3c-0.8,1-1.6,2-2.5,2.9c-1.2,1.2-1.7,2.8-2.9,4.1
		c-3.4,3.7-6.6,7.6-9.8,11.5c-1.6,2-3.1,4.1-4.7,6.2c-0.4,0.5-0.8,0.9-1.3,1.3c-2.9,2.7-5.3,6-8.3,8.7c-1.8,1.6-3.1,3.8-4.6,5.8
		c-1.7,2.3-3.4,4.5-5,6.9c-0.6,0.8-0.9,1.9-1.5,3.2c-1.6,1.2-3.3,3-4.2,5.5c-0.3,0.7-1,1.3-1.4,2c-0.6,0.9-1.1,1.9-1.6,2.8
		c-0.6,1-1,2-2,2.8c-1,0.8-1.7,1.9-2.4,3c-0.7,1-2,1.8-1.7,3.3c0,0.1-0.1,0.2-0.2,0.3c-1.5,1.9-3,3.9-4.6,5.8
		c-0.3,0.3-0.5,0.6-0.8,1c-1.8,2.8-3.4,5.7-5.3,8.5c-1.6,2.4-3.4,4.8-5.3,6.9c-0.9,1-0.9,2-1,3.1c-0.1,1,0,2,0,3.1
		c-2,0.4-2.2,2.2-3,3.6c-1.1,2-2,2.3-4.3,2.2c-3.6-0.3-7.3-0.3-10.9-0.4c-5.1-0.1-10.3,0-15.4-0.1c-5.3-0.2-10.6-0.6-16-0.9
		c-1.8-0.1-3.7,0.1-5.5,0c-3.1-0.3-6.2-0.7-9.3-1.1c-0.2,0-0.4-0.1-0.6-0.1c-4.1-0.2-8.1-1.1-12.2-1c-1.4,0-2.9-0.6-4.3-0.3
		c-2.7,0.4-5.3-0.6-7.9-0.6c-1,0-1.9-0.2-2.9-0.3c-1.8-0.2-3.5,0.2-5.2,0.8c-1.2,0.4-2.2,0.5-3.4,0c-0.6-0.3-1.3-0.3-2-0.3
		c-2-0.1-4.1,0.1-6.1-0.2c-2.4-0.4-4.7-0.5-7.1-0.7c-4.1-0.5-8.1-1-12.2-1.4c-1.4-0.1-2.9,0.1-4.3,0.2c-2,0.2-4,0.5-5.9,0
		c-2.8-0.7-5.5-0.7-8.4-0.6c-2.9,0.1-5.7-0.1-8.6-0.3c-1.5-0.1-3-0.2-4.5-0.3c-2.3-0.1-4.5-0.4-6.8-0.4c-2.8,0-5.6,0.2-8.4,0.3
		c-0.5,0-1,0.1-1.4,0c-5.7-1-11.4-0.6-17.2-0.7c-6.5-0.1-13,0-19.6,0c-4.2,0-8.5-0.1-12.7-0.3c-2.8-0.2-5.5,0.1-8.3,0.3
		c-1.4,0.1-2.7,0-4.1,0c-3.2-0.1-6.5-0.2-9.7-0.4c-2.2-0.1-4.3-0.4-6.5-0.4c-3.5-0.1-7-0.1-10.4,0c-3,0.1-6,0.2-9,0.4
		c-4.6,0.4-9.3,0.9-13.9,1.3c-3.1,0.3-6.3,0.5-9.4,0.9c-6.3,0.7-12.5,0.7-18.8,0.8c-2.2,0-4.4,0.5-6.5,0.5c-2.8,0-5.6-0.2-8.4-0.3
		c-1.1,0-2.2-0.1-3.3-0.1c-3.5,0.1-6.9,0-10.4,0.3c-4.6,0.4-9.3,0-13.9,1.1c-2,0.5-4,0.7-6.1,0.8c-1.5,0.1-3-0.1-4.5-0.4
		c-1.6-0.4-2.1-1.9-2.1-3.2c0-2.1-0.7-4-1.4-5.9c-0.5-1.5-0.8-3-1.2-4.6c0-0.1,0-0.3,0-0.4c0-1.1-0.4-4.1-0.9-4.8
		c-0.7-1.1-0.6-2.1-0.2-3.3c0.6-2.1,1.2-4.1,1.7-6.2c0.3-1.1,0.2-2.3,0.3-3.5c0.2-1.4,0.5-2.8,0.6-4.2c0.1-1.1,0.1-2.2,0-3.2
		c-0.1-4.3-0.2-8.5-0.3-12.8c0-0.5,0.2-0.9,0.3-1.5c-0.4-0.4-0.8-0.9-1.4-1.5c1-0.3,1.4-0.9,1.4-1.9c0.2-2.5,0.7-5,0.9-7.5
		c0.3-3.9,0.6-7.8,0.6-11.7c0-1.1,0.2-2.1,0.4-3.2c0.3-1.3,0.7-2.7-0.7-3.8c0.3-0.5,0.7-1,1-1.5c-0.3-1-0.6-1.9-0.9-2.7
		c2-1.6,2.1-1.9,1.3-4.2c-0.4-1.2-1.3-2.3-0.4-3.7c0.1-0.2-0.4-0.7-0.7-1.2c0.4-0.2,0.8-0.4,1.2-0.6
		C58.6,469.9,58.6,469.3,58.6,468.9C58.7,468.8,58.6,468.9,58.6,468.9z M449.8,320.5c0-0.9,0-1.8,0-2.7c-0.2,0-0.4,0.1-0.6,0.1
		C449.4,318.7,449.6,319.6,449.8,320.5c0.1,3.5,0.1,6.9,0.2,10.4c0,2.4,0,4.8,0.1,7.2c0,0.9,0.4,1.9,0.4,2.8c0,1.9-0.1,3.8-0.1,5.7
		c0,1-0.1,2.1-1,2.8c-0.2-0.1-0.4-0.2-0.6-0.2c-1.8,0.1-2.4-0.4-2.4-2c-0.1-2.5-0.3-5.1-0.3-7.6c0-7.1-0.8-14.1-1.5-21.1
		c-0.3-2.9-0.7-5.8-1.2-8.7c-0.3-1.7-0.9-3.4-1.4-5.2c-0.2,0-0.3,0.1-0.5,0.1c0,0.7,0.1,1.3,0,2c-0.1,0.8-0.3,1.6-0.5,2.4
		c-0.2,1-1.2,1.2-1.9,1.1c-0.5-0.1-1-0.8-1.3-1.4c-0.3-0.4-0.3-1-0.5-1.4c-0.1,0-0.3,0-0.4,0c-0.6,1.6-0.4,3.4-0.4,5.1
		c0,1.2,0.3,2.3,0.3,3.5c0.1,3.1,0.1,6.3,0.2,9.4c0.1,2.4,0.3,4.7,0.5,7.1c0,0.3,0,0.8-0.2,0.9c-1.4,1.1-1.2,2.5-0.9,3.9
		c0.1,0.6,0.1,1.2,0,1.8c-0.1,2.7-0.3,5.4-0.4,8.2c-0.1,1.4-0.1,2.9-0.2,4.3c0,0.4-0.2,1.1-0.5,1.3c-0.8,0.5-1.8,1-2.7,0.4
		c-0.9-0.5-1.5-1.3-1.5-2.5c0.1-4.1,0.3-8.2,0.3-12.3c0-2.5-0.2-5.1-0.3-7.6c-0.1-4.4,0-8.7-0.1-13.1c0-1.5,0.1-3-1.5-4
		c-0.1-0.1-0.1-0.3-0.1-0.4c1.5-2.7,1.5-7.7,0.3-11c-0.7,0.2-1.4,0.6-2.2,0.7c-1.3,0.1-1.4,0.8-1.2,1.8c0.4,2.9,0.4,5.7-0.1,8.6
		c-0.4,1.9-0.2,3.9-0.2,5.9c0,2.6,0.2,5.2,0.2,7.8c0,2.9-0.2,5.7-0.3,8.6c-0.1,1.4-0.1,2.7-0.2,4.1c-0.3,3.5-0.7,7.1-0.9,10.6
		c-0.2,2.7-0.1,5.4-0.1,8.1c0,1.6,0.1,3.1-0.1,4.7c-0.2,1.5-0.8,2.9,0.3,4.3c0.1,0.1,0.1,0.4,0,0.6c-0.9,2.5-0.2,5.1-0.4,7.7
		c-0.2,3.3-0.2,6.6-0.2,9.8c0,4.4,0.2,8.8,0.2,13.2c0,2.7,0,5.3,0,8c0,0.3-0.2,0.5-0.2,0.8c0,0.7-0.1,1.4,0,2c0.4,2.5,0.5,5,0.1,7.6
		c-0.1,0.4,0,0.8,0,1.2c0.1,1.1,0.3,2.1,0.4,3.2c0.1,2.7,0.1,5.3-0.3,7.9c-0.3,2.4,0.3,4.8-0.3,7.3c-0.9,4-0.5,8.1-0.6,12.2
		c-0.1,4.5,0,9,0,13.5c0,1.2,0.2,2.3,0.2,3.5c0,2.3-0.1,4.5-0.2,6.8c0,0.5-0.3,1.1-0.1,1.6c0.8,2.8,0.3,5.6,0.3,8.3c0,3-0.2,6-0.3,9
		c-0.1,4.4-0.1,8.7-0.2,13.1c-0.1,2.5-0.5,4.9-0.6,7.4c-0.1,2.1-0.1,4.2,0,6.3c0,1.3,0.2,2.5,0.3,4.1c0.6-0.5,1.1-0.8,1.4-1.1
		c0.7-0.7,1.4-1.5,2.2-2.2c1-1,2.2-1.9,3.2-2.8c0.4-0.4,0.7-1,1.1-1.4c0.5-0.6,1.4-1,1.6-1.7c0.2-0.8-0.1-1.7-0.2-2.6
		c-0.1-0.9-0.4-1.9-0.5-2.8c-0.1-3.4,0.3-6.7,0.9-10c0.2-1,0.4-2.1,1-2.9c1.4-2,2.6-4.3,4.6-6c0.7-0.6,1.3-1.4,1.8-2.2
		c0.8-1.1,0.7-1.7,0-2.9c-0.8-1.4-1.3-2.8-2-4.2c-1-2-0.4-4.2-0.5-6.3c0-1.9-0.1-3.7,1.5-5.2c0.3-0.3,0.3-0.9,0.5-1.3
		c0.4-0.9,0.7-1.9,1.3-2.8c0.7-1,1-1.9,0.4-3c-0.2-0.3-0.1-0.7-0.2-1c1.3-1.6,2.7-2.6,4.8-1.6c0.3,0.1,0.7,0.1,1,0.2
		c3.1,0.5,4.1,2,3.1,5c-0.1,0.3-0.2,0.7-0.4,1c-0.6,1.2-1.2,2.4-1.9,3.6c-1.7,2.8-2.4,5.8-2.1,9c0.1,1.5,0.5,3.2,1.4,4.4
		c0.9,1.2,1.2,2.5,2,3.7c0.5,0.8,0.4,1.6-0.1,2.3c-1.5,1.9-2.8,3.9-4.4,5.6c-2.6,2.9-3.8,6.2-4.2,10c0,0.1,0.2,0.3,0.4,0.7
		c2.3-2.5,4.5-4.9,6.7-7.4c3-3.5,5.8-7.1,8.8-10.5c2.5-2.9,5.3-5.5,7.8-8.4c0.8-0.9,1.1-2.2,2-3c3.5-3,5.8-7.1,8.9-10.4
		c0.9-1,1.9-1.9,2.7-3c3.7-4.5,7.3-9.1,10.9-13.6c2.5-3.1,5.1-6.3,7.7-9.3c1.9-2.2,4-4.3,5.9-6.5c3.9-4.5,7.7-9.1,11.6-13.6
		c1.2-1.3,2.5-2.5,3.7-3.9c2.4-2.9,4.7-5.8,7.1-8.7c1.4-1.7,2.8-3.5,4.3-5.2c1.2-1.4,2.3-2.8,3.5-4.2c0.6-0.7,1.2-1.4,1.8-2.2
		c1.3-1.6,2.6-3.2,4-4.7c0.6-0.7,0.9-1.5,0.8-2.5c-0.3-2.4-0.5-4.9-0.8-7.3c-0.4-2.8-1-5.5-1.3-8.3c-0.2-1.8-0.2-3.7-0.4-5.5
		c-0.4-4-1-8-1.5-12c-0.6-5.3-1-10.6-1.6-15.9c-0.2-2.1-0.6-4.2-0.9-6.3c-0.2-1.7-0.3-3.5-0.8-5.1c-0.6-1.8-0.7-3.5-0.8-5.4
		c0-1-0.1-1.9-0.2-2.9c-0.3-2.4-0.8-4.7-1.1-7.1c-0.5-4.3-1-8.7-1.5-13c-0.5-4.4-0.9-8.7-1.4-13.1c-0.2-1.7-0.1-3.4-0.3-5.1
		c-0.5-3.9-1.2-7.8-1.6-11.8c-0.2-1.8-0.7-3.6-0.2-5.5c0.2-0.9,0.2-1.9-0.7-2.9c-1.6,1.2-3.1,2.4-4.2,3.2c-0.4,4,0.9,7.5-0.4,11.1
		c1.2,0.3,2.2,0.6,3.2,0.8c0.2,2-1.8,4.8-3.5,5.1c-1.8,0.4-1.9,0.5-1.8,2.3c0,0.9,0,1.8,0,2.7c-0.1,3.1-0.4,6.1-0.3,9.2
		c0,2.5-0.1,4.9-0.7,7.3c-0.5,0-0.9,0.1-1.3,0.1c-1.5,0.3-1.7,0.1-1.8-1.3c0-0.3,0-0.5,0-0.8c0-5.9-0.1-11.9-0.1-17.8
		c0-0.4-0.2-0.7-0.4-1.3c-2.8,0-5.6,0-8.3,0c-0.1,3.4-0.3,6.7-0.4,10c-0.1,4-0.2,7.9-0.4,11.9c0,0.6-0.2,1.2-0.3,1.8
		c-0.2,1-0.5,2-0.6,3c-0.1,1.3-0.5,2.2-1.9,2.4c-1.2-0.5-1.4-1.4-1.3-2.5c0.1-3.8,0.2-7.7,0.1-11.5c-0.1-4.4-0.5-8.8-0.7-13.1
		c0-0.4-0.3-0.8-0.5-1.6c-1.7,1.5-3.1,2.8-4.6,4.1c-0.8,0.7-0.9,1.4-0.3,2.3c0.3,0.5,0.3,1.2,0.4,1.8c0.1,1.6,0.1,3.1,0.2,4.7
		c0.2,3,0.5,6,0.5,9c0,2.2-0.7,2.9-2.9,3.5c-1.2-1.3-1.4-2-1.6-4.3c-0.3-3.4-0.8-6.8-1.3-10.2c-0.1-0.4-0.4-0.8-0.7-1.5
		c-1.2,0.9-2.3,1.5-2.1,3.1c0.3,2.5,0.4,5,0.6,7.5c0.1,1.1,0,2.1,0.1,3.2c0.3,6.4,0.6,12.9,0.9,19.3c0.1,1.3-0.1,2.6-0.3,3.9
		c0,0.4-0.3,0.8-0.4,1.1c-0.4,0.9-1.3,0.9-2.1,0.8c-0.8-0.1-0.9-0.7-0.9-1.4c-0.1-1.3-0.2-2.6-0.3-3.9c-0.2-3.4-0.3-6.7-0.5-10.1
		c-0.2-2.5-0.5-4.9-0.8-7.3c-0.3-2.4-0.6-4.7-1-7.1c-0.1-0.5-0.3-1-0.5-1.4c-0.3,0-0.5,0-0.5,0.1c-2.9,2.8-5.9,5.6-8.8,8.4
		c-0.2,0.2-0.4,0.8-0.3,1.1c0.3,2,0.6,4,1,6c0.5,2.7,0.5,5.4,0.1,8.1c-0.2,1.4-0.8,1.7-2.1,1.6c-1.1-0.1-1.7-0.7-2-2
		c-0.2-0.7-0.3-1.5-0.5-2.3c-0.5,0.5-0.6,1-0.6,1.6c0.1,1.4,0.2,2.9,0.3,4.3c0.1,2.8,0.2,5.6,0.1,8.4c0,2.8-0.3,5.6-0.4,8.2
		c-0.5,0.3-0.6,0.5-0.8,0.6c-1.9,1-2.6,0.5-2.6-1.6c-0.1-3.1-0.1-6.3-0.3-9.4c-0.2-4.7-0.5-9.4-0.8-14.1c0-0.7-0.3-1.3-0.5-2.2
		c-1.3,0.6-2.6,0.9-3.4,1.7c-1,1-2.4,0.5-3.4,1.2c-0.1,0.3-0.2,0.5-0.2,0.6c0.1,1.3,0.4,2.6,0.3,3.9c0,1.4-0.2,2.8-0.4,4.2
		c0,0.3-0.4,0.8-0.7,0.9c-1.9,1-3.2,0.3-3.5-1.8c-0.1-0.3,0-0.7-0.1-1C450.1,323.4,450.9,321.8,449.8,320.5z M400.2,542.1
		c0.1-0.5,0.3-1,0.3-1.5c0.2-3.5,0.4-7,0.5-10.4c0.1-4.4,0.2-8.9,0.3-13.3c0.1-4.8,0.1-9.6,0.1-14.4c0-2.4-0.2-4.8-0.3-7.2
		c-0.1-3.7-0.2-7.4-0.2-11.1c0-2.1,0.2-4.2,0.3-6.4c0.1-4,0.1-8,0.2-11.9c0.1-3.3,0.5-6.5,0.5-9.8c0.1-5,0.1-10,0.2-15
		c0.1-4.3,0.3-8.6,0.4-12.9c0.1-5.7,0.2-11.4,0.2-17.2c0-0.5-0.1-1.1-0.2-1.6c0-0.7,0-1.5,0-2.2c0-0.5,0.1-0.9,0-1.4
		c0-2.7-0.1-5.3-0.1-8c0-0.8,0-1.6,0.1-2.5c0.1-2.6,0.2-5.2,0.3-7.8c0.2-3.4,0.5-6.8,0.6-10.2c0.1-2.6,0-5.2,0.1-7.8
		c0.3-7,0.6-14.1,1.1-21.1c0.2-2.8,0.4-5.5,0.4-8.3c0-3.6,0.3-7.2,0.4-10.9c0.1-3.6,0-7.1,0.2-10.7c0.1-3.3,0.7-6.5,0.7-9.8
		c0-4,0.5-8,0.8-12c0.5-7.9,1-15.7,1.5-23.6c0.1-0.9-0.1-1.6-0.8-2.2c-1.5-1.2-2.3-2.7-1.8-4.8c0.4-0.3,0.8-0.6,1.3-1
		c-0.3-0.8-0.9-1.6-0.9-2.3c-0.1-1.2-0.3-2.1-1.3-2.9c-0.8-0.6-1.6-1.4-2.3-2.1c0,1.3,0.2,2.5,0.7,3.5c0.9,1.6,0.8,3.1-0.3,4.9
		c-0.7-0.1-1.7,0.1-2.3-0.3c-0.8-0.5-1.4-1.3-1.9-2.1c-1.6-2.7-2.2-5.7-2.1-8.8c0-0.4,0.2-0.9,0.4-1.3c0.9-1.5,0.9-1.7-0.2-3
		c-0.6-0.7-1.3-1.3-2.1-2c-0.2,0.5-0.2,0.9-0.4,1.2c-1.1,1.7-2.2,1.9-3.6,0.5c-0.6-0.6-1.2-1.3-1.6-2.1c-1.6-3-2.7-6.1-3.1-9.6
		c-0.6,0.3-1.1,0.6-1.7,0.9c-1-1.1-2.2-2-3-3.2c-1.3-2.2-2.9-4.3-3.4-6.9c-0.3-1.3-1.3-2.3-2.7-2.8c-0.2,0.3-0.4,0.4-0.5,0.6
		c-0.9,1.4-1.6,1.7-2.9,0.7c-0.5-0.3-0.8-0.9-1.2-1.4c-0.7-0.9-1.4-1.9-2.2-2.7c-1.6-1.5-1.8-3.2-0.3-5.2c-1.6-1.6-3.2-3.3-4.8-4.9
		c-0.1,0.1-0.3,0.2-0.4,0.3c0.4,0.9,0.8,1.8,1.3,2.6c0.8,1.4,0.6,3.5-0.5,4.6c-0.8,0.7-1.7,0.7-2.5-0.2c-2.6-3.2-4.4-6.8-5.4-10.7
		c-0.2-0.9-0.6-2.2-0.1-2.7c1.1-1.3,0.3-2.1-0.4-3c-0.5-0.6-1-1.3-1.6-1.9c-1.1-1-2-2.4-3.5-3.1c-0.1,1-0.3,1.9-0.4,2.7
		c-2.4,1.7-3.1,1.5-4.4-1.1c-0.2-0.4-0.5-0.7-0.6-1.1c-1-2.8-2.6-5.5-2.3-8.6c0-0.5-0.2-1.1-0.5-1.5c-0.8-1-1.6-1.8-2.5-2.7
		c-0.6-0.7-1.3-1-2.2-0.5c-1.1,0.7-2.1,0.3-3-0.6c-3.2-3.1-5.6-6.5-5.7-11.2c-1.8-0.8-3.4-2-5.4-0.6c-0.6,0.4-1.4,0.2-1.9-0.4
		c-1.5-1.8-3.3-3.3-3.8-5.7c-0.4-1.6-1.2-3-2.3-4.3c-0.8-0.9-1.5-1.9-2.2-2.9c-0.6-0.9-1.2-1.8-1.8-2.5c-2.2,0.2-2.2,0.2-3.5-1.1
		c-1.2-1.1-2.1-4.3-1.7-6.3c0.2-1.3-2-4.3-3.4-4.3c-0.3,0-0.5,0.1-0.8,0.2c-1.3,0.3-2.5,0.7-3.8,1c-1.4,0.3-2.5-0.1-3.1-1.3
		c-0.8-1.4-1.7-2.6-2.3-4.1c-0.9-2.1-2.3-4.1-2.1-6.6c0-0.5-0.4-1.1-0.7-1.9c-0.5,0.4-0.6,0.6-0.9,0.7c-2.1,1.6-3,1.4-4.4-0.8
		c-0.8-1.3-1.6-2.6-2.3-3.9c-2.1-3.6-4.6-6.9-5.7-11.1c-0.3-1.3-1.4-2.3-3-2.8c0.2,0.7,0.5,1.2,0.6,1.7c0.1,0.5,0,1.1-0.1,1.6
		c-0.3,1.3-1.6,1.8-2.7,0.9c-0.4-0.3-0.7-0.8-1-1.3c-0.4-0.5-0.7-1-1.1-1.5c-1.3,1-2.2,0.3-2.9-0.6c-0.4-0.5-0.7-1-1-1.5
		c-0.3-0.5-0.7-0.9-1.2-1.6c-0.5,0.7-0.9,1-1.1,1.5c-0.7,1.5-1.4,3.1-2.1,4.7c-0.6,1.4-1.6,2-3.1,1.8c-0.5-0.1-1.1-0.2-1.6-0.3
		c-0.6,0-1.3-0.1-1.8,0.2c-2.2,1.3-4.3,2.7-5.2,5.3c-0.6,1.7-1.5,3.4-2.2,5.1c-0.6,1.4-1.2,1.7-2.8,1.5c-0.5-0.1-1.1-0.1-1.6-0.4
		c-1.1-0.6-1.8-0.2-2.5,0.5c-1.4,1.4-2.7,2.9-4.3,4.1c-1.4,1-2.1,2.5-2.4,3.9c-0.4,2.5-1.7,4.6-2.2,7c-0.1,0.7-0.6,1.3-1.4,1.3
		c-1.4,0-2.9,0.1-3.7-1.5c-0.1-0.3-0.5-0.4-0.7-0.7c-2,1.3-3.8,2.6-4.1,5.1c-0.1,0.7-0.4,1.3-0.5,2c-0.2,0.9-0.7,1.3-1.6,1.3
		c-0.4,0-0.8,0-1.2,0c-1.8,0-3.4,0.4-4.5,2c-0.6,0.8-1.4,1.3-2.1,2c-1.3,1.3-2.3,2.9-2.9,4.6c-1.1,2.9-2.3,5.7-3.4,8.6
		c-0.8,2-2.6,1.9-4.3,2.2c-1.4,0.2-1.5-1.2-2-2c-0.1-0.1-0.2-0.1-0.4-0.2c-0.1,0.1-0.4,0.1-0.5,0.2c-1.7,1.3-3.4,2.7-5.2,4
		c-0.4,0.3-0.7,0.6-1.1,1c-1.1,1-2.3,1.9-3.4,3c-1.2,1.1-2.5,2.2-3.3,3.6c-0.7,1.1-0.9,2.6-1.1,3.9c-0.2,1.9-1.2,2.6-2.9,2.8
		c-0.4,0-0.8,0.1-1.1,0.1c-1.3,2.7-1.3,2.7-4.3,2.6c-0.1,0-0.3,0-0.4,0c-1.5,0-3.1,1.1-3.6,2.5c-0.6,1.5-1.1,2.9-1.7,4.4
		c-1,2.3-1.5,2.5-3.9,2.4c-0.3,0-0.5-0.1-0.8-0.1c-2.2-0.3-3.4,0.7-3.6,2.9c-0.1,1.1-0.4,2.1-1.1,3c-0.2,0.3-0.4,0.7-0.5,1.1
		c-0.9,3.2-1.7,6.3-2.5,9.5c-1.1,4.4-2.6,8.6-5.2,12.4c-2,2.8-4.5,4.4-8.1,4.3c-0.9,0-1.3-0.3-1.2-1.2c0.1-1,0.2-2.1,0.5-3
		c0.5-1.6,0.3-3-1.1-4.3c-0.3,0.5-0.7,1-0.9,1.6c-0.7,1.5-2,2.1-3.5,1.6c-0.6-0.2-1.1-0.7-1.7-1c0-0.9,0-1.7,0-2.8
		c-1.2,0.9-2.1,1.6-2.5,2.9c-0.6,1.9-1.2,3.8-1.9,5.6c-0.1,0.4-0.5,1-0.8,1.1c-1.1,0.2-2.3,0.2-3.5,0.1c-0.5,0-0.9-0.7-1.4-1.1
		c-2.4,2-5.3,3.6-5.1,7.4c0,0.2-0.1,0.4-0.2,0.6c-0.3,1-0.9,1.5-2,1.4c-1-0.1-2-0.4-3-0.6c-2.5,1.6-4.4,3.7-4.8,6.9
		c-0.1,1-0.8,1.8-1.9,1.9c-1.2,0.2-2.4,0.2-3.7,0.3c-1.5,1.3-3,2.9-4.7,4.2c-1,0.7-1.4,1.5-1.7,2.7c-0.5,2.3-1.1,4.5-1.7,6.6
		c-1.9,1.3-3.5,0.8-5-0.3c-0.2,0.3-0.4,0.4-0.3,0.5c0.3,2.7-0.6,5.2-1.1,7.8c-0.4,2.4-0.9,4.7-1.2,7.1c-0.2,2.1-0.3,4.2-0.4,6.3
		c0,1.1-0.5,1.9-1.6,2c-1.2,0.1-1.5,0.8-1.6,1.8c-0.1,1.9-0.2,3.8-0.4,5.7c-0.2,2.8-0.5,5.6-0.8,8.4c-0.1,1.1-0.5,2.3-0.2,3.2
		c0.4,1,0.5,1.9,0.2,2.9c-0.2,0.8-0.2,1.6-0.2,2.5c0.1,2.7,0.3,5.3,0,8c-0.2,1.7-0.3,3.4-0.4,5.1c-0.1,3-0.1,6-0.2,9
		c0,0.4-0.1,0.8-0.2,1.2c-0.9,2.7-0.8,5.4-0.6,8.1c0.1,1.3,0.2,2.6,0.2,3.9c0,0.9-0.3,1.8-0.3,2.7c-0.1,4.2,0,8.5-0.4,12.7
		c-0.4,4.5-0.5,9-0.5,13.5c0,1-0.1,2.1-0.1,3.1c-0.1,1.6-0.1,3.3-0.2,4.9c-0.1,1.7-0.1,3.4-0.3,5.1c-0.2,2.1-1,4.2-0.8,6.2
		c0.3,4.3-1,8.5-0.3,12.8c0.1,0.4,0,0.8-0.1,1.2c-0.7,2.3-0.4,4.7-0.1,6.9c0.4,3.3,0.6,6.6,0.3,9.8c-0.2,2.4,0.1,4.8-1,7
		c-0.3,0.6-0.3,1.5-0.1,2.2c0.6,2.1,0.7,4.1-0.1,6.2c-0.1,0.2,0,0.5,0,0.8c0,0.9,0.1,1.8,0,2.6c-0.1,2.2-0.3,4.4-0.4,6.6
		c0,4.3,0.1,8.6,0.1,12.9c0,2.1,0,4.2,0,6.4c0,2.6-0.1,5.2-0.2,7.8c-0.1,2.7-0.4,5.5-0.5,8.2c-0.1,2.7-0.9,5.4-0.1,8.1
		c0.1,0.3-0.2,0.8-0.3,1.2c-0.1,0.5-0.3,1.1-0.3,1.6c0.1,2.6,0.4,5.1,0.5,7.7c0,1.7-0.1,3.4-0.3,5.1c-0.4,3-1.2,5.9-0.7,8.9
		c0.2,1.2,0.3,2.5,0.1,3.7c-0.3,2.2-1.9,4.3-0.5,6.6c0.1,0.1,0,0.4,0,0.6c0,1.3,0,2.7,0,4.3c1,0,2,0,2.9,0c3.7-0.2,7.5-0.5,11.2-0.7
		c3.6-0.2,7.1-0.2,10.7-0.3c1.2,0,2.3-0.1,3.5-0.9c0-3.4,0.1-6.8,0-10.2c-0.1-3.5-0.3-7.1-0.4-10.6c-0.2-5.7-0.4-11.3-0.5-17
		c-0.1-4.4-0.1-8.7,0.1-13.1c0.2-4.6,0.7-9.1,0.5-13.8c-0.1-2.8,0.3-5.6,0.6-8.4c0.3-3.4-0.2-6.5-2.1-9.4c-1.2-1.8-2.4-3.6-3-5.8
		c-0.4-1.4-0.7-2.9-1.1-4.4c-1-3.6,0-6.5,2.8-8.8c1.6-1.4,3.4-2.4,5.2-3.7c0.2-3.5,0.5-7.2,0.7-10.9c0.1-2.8-0.3-5.6,0.3-8.4
		c0.4-2.1,0.3-4.3,0.4-6.5c0.1-1,0-2,0.1-3c0-0.4,0.4-0.8,0.5-1.2c0.5-1.2,1.3-2.3,1.4-3.8c0-2.3-1-4.4-0.7-6.7
		c0-0.3-0.3-0.6-0.5-0.8c-1.4-1.3-2.8-2.6-4.2-3.9c-1.2-1.1-2.4-0.7-2.9,0.9c-0.1,0.2-0.2,0.5-0.3,0.7c-0.7,0.2-1.4,0.3-2.1,0.5
		c-0.6-0.8-1.1-1.6-1.8-2.3c-0.9-0.9-1.4-2.1-0.9-3.1c0.5-1.3,1.5-2.7,3.1-2.8c3.7-0.2,7.2,0,10.1,2.7c1,1,2.3,1.6,3.8,1.7
		c1.5,0.1,3.1,0.5,4,1.8c0.6,0.9,1.4,1.2,2.4,1.4c1.5,0.2,3,0.4,4.5,0.5c1.4,0.1,2.9-0.1,4.3,0.1c3.1,0.4,6.2,0.5,9.3,0.3
		c0.4,0,0.8,0,1.2,0.2c2.3,0.9,4.6,0.6,6.9,0.6c1.5,0,3.1-0.1,4.5,0.3c2.8,0.8,5.7,0.7,8.6,0.9c1.9,0.1,3.9,0.1,5.9-0.4
		c2.1-0.4,4.3,0,6.5-0.1c1.1,0,2.3-0.2,3.4-0.4c0.8-0.1,1.6-0.4,2.4-0.6c2-0.5,4-0.1,6-0.7c2.1-0.6,4.3-0.6,6.5-0.8
		c1.1-0.1,2.2-0.1,3.3-0.3c3.4-0.6,6.7-0.7,9.7,1.2c0.1,0.1,0.3,0,0.5,0c0.7-0.9,1.6-1.5,2.9-1.5c0.6,0,1.2-0.3,1.7-0.6
		c1.2-0.7,2.5-1.4,3.6-2.3c1.2-0.9,2.3-1.9,2.9-3.3c-0.3-0.7-0.6-1.3-0.7-1.6c0.4-1.2,0.7-2.1,1-3c0.9-2.5,2.2-3,4.2-1.3
		c0.1,0.1,0.3,0.1,0.4,0.1c1.7-1.1,3.3-2.2,5.1-3.3c0.5,0.9,0.9,1.5,1.2,2.1c1,2,0.6,3.5-1.3,4.7c-1.4,0.9-2.9,1.6-4.2,2.5
		c-0.5,0.3-1.1,0.9-1.3,1.4c-1.1,3-2.9,5.4-5.7,7c-0.6,0.4-1.2,0.9-1.8,1.3c0.1,0.1,0.3,0.1,0.4,0.2c0,0.8,0,1.7,0,2.5
		c0.1,1.5-0.1,3,0.9,4.3c0.2,0.3,0.1,0.9,0,1.3c-0.5,1.6-0.1,3.4-1.2,4.8c-0.1,0.1,0,0.4,0,0.6c0,0.7-0.1,1.5-0.1,2.2
		c0,3.2-0.3,6.5,0.1,9.6c0.2,2.3,0.5,4.6,0.2,6.9c-0.1,1.2-0.3,2.3-0.3,3.5c0.1,6.5,0.2,12.9,0.3,19.4c0,4.3,0,8.6-0.1,12.9
		c-0.1,3.9-0.2,7.8-0.2,11.7c0,0.5,0.2,1.1,0.4,1.5c0.6,0.9,1.4,1.7,1.9,2.7c1.6,2.9,2.5,6,1.7,9.3c-0.3,1.3-0.7,1.7-1.9,1.7
		c-1.5,0-2-0.3-2.3-1.7c-0.2-0.7-0.3-1.4-0.4-2c0,2.2-0.8,4.3-0.5,6.5c0.2,1.9-0.4,3.9-0.5,5.9c-0.1,3-0.1,6,0.2,9
		c0.3,2.8,0.3,5.6,0.1,8.4c-0.1,1.7-0.4,3.4-0.4,5.1c0,2.1,0.4,4.2,0.3,6.3c-0.2,3.7-0.6,7.4-0.8,11.1c0,0.6,0.1,1.2,0.1,1.8
		c0.5,0.1,0.8,0.2,1.2,0.2c3,0.1,6,0.1,9.1,0.2c1.4,0,2.9,0.1,4.3,0.2c2.8,0.1,5.6,0.2,8.3,0.3c2.1,0.1,4.2,0.3,6.3,0.4
		c3.1,0.1,6.2,0.2,9.2,0.3c1.4,0.1,2.8,0.5,4.2,0.4c5.3-0.1,10.5-0.2,15.7,0.9c0.3,0.1,0.5,0.1,0.8,0c1.9-0.1,3.8-0.2,5.7-0.3
		c2.9-0.1,5.9-0.1,8.8-0.1c2.5,0,5.1,0.1,7.6,0.3c3.3,0.2,6.6,0.5,9.8,0.7c2,0.2,3.9,0.4,5.6,0c0.6-1,1-1.7,1.5-2.5
		c0.6-1,1.3-1.8,2.5-2.4c1.7-1,3.2-2.1,5.3-2.4c1.2-0.2,2.3-0.8,3.5-1.2c0.6-0.3,1.2-0.7,1.8-0.9c1.8-0.5,2.9-1.9,4.2-3.2
		c-1.2-0.6-1.8-0.6-3-0.2c-1.6,0.7-3.2,1.5-4.9,2.1c-2.6,1-5.2,2.1-7.9,3c-2,0.7-4.1,1.1-6.1,1.6c-3.8,0.9-7.4,1.2-10.8-1.2
		c-0.9-0.6-1.6-1.4-2.5-2.1c-0.8-0.7-1.6-1.5-2.9-1c-0.3,0.1-0.8,0-1-0.1c-0.9-1-2.2-1.6-2.6-3c1.3-2,3.1-2.4,5.2-2.5
		c2.5-0.2,4.6,0.1,6.1,2.6c1.2,1.9,3.2,3,5.6,2.2c2.5-0.8,4.9-1.6,7.3-2.6c2.3-0.9,4.5-2.1,6.7-3.2c3.6-1.8,7.3-3,11.4-2.5
		c1.2,0.1,2.4,0,3.4,0.8c0.1,0.1,0.3-0.1,0.5-0.1c0.1-0.3,0.2-0.7,0.3-1.1c0.2-0.8,0.4-1.7,0.7-2.5c0.5-1.5,1.2-3,1.6-4.5
		c0.4-1.6,1.2-2.8,2.7-3.5c1.8-0.9,3.7-1.7,5.5-2.5c0.1-0.6,0.1-1,0.2-1.4c0-0.5,0-1,0.1-1.4c0.2-1.7,1.2-2.2,2.8-1.9
		c2.4,0.4,3.5,2.4,4.9,4.1c0.2,0.3,0.2,0.8,0.1,1.2c-0.1,0.7-0.2,1.5-0.4,2.2c-0.4,1.7-1.5,2.7-3.2,3c-3,0.6-5.2,3.1-5.3,6.3
		c0.5-0.1,0.9-0.4,1.4-0.3c1.9,0.3,3.7,0.6,5.5,1c0.4,0.1,0.8,0.3,1,0.6c1.2,1.5,2.5,2.9,3.5,4.5c0.8,1.3,1.7,2.1,3.2,2.2
		c0.8,0.1,1.6,0.1,2.5,0.2c1.6,0.2,3.1,0.4,4.7,0.6c1.8,0.2,3.7,0.8,5.5,0.7c3.5-0.2,6.8,0.2,10.2,0.8c0.5,0.1,1,0.4,1.2,0.8
		c0.9,1.6,1.7,3.2,3,4.6c1.8,1.8,3,4.2,5.9,4.5c0.2,0,0.3,0.2,0.5,0.3c2.3,0.6,4.6,1.4,6.9,1.8C396.3,542.3,398.2,542.1,400.2,542.1
		z M526.2,227.5c-2.1-3.2-4.9-5.3-7-8c-3.8-4.8-8-9.2-12.1-13.7c-1.9-2.1-3.9-4-5.9-6c-1.5-1.5-3-3-4.5-4.5
		c-3.1-3.1-6.1-6.3-9.2-9.4c-5.3-5.2-10.7-10.2-16-15.4c-4.4-4.2-8.6-8.6-12.9-12.9c-1.1-1.1-2.4-2.1-3.5-3.2
		c-3.8-3.9-7.6-7.9-11.4-11.9c-2.1-2.2-4.1-4.4-6.3-6.5c-3.7-3.5-7.5-6.8-11.2-10.3c-1.5-1.4-2.9-2.9-4.5-4.3
		c-3.6-3.3-7.6-6.2-11.1-9.7c-1-1-2-1.9-3-2.8c-1.5-1.3-3-2.6-4.5-3.9c-2.4-2.2-4.7-4.4-7.1-6.6c-2.9-2.7-5.9-5.3-8.9-7.9
		c-1.8-1.6-3.6-3.3-5.5-4.9c-2-1.8-4.1-3.4-6.1-5.2c-3.3-3-6.6-6-9.9-9c-0.5-0.5-1.1-0.9-1.5-1.4c-3.5-3.8-7-7.7-10.6-11.4
		c-4.3-4.4-8.7-8.8-13-13.1c-1.4-1.4-2.3-1.4-3.6,0.1c-0.4,0.4-0.6,1-1,1.6c1.1,1.2,2.2,2.3,3.2,3.3c3.9,4.1,8.6,7.4,12.2,11.8
		c1.9,2.3,4.2,4.3,6.4,6.4c2.2,2.1,4.4,4.2,6.6,6.3c2.5,2.4,5.2,4.6,7.7,7c3.5,3.3,7,6.7,10.5,10.1c3.7,3.6,7.5,7.2,11.2,10.8
		c2.7,2.7,5.4,5.4,8.1,8.1c1.6,1.6,3.1,3.2,4.7,4.8c-1,1-1,1-0.4,1.9c0.6,0.8,1.5,1.4,1.5,2.8c-0.6-0.2-1-0.2-1.4-0.4
		c-1.6-0.8-3-1.7-4.4-2.9c-2.8-2.4-6.1-4.2-8.6-6.9c-1-1.1-1.9-2.4-3.1-3.2c-4.3-2.8-7.6-6.7-11.4-10c-3.9-3.4-7.6-6.9-11.3-10.4
		c-2.1-2-4.2-3.9-6.3-5.9c-1.8-1.7-3.6-3.3-5.5-5c-0.3-0.3-0.8-0.5-1.4-0.8c-0.1,2.1-1.5,3.7-0.6,5.7c0.1,0.3,0,0.8-0.1,1.2
		c-0.6,1.1-0.3,1.9,0.5,2.8c2.4,2.8,5,5.4,7.7,7.9c1.3,1.3,2.6,2.6,3.9,3.9c1.6,1.6,3.3,3.1,4.9,4.7c2.6,2.7,5.1,5.5,7.8,8.1
		c1.3,1.3,1.8,2.9,2.4,4.4c0.1,0.2-0.1,0.6-0.2,1c-0.5-0.1-0.9-0.1-1.3-0.2c-3-0.7-5.3-2.8-7.7-4.5c-2.3-1.7-4.4-3.6-6.5-5.6
		c-1.9-1.7-3.8-3.6-5.7-5.3c-3.6-3.4-7.2-6.7-10.8-10.1c-0.4-0.4-1-0.8-1.6-0.8c-1.5,0-2.7-0.8-4-1.4c-2.1-1-4.1-2.1-6.2-3.2
		c-0.4-0.2-1-0.1-1.7-0.2c0.2,0.6,0.2,0.9,0.4,1.1c1.3,1.4,2.6,2.8,4,4.1c1,1,2,1.9,2.9,2.9c2.2,2.2,4.4,4.3,6.6,6.5
		c0.6,0.6,1.1,1.3,1.9,1.6c1.2,0.4,1.8,1.4,2.6,2.2c2.3,2.5,4.9,4.6,6.8,7.4c0,0.1,0.1,0.1,0.2,0.1c1.6,1.4,3.2,2.8,4.7,4.3
		c0.7,0.7,1.1,1.7,1.4,2.6c0.1,0.4-0.4,1.2-0.8,1.4c-0.6,0.2-1.3,0.1-1.9-0.1c-2.4-0.8-4.3-2.4-6.2-3.9c-5.7-4.9-11.4-9.9-17-14.8
		c-1.7-1.5-3.4-3.2-5.1-4.7c-3-2.7-6.1-5.3-9.1-8c-2.7-2.4-5.4-4.9-8-7.4c-1.9-1.8-3.8-3.7-5.8-5.6c-1.1-1-1.7-1-2.8,0.1
		c-0.7,0.7-1.4,1.3-2.1,1.9c-0.4,0.4-0.6,0.8-1,1.2c1.8,1.7,3.4,3.5,5.2,4.9c3.1,2.4,6,4.9,8.7,7.7c0.4,0.4,0.8,0.7,1.2,1.1
		c2.3,2.1,4.6,4.3,6.9,6.4c3,2.9,5.9,6.1,9.1,8.9c2.1,1.8,3.8,4.1,6.4,5.4c0.3,0.2,0.6,0.6,0.7,1c0.3,1,1,1.7,1.9,2.1
		c2.6,1.2,4.1,3.6,6.2,5.3c0.9,0.7,1.8,1.5,2.6,2.3c3.2,3.3,6.3,6.6,9.5,9.9c0.2,0.2,0.4,0.4,0.6,0.5c3.2,1.8,5.1,4.9,7.7,7.3
		c1,1,0.8,1.7,0,3c-2-0.1-3.6-0.8-5.3-1.7c-1.4-0.8-2.9-1.5-4.2-2.5c-0.5-0.3-1-0.5-1.9-0.9c0.2,0.7,0.3,1.1,0.4,1.5
		c0.2,1.4,0.7,2.8,0.4,4c-0.4,1.3-0.3,2.7-0.7,3.9c-0.5,1.4-0.9,2.9-2.5,3.5c-0.9,0.4-1.9,0.6-2.9,1c-1.3,0.5-2.7,0.6-4,0.2
		c-5-1.5-10-2.8-14-6.4c-2.7-2.5-5.5-4.9-8.3-7.4c-2.1-1.9-4.1-3.9-6.2-5.7c-1-0.9-2.1-1.5-3.1-2.3c-3.9-3.6-7.8-7.3-11.8-10.9
		c-4.5-4.1-9.1-8-13.7-12.1c-1.6-1.4-2.1-1.4-4.3-0.1c0.4,0.7,0.7,1.4,1.3,2c1.2,1.2,2.5,2.3,3.7,3.5c2,1.9,3.9,3.8,5.8,5.8
		c2.4,2.5,4.7,5.2,7.1,7.7c3.6,3.8,7.3,7.5,11,11.2c0.1,0.1,0.2,0.4,0.3,0.5c1.3,1.6,2.1,3.6,4,4.6c0.4,0.2,0.6,0.7,0.9,1.1
		c1.2,1.4,2.5,2.8,3.7,4.3c1.5,1.8,3,3.5,4.5,5.3c0.8,1,1.5,2.1,2.4,3c2.6,2.9,5.1,5.8,7.8,8.6c1,1,1.6,2.6,3.2,3
		c1.5,0.4,3,0.9,4.5,1.4c1.8,0.6,3.6,1,5.4,1.7c2.1,0.8,4.2,1.7,6.2,2.7c1.6,0.8,3.6,1,4.8,2.6c0.1,0.1,0.4,0.3,0.5,0.3
		c1.2,0,2,0.8,2.9,1.4c0.9,0.6,1.7,1.4,2.6,1.9c2.5,1.4,3.5,3.5,3.3,6.3c-0.1,1.8-0.4,2.5-2.2,2.5c-2.9-0.1-5.9,0.2-8.7-1
		c-0.3-0.1-0.7,0-1.1,0.1c1.1,1.2,2,2.3,3,3.3c1.1,1.2,2.3,2.2,3.5,3.4c1.9,1.9,3.8,3.9,5.6,5.9c0.4,0.4,0.8,0.9,1.3,1.4
		c1.8,1.9,3.3,4.1,5.3,5.8c1.1,0.9,1.8,2.2,2.7,3.3c1.7,2,3.3,4.2,5.3,6c2.6,2.3,5.2,4.7,7.3,7.4c1.2,1.6,2.5,2.9,4.6,2.8
		c0.2,0,0.4,0.1,0.6,0.1c2.7,1.4,5.4,2.8,8.2,4.1c1.7,0.8,3.3,2,5.3,2.1c0.3,0,0.6,0.3,0.9,0.4c0.7,0.4,1.4,0.8,2.1,1.2
		c1.1,0.5,2.2,0.8,3.2,1.3c2.2,1.3,4.3,2.6,6.4,4c0.3,0.2,0.4,0.5,0.6,0.8c0.7,0.9,1.5,1.7,2.2,2.6c0.3,0.3,0.5,0.9,0.4,1.3
		c-0.2,1.6-1.8,2.6-3.3,2.1c-0.8-0.2-1.4-0.5-2.2,0.2c0.2,0.5,0.3,1,0.5,1.5c0.5,1.4,0.4,1.8-0.7,2.6c-0.8,0.5-1.5,0.8-2.5,0.6
		c-0.6-0.2-1.3,0-2.3,0c0.5,0.8,0.8,1.3,1.1,1.7c1,1.2,2,2.4,3,3.6c0.2,0.3,0.4,0.5,0.7,0.8c2.1,2.4,4.3,4.7,6.3,7.2
		c3.2,4,6.3,8.1,9.4,12.1c1,1.3,2,2.5,3,3.8c2.1,2.7,4.2,5.5,6.4,8.3c0.7,0.9,1.6,1.7,2.4,2.5c2.5-2.1,4.9-3.9,7-5.9
		c2.4-2.3,4.5-4.9,7.2-6.9c3.2-2.4,6.2-5.1,9.3-7.7c2.7-2.2,5.6-4.4,8.3-6.7c5.1-4.3,10-8.7,15.1-12.9c1.7-1.4,3.5-2.6,5.2-4
		c1.8-1.5,3.5-3,5.3-4.5c2-1.8,4.1-3.6,6-5.6c1.5-1.5,2.8-3.2,4.2-4.8C524.1,230.4,525.2,228.9,526.2,227.5z M196.9,536.6
		c0-1.8,0.1-3.5,0-5.1c-0.6-7.3,0.3-14.6,0.2-21.9c0-1.4,0.3-2.7,0.3-4.1c0-1-0.2-2-0.2-3c0-2.7,0.1-5.3,0.1-8c0-2.7-0.1-5.3-0.1-8
		c0-1.5,0.4-3,0.3-4.4c-0.2-2-0.2-3.9-0.1-5.9c0.2-2.2,0.3-4.5,0.3-6.8c-0.1-3.2-0.4-6.4-0.4-9.6c0-2.1,0.7-4.1,0.1-6.2
		c-0.4-1.6-0.3-3.4-0.5-5.1c0-0.3-0.2-0.7-0.1-0.9c0.8-2.4,0.8-5,0.9-7.5c0.1-3.2,0.2-6.4,0.4-9.6c0.1-2.6,0.5-5.3,0.2-7.9
		c-0.3-3.1,0.2-6.1,0.1-9.2c0-1.3,0.3-2.5,0.3-3.8c0-2.1,0.3-4.2-0.2-6.6c-1.9,0.2-3.6,0.5-5.4,0.6c-4.2,0.2-8.4,0.3-12.5,0.3
		c-2.7,0-5.5-0.1-8.2-0.3c-3-0.2-6-0.7-8.9-0.9c-3.3-0.2-6.7-0.3-10.1-0.4c-1.7,0-3.4-0.1-5.1,0.2c-2.9,0.5-5.8,0.1-8.7,0.2
		c-2.5,0.1-5.1-0.5-7.6-0.4c-2.4,0-4.7,0.5-7.1,0.8c-0.9,0.1-1.4,0.5-1.5,1.4c-0.2,1.1-0.4,2.3-0.4,3.4c0,3.6,0.1,7.3,0.1,10.9
		c0,2.5,0,4.9,0,7.4c-0.1,2.5-0.2,5.1-0.4,7.6c-0.1,1.8-0.4,3.5-0.5,5.3c-0.1,0.9-0.1,1.8-0.2,2.7c-0.1,0.9-0.4,1.9-0.4,2.8
		c0.1,2.2,0.3,4.3,0,6.5c-0.3,2.6-0.3,5.3-0.4,8c-0.1,1.5-0.3,3,0,4.5c0.4,2-1,4,0.2,5.9c0.2,0.2-0.5,1.1-0.4,1.2
		c0.9,1,0.1,1.9,0,2.9c-0.1,0.5-0.3,1.4-0.1,1.6c1.1,1-0.2,1.7-0.2,2.5c0.3,1.1,0.7,2.2,0.5,3.2c-0.2,0.9-0.1,1.5,0.8,2.1
		c-0.7,0.1-1,0.1-1.4,0.2c0.2,0.4,0.4,0.8,0.6,1c-0.4,0.6-0.8,1.1-1.2,1.6c0.7,0.7,1.2,1.2,1.8,1.8c-0.6,0.4-0.9,0.7-1,0.7
		c-0.2,1.6-0.4,3-0.6,4.3c-0.2,1.1-0.3,2.1,0.1,3.2c0.3,0.7,0.2,1.6,0.3,2.6c0.1,0.1,0.5,0.3,1.1,0.7c-0.5,0.5-0.9,0.8-1.2,1.1
		c1.3,1.3,1.5,2.8,1.1,4.4c-0.7,0.2-1.3,0.3-1.9,0.5c0,0.1-0.1,0.3-0.1,0.4c0.6,0.4,1.2,0.7,1.9,1.2c-0.3,1.2-0.5,2.4-0.8,3.6
		c0,0.2-0.2,0.3-0.4,0.5c1.3,1.1,1.4,1.8,0.7,3.3c-0.2,0.4-0.5,1.2-0.2,1.5c0.8,1,0,1.8-0.3,2.5c0.5,0.7,0.8,1.2,1.2,1.8
		c-0.5,0.7-0.9,1.3-1.3,1.8c1.8,2.7,1.7,4.1,0.4,5.3c-0.2,1.1-0.3,1.9-0.4,2.6c-0.1,1.5-0.6,3.1,0.6,4.4c0.5,0.5,0.4,1.1,0,1.7
		c-0.3,0.4-0.3,0.9-0.5,1.4c1.3,0.2,2.3,0.4,3.3,0.4c4.1-0.1,8.2-0.3,12.3-0.4c4.7-0.2,9.4-0.3,14.2-0.4c2.6-0.1,5.2,0,7.7,0
		c0.5-0.7,0.8-1.3,1.3-1.8c0.9-0.8,1.7-1.7,3.2-1.3c1.2,0.3,2.4-0.4,3.3-1.3c1.7-1.8,3.3-3.6,5.1-5.3c0.7-0.6,1.5-1.4,2.3-1.5
		c3.1-0.6,5.1,1.1,5.2,4.4c-1,1-2.3,1.8-3.1,2.9c-0.8,1.1-2.3,2-2,3.9c2.2,0,4.2-0.1,6.3,0c4.8,0.2,9.6,0.4,14.4,0.7
		C194.6,537.1,195.8,537.4,196.9,536.6z M318.3,539.6c0,0.2,0.1,0.4,0.1,0.7c1,0.1,2,0.4,3,0.4c4.5,0,9-0.1,13.6,0c3,0,6,0.3,9,0.4
		c3,0.1,6,0,8.9,0c3.2,0,6.3-0.1,9.4,0.1c3.2,0.1,6.4,0.5,9.6,0.7c1.7,0.1,3.3,0,5.3-0.5c-1.4-1.7-2.7-3.1-3.9-4.6
		c-0.5-0.6-1.1-0.9-1.9-1c-1.6-0.1-3.2-0.4-4.9-0.6c-3.4-0.5-6.8-1.2-10.3-1.1c-0.7,0-1.4-0.2-2-0.2c-0.8,0-1.6-0.1-2.4,0
		c-3.2,0.5-6.3-1.5-7.3-4.5c-0.6-2-1.8-3.4-4.1-3.8c-1.4-0.2-2.5,0.6-3.6,0.4c-2.1,3.4-4.9,6-8.1,8.3
		C325.5,536.7,321.8,538,318.3,539.6z M358.9,134.3c-0.9-1.1-1.6-2-2.5-2.8c-3.7-3.5-7.7-6.8-11.1-10.6c-0.3-0.3-0.6-0.5-0.9-0.8
		c-2.6-2.4-5.3-4.7-7.9-7.1c-3.9-3.6-7.7-7.2-11.6-10.8c-2.5-2.3-5.1-4.3-7.5-6.6c-5-4.8-10.3-9.2-15.7-13.5c-0.7-0.6-1.4-0.6-2-0.1
		c-0.5,0.4-0.9,1-1.4,1.5c0.5,0.6,0.9,1,1.3,1.4c1.5,1.4,3.2,2.7,4.3,4.3c2.1,3.1,4.9,5.5,7.6,8c3.9,3.5,6.9,7.9,11.1,11.1
		c0.2,0.2,0.4,0.4,0.6,0.6c3.1,3,6.3,6,9.4,9.1c3.2,3.3,6.3,6.8,9.4,10.3c1.2,1.4,2.5,2.7,4.4,3.2c1.6,0.4,3.1,0.9,4.7,1.3
		C353.6,133.3,355.9,134.5,358.9,134.3z M340,134c-11.5-10.8-22.8-21.7-34.6-32.2c-0.8,0.6-1.4,1.1-2.1,1.6c2.2,2.2,4.2,4.2,6.3,6.1
		c1.8,1.6,3.8,3.1,5.6,4.7c1.8,1.6,3.4,3.3,5.1,5c2.6,2.5,4.9,5.2,7.6,7.7c3,2.8,6.3,5.2,8.7,8.7c0.2,0.3,0.6,0.6,0.9,0.8
		c1.2,1,1.7,0.8,2-0.7C339.7,135.2,339.9,134.6,340,134z M349.4,71c0.1-0.2,0.2-0.4,0.2-0.5c-0.4-0.4-0.7-0.8-1.1-1.2
		c-2.5-2.4-4.9-4.7-7.4-7.1c-2.9-2.7-5.7-5.5-8.6-8.2c-0.4-0.4-0.8-0.7-1.3-1c-0.7-0.4-1.3-0.3-1.8,0.4c-0.5,0.7-1.2,1.3-1.8,1.9
		c-0.8,0.8-1,1.6-0.4,2.6c0.3,0.5,0.8,0.9,1.2,1.4c1,1.1,2,2.2,3.1,3.2c0.8,0.7,1.6,1.6,2.5,2c4.5,2,9,4,13.5,5.9
		C348.1,70.7,348.7,70.8,349.4,71z M317.7,66.8c0.8,0.9,1.4,1.7,2.1,2.3c0.7,0.7,1.4,1.3,2.1,1.9c1.2,1.1,2.2,0.8,2.7-0.8
		c0.2-0.5,0.1-1.2,0.4-1.5c0.7-0.9,0.4-1.5-0.2-2.2c-0.7-0.7-1.4-1.3-2.1-2c-1.6-1.4-2.3-1.4-3.8,0.2
		C318.5,65.3,318.2,66,317.7,66.8z M298.3,95.6c-0.3-0.5-0.5-1-0.8-1.3c-1.3-1.4-2.6-2.8-4-4.1c-1.6-1.6-2.6-1.6-4.2-0.1
		c-1,0.9-1,1.4,0.1,2.3c1,0.8,2,1.4,2.9,2.2C294.1,96.2,296,95.9,298.3,95.6z M512.1,273.8c0-1.1,0-2.2,0-3.7
		c-1.1,0.8-2,1.3-2.7,1.9c-0.2,0.2-0.4,0.8-0.3,1.1c0.1,0.3,0.6,0.5,0.9,0.5C510.7,273.7,511.4,273.7,512.1,273.8z M436.1,299.2
		c1.1-3.2,1.1-3.2-0.6-3.8C434.6,296.9,436.3,297.9,436.1,299.2z M106.7,441.3c-0.6,0.4-0.9,0.6-0.9,0.7c-0.1,1.4-0.2,2.8,0.5,4.4
		C106.5,444.6,106.6,443.2,106.7,441.3z M144.3,222.2c1.4-1.2,1.4-1.2,1.6-2.5C144.3,220.5,144.3,220.5,144.3,222.2z M436.2,303.8
		c0.2,0.1,0.4,0.1,0.6,0.2c0.1-0.4,0.1-0.9,0.2-1.3c-0.1,0-0.3,0-0.4-0.1C436.4,303,436.3,303.4,436.2,303.8z M142.8,225.6
		c0.1,0.1,0.2,0.1,0.3,0.2c0.2-0.3,0.5-0.7,0.6-1c0-0.1-0.2-0.3-0.4-0.6C143.1,224.7,142.9,225.1,142.8,225.6z"/>
	<path d="M58.7,468.8c-0.7,0.5-1.3,1.3-2.4-0.1C57.3,468.8,58,468.8,58.7,468.8C58.6,468.9,58.7,468.8,58.7,468.8z"/>
	<path d="M55.2,523.4c0,0.3,0,0.6,0,0.9c-0.1,0-0.1,0-0.2,0c0-0.3-0.1-0.6-0.1-0.9C55,523.4,55.1,523.4,55.2,523.4z"/>
	<path d="M384.1,448.3c0.1,1.4,0.1,2.8,0.3,4.2c0.3,1.6,0.8,3.1,1.1,4.7c0.3,1.8-0.6,3.1-1.9,4.3c0.8,2.6,0.2,5.2,0.1,7.9
		c0,0.4-0.1,1-0.4,1.1c-1.8,0.8-1.4,2.7-1.9,4c-0.7,2-1,4.1-1.6,6.1c-0.4,1.3-0.2,2.1,1.1,2.7c2.3,1.1,3.5,3.2,4.5,5.3
		c0,0.1,0,0.1,0.1,0.2c0.3,1-1.4,3.1-2.9,3.6c-1,0.3-3-0.7-3.2-1.7c-0.3-2.7-2.5-3.8-4.3-5.2c-0.8-0.6-1.3-1.2-1.8-2.1
		c-1.1-1.9-1.1-3.9-0.9-5.9c0.2-1.8,0.4-2.1,2.2-2.4c0.6-0.1,1.1-0.1,1.3-0.7c0.3-0.9,0.5-1.8,0.6-2.8c0-0.2-0.7-0.7-1.1-0.7
		c-0.8,0-1.6,0.1-2.4,0.2c-2.2,0.5-4.4,0.6-6.6-0.2c-1.7-0.6-3.8-0.2-5.7-0.4c-1.6-0.1-3.2,0.5-4.8-0.5c-0.5-0.4-1.6,0.1-2.4,0.1
		c-1.5,0-3.1-0.1-4.6-0.2c-3.4-0.1-6.8-0.2-10.3-0.3c-5.7-0.1-11.4-0.6-17-0.3c-5.4,0.3-10.8,0.2-16.2,0.5
		c-4.4,0.2-8.9,0.3-13.3,0.5c-3.4,0.1-6.8,0.3-10.2,0.3c-2.3,0-4.6-0.3-6.9-0.4c-0.5,0-0.9,0-1.6,0.1c0.4,1.9-0.5,3.3-1.3,4.8
		c-1,1.9-1.6,3.9-2.5,5.8c-0.4,0.9-1,1.8-1.4,2.7c-0.5,1-1.1,2-2.5,2.2c-0.5,0.1-0.9,0.6-1.3,0.9c-0.9,0.8-1.4,0.8-2.5-0.1
		c-1.2-0.8-1.4-1.3-0.9-2.4c0.4-0.9,0.9-1.7,1.3-2.5c1-2.1,2.1-4.1,2.8-6.3c0.5-1.5,1.7-2.9,1.1-4.7c-0.4-0.1-0.7-0.2-1-0.1
		c-1.4,0.3-2.4-0.5-3.3-1.2c-1.2-1-1.1-2,0.4-2.6c0.7-0.3,1.5-0.6,2.2-1c-1-2.1-2-4-2.8-5.9c-0.2-0.5-0.2-1.1-0.2-1.6
		c-0.2-2.2-0.3-4.3-0.5-6.5c-0.1-1.9-0.2-3.8-0.3-5.7c-0.1-1.6-0.2-3.3-0.2-4.9c0-3.2,0.1-6.4,0-9.6c-0.1-3.2-0.4-6.4-0.5-9.6
		c-0.1-3.1,0-6.2-0.1-9.3c-0.2-3.9-0.5-7.9-0.7-11.8c-0.2-4.2-1.1-8.4-0.6-12.6c0.3-2.1-0.3-4.3-0.4-6.5c-0.2-3.3-0.2-6.7-0.4-10
		c-0.1-2-0.2-3.9-0.3-5.9c-0.1-2.6-0.1-5.2,0-7.8c0.1-3.8,0.1-7.5,0.4-11.3c0.3-3,0.1-6-0.2-9c-0.2-2.3-1.3-4.6-2.1-6.8
		c-0.6-1.5-0.9-2.9-0.3-4.5c0.5-1.3,0.6-2.8-0.5-4c-1.2-1.4-1.1-2.9-0.4-4.4c1-2.4,2-4.7,3-7.1c-1.2-0.5-2.4-0.8-3.6-1.4
		c-1.2-0.6-1.4-0.9-0.8-2.1c1.2-2.4,2.4-4.7,3.8-7c0.8-1.3,2.3-1.3,3.7-1.1c0.8,0.2,1.7,0.5,2.6,0.8c-0.3,0.6-0.5,1.2-0.8,1.7
		c-0.7,1.7-0.6,2.3,0.7,3.6c0.3,0.3,0.6,0.7,1,1c1.3,1.1,1.8,2.2,1,3.9c-0.2,0.5,0.2,1.3,0.3,2.1c-0.5,0.8-1.3,1.6-1.6,2.6
		c-0.4,1-0.5,2.2-0.5,3.3c0,0.3,0.9,0.9,1.4,0.9c1.8,0.2,3.7,0.3,5.5,0.5c2,0.2,3.9,0.6,5.9,0.8c2.2,0.2,4.5,0.4,6.7,0.6
		c3.8,0.2,7.6-0.2,11.4-0.7c0.7-0.1,1.5,0.2,2.2,0.2c3.4,0,6.8-0.1,10.2-0.1c2.4,0,4.7,0,7.1-0.1c2.3-0.1,4.6-0.1,6.9-0.3
		c5.3-0.3,10.5-0.8,15.8-0.5c3.3,0.2,6.7-0.1,10-0.1c3.8,0,7.5-0.1,11.3-0.2c0.6,0,1.3,0,1.8-0.3c0.7-0.4,1.2-0.6,1.9-0.1
		c0.3,0.2,0.8,0.3,1,0.1c1.2-1.2,2.9-0.2,4.3-0.8c0.5-0.2,1.1,0.2,1.8,0.3c0.5-0.5,0.9-1,1.3-1.5c0.6,0.1,1.2,0.2,1.6,0.4
		c0.9,0.6,1.7,0.4,2.4-0.3c1.2-1.2,2.2-2.5,3.4-3.9c-1.1-1-2.5-1.6-2.5-3.4c0.4-0.2,0.8-0.5,1.2-0.8c1.1-0.6,2.3-1.2,3.4-1.7
		c0.1,0,0.1-0.1,0.2-0.1c2-0.2,3.7-1.3,5.6-1.7c0.9-0.2,1.6-0.4,2.2-1.1c0.4-0.5,1-0.9,1.5-1.2c1.2,0.5,2.4,0.9,3.8,1.4
		c-0.4,1.8-1.1,3.4-2.8,4.4c-1,0.5-1.9,1.1-2.9,1.4c-0.8,0.3-1,0.8-1.2,1.5c-0.5,3.4-1.7,6.7-3.8,9.5c-0.7,0.9-1,1.9-0.6,3.2
		c1.5,4.1,1.3,8.5,1.8,12.8c-0.8,2.8,1,5.5,0.6,8.3c-0.1,0.5-0.1,0.9-0.1,1.4c0,1.8-0.4,3.6,0.2,5.4c0.7,2.4-0.3,4.7-0.5,7.1
		c-0.1,0.9-0.2,1.8,0.1,2.7c0.6,1.9,0.7,3.9,0.6,5.9c-0.1,2.4-0.4,4.8-0.2,7.3c0.3,6,0,11.9-0.1,17.8c-0.1,4.6-0.2,9.3-0.3,13.9
		c0,0.1,0,0.3,0,0.4c0.2,3.5,0.4,7,0.5,10.5c0.1,3.6-0.1,7.1-0.1,10.7c0,1.9,0.4,3.8,0.4,5.7c0,1.3-0.2,2.6-0.2,3.9
		c0,1.2,0.3,1.6,1.4,1.4c1.5-0.2,2.6,0.3,3.5,1.5c1,1.4,2.1,2.6,3.2,4c1,1.4,1,2.7,0.1,4c-0.4,0.6-1,0.8-1.7,0.9
		c-0.8,0.1-1.7,0.6-2.5,0.5c-1.1-0.2-0.8-1.4-1.1-2.2C385.9,448.2,385.2,447.9,384.1,448.3z M317.2,390.4c0.1-1.6,0.1-2.9,0.2-4.3
		c0.1-2,0.3-4.1,0.3-6.1c0.1-2.6,0.8-5.3,0-7.9c-0.3-0.9,0-1.9,0.1-2.8c0-0.5,0.1-1,0.1-1.4c-0.5-3.1,0-6.2,0.3-9.3
		c0-0.5,0-0.9,0-1.4c-0.2-2.4-0.5-4.7-0.7-7.1c0-0.1,0-0.3,0-0.4c0.1-2.5,0.1-5,0.5-7.5c0.4-3.3,0.4-6.8,1.8-10.1c-0.5,0-1,0-1.5,0
		c-2.7,0-5.5,0.1-8.2,0.1c-3.3,0-6.5-0.2-9.8-0.2c-3.9,0-7.8,0.3-11.7,0.4c-3.1,0.1-6.2,0.2-9.2,0.2c-1.5,0-3-0.2-4.5-0.2
		c-1.8,0-2.1,0.1-2.1,2c0.1,2.8-1.3,5.2-2,7.7c-0.7,2.4-0.8,4.8-0.9,7.2c-0.1,2.7,0.1,5.4,0.2,8.2c0.1,3.6,0,7.1,0.1,10.7
		c0.1,2.3,0.2,4.6,0,6.9c-0.1,1.2-0.1,2.4,0.1,3.5c0.5,2.1,0.7,4.2,0.7,6.3c0,0.4,0.1,0.8,0.2,1.4c0.7-0.1,1.3-0.3,2-0.3
		c1.2,0,2.4,0,3.6,0.2c1.6,0.3,3.1,0.8,4.7,1.1c1.5,0.3,3.1,0.3,4.7,0.5c3.2,0.4,6.3,1,9.5,1.4c3.1,0.3,6.2,0.5,9.4,0.7
		c3.5,0.3,7,0.5,10.6,0.8C316.2,390.5,316.6,390.4,317.2,390.4z M370.3,401.7c-0.8-0.6-1.3-0.8-1.6-1.2c-0.6-0.7-1.2-0.7-2-0.7
		c-2.9,0-5.7,0-8.6,0c-4,0-8,0-11.9-0.1c-1.5,0-3-0.3-4.5-0.5c-1-0.1-2-0.1-3.1-0.1c-1.5,0.1-3.2,0.7-4.6,0.3c-2.5-0.6-5,0-7.5-0.5
		c-0.2,0-0.5,0.1-0.8,0.2c-0.1,0.5-0.2,1-0.2,1.5c-0.2,4.5,0.2,9,0,13.5c-0.2,4.3,0.1,8.6,0.2,12.9c0.1,4.6,0.2,9.3,0.3,13.9
		c0,1.7,0.2,3.4,0.2,5c0.1,2,0,4,0.1,5.9c0.1,1.7,0.7,2,2.5,2.1c1.2,0,2.3-0.1,3.5,0c4,0.3,7.9,0.5,11.9,0.9c3.1,0.4,6.2,0,9.2,0.9
		c0.2,0.1,0.5,0,0.8,0c1.8,0.2,3.6,0.4,5.5,0c0.9-0.2,1.9,0.1,2.8,0.1c1.8,0,3.7,0,5.5,0c0.9,0,1.9-0.1,3-0.1
		c-0.1-2.2-0.2-4.2-0.4-6.2c-0.2-1.9-0.5-3.8-0.6-5.7c-0.1-3.6-0.2-7.2-0.2-10.9c0-6.6,0-13.1,0-19.7
		C370,409.6,370.2,405.6,370.3,401.7z M325.6,391.3c2.9,0.1,5.6,0.2,8.2,0.3c4,0.1,8.1-0.1,12.1,0.3c3,0.3,6,0.2,9,0.3
		c1.8,0,3.5,0,5.3,0c0.9,0,1.9,0,2.8,0.1c2.2,0.3,4.4-1.3,6.5,0c0.9-0.8,1.3-1.7,1.2-2.8c-0.1-1.1,0.1-2.2,0.2-3.3
		c0.1-0.9,0.2-1.7,0.2-2.6c0.1-4,0.3-8,0.3-12c0.1-3.7,0-7.4,0-11.1c0-1.6,0-3.1,0-4.7c0-0.5-0.1-0.9-0.1-1.4
		c-0.1-1.3-0.2-2.7-0.3-4c-0.2-4.2-0.3-8.3-0.5-12.5c-0.1-1.6-0.2-3.2-0.2-4.9c0-1.7,0-1.8-1.6-2.1c-0.5-0.1-0.9-0.1-1.4-0.2
		c-4.4-0.6-8.7,0.3-13.1,0.4c-3,0-6,0.3-9,0.4c-0.9,0-1.8-0.1-2.7,0c-4.2,0.2-8.4,0.5-12.7,0.7c-1,0.1-2,0.1-2.7,0.1
		c0,2.5,0.4,4.7,0,6.8c-0.9,5.1-0.8,10.2-0.8,15.3c0,3.7,0.1,7.4,0,11.1c-0.1,4.3-0.2,8.6-0.3,12.9c-0.1,2.5-0.3,4.9-0.4,7.4
		C325.5,387.4,325.6,389.1,325.6,391.3z M271.6,392.3c-0.2,0.1-0.3,0.2-0.5,0.3c0,0.7,0,1.5,0,2.2c0,3,0,6,0,9
		c0,3.6-0.1,7.3-0.1,10.9c0,5.8,0,11.6,0.1,17.4c0,2.3,0.3,4.6,0.5,6.9c0,0.4-0.1,0.8-0.2,1.2c-0.1,0.5-0.1,1.1-0.1,1.6
		c-0.1,2.4,0.6,4.7,0.2,7.1c-0.2,1.2,0.2,2.6,0.4,3.9c0.1,0.4,0.4,0.9,0.6,0.9c2,0.4,4,0.9,6,1c1.6,0.1,3.3-0.1,4.9-0.2
		c0.9,0,1.9-0.1,2.8-0.2c2.7-0.2,5.3-0.7,8-0.6c4,0.2,7.9,0.1,11.9,0c0.8,0,1.6-0.2,2.4-0.2c2.3,0.1,4.5,0.2,6.8,0.3
		c2,0,2.7-1,2.1-2.9c-0.2-0.6-0.3-1.2-0.3-1.7c0-4.2-0.1-8.4,0-12.6c0-2.6-0.3-5.1,0-7.7c0.4-4.5,0.1-9,0-13.5
		c-0.1-3.3-0.4-6.7,0.3-10c0.1-0.4-0.2-0.8-0.2-1.2c0-0.7,0-1.5,0.1-2.2c0-0.3,0.2-0.7,0.2-1c0.1-1.7-0.5-2.3-2.2-2.3
		c-1.2,0-2.3-0.1-3.5-0.1c-4.4-0.3-8.7-0.7-13.1-1c-0.4,0-0.9,0-1.2-0.1c-2.4-0.9-4.9-0.6-7.3-0.7c-2-0.1-3.9-0.4-5.9-0.6
		c-0.9-0.1-1.9-0.3-2.8-0.1c-2.1,0.4-4.3,0.2-6.4-0.2c-0.5-0.1-0.9-0.5-1.3-0.9C273.2,393.9,272.4,393.1,271.6,392.3z"/>
	<path d="M275.2,158c-0.3-0.8-0.6-1.3-0.7-1.9c-0.4-1.6,0.5-2.7,2.2-2.8c1,0,1.9,0,2.9,0c1.3-2.2,1.9-4.5,1.7-7
		c-0.1-1.1-0.1-2.2,1-2.6c1.1-0.4,2.4-0.9,3.5-0.2c0.9,0.6,1.8,1.3,2.6,2c1.7,1.7,3.6,3.2,6,3.7c0.2,0,0.5,0,0.6,0.2
		c0.4,0.4,0.9,0.9,1,1.4c0,0.4-0.5,1-0.9,1.2c-1.4,0.5-2.9,0.9-4.4,1.1c-0.7,0.1-1.4-0.3-2.1-0.6c-0.5-0.2-1-0.6-1.6-1
		c-1.2,1.3-1.6,2.9-1.7,4.4c-0.1,1.9-0.5,3.4-2.5,3.9c-0.3,0.1-0.6,0.3-0.8,0.4c0.8,2,2.5,2.5,3.7,3.2c2.2,1.3,3.8,3.1,5.5,4.9
		c1.4,1.4,3,2.8,4.4,4.3c0.8,0.8,1.2,2,1.8,2.9c0.4,0.6,0.8,1.1,1.2,1.6c0.9,0.9,1.9,1.6,2.1,2.9c0,0.3,0.4,0.5,0.6,0.7
		c0.4,0.6,0.9,1.1,1,1.7c0.4,1.7,0.9,3.2,2,4.6c1.4,1.9,1.3,4.2,1.7,6.4c0.6,3.1,0.5,6.4,1.5,9.4c0.3,0.9,0.5,1.9,1,2.6
		c0.9,1.3,0.7,2.7,0.7,4.1c0,1.3,0.4,2.5,0.4,3.8c0,0.8-0.1,1.6-0.4,2.3c-1.1,2.8-1.7,5.8-1.8,8.8c0,0.3-0.1,0.8,0.1,1
		c0.9,1.4,0.4,2.3-0.8,3.3c-0.8,0.7-1.2,1.9-1.7,3c-0.9,1.9-1,3.9-1.2,5.9c0,0.6-0.4,1.1-0.7,1.6c-0.7,1.2-1.6,2.4-2.2,3.7
		c-2.2,4.7-5,9-8.6,12.7c-2.1,2-4,4.2-6.6,5.7c-1.9,1.1-3.6,2.7-5.4,4c-0.7,0.5-1.5,1-2.3,1.3c-1.9,0.6-3.8,1.3-5.7,1.6
		c-4.6,0.7-9.2,1.8-13.9,1.1c-2.4-0.4-4.7-1.1-6.8-2.6c-1-0.7-2.4-1-3.5-1.5c-1-0.4-2-0.7-3.3-1.2c-0.4,1.6-0.8,3.1-1.2,4.5
		c-0.2,1,0.1,1.7,1.2,2c0.9,0.3,1.8,0.7,2.6,1.1c1.1,0.5,1.4,1.6,1.2,2.9c-0.4,2.2-1.7,3.8-3,5.5c-1.4,1.7-2.7,3.4-2.6,5.8
		c0,0.5,0,1,0.3,1.4c2.3,3.2,4.2,6.7,8.3,8.1c1.1,0.4,1,0.5,1.4,1.8c-1.2,0.3-2.5,0.7-3.7,1c-0.4,0.1-0.8,0.1-1.2,0
		c-3.8-1.4-6.8-3.7-9-7.1c-0.5-0.7-0.8-1.7-1.4-2.2c-1.7-1.4-1.4-3-0.8-4.6c0.4-1.2,0.6-2.1-0.1-3.3c-0.7-1.1-0.3-2.6,0.7-3.7
		c1.2-1.4,2.7-2.3,4.6-2.6c-0.2-0.9-0.7-0.9-1.3-0.9c-0.6,0-1.2,0-1.8,0c-1.3-0.1-2-0.8-1.8-2.2c0.2-1.6,0.4-3.1,0.7-4.7
		c0.3-1.5,0.8-3.1,1-4.6c0.1-0.8-0.1-1.7-0.2-2.6c-0.5-3.2-2.7-5.6-4-8.4c-2-4-3.6-8.1-4.8-12.4c-0.4-1.5-1.1-3-1.4-4.5
		c-0.4-1.8-0.7-3.6-0.9-5.5c-0.4-3.6-0.7-7.1-0.3-10.7c0.4-3.1,0.3-6.3,0.4-9.4c0-0.5,0-1.1-0.2-1.6c-1.2-5.6-0.1-11,1.6-16.3
		c0.8-2.6,1.9-5.1,2.9-7.6c0.2-0.6,0.6-1.2,0.9-1.8c0.2-0.4,0.5-0.7,0.7-1c1.1-3.4,3.9-5.7,5.7-8.6c1.3-2.1,3.3-3.4,4.9-5.1
		c0.4-0.5,0.9-1,1.4-1.5c0.9-0.9,1.9-1.8,2.9-2.6c1-0.8,2.1-1.5,3.2-2.1c3.5-1.9,7-3.7,11.2-3.2c1,0.1,2,0.1,3,0
		c2-0.1,3.8,0.2,5.6,0.9C272.7,158.7,273.9,158.5,275.2,158z M268.3,257.3c3.1,0.1,4.1,0.4,6.4-2.4c0.3-0.3,0.6-0.5,1-0.7
		c2.1-1,3-3.1,4.3-4.8c0.3-0.3,0.3-0.9,0.5-1.3c0.7-1.2,1.6-2.4,2.3-3.6c0.9-1.5,2.1-3,2.6-4.6c0.6-1.7,1.6-3.1,2.4-4.6
		c0.7-1.4,1.1-2.9,1.6-4.3c0.2-0.4,0.2-0.9,0.4-1.4c1-2.6,2.3-5.1,2.1-8c0-0.2,0-0.4,0.1-0.6c0.9-1.5,0.5-3.2,0.7-5
		c-3.7-0.1-7.3-0.1-10.9-0.2c-1.8,0-3.6,0.1-5.3,0.1c-2.3,0-4.5,0-6.8,0c-1,0-1.4,0.5-1.4,1.4c0,1.7-0.2,3.4-0.1,5.1
		c0.1,3.7,0.4,7.4,0.6,11c0.2,4.5,0.3,9,0.3,13.5c0,1.7-0.5,3.5-0.2,5.1c0.3,1.8-0.1,3.4-0.7,4.9
		C268.3,257.1,268.3,257.2,268.3,257.3z M241,217.6c0,2.7-0.3,5.2,0.1,7.6c0.4,2.7,0.4,5.6,1.5,8.2c0.9,2.2,1.4,4.6,2.4,6.7
		c0.9,2,2.1,3.9,3.5,5.7c1.2,1.5,2.3,3.1,3.6,4.5c2,2.2,4.3,3.7,6.8,5.2c0.4,0.3,1,0.3,1.6,0.4c0.2-1.8,0.6-3.4,0.7-5
		c0.1-2.9,0-5.7-0.1-8.6c-0.1-3.1-0.2-6.1-0.2-9.2c-0.1-4.6-0.3-9.3-0.4-13.9c0-2.4-0.5-3-2.8-2.9c-0.7,0-1.4,0.1-2,0.2
		c-2.9,0.2-5.8,0.5-8.8,0.7C244.9,217.3,243,217.4,241,217.6z M260.3,208.4c0-1.3,0-2.3,0-3.3c0-2.7,0-5.5,0-8.2c0-2.6,0-5.2,0-7.8
		c0-0.8-0.1-1.6-0.1-2.4c0-2,0.4-3.9-0.6-5.8c-0.3-0.6-0.3-1.5-0.2-2.2c0.4-1.6-0.5-2.6-1.4-3.6c-1.1,0.5-2.1,1-3.1,1.3
		c-1.9,0.4-2.8,1.8-3.6,3.2c-1,1.6-1.8,3.4-2.7,5.1c-0.4,0.8-1,1.7-1.3,2.6c-0.7,2.5-1.4,5-2,7.5c-0.6,2.5-2.8,4.5-2.3,7.3
		c0,0.2-0.2,0.3-0.3,0.5c-0.5,2-1.5,4-1.2,6.2c1.8,0.9,3.7,0.6,5.6,0.6C251.5,209.2,255.7,207.7,260.3,208.4z M268.9,208
		c0.5,0.1,0.9,0.2,1.3,0.2c2.8,0,5.6,0.1,8.4,0.1c4.2-0.1,8.3-0.1,12.5-0.3c2-0.1,2.4-0.6,2-2.6c-0.3-1.6-0.7-3.2-1.2-4.7
		c-0.4-1.6-0.9-3.2-1.5-4.7c-0.7-1.7-1.8-3.2-2.6-4.9c-1.1-2.5-3.3-4.2-5-6.1c-1.3-1.5-2.9-2.8-4.4-4.2c-1.5-1.4-2.9-2.9-4.5-4.1
		c-1.1-0.8-2.4-1.3-3.6-1.9c-0.4-0.2-0.9,0-1.6,0c0.3,2.8,0.5,5.5-0.1,8.1c0,0.2,0.1,0.4,0.1,0.6c0,2.7,0.3,5.4,0,8
		c-0.4,5-0.2,10,0,15C268.6,207.1,268.8,207.5,268.9,208z"/>
	<path d="M219.7,338.3c-0.2,1-0.4,1.7-0.6,2.4c-0.2,0.6-0.6,1.2-0.9,2c-0.8,0.1-1.6,0.3-2.2,1.2c-0.8,1.1-2.5,0.9-3.3-0.2
		c-1.1-1.4-1.2-3-1.7-4.6c-0.3-1-0.5-2-0.7-3c-0.6-3.3-2.5-5.7-5.5-7.2c-2.4-1.2-4.7-2.6-6-5.1c-0.7-1.4-1.2-2.9-1.7-4.4
		c-0.3-0.8-0.6-1.7-0.9-2.6c-4.4,0.4-8.7,0.8-12.6,1.2c-2.8,4-3.4,8.5-4.6,12.5c1.5,1.2,3,2.3,4.2,3.5c0.6,0.5,0.9,1.3,1.2,2.1
		c0.6,2,1,4.1,1.5,6.2c0.3,1.4,0.6,2.8-0.1,4.1c-0.1,0.1-0.1,0.3-0.1,0.4c0.4,1.5,0.9,2.9,1.3,4.5c2.4-0.4,4.6,0.1,6.6,1.3
		c1.5,0.9,3.3,1.7,3.7,3.8c0.1,0.4,0.7,0.6,1.1,0.9c0.4,0.4,0.9,0.8,1.4,1.2c-0.8,0.7-1.2,1.4-1.9,1.5c-1.1,0.2-1.6,0.8-1.6,1.9
		c-0.5,0.1-0.9,0.1-1.3,0.3c-1.5,0.6-2.4,0-3.3-1.2c-0.9-1.2-2-2.4-3.1-3.5c-0.6-0.7-1.2-0.7-2-0.5c-1.1,0.3-2.3,0.4-3.4,0.6
		c-1.3,0.2-2.5-0.5-3.4-1.2c-0.6-0.4-0.8-1.6-0.8-2.4c-0.2-4.4,0.2-8.8-0.9-13.1c-0.3-1-0.7-2.1-1.2-3c-0.9-1.4-2.1-1.7-3.8-1.2
		c-0.5,0.2-1,0.4-1.3,0.6c-0.9-0.6-1.7-1.1-2.4-1.7c-0.3-0.2-0.6-0.5-0.6-0.8c-0.5-4.1-3.6-6.6-5.6-9.9c-0.7-1.1-1.5-2.2-2.2-3.2
		c-1.1-1.6-1.6-1.8-3-0.4c-1.1,1.1-2.2,2.3-3.2,3.5c-2,2.4-4,4.8-6,7.2c-0.6,0.7-0.9,1.3-0.6,2.2c0.1,0.4,0.2,1,0.1,1.4
		c-0.1,0.4-0.4,0.9-0.7,1.1c-2.8,0.9-4.6,2.8-5.5,5.6c-0.7,2.1-1.5,4.1-2.4,6.2c1,0.7,1.9,1.3,2.8,1.9c-1,1.5-2.3,2.8-3.1,4.6
		c-1.1,2.4-6.9,3.4-9.1,1.8c-0.8-0.6-1.3-2.5-0.8-3.8c0.7-2,1.6-3.9,2.3-5.9c0.9-2.4,1.7-4.9,2.6-7.4c-0.6-0.7-1.2-1.3-1.7-2
		c-0.7-0.9-1-2-0.4-3.1c0.7-1.1,0.3-2-0.1-3.1c-0.6-1.7-1.1-3.5-1.4-5.3c-0.3-1.9-0.1-3.8-0.2-5.7c0-0.7-0.3-1.3-0.4-2
		c-0.1-0.9-0.7-1.2-1.5-1.1c-0.7,0.1-1.1-0.1-1.6-0.6c-1.1-1.1-1.8-1.1-3-0.2c-1,0.7-2.1,1.3-2.9,2.3c-0.9,1.1-2.3,1.4-3.2,2.4
		c-0.8,0.7-0.9,1.3-0.5,2.3c1.2,2.9,2.3,5.9,3.3,8.8c0.9,2.6,0,3.8-2.8,3.7c-0.9,0-1.9,0.4-2.8,0.7c-1.2,0-1.4-0.9-1.8-1.8
		c-0.9-2.6-1.9-5.3-2.9-7.9c-0.4-1.1-1-1.9-2.5-2c-1,0-2.1-0.7-2.8-1.4c-1-1.1-0.1-3.3,1.5-4.1c1.9-0.8,3.8-1.4,5.7-2.3
		c1.1-0.5,2.2-1.3,3.2-2.1c2.7-2,5.3-4,8-6c0.2-0.2,0.5-0.3,0.8-0.3c1.9,0.2,2.9-1.1,4.1-2.3c2.3-2.1,4.9-3.9,7.6-5.4
		c2-1.1,3.9-2.3,5.8-3.5c0.3-0.2,0.5-0.6,0.9-1.1c-2.8-6.3-5.6-12.6-8.5-19.1c-1.2,0.6-2.2,1.1-3.5,1.7c-1.1-2.8-3.6-1.4-5.5-1.8
		c-0.7-0.1-1.6,0.8-2.4,1.4c-1,0.8-1.9,1.6-2.7,2.4c-1.2-0.2-2.3-0.4-3.4-0.7c-0.6-0.2-1.3-0.5-1.6-1c-0.4-0.6,0.1-1.3,0.7-1.8
		c0.8-0.7,1.5-1.6,2.4-2.3c1.4-1.1,2.9-2,4.7-2.3c1.7-0.2,3.2-1,4.3-2.4c1.7-2.3,4-3.4,7-3.3c2.8,0.1,4.1,0.9,5,3.6
		c0.6-0.1,1.2-0.2,1.8-0.2c0.4,0,1-0.2,1.2,0c1.3,1.3,3.1,0.9,4.7,1.2c1.5,0.3,3.1,0,4.6-0.1c1.1-0.1,2.2-0.3,3.3-0.3
		c0.7,0,1.5,0.2,2.1,0.4c1.4,0.5,2.7,0.9,4.1-0.1c0.7-0.5,1.6-0.7,2.3-1.3c1.3-1,2.4-0.6,3.2,0.4c1.6,1.9,3.4,1.7,5.4,1
		c0.4-0.1,0.8-0.2,1.2-0.3c0.9-0.1,1.2-0.6,1.5-1.5c0.4-1.4,1-2.8,1.4-4.2c1-3.4,1.9-6.8,2.9-10.2c0.2-0.8,0.4-1.7,0.6-2.7
		c-2.3-1-2.8-2.8-2.3-5.1c0.3-1.3,0.2-2.6,0.5-3.9c0.6-2.7,1.7-5.2,4-6.9c1.6-1.1,3.3-0.9,4.9-0.4c0.8,0.2,0.9,1,0.4,1.5
		c-1,0.9-0.9,1.6,0.1,2.3c-1,1.7-2.1,3.1-2.1,5.1c0,1.3,0.1,2.4,0.7,3.5c0.9,1.7,0.7,3.6,0.3,5.4c-0.5,2.8-1.2,5.6-1.8,8.4
		c-0.4,1.8-0.8,3.6-1.1,5.4c-0.1,0.8-0.1,1.7,0.1,2.4c0.5,1.9,0.2,3.5-1.6,4.2c-1.3,0.6-1.7,1.7-1.9,2.7c-0.4,2.6-0.5,5.3,0.5,7.9
		c0.1,0.2,0.3,0.5,0.5,0.8c0.7-0.1,1.4,0,2-0.2c4.2-1.4,8.3-3,12.5-4.4c1.6-0.6,2.6-1.4,2.9-3.3c0.4-2.9,1.8-5.4,3.2-7.9
		c0.7-1.1,1.7-2.1,2.7-3.1c0.3-0.3,1-0.3,1.6-0.4c1.3-0.3,2.5-0.7,3.8-0.9c1.3-0.2,2.4,0,3.5,0.8c1.3,0.8,1.6,2,0.8,3.2
		c-0.4,0.6-0.8,1.3-1.3,1.8c-1.7,1.4-3.5,2.3-5.7,0.6c-0.5,0.9-0.9,1.8-1.3,2.6c-0.2,0.5-0.5,1,0.3,1.4c0.2,0.1,0.3,0.6,0.2,0.8
		c-0.2,1.5-0.4,3-0.6,4.5c0,0.3,0,0.6-0.2,0.8c-1.1,0.9-1.1,2.3-1.8,3.4c-1.4,2.1-1.8,4.6-2.4,6.9c-0.5,1.7-0.8,3.5-1,5.2
		c-0.2,1.8,0.1,3.6-0.2,5.3c-0.2,1.9,0.1,3.5,1.6,4.8c0.2,0.1,0.4,0.3,0.4,0.5c-0.3,1.9,1.7,2.8,2,4.4c0.3,1.7,0.9,3.3,1.2,5
		c0.6,2.4,2.1,3.9,4.2,5c3.5,1.8,6,4.3,6.9,8.2c0.3,1.3,0.6,2.7,1,4C217.8,337.1,217.8,338.5,219.7,338.3z"/>
	<path d="M323.8,235.6c1.1-1.3,2.1-2.4,3-3.5c0.2-0.2,0.4-0.5,0.7-0.4c1.5,0.1,1.8-0.9,2-2.1c0.1-0.4,0.7-1,1.1-1
		c1,0,2.1,0.4,3.4,0.6c-0.2,1.1-0.3,2.1-0.6,3c-0.4,1.2-0.4,2,0.8,2.8c1,0.7,1.8,1.7,2.6,2.5c1.1,1.1,1.4,2.6,1.6,4.1
		c0.2,1.6,0.3,3.3,0.5,4.9c0.2,1.7,0.5,3.1,2.8,3.4c1.3,0.1,2.5,0.7,3.8-0.1c0.4-0.3,1.2-0.1,1.8,0.1c1.4,0.4,2.8,0.9,4,1.5
		c1.9,1,3.8,1.6,5.8,0.8c1.8,1.8,1.2,3.8,0.5,5.6c-0.2,0.4-0.8,0.7-1.2,0.9c-0.6,0.3-1.3,0.6-2.1,0.9c0.9,2.5,1.8,4.7,2.4,7
		c0.4,1.3,2,1.6,2.1,3c1.1,0.2,2.1,0.5,3.2,0.6c1.7,0.2,3.4,0.1,5.1,0.3c2.3,0.3,4.6,0.6,6.4,2.7c0,0.4-0.1,1.1-0.2,1.8
		c-1.7,1.1-3.4,1.7-5.4,1.1c-1-0.3-2.2-0.1-3.3-0.2c-2.8-0.2-5.6-0.4-8.4-0.7c-0.5-0.1-1-0.4-1.4-0.8c-1.5-1.3-2.7-2.9-3.3-4.8
		c-0.2-0.5-0.5-1-0.7-1.5c-2.9-0.6-2.9-0.6-6-4.6c-1.5,0.2-2.9-0.3-4.1-1.2c-1.3-1-1.8-2.5-2.2-4c-0.1-0.5-0.3-1.1-0.7-1.3
		c-0.4-0.3-1.4,0.8-1.2,1.6c0.1,0.8-0.2,1.3-0.5,1.9c-0.7,1.3-1.7,2.2-3.1,2.6c-2.5,0.7-3.7,2.5-4.3,4.8c-0.6,2.2-1.3,4.4-0.8,6.9
		c0.2,0.9-0.1,2-0.3,3c-0.1,0.4-0.5,0.8-0.9,1c-2.3,1.1-4.5-0.3-4.8-2.9c-0.4-3,0.2-5.8,1-8.7c0.7-2.3,1.8-4.3,3.4-6.2
		c1-1.2,1.9-2.5,2.8-3.8c0.6-0.9,1.4-1.4,2.4-1.7c2.1-0.6,2.4-1.4,1.7-3.5c-0.2-0.7-0.3-1.5-0.3-2.2c-0.2-2-0.4-4.1-0.5-6.1
		c-0.1-1.3-0.8-2.2-2.3-2.1c-2.8,0-4.4-1.5-5.5-3.8C324.5,237,324.2,236.3,323.8,235.6z"/>
	<path d="M447.7,255.4c-1.2-3.5-3.2-6.6-5.2-9.6c-1.9-2.9-4-5.7-6-8.6c-0.9-1.2-0.8-2,0.3-3.3c0.3-0.3,0.7-0.6,0.7-1
		c0.2-2.2,1.8-3.4,3.1-4.8c0.4-0.5,1.1-0.7,1.7-1c1.4-0.7,2.8-1.3,4.2-2.1c1.6-0.9,3-0.9,4.3,0.3c1.4,1.4,2.7,2.9,3.9,4.5
		c1.4,1.8,2.6,3.7,3.8,5.6c1.1,1.7,2,3.5,3,5.3c0.4,0.7,0.6,1.6,1.2,2.1c1.3,1,0.9,2.2,0.5,3.3c-0.8,2.3-2.3,4.1-4,5.9
		c-1,1.1-2.1,2.1-3.3,3c-0.4,0.3-1,0.4-1.5,0.5C452.2,256.2,450,256,447.7,255.4z"/>
	<path d="M476.2,216.3c-1.7-0.4-3.4-0.3-5-1.4c-1-0.7-2.3-1.1-3.5-1.5c-2.7-0.9-5.4-1.8-8.1-2.7c-1.7-0.6-3.4-1.3-5.1-2
		c-0.9-0.4-1.2-1.1-0.8-2c0.8-1.8,1.6-3.5,2.7-5.1c0.1-0.2,0.3-0.3,0.4-0.5c1.4-3.3,4.8-4,7.6-5.4c1-0.5,2.1-0.3,3.2,0
		c5.2,1.7,10.5,3,15.5,5.3c1.5,0.7,3.1,1.2,4.4,2.4c0.8,0.8,1,1.5,0.7,2.4c-1.5,4.8-4.1,8.5-9.1,10.2c-0.6,0.2-1.2,0.2-1.8,0.3
		C476.8,216.2,476.4,216.3,476.2,216.3z"/>
	<path d="M414.7,157.6c-0.2-1.3-0.3-2.6-0.5-3.9c0.1-0.1,0.1-0.3,0.2-0.3c1.8-0.3,3-1.2,4-2.8c0.6-1,1.7-1.7,2.6-2.5
		c0.2-0.2,0.6-0.3,0.9-0.4c2.1-0.3,3.2-1.5,3.3-4c0.9,0.6,1.6,0.9,2.2,1.4c1.4,1.2,2.9,2.3,4.2,3.6c1.6,1.5,3.1,3.1,4.7,4.6
		c0.8,0.8,1.9,1.4,2.1,2.6c0.1,0.3,0.6,0.6,0.9,0.8c1.8,1.5,3.6,2.9,5.4,4.4c1.4,1.1,1.4,2.2,0.3,3.7c-2,2.6-4.4,4.7-7.5,5.9
		c-0.4,0.2-0.9,0.3-1.4,0.3c-1.1,0.2-2.1,0.2-3.2,0.4c-1.3,0.2-1.7,0-2.5-1.1c-0.6-0.9-1.4-1.7-2.1-2.5c-1.8-1.9-3.9-3.5-5.5-5.5
		c-1.9-2.4-4.3-3.8-7.1-4.5C415.4,157.8,415.1,157.7,414.7,157.6z"/>
	<path d="M416.5,199.3c-1.3,0.1-2.9,0.4-4.4,0.4c-1.2,0-2.5-0.3-3.5-0.9c-2.2-1.1-4.3-2.6-6.5-3.8c-1.3-0.7-2.7-1.2-4.1-1.9
		c-1.6-0.9-3.5-1-4.9-2.5c2-3.5,4-7,7.4-9.2c1.1-0.7,2.4-1,3.7-1.4c3.8-1.1,7.3-0.3,10.7,1.8c2.5,1.5,5.2,2.8,7.8,4
		c1.8,0.8,2.7,2.4,2,4.3c-0.6,1.5-1.1,3.1-2.7,3.9c-0.3,0.1-0.4,0.7-0.7,1c-0.7,0.9-1.4,1.8-2.3,2.6
		C418.5,198.1,417.6,198.5,416.5,199.3z"/>
	<path d="M396.1,125.3c3-0.6,4.9,1.2,6.6,3c2.2,2.2,4.1,4.7,6.2,7.1c0.4,0.5,0.9,1.1,1.2,1.6c0.6,0.9,1.1,1.8,1.7,2.7
		c-0.8,1.4-0.5,3.2-2.1,4.3c-1.1,0.7-2.1,1.6-3.2,2.5c-0.2,0.2-0.6,0.2-0.7,0.4c-2.2,2.4-4.7,1.8-7.3,0.9c-1-0.3-2.1-0.7-3-1.2
		c-0.4-0.2-0.7-0.6-0.9-1c-2.3-4.1-5.1-7.9-8.4-11.3c-2.1-2.1-1.5-4.4,1.3-5.5c0.7-0.3,1.5-0.6,2.1-1.1
		C391.4,126,393.5,124.8,396.1,125.3z"/>
	<path d="M522.5,373.3c0.6,0.8,1,1.7,1.7,2.3c1.5,1.3,1.7,3.2,2.3,5c0.1,0.2,0.1,0.4,0.1,0.6c-0.7,2.3-1.4,4.7-2,7
		c-0.5,1.9-1.1,3.9-1.6,5.8c-0.2,0.7-0.3,1.5-0.6,2.2c-0.4,0.8-0.3,1.4,0,2.1c0.5,1.1,0.3,1.7-0.8,2.4c-1.4,0.9-2.8,1.8-4.3,2.4
		c-4.2,1.6-8,4.1-11.9,6.2c-2.4,1.3-4.9,2.5-7.4,3.5c-2.8,1.2-5.6,2.5-8.1,4.3c-0.5,0.3-0.8,0.9-1.1,1.4c-0.8,1.2-1.8,2-3.4,1.6
		c-0.8-0.2-1.9-0.2-2.6,0.1c-2.9,1.2-6.2,0.9-8.9,2.6c-1.3,0.8-2.7,1.6-3.8,2.7c-0.7,0.6-1.4,1.1-2.2,0.9c-1.8-0.5-3.3,0.5-5,0.8
		c-0.6,0.1-1.2,0.3-2,0.6c0.4,1,0.8,2,1.4,3c1.1,2.1,0.5,4.1-0.1,6.2c-0.3,1-0.8,2-1.1,3.1c-0.3,1.1-0.9,1.8-2,2.1
		c-0.4,0.1-0.8,0.4-1.2,0.6c-0.5,0.3-1,0.5-1.7,0.2c-0.6-0.3-1.4-0.2-2.3-0.3c0-1.9,1-3.4,1.5-5.1c0.3-0.8,0.7-1.6,1-2.5
		c0.4-1.3-0.2-2.4-1.5-2.8c-2.7-0.9-3.7-3-3.4-5.8c0.3-2.1,1.5-3.6,2.7-5.1c0.4-0.4,0.8-1.1,0.7-1.5c-0.3-1,0.1-1.7,0.4-2.5
		c0.6-1.9,0.8-3.9,0.8-6c0-2.2-0.5-4.4,0.2-6.6c0.4-1.4,0.2-3,0.2-4.5c-0.1-2.4-0.3-4.9-0.5-7.3c0-0.1-0.1-0.3,0-0.4
		c0.9-2.5-0.4-4.8-0.8-7.2c-0.4-2.8-0.6-5.7-1-8.5c-0.1-0.9-0.4-1.9-0.5-2.8c-0.2-1.1-0.4-2.2-0.4-3.2c0-1.6-0.1-3.1-1.6-4.2
		c-0.7-0.6-0.8-1.5-0.5-2.5c0.2-0.8,0.2-1.7,0.3-2.7c1.6-1.5,1.6-1.5,1.2-3.1c1.1-1.4,2.5-2.6,4.3-3c0.2,0,0.3-0.2,0.5-0.3
		c4.4-3.2,8.9-6.2,13-9.9c1.3-1.1,2.8-1.9,4.2-2.9c1.5-1.1,2.9-2.3,4.3-3.4c2.1-1.8,3.9-3.8,6.2-5.3c4.2-2.6,7.6-6.2,12-8.6
		c0.8-0.5,1.6-0.9,2.5-1.4c2.3-1.1,3.6-3.3,5.1-5.2c0.5-0.6,0.5-1.6,1-2.2c0.8-1.1,1.6-2.3,3-2.9c0.9-0.3,1.6-1,2.3-1.6
		c0.5-0.4,0.9-0.9,0.6-1.8c-0.4-1.1,0.1-1.6,1.3-1.8c0.7-0.1,1.4-0.2,2-0.3c1.4-0.3,2.3,0.1,3.1,1.3c0.7,1.1,0.7,2.2,0,3.2
		c-0.5,0.8-0.9,1.8-2.1,2c-0.6,0.1-0.8,0.8-0.6,1.5c0.5,1.7,0.9,3.4,0.8,5.2c-0.1,1.3,0.7,2.6,1.1,3.9c0.1,0.3,0.3,0.7,0.3,1
		c-0.4,3.7,1.3,7.2,1.1,10.9c-0.2,2.6,0.3,5.2-0.2,7.9c-0.7,3.4,0.3,6.9,0.9,10.3c0.5,3,0.9,5.9,2.3,8.6c0.2,0.5,0.5,0.9,0.7,1.4
		c0.2,0.6,0.5,1.3,0.4,1.9c-0.2,1,0,1.8,0.4,2.6c0.6,1.1,0.8,2.1-0.3,3.1C522.7,372.6,522.6,372.9,522.5,373.3z M462.3,381.2
		c0.9-0.4,1.5-0.7,2-1c1.8-1.2,3.6-2.4,5.5-3.5c2.1-1.2,4.2-2.2,6.3-3.3c2.1-1.1,4.1-2.3,6.3-3.3c1.5-0.7,1.7-0.8,1.5-2.4
		c-0.6-4.2-1.2-8.4-1.8-12.6c0-0.3-0.2-0.7-0.5-0.8c-1.4-0.9-2.3-2.3-2.7-4c-0.5,0.2-0.8,0.2-1.1,0.4c-1.8,1.3-3.5,2.6-5.2,4
		c-3.4,2.8-6.8,5.7-10.7,7.9c-1,0.6-1.2,1.3-1.2,2.4c-0.1,4.3,0.1,8.6,1.1,12.9C461.9,378.8,462,379.9,462.3,381.2z M488.1,390.3
		c-0.5-0.9-0.9-1.4-1-1.9c-0.4-2.4-0.7-4.8-1.1-7.3c-0.2-1.2-0.5-2.4-0.7-3.7c-2-0.2-3.4,1-4.9,1.7c-2.3,0.9-4.4,2.3-6.6,3.6
		c-1.2,0.7-2.4,1.2-3.5,2c-2,1.5-4.2,2.7-6,4.5c-0.7,0.7-1.2,1.4-1.1,2.4c0.2,2.7,0.7,5.5,0.3,8.2c0,0.2,0,0.4,0,0.6
		c0.4,2.5,0.8,5,1.3,7.4c0.2,1.2,0.9,1.5,1.9,0.7c1-0.7,1.9-1.6,2.8-2.4c2.1-2.1,4.2-4.3,6.4-6.3c2.4-2.1,5-4,7.6-5.9
		C484.9,392.8,486.5,391.6,488.1,390.3z M503.3,353.7c0.6-0.3,1-0.4,1.3-0.6c1.8-1.2,3.6-2.4,5.4-3.6c1.9-1.3,2.8-3.6,2.2-5.9
		c-0.3-1.3-0.5-2.5-0.7-3.8c-0.2-1.8-0.2-3.5-0.5-5.3c-0.3-2.4-0.7-4.9-1.1-7.3c-0.1-0.4-0.2-0.8-0.3-1.4c-1.7,1.2-3.4,1.7-4.8,3
		c-2.9,2.8-6.1,5.2-9.2,7.8c-2.9,2.5-5.8,5.1-9,7.9c0.5,1.8,1.1,3.8,1.6,5.8c0.1,0.3,0.3,0.6,0.2,0.9c-0.3,3.3,0.8,6.4,1.3,9.6
		c0.1,1,0.5,1.9,0.8,3.3c3.2-2.8,6.5-5.1,9.2-8.5c-1.1-0.2-2-0.3-2.8-0.6c-1.6-0.5-3.1-1-4.6-1.6c-0.5-0.2-1-0.5-1.3-0.9
		c-0.6-0.9-0.4-2.4,0.4-3.3c1.2-1.4,2.5-1.8,3.8-1.3c2,0.7,3.9,1.6,5.9,2.2c1,0.3,1.4,1,1.7,1.9
		C503.3,352.4,503.2,352.9,503.3,353.7z M494.6,385c2.5-1.5,4.9-3,6.9-5.1c0.6-0.6,1.3-1.2,2-1.7c1.2-1,2.5-1.9,3.8-2.8
		c1-0.8,2.1-1.6,3.1-2.4c1-0.9,2.1-1.8,3-2.7c0.8-0.8,1.2-1.6,0.3-2.7c-0.3-0.3-0.2-0.9-0.2-1.4c0-1.8,0-3.7-0.1-5.5
		c-0.1-1.3-0.4-2.6-0.6-4.2c-1.1,0.5-1.9,0.7-2.6,1.2c-3.2,2.1-6.6,4.2-9.6,6.5c-2.8,2.1-5.2,4.6-7.9,6.8c-0.9,0.7-1,1.5-0.9,2.5
		c0.4,2.5,0.7,5,1.2,7.5C493.2,382.3,493.4,383.8,494.6,385z"/>
	<path d="M187.9,468.6c0.1,2.5,0.3,5,0.4,7.8c-0.1,0.1-0.5,0.5-1,1c0.3,0.8,0.5,1.6-0.1,2.5c-0.3,0.5,1.1,1.4,0.1,2.3
		c-1.5-0.6-2.9-0.3-4,1.1c0.4,0.3,0.7,0.6,1.2,1c-0.5,0.1-0.8,0.3-0.9,0.2c-1.1-0.6-2-0.3-3,0.3c-2.2,1.4-4.1,0.1-5.7-0.9
		c-1.2-0.8-1.9-2.5-2.7-3.9c-0.9-1.7-1.7-3.4-2.4-5.2c-0.8-1.8,0-3.4,0.9-5c0.4-0.7,0.9-1.4,1.2-2.1c1.3-2.5,3.4-4.2,5.8-5.3
		c1.3-0.6,3.2-0.1,4.5,0.8c1.6,1,3.2,2,4,3.9C186.4,467.7,187.2,468,187.9,468.6z"/>
	<path d="M121.2,531c0-0.5,0.1-1.1,0.2-2C122.2,529.9,122.1,530.4,121.2,531z"/>
	<path d="M174.3,486.8c0.2,0.1,0.3,0.1,0.4,0.2c-0.1,0.2-0.2,0.3-0.3,0.4c0,0-0.3-0.1-0.3-0.2C174.2,487.1,174.3,487,174.3,486.8z"
		/>
	<path d="M358.3,376.1c-2.3-0.9-4.1-2-5.6-3.6c-3.5-3.7-6.9-7.3-10.4-10.9c-0.8-0.9-1.9-1.6-2.9-2.3c-0.8-0.5-1.1-1.2-0.9-2.1
		c0.2-0.8,0.6-1.6,1-2.2c1.3-1.8,2.2-1.8,3.8-0.3c2,1.9,4,3.7,5.9,5.7c1.9,1.9,3.6,3.8,5.4,5.8c0.9,1,1.7,2.1,2.5,3.2
		C358.6,371.3,358.6,373.5,358.3,376.1z"/>
	<path d="M362.6,359.3c-1.5,0.4-2.4-0.2-3.3-1.1c-2.7-2.8-5.3-5.6-8.1-8.3c-1-1-2-1.9-3.1-2.6c-2.8-1.8-1.8-3.8,0.3-5.3
		c1.4-1,1.9-0.9,3.3,0.2c4.1,3.3,7.5,7.3,10.7,11.5c0.8,1.1,1.4,2.1,0.5,3.5C362.5,357.7,362.7,358.5,362.6,359.3z"/>
	<path d="M333,370.8c0.5-0.9,0.8-1.7,1.4-2.3c0.5-0.5,1.3-0.8,2.4-1.3c1.7,0.1,3.2,1.5,4.8,2.8c3.1,2.5,5.9,5.3,8.4,8.3
		c1.3,1.6,1.5,3.6,1.1,5.8c-2.1-0.8-4-1.5-5.5-3c-2-2.1-4.2-4.1-6.4-6c-1.5-1.3-3.3-2.2-4.9-3.3C333.8,371.5,333.4,371.2,333,370.8z
		"/>
	<path d="M297.7,440.1c-0.4,0.2-0.8,0.4-1.2,0.7c-0.4,0.2-0.8,0.5-1.3,0.9c-0.5-0.4-1.1-0.8-1.8-1.3c0.6-5-0.7-9.7-2.7-14.5
		c-0.3-0.1-0.8-0.3-1.3-0.3c-2.6-0.1-5.1-0.8-7.5-1.9c-1.4-0.6-2.4-1.4-2.7-2.8c-0.3-1.6-0.4-3.2-0.4-4.8c0-1.1,0.3-2.2,0.5-3.2
		c0.2-2.2-0.1-2.8-2.1-3.6c-2.3-0.9-3.3-3-4.6-4.8c-0.7-1,0-2.6,1.1-2.8c1.4-0.3,2.8-0.5,4.1-0.7c1,1.1,2,2.1,2.9,3.2
		c1.5,2,3.9,2.3,6,3.2c2.6,1.1,4.8,2.6,6.9,4.3c0.4,0.3,0.8,0.6,1.2,0.7c1.2,0.5,1.6,1,1.5,2.3c-0.1,1.3-0.2,2.6-0.3,3.8
		c2.4,1.5,4.8,3,7.1,4.7c1.6,1.1,3.3,2.2,3.9,4.2c0.1,0.5,0.2,1.4-0.1,1.7c-1.4,1.4-1.3,3.4-1.7,5.1c-0.8,2.7-1.3,5.6-2,8.3
		c-0.6,2.3-2.6,3.3-4.5,4.1c-1.2,0.5-2.1-0.6-1.7-1.9c0.4-1.4,0.7-2.8,1.1-4.1C297.9,440.3,297.8,440.2,297.7,440.1z M287.7,420.2
		c0.3-0.5,0.5-1,0.8-1.4c1.1-1.5,1.2-3.2,0.1-4c-1-0.8-2.1-1.3-3.2-2C284.4,416.1,285.5,419.4,287.7,420.2z M299,430.9
		c0.2,0,0.3,0,0.5,0c0.1-0.7,0.3-1.5,0.4-2.2c0.3-1.5,0.2-1.6-1.8-2.3C298.5,428.1,298.8,429.5,299,430.9z"/>
	<path d="M278.6,194.3c1.1,1,2.2,1.9,3.3,2.9c0.5,0.4,1.1,0.8,1.7,1.2c1.3,1.1,1.6,4,0.6,5.2c-0.8,1-3.5,1.2-4.8,0.5
		c-0.4-0.2-0.8-0.5-1.2-0.8c-1.4-1-2.7-2.1-4.4-2.5c-0.3-0.1-0.6-0.3-0.9-0.5c0-1.4,0.3-2.8-0.3-4.2c-0.5-1.1,0.2-2.3,1.3-3
		c0.7-0.5,1.4-0.8,2.3-1.3c-0.1-0.4-0.2-0.9-0.4-1.3c-0.7-1.5-0.7-1.9,0.7-2.9c0.9-0.7,1.9-1.2,2.6-1.7c1.9,1.5,3.7,2.8,5.4,4.2
		c0.6,0.5,1,1.1,1.3,1.8c0.6,1.7-0.6,3.3-2.5,3.1c-1.1-0.1-2.2-0.6-3.3-0.9c-0.4-0.1-0.8-0.1-1.2-0.1
		C278.8,194,278.7,194.2,278.6,194.3z"/>
	<path d="M503.4,346.3c-0.6-0.1-1.2-0.3-1.8-0.4c-0.8-0.2-1.7-0.6-2.5-0.7c-1.9-0.3-2.9-2-2.1-3.7c1.1-2.3,2.6-3,4.9-2.1
		c1.3,0.5,2.6,1.1,3.6,2.3c0.8,1,0.7,1.8,0.3,2.8C505.4,345.6,504.7,346.3,503.4,346.3z"/>
</g>
</svg>
