<svg xmlns="http://www.w3.org/2000/svg" viewBox="0 0 283.9 68.2" enable-background="new 0 0 283.9 68.2"><style type="text/css">.st0{display:none;} .st1{display:inline;fill:#808080;} .st2{display:inline;fill:#FFFFFF;} .st3{display:inline;fill:#414141;} .st4{fill:#FFFFFF;} .st5{fill:#414141;}</style><path class="st1" d="M-1166.3-76.6h1359.7v398.7h-1359.7z" id="Layer_1"/><g id="good_clouds"><path class="st4" d="M17.6 24c.4 0 15.6-5.2 15.6-5.2l28.9 2.6 16.1 5.6 12.4-7.3 10.3-8.4 18.2-5.4 16 1.6 21.2 8.2 11.4-6.8 15.8-4.8h17.9l19.9 7.2 6 8.6 17.8-1.7 23.4 8.8 9.4 15.2 1.4 13.6-3.8 7.9-57.2-1.3-42.4 1.3-58.4-1.8-55.5-3.9-47.4.1-6.9-2.6v-15.8l9.9-15.7z"/><path class="st5" d="M216.5 64.4c1.3 0 33.4.5 41 .8 1.5 0 19.5.5 20.5-.4 6.1-5.7 4-19 3.2-22.9-1.7-8.2-3.2-7.8-11-16-1.3-1.4-7.2-4-8.4-5.5-.9-.2-1.9-.5-2.9-.9-8.8-3.7-18.3-4.9-27.8-2.9-1.8.4-3-.2-4.2-1.7-2.8-3.8-6.6-6.2-11.1-7.5-.8-.3-1.7-.5-2.5-.9-6.2-2.8-12.7-4.1-19.5-4.3-5.2-.1-10.2.7-15.4 1.6-7.8 1.5-15 4.5-21.8 8.4-1.5.9-2.5.9-4.1.2-5.1-2.2-10.2-4.3-15.5-5.9-9.6-3-19.5-3-29.2-.3-7.5 2-14.2 5.9-20.7 10.1-.7.5-7.4 5.8-8.1 6.8-.2.3-2.5-.6-2.7-.6.7 1.2-24.8-10.2-42.7-7-15.6 1.4-26.2 10-28.7 20.7.1.4-2.6 13.4-2.4 17.4.1 2.7 1.6 4.2 3.9 5 1.2.4 2.5.5 3.7.5l28.8.8c16.8.5 33.6 1 50.4 1.8 17.2.8 34.3 1.9 51.5 2.8 7.1.4 14.1.4 21.2.5 8.2.2 16.4.4 24.6.4.7.1 23.6-1.1 29.9-1zm-29.9-3c-16.5-.4-33-.4-49.5-1-15.4-.6-30.8-1.7-46.1-2.7-13-.8-25.9-1.8-38.9-2.4-8.2-.3-16.4.1-24.6.2-4.2 0-8.3 1.2-12.5 1-4.2-.1-5.6-2.2-5.1-6.5.5-4.1.4-18 12.1-23.2 6.7-3 8.1-5.4 19.6-5 0 .2 13.9 1.2 26.6 5.1 5.2 1.6 10.6 4.6 12.5 3.1 4-3.2 9.4-6.8 11.9-9.3 6.2-6.4 13.9-10.4 22.6-12.2 9.6-2 18.8-.3 27.8 3.4 2 .8 4 1.7 5.8 2.8 1.3.8 2.5 2 3.5 3.3 2.3 2.9 4.9 3.3 7.2.5 9.5-11.6 22.4-13.7 36.2-13 5.6.3 10.9 1.6 16.2 3.6 5.3 2 10.1 4.3 12.1 10.4.8 2.5 2.4 4.7 4.6 3.1 1-.7 2.2-1.6 3.3-1.6 8.1-.2 16.2-.5 23.8 3.1l2.4 1.1c1.2.6 14.3 9.5 16.5 17.9.6 2.4 3.9 15.5 1.8 16.4-7.8 3.1-26 .1-32-.7-6.5-.9-22.3.4-30.7 1.3-6.3.6-24.7 1.3-27.1 1.3z"/></g></svg>