<svg xmlns="http://www.w3.org/2000/svg" viewBox="0 0 272.4 69.4" enable-background="new 0 0 272.4 69.4"><style type="text/css">.st0{display:none;} .st1{display:inline;fill:#808080;} .st2{display:inline;fill:#FFFFFF;} .st3{display:inline;fill:#414141;} .st4{fill:#FFFFFF;} .st5{fill:#414141;}</style><g id="good_clouds"><path class="st4" d="M58.1 27.2l8.9 7.2 3.4-15.8 14.4-8.8 17.8-6.2 21.7 5.4 8.6 4.2 18.9-3.7 21.7 3 16.6 9.9 5.6 10 18.9-6.1 20.4 1.3 18.2 7.9 12.2 12 3 9.2-5.6 7.4-182.4-4.3-63.7 4.3-10.6-16.9 4-14.5 18.1-9.8 19.9-1.1z"/><path class="st5" d="M268.4 47.9c-2.4-5.5-4.8-9.8-10.1-12.5-.5-.3-11-9.2-36.5-12.8-13.4.3-20.6 6.5-22.3 7.1-1.9.6-2.6-.4-3.3-1.7-5-9-13.3-13.9-22.6-16.7-13.3-4-27-5.6-40.6-1.3-1.7.5-2.8.2-4-1-1.5-1.3-3.1-2.7-4.9-3.4-6.9-2.6-13.8-4.8-21.4-3.6-7 1.1-14 1.8-20.2 5.7-.9.6-1.7 1-2.6 1.3-.2.1-.4.2-.5.3-.6.6-1.5 1-2.3 1.3-.8.4-1.5.9-2.1 1.4 0 .1-.1.1-.2.2-.6.7-1.1 1.4-1.8 1.8-.1.2-.3.4-.6.6-3.7 2.7-6.2 6.6-8.7 10.3-1.3 2-2.3 2.2-4.1.9-4.9-3.7-10.5-5.2-16.5-6-6.5-.9-12.6.4-18.6 2.4-5.1 1.8-10.3 3.6-14.5 7.2-6 5.2-9.3 11.6-8.2 19.7l.1.8.1.2c.1 2.6 1.7 4.8 3 7.1.5.7 1 1.6 1.3 2.5 1.2 4 4.1 6 7.5 6 12.1 0 24.2-.2 36.3-.6 14-.4 28-1.5 42-1.6 19.6-.1 39.2.4 58.7.6 17.2.2 34.4.5 51.5.8 14.3.2 28.6.1 42.8.5 5.6.1 11.4-.4 16.9 1.5.6.2 1.6 0 2.1-.4 1.6-1.3 3.2-3.5 4.4-5.1 3.6-4.4 1.8-9.2-.1-13.5zm-8.6 13.5h-4.5v-.2c-12.7-.5-25.5-1-38.2-1.3l-32.6-.2-46.2-1.1c-4.3-.1-8.6.3-12.9.3-13.7-.2-27.5-.7-41.2-.7-10.5 0-21 .7-31.4 1.2-10.3.5-20.7 1-31 1.7-4.6.3-5.9-3.3-7.9-5.9-3.2-4.2-4.1-9.3-3.9-14.3.1-3.3 1.4-6.5 4.3-8.5 2.5-1.7 5.2-3 7.9-4.4l5-1.8c8.2-3.7 16.7-2.7 24.8-.2 3.5 1.1 6.4 4.3 9.5 6.6 1.2.9 2.2 2 3.5 2.7 3.2 1.7 4.5 1 4.2-2.6-.8-8.8 3.8-12.7 10.4-17.4 13.4-9.5 27.7-9.8 42.4-3.5 2.1.9 3.8.8 5.5 2.4 2.3 2.2 5.7 2.4 8.3.6 1-.7 2.2-1.4 3.4-1.6 4.2-.5 8.5-1.2 12.8-1 5.2.2 10.3 1.2 15.4 1.8 6.6.8 12.2 3.9 17.6 7.4 3.9 2.5 6.4 6 8.1 10.3 1.7 4.2 3.3 4.5 7.1 2.1 5-3.2 10.8-4.3 16.6-4.8 8.5-.7 16.7.4 24.8 3.9 6.2 2.7 12.2 5.5 17 10.3 1.8 1.8 3.5 3.7 4.7 5.9 1.1 1.9 1.8 4.2 2.1 6.4.4 3.5-2 5.9-5.6 5.9z"/></g></svg>