<?xml version="1.0" encoding="utf-8"?>
<!-- Generator: Adobe Illustrator 18.1.0, SVG Export Plug-In . SVG Version: 6.00 Build 0)  -->
<!DOCTYPE svg PUBLIC "-//W3C//DTD SVG 1.1//EN" "http://www.w3.org/Graphics/SVG/1.1/DTD/svg11.dtd">
<svg version="1.1" xmlns="http://www.w3.org/2000/svg" xmlns:xlink="http://www.w3.org/1999/xlink" x="0px" y="0px"
	 viewBox="0 0 303.7 74" style="enable-background:new 0 0 303.7 74;" xml:space="preserve">
<style type="text/css">
	.st0{fill:#808080;}
	.st1{fill:#FFFFFF;}
	.st2{fill:#414141;}
</style>
<g id="Layer_1">
</g>
<g id="Layer_2">
</g>
<g id="good_clouds">
	<g>
		<polygon class="st1" points="17.1,68.9 7,59.2 7,45.4 24,34.4 41.8,30.4 67.2,28.1 81.2,29.1 92.7,22 105.3,13.2 118.6,6.4 
			142.6,3.4 160.3,4.5 174.5,12.3 182.5,25.7 183.7,27.6 196.3,21.5 204.6,19 232.1,19.2 241.3,27.2 239.3,36.1 239.6,37.7 
			259.9,37.6 273.7,37.7 286.7,42.3 293.6,50.7 299.1,61.3 296.2,68.9 291.7,69.6 243.9,67.4 198.1,66.5 146.6,67.4 114.2,66 
			36.4,68.5 		"/>
		<path class="st2" d="M302.2,60.3c-0.1-0.7-0.1-1.4,0-2c-0.5-1.1-1-2.1-1.4-3.2c-1-2.6-1.8-5.1-3.4-7.4c-0.5-0.4-1.2-1-2.1-2
			c-0.2-0.2-0.3-0.4-0.5-0.6c-6.6-6.3-14.1-10.4-23.4-11.2c-7-0.6-13.8-0.1-20.8,0.7c-6,0.7-6,0.5-6-5.5c0-6-2.7-9.6-8.3-11.7
			c-8.6-3.3-17.4-2.5-26.2-1.8c-7.4,0.6-14.3,2.9-21,5.8c-3.3,1.4-4.2,2.2-5.6-2.5c-1.5-4.8-4.4-8.6-8.9-10.8
			c-7.6-3.7-15.6-6.1-24-6.4c-15.8-0.6-31.2,1.9-45.8,8.4c-8.3,3.7-16.1,8.3-22.8,14.7c-1.6,1.5-3.3,1.6-5.2,1.2
			c-2.6-0.4-5.2-0.8-7.8-1c-12.6-0.7-24.9,1.9-37,5C23.2,32,15.1,35.7,8,41.6c-6.3,5.2-7.7,12.8-2.7,19.2c1.9,2.5,3.9,4.9,6.2,7
			c2.7,2.5,6,4.1,9.9,4c6.8-0.3,13.6-0.6,20.5-0.7c14.5-0.1,29-0.1,43.6-0.1c10.1-0.1,20.2-0.3,30.3-0.4c9.9-0.1,19.7,0.1,29.6-0.1
			c11-0.2,22-0.7,32.9-1c5.8-0.1,11.6,0,20.2,0c3.8,0.1,9.4,0.3,15.4,0.6c2.8-0.8,6-0.4,8.8-0.3c3.5,0.2,7.1,0.7,10.6,1h1.6
			c1.5-0.3,3-0.4,4.6-0.3c8.1,0.5,16.2,0.6,24.2,0.9c0,0.1,0,0.2,0,0.3h0.9c0.2,0,0.3,0.1,0.5,0.2c0.1,0,0.1,0,0.2,0
			c8.5,0,16.9,0,25.4,0c0.5,0,1,0,1.5,0.1c0.1-0.1,0.3-0.2,0.6-0.2c0.3,0,0.5,0.2,0.6,0.4c4.6,0.5,4.9,0.3,7.1-4.2
			C301.4,65.5,302.5,62.7,302.2,60.3z M295.4,63.9c-0.5,3.1-1.2,3.7-4.2,3.4c-7.6-0.6-15.1-1.3-22.7-1.8c-4.7-0.3-9.3-0.5-14-0.6
			c-13.1-0.3-26.3-0.7-39.4-0.9c-2.2,0-4.5,0.6-6.7,0.6c-14.9-0.1-29.8-0.4-44.7-0.4c-16.7-0.1-33.4,0.1-50,0.1
			c-4.7,0-9.3-0.6-14-0.5C87.8,64,76,64.3,64.1,64.8c-11.7,0.5-23.4,1.6-35.2,2.1c-3.3,0.1-6.9-0.2-10.1-1.3
			c-7.5-2.5-11.4-9.8-6.1-18.6c2.6-4.3,6.2-7.5,11.2-9.2c10.8-3.7,21.6-7.1,33.1-7.6c3.7-0.2,7.5,0.3,11.3,0.4
			c4.7,0.1,9.3,0.3,14,0.2c1.2,0,2.7-0.3,3.4-1.1c4-4.6,9.6-6.9,14.5-10.2c1.9-1.3,3.8-2.5,5.6-3.8c6.6-4.5,14-6.9,21.9-7.9
			c9-1.1,18-2.2,27.2-1.5c9.5,0.7,16.3,5.3,20.6,13.8c1,1.9,1.7,3.9,2.5,5.9c1.4,3.7,4,4.9,7.7,3.3c4.9-2.1,9.6-4.7,14.6-6.2
			c10.2-3,20.5-3.8,30.7,0.7c5.7,2.6,7.7,7.8,4.9,13.3c-0.4,0.8-0.8,2.4-0.5,2.6c0.8,0.6,2,1,3.1,0.9c3.9-0.3,7.8-0.6,11.7-1.1
			c8.1-1.1,16.2-0.6,24.1,0.9c9.8,1.9,16.4,8,20.7,16.7c0.7,1.3,0.7,2.9,0.9,3.7C295.6,62.4,295.5,63.2,295.4,63.9z"/>
	</g>
</g>
</svg>
