<?xml version="1.0" encoding="utf-8"?>
<!-- Generator: Adobe Illustrator 18.1.0, SVG Export Plug-In . SVG Version: 6.00 Build 0)  -->
<!DOCTYPE svg PUBLIC "-//W3C//DTD SVG 1.1//EN" "http://www.w3.org/Graphics/SVG/1.1/DTD/svg11.dtd">
<svg version="1.1" xmlns="http://www.w3.org/2000/svg" xmlns:xlink="http://www.w3.org/1999/xlink" x="0px" y="0px"
	 viewBox="0 0 283.9 68.2" style="enable-background:new 0 0 283.9 68.2;" xml:space="preserve">
<style type="text/css">
	.st0{fill:#808080;}
	.st1{fill:#FFFFFF;}
	.st2{fill:#414141;}
</style>
<g id="Layer_1">
</g>
<g id="Layer_2">
</g>
<g id="good_clouds">
	<g>
		<path class="st1" d="M17.6,24c0.4,0,15.6-5.2,15.6-5.2l28.9,2.6L78.2,27l12.4-7.3l10.3-8.4l18.2-5.4l16,1.6l21.2,8.2l11.4-6.8
			l15.8-4.8h17.9l19.9,7.2l6,8.6l17.8-1.7l23.4,8.8l9.4,15.2l1.4,13.6l-3.8,7.9l-57.2-1.3l-42.4,1.3l-58.4-1.8L62,58l-47.4,0.1
			l-6.9-2.6V39.7L17.6,24z"/>
		<path class="st2" d="M216.5,64.4c1.3,0,33.4,0.5,41,0.8c1.5,0,19.5,0.5,20.5-0.4c6.1-5.7,4-19,3.2-22.9c-1.7-8.2-3.2-7.8-11-16
			c-1.3-1.4-7.2-4-8.4-5.5c-0.9-0.2-1.9-0.5-2.9-0.9c-8.8-3.7-18.3-4.9-27.8-2.9c-1.8,0.4-3-0.2-4.2-1.7c-2.8-3.8-6.6-6.2-11.1-7.5
			c-0.8-0.3-1.7-0.5-2.5-0.9c-6.2-2.8-12.7-4.1-19.5-4.3c-5.2-0.1-10.2,0.7-15.4,1.6c-7.8,1.5-15,4.5-21.8,8.4
			c-1.5,0.9-2.5,0.9-4.1,0.2c-5.1-2.2-10.2-4.3-15.5-5.9c-9.6-3-19.5-3-29.2-0.3c-7.5,2-14.2,5.9-20.7,10.1
			c-0.7,0.5-7.4,5.8-8.1,6.8c-0.2,0.3-2.5-0.6-2.7-0.6c0.7,1.2-24.8-10.2-42.7-7c-15.6,1.4-26.2,10-28.7,20.7
			C5,36.6,2.3,49.6,2.5,53.6c0.1,2.7,1.6,4.2,3.9,5c1.2,0.4,2.5,0.5,3.7,0.5c9.6,0.3,19.2,0.5,28.8,0.8c16.8,0.5,33.6,1,50.4,1.8
			c17.2,0.8,34.3,1.9,51.5,2.8c7.1,0.4,14.1,0.4,21.2,0.5c8.2,0.2,16.4,0.4,24.6,0.4C187.3,65.5,210.2,64.3,216.5,64.4z M186.6,61.4
			c-16.5-0.4-33-0.4-49.5-1c-15.4-0.6-30.8-1.7-46.1-2.7c-13-0.8-25.9-1.8-38.9-2.4c-8.2-0.3-16.4,0.1-24.6,0.2
			c-4.2,0-8.3,1.2-12.5,1c-4.2-0.1-5.6-2.2-5.1-6.5c0.5-4.1,0.4-18,12.1-23.2c6.7-3,8.1-5.4,19.6-5c0,0.2,13.9,1.2,26.6,5.1
			c5.2,1.6,10.6,4.6,12.5,3.1c4-3.2,9.4-6.8,11.9-9.3c6.2-6.4,13.9-10.4,22.6-12.2c9.6-2,18.8-0.3,27.8,3.4c2,0.8,4,1.7,5.8,2.8
			c1.3,0.8,2.5,2,3.5,3.3c2.3,2.9,4.9,3.3,7.2,0.5C169,6.9,181.9,4.8,195.7,5.5c5.6,0.3,10.9,1.6,16.2,3.6c5.3,2,10.1,4.3,12.1,10.4
			c0.8,2.5,2.4,4.7,4.6,3.1c1-0.7,2.2-1.6,3.3-1.6c8.1-0.2,16.2-0.5,23.8,3.1c0.8,0.4,1.6,0.7,2.4,1.1c1.2,0.6,14.3,9.5,16.5,17.9
			c0.6,2.4,3.9,15.5,1.8,16.4c-7.8,3.1-26,0.1-32-0.7c-6.5-0.9-22.3,0.4-30.7,1.3C207.4,60.7,189,61.4,186.6,61.4z"/>
	</g>
</g>
</svg>
