<svg xmlns="http://www.w3.org/2000/svg" xmlns:xlink="http://www.w3.org/1999/xlink" viewBox="0 0 827.2 503.9" enable-background="new 0 0 827.2 503.9"><style type="text/css">.st0{clip-path:url(#SVGID_2_);} .st1{fill:#131C17;}</style><defs><path id="SVGID_1_" d="M825.7 503.9l-828.5 34 1.5-548.5 828.5-34z"/></defs><clipPath id="SVGID_2_"><use xlink:href="#SVGID_1_" overflow="visible"/></clipPath><path class="st1" d="M847.5 529.3c-.1 1.2-1 1.5-1.8 1.6-2.9.5-5.7.9-8.6 1.3-.4.1-.8 0-1.2 0-1 0-1.4-.4-1.2-1.5.5-3.1 1-6.1 1.4-9.2.1-.4 0-.8 0-1.2l-.4-.2-.7 3c-.2 1-.3 2.1-.3 3.1 0 1.3-.5 2.2-1.9 2.3-1 .1-1.3.6-1.4 1.5l-.9 5.4c-.1 1.3-.7 1.9-1.9 2-.9.1-110.3-.8-110.6.3-.1.3-.6.6-.9.7-1.6.2-39.2-1.8-40.9-1.7-.6 0-1-.2-.9-1 .2-1.1.2-2.2.3-3.3 0-.1-.2-.3-.4-.5-.1.1-.3.2-.3.3l-.7 2.5c-.5 2.2-1 2.4-3.7 2.3-.5 0-1 0-1.5.1-1.7.3-1.7.3-1.7-1.5 0-1.1-.7-1.2-1.4-1.1-2.3.4-4.6.9-7 1.2-1.8.3-3.6.5-5.4.6-.4 0-1.1-.7-1.2-1.1-.2-.7-.3-1.4-1.1-1.2-.7.2-1.9.6-1.9.9-.2 2.2-1.7 2.2-3.3 2.3-.9 0-1.9.1-2.8 0-.4 0-1.1-.2-1.2-.5-.2-.8-.8-.7-1.3-.7s-1 .2-1.4.2c-1.3 0-1.5-.4-1.1-1.6.4-1 .8-2.1 1.3-3.1.4-.8.1-1.2-.8-1.2-2.5.1-4.9.3-7.4.5-.4 0-.9.4-1 .9-.3 1.3-1.3 1.7-2.5 1.8l-9.5.9c-4.6.4-9.3.6-13.9 0-.6-.1-1.3-.1-1.9-.3-1-.3-1.8-.8-1.1-2.1.6-1.1-62.4-4.8-63.1-4.9-1.6-.3-3.2-.5-4.7-.8-2.3-.5-4.7-1-7-1.6-.7-.2-1.3-.6-1.9-.9-.6-.2-1.1-.6-1.7-.6l-19-2.1c-4.7-.5-9.3-1.3-14-1.7-6.4-.7-12.9-1.2-19.3-1.7-4.1-.3-8.3-.2-12.4-.3-7.1-.2-34.2 6-41.3 5.6-6.9-.4-13.9-.9-20.8-1.8-7.7-.9-60.4-7.6-68.1-7.7l-7.4.1c-.9 0-1.7.1-2.2-.9-.2-.3-1-.5-1.5-.5l-26.8-.8c-6.1-.2-17.2-6.9-23.4-7.3-13.4-.8-39.6 28-52.9 27l-16.7-1.6c-4.3-.4-8.6-.6-12.9-.8-10.9-.6-21.8-1.3-32.7-1.7-5.6-.2-11.2 0-16.8 0-.7 0-1.4.1-1.2 1 .1 1-.4 1.3-1.1 1.5-1 .4-2 .7-3 1-1.3.4-2.6.7-3-1.1-.2-.7-.7-.8-1.3-.5-.4.2-.9.4-1.4.4-1.5.2-1.8 0-2.1-1.5-.1-.3 0-.7-.2-.9-.1-.2-.5-.5-.7-.4-.3 0-.6.3-.7.6-.1.5 0 .9 0 1.4 0 1.3-.5 2-1.8 2.4l-3.2.9c-1.3.4-1.7.2-2-1.2v-.5l-.7-.8c-.2.2-.5.4-.5.7 0 1.4-1.2 1.8-2.1 2.4-1.1.8-2.3.1-2.5-1.3l-1-7.1c-.1-.5-.3-1.3-.6-1.4-.7-.2-1.6-.2-2.3-.1-.1 0-.4.7-.3 1 .4 1.2-.2 1.8-1.2 2.3-1.1.5-2.2 1-3.3 1.4-1.2.4-1.8-.1-1.9-1.3l-.2-3.8c0-1-.3-1.4-1.3-.9-.9.4 54.4 6.2 53.5 6.4-.9.2-181.3.7-181.4-.8 0-.9-.5-.9-1.1-.6-.8.4-1.7.9-2.5 1.4-1.2.7-2.4 1.5-3.7 2.1-1.3.6-2.2.2-2.4-1.2-.2-1.4-.6-1.9-2.1-2.1-1.5-.3-2.3-1.7-2.8-3-.9-2.3 18-423.3 17.9-425.8-.2-3.7-.8-7.4-.8-11.2 0-2.9-9.2-39.8-8.7-42.6.2-1.1.6-2 .1-3.3-.4-1-.1-2.4.2-3.5.8-3.3 1.7-6.6 2.6-9.9.5-1.7.4-1.7-1.3-1.8l-7.2-.3-2.4.1c-1.7-.2-3.5-.3-5.2-.7-1.4-.4-2-1.8-1.7-3.5.3-1.8.7-2.2 2.5-2.3h1.9c5.8.2 11.6.4 17.5.5 5.2.1 122.7 20 133.5 13.6 7.9.4 21-17.8 28.9-17.3l25.8 1.7c3.7.3 7.5.8 11.2 1.2 2 .2 3.9 1.3 6 .6.2-.1.8.5 1.1.8 1.8 2.6 3.7 5.2 5.2 8 1.2 2.1.7 5.3 1.2 7 .4 1.3.5 2.6.3 3.9-.7 4.1 9.6 42.6 12.3 43.1 1 .2 2 .5 2.5 1.3 2 3 3 3.8 4.3 2.3 1-1.2 2.1-2.4 3-3.7.2-.2 1.4-33.9 1.2-34.2-.9-1.2 1 1.2 0 0-.8-1 6-6.8 6.9-7.5 1.7-1.2-10.8-6.8-9.2-8l6.6-5.1c.6-.4 1.1-1 1.8-1.2 1.1-.4 2.1-.6 3.3.3 3.1 2.2 6.5 4.1 9.8 6 .5.3 1.4.2 2 0l9-3.2c4-1.3 26.9-2.9 30.9-4.3 1.8-.6 3.3-.1 4.8.6.9.4 1.8 1.1 2.7 1.6 1.9 1 3.8 1.9 6.1 1.6 2.1-.2 4.3 0 6.4.1.5 0 1 .4 1.3.8l4.9 5.8.1.1c1.5 1.3 3 2.6 4.4 4 1.5 1.4 9.6 67.1 11.6 67.6 3.1.8 11.4 9.6 14.5 10.6 1 .3 7-11.6 7.8-12.4.3-.3.8-.6 1.2-.8 2.4-1.3 3.9 0 6.2 4.6.9 1.8 2.6 2.9 4.5 3.7 3.3 1.3 10.4 25.8 14.2 29.1.7.6 1.1.4 1.2-.5.2-1.7.7-3.5.5-5.2-.3-3.7 1.4-6.6 3.4-9.4 3.1-4.3.7-22.4-2.2-27.9-.5-.9-.7-2-1.3-2.8-1.6-1.9-1.2-3.7-.1-5.7.9-1.7-15.5-49.4-15.5-51.5 0-1 .8-.9 1.4-.8 2.4.4 4.8.9 7.2 1.5 6.8 13.7 22.2 4.1 32.4 4.9 3.7.7 31.4 4.5 34.3 7 2.6 2.3 2.6 2 4.4-1.5.9-1.9 3.8-15.9 4.6-17.9.6-1.4 1.4-2 3.1-1.8 4.5.5 9 .7 13.5.9 4.3.2 29.8 31.4 34.1 31.7 1.5.1 2.7.8 3.9 2.1 2.9 2.9 6.3 5.3 9.7 7.6 3 2 4.1 5.1 5.5 8.1.4 1-.2 1.4-.8 2-.6.6-1 1.3-1.5 2l2.2-.8 9.6-4.7c-.2-3-.6-6-.5-9 .1-1.7.6-3.4 1.2-5 .4-1.1 1.2-1.4 2.5-1 3.1 1 6.2 2 9.4 2.7 4 .9 8 1.4 12 2.2 2.8.6 5.4-.1 8-.7l8.1-2c4.9-1.2 26.4-23.7 31.3-24.7 4.3-.9 53.4-1.7 57.8-2.3 3.6-.5 7.3-.7 10.9-1.1.6-.1 1.2-.3 1.8-.6 1.4-.6 2.7.1 2.5 1.6-.3 2.9-.7 5.8-1.2 8.7-.5 2.8-.9 5.7-1.6 8.4-.3 1.1-1.1 2.1-1.8 2.9-2 2.2-1.9 2.1-.9 4.8 1.7 4.6 2.9 9.4 4.6 14.1.4 1 .6 2.1.9 3.2.6 2.9 3.5 2.6 6.6 4.1.8-4.2.3-8.5.1-12.7 0-.9 13.7-.2 14.4-.7 3.1-2.1 5.3-5.1 7.7-7.8.3-.4.5-.8.9-1.1 2.1-1.7 2-3.7 1.1-6-1.2-3.1-2.6-6.2-3.2-9.5-.6-3.1-1.5-6-2.7-8.9-.5-1.4.6-1.6 1.9-1.7.3 0 .9-.1 1.2 0 3.1.1 6.1-.5 9.1-.8 5.8-.5-2.4-14.5 3.4-14.7 6.1-.2 12.1-.5 18.1-1.4 6-.8 12-1.4 18.1-1.9 10.3-.9 27.5 11 37.9 10.2 5.4-.4 93-13.7 98.4-14 2.3-.1 3 .9 2.3 3l-.4 1.6m-896.1 6c-1.9-.1-2.1 0-2.5 1.7-.5 1.9-1.1 3.9-1.3 5.8-.5 4.3-1 8.7-1.3 13.1-.2 2.8 9.5 39.7 9.4 42.6 0 2 .1 4 .2 6 0 .2.2.4.3.6.2-.2.5-.3.6-.5l.1-.9c.3-2.6-.4-5.3.9-7.7.1-.3-.1-.8-.1-1.2-.1-.6-.3-1.3-.2-1.9.4-3.8-9-41.6-8.2-45.3.8-3.6 2-7.2 3.1-10.7.3-1.4.2-1.5-1-1.6z"/></svg>