<?xml version="1.0" encoding="utf-8"?>
<!-- Generator: Adobe Illustrator 18.1.0, SVG Export Plug-In . SVG Version: 6.00 Build 0)  -->
<!DOCTYPE svg PUBLIC "-//W3C//DTD SVG 1.1//EN" "http://www.w3.org/Graphics/SVG/1.1/DTD/svg11.dtd">
<svg version="1.1" id="Layer_1" xmlns="http://www.w3.org/2000/svg" xmlns:xlink="http://www.w3.org/1999/xlink" x="0px" y="0px"
	 viewBox="0 0 612 607.2" style="enable-background:new 0 0 612 607.2;" xml:space="preserve">
<g>
	<path d="M416.8,575.3c-5.8,0.2-11.5,0.4-17.3,0.5c-3.9,0-7.8-0.2-11.8-0.3c-3.7-0.1-7.3-0.1-11-0.3c-2.7-0.1-5.4-0.4-8.1-0.5
		c-5.5-0.2-11-0.3-16.4-0.6c-2.6-0.1-5.2-0.4-7.8-0.6c-0.9-0.1-1.8-0.2-2.6,0.1c-2.6,1-5.2,1-7.9,0.7c-5.4-0.5-10.9-0.5-16.4-0.8
		c-2-0.1-4-0.6-6-0.6c-2.3,0-4.7,0.3-7,0.4c-1.1,0.1-2.3,0.4-3.4,0.1c-5.2-1.2-10.4-0.2-15.7-0.3c-3.3-0.1-6.6-0.3-9.9-0.4
		c-2.7,0-5.4,0.2-8.1,0.2c-4,0.1-8,0-12,0.1c-7.6,0.2-15.2,0.4-22.8,0.6c-6.5,0.1-12.9,0-19.4,0.1c-2.1,0-4.2,0.4-6.2,0.5
		c-2.5,0.1-5,0.3-7.6,0.2c-4.6-0.1-9.2-0.6-13.8-0.5c-6.6,0.2-13.2,0.8-19.8,1.4c-5.6,0.5-11.3,1.4-16.9,1.9
		c-7.3,0.7-14.6,0.9-21.9,1.9c-9.1,1.2-18.3,0.3-27.4,1.1c-5,0.4-10.1,1-15.1,1.4c-2.9,0.3-5.9,0.4-8.8,0.5c-1.7,0.1-2.5-1-3-2.4
		c-0.9-2.8-1.8-5.6-2.6-8.5c-0.2-0.5-0.4-1-0.3-1.5c0.3-2.5-0.7-4.6-1.7-6.8c-0.4-0.9-0.1-2.3,0.3-3.3c0.8-2.5,1.2-5.1,1.2-7.7
		c0-4.8,0.2-9.6,0.2-14.3c0-3.9-0.4-7.8-0.3-11.8c0.1-5.7,0.4-11.3,0.4-17c0-2.6,0.9-5.2,0.1-8c-0.3-0.9,0.3-2.4-0.3-3.6
		c-0.1-0.2,0-0.6,0.2-0.7c1.5-1.3,0.7-2.8,0.4-4.3c-0.3-1.4-0.3-2.9-0.2-4.3c0.1-2.1,0.2-4.2,0.5-6.2c0.2-1.5-1.3-2.6-0.6-4.4
		c0.6-1.4,0.3-3.1,0.3-4.6c0-1.6-0.2-3.1-0.2-4.7c-0.1-4-0.2-8-0.3-12c-0.1-4.4-0.2-8.8-0.2-13.3c-0.1-10.3-0.2-20.6-0.1-30.9
		c0-4.9,0.4-9.8,0.5-14.6c0.1-4-0.1-8,0-12c0.1-7.4,0.3-14.8,0.4-22.2c0.1-5.2,0.1-10.5,0.2-15.7c0.1-4.6,0.1-9.2,0.2-13.8
		c0-4.8,0-9.6,0-14.4c0-3,0.1-5.9,0.1-8.9c0-0.6-0.3-1.1-0.5-1.7c-0.5,0.3-1.2,0.4-1.6,0.8c-3,2.5-6,5.1-8.8,7.7
		c-1.1,1-1.9,2.5-2.9,3.7c-3.7,4.1-7.4,8.1-11.8,11.4c-1.2,0.9-2.4,1.4-3.9,1.2c-0.9-0.1-1.7,0-2.6,0c-2.5,0-3.6-1.6-3.2-3.9
		c0.6-3.8,2.5-7,4.6-10.1c2.6-4,5.5-7.7,7.4-12.2c0.8-1.9,2.3-3.5,3.4-5.2c1.7-2.7,2.9-5.8,5-8.1c3.5-3.9,5.9-8.5,9.4-12.4
		c3.5-3.9,7.8-7.1,11.3-11c1.9-2.1,4.1-3.7,6.2-5.5c4.1-3.6,7.9-7.5,11.8-11.3c2.5-2.4,4.7-5.1,7.3-7.4c3.6-3.3,7.5-6.4,11.2-9.7
		c1.7-1.5,3-3.3,4.6-4.9c1.6-1.6,3.4-3.1,5.1-4.7c1.2-1.1,2.2-2.5,3.3-3.7c2.2-2.2,4.4-4.5,6.5-6.7c1.5-1.5,3-3.1,4.5-4.6
		c5-4.7,9.9-9.5,14.9-14.2c3.1-2.9,6.1-5.9,9.2-8.8c3.7-3.5,7.5-7,11.3-10.5c3.9-3.6,7.6-7.3,11.5-10.9c3.1-2.8,6.3-5.5,9.3-8.3
		c3.2-2.9,6.3-5.8,9.4-8.6c3-2.8,6-5.6,9-8.4c3.2-3,6.4-6.2,9.7-9.1c1.3-1.2,2.7-2.1,3.5-3.8c0.1-0.3,0.5-0.6,0.8-0.7
		c3.7-2,6-5.4,9-8.2c4.3-3.9,8.6-7.8,12.8-11.8c1.1-1,2-2.2,3-3.2c3.1-3,6.3-6,9.4-9c4.8-4.6,9.5-9.2,14.4-13.7
		c3.6-3.4,7.3-6.7,11-10.1c1.2-1.1,2.3-2.4,3.5-3.5c2.1-1.9,4.3-3.7,6.4-5.7c1.3-1.2,2.3-2.6,3.6-3.7c1.8-1.6,3.8-3.1,5.7-4.6
		c0.9-0.8,1.9-1.5,2.8-2.4c3.8-3.6,7.5-7.3,11.3-10.9c1.1-1,2.5-1.6,3.6-2.6c1.4-1.2,2.5-2.6,3.9-3.8c2.6-2.2,5.2-4.3,8-6.2
		c2.6-1.9,5.4-3.4,8.4-4.6c2.5-1.1,5.1-1.3,7.5-0.1c1.4,0.7,2.5,1.8,3.6,3c1.3,1.4,2.2,3.1,3.5,4.5c1.6,1.8,3.4,3.3,5,5
		c2.3,2.4,4.4,4.9,6.6,7.4c0.9,1,2,1.9,3,2.9c2.2,2.2,4.5,4.3,6.5,6.6c5.9,6.7,12.4,12.9,18.6,19.3c5.1,5.3,10.9,9.8,16,14.9
		c4.3,4.4,9,8.5,13.2,12.9c4,4.2,8.3,8,12.8,11.8c5.3,4.4,10.1,9.3,15.1,14c2.8,2.6,5.5,5.2,8.4,7.8c4.2,3.8,8.4,7.5,12.5,11.5
		c1.5,1.5,2.6,3.4,4.1,5c1.8,2,3.7,3.9,5.6,5.8c5.9,6.1,11.8,12.1,17.6,18.3c3.1,3.3,6,6.7,8.9,10.1c0.1,0.1,0.2,0.3,0.3,0.4
		c6.2,5.6,12.4,11.3,18.5,17c2.3,2.1,4.3,4.5,6.6,6.7c4,3.9,8.1,7.7,12,11.6c1.5,1.5,2.9,3.3,4.4,4.9c1.6,1.8,1.9,4.1,2.3,6.3
		c0.1,0.6-0.3,1.5-0.8,2.1c-1.1,1.6-2.2,3.3-3.5,4.8c-1.1,1.3-2.4,2.5-3.5,3.8c-1.4,1.6-2.8,3.3-4,5c-2.2,2.9-2,6.2-0.8,9.2
		c1.2,3.1,1.9,6.1,2.2,9.3c0.6,7.1,1.2,14.2,1.8,21.4c0.6,6.8,1.2,13.7,2,20.5c0.6,5.4,1.6,10.8,2.3,16.3c0.9,6.6,1.6,13.2,2.4,19.7
		c0.3,2.1,0.7,4.1,0.9,6.2c0.2,2.2,0.2,4.5,0.4,6.7c0.8,8,1.1,16.2,2.6,24.1c1.1,6.2,1,12.3,1.7,18.5c0.3,2.5-1.1,4.7-2.9,6.4
		c-0.9,0.9-1.8,1.8-2.7,2.7c-2.6,2.8-5.2,5.6-7.9,8.4c-0.2,0.2-0.5,0.3-0.6,0.5c-2.7,3.5-5.2,7.1-7.9,10.6c-2,2.5-4.1,4.9-6.2,7.4
		c-2.4,2.9-4.9,5.7-7.2,8.6c-2.5,3.1-4.9,6.3-7.3,9.4c-0.8,1-1.8,1.9-2.6,2.9c-1.2,1.3-2.3,2.6-3.5,3.9c-0.5,0.5-1,1-1.4,1.6
		c-0.4,0.6-0.8,1.2-1.2,1.8c-0.3,0.4-0.5,0.8-0.9,1.2c-1.7,2.3-3.4,4.6-5.2,6.8c-0.8,1-1.7,1.9-2.5,3c-5.1,6.6-10.3,13.1-15.4,19.7
		c-3.3,4.3-7.1,8.3-10.7,12.4c-3.6,4.1-6.9,8.5-9.8,13.2c-2.1,3.6-5,6.6-6.8,10.3c-1.7,3.4-4.7,5.9-6.3,9.1
		c-2.1,4.1-5.3,7.4-7.5,11.4c-2.3,4.2-5.4,8.1-8.3,12c-0.8,1-1.3,2-1.2,3.3c0.1,1.6,0.1,3-1.5,4.1c-0.7,0.5-0.9,1.8-1.4,2.7
		c-0.7,1.4-1.9,1.9-3.4,1.9C422.7,575.3,419.7,575.4,416.8,575.3C416.8,575.3,416.8,575.3,416.8,575.3z M131.7,519.2
		c-0.8,2.4-0.3,4.7,0.6,7c0.3,0.7,0.2,1.6,0.2,2.4c0,1.5-0.4,3.2,0.1,4.6c0.4,1.1,0.6,1.8,0.1,2.8c-0.3,0.6,0.1,1.5,0.1,2.3
		c0.1,0.7,0.3,1.4,0.3,2c-0.1,2.9-0.7,5.8,0.2,8.7c0.8,2.8,0.6,2.9,3.5,2.8c0.8,0,1.6-0.1,2.4-0.1c10.5-0.5,20.9-1.1,31.4-1.6
		c5.2-0.2,10.4-0.3,15.7-0.5c3.2-0.1,6.4-0.1,9.7-0.1c3.6,0,7.2,0.1,10.7,0c2.4,0,2.5-0.2,2.3-2.5c-0.2-4-0.5-8-0.6-12
		c-0.1-5.2,0.2-10.5,0.1-15.7c-0.1-4.6-0.5-9.2-0.6-13.8c-0.2-8.3-0.2-16.5-0.3-24.8c-0.1-3.6,0.2-7.2-0.3-10.7
		c-0.6-4.4-0.9-8.8-0.4-13.2c0.2-1.6,0.1-3.1,0.1-4.7c-0.1-6.1-0.3-12.2-0.3-18.3c0-4.5,0.2-9,0.2-13.6c0-2.5-0.2-2.7-2.8-2.5
		c-2.5,0.2-5,0.7-7.5,0.9c-8.4,0.4-16.7-0.1-25.1-0.6c-5.7-0.3-11.5,0-17.2,0.3c-6.8,0.4-13.6-0.9-20.4,0.5c-2,0.4-2.6,0.7-2.9,2.7
		c-0.1,0.8,0,1.6,0,2.3c0.3,7.2,0.6,14.5,0.8,21.7c0.1,3.8-0.3,7.7-0.4,11.5c-0.1,2.9,0,5.7,0,8.6c-0.1,7-0.3,14-0.2,20.9
		c0,5.4,0.4,10.8,0.6,16.1c0.1,3.2,0,6.4,0.2,9.6c0.1,1.4,0.1,2.8-0.2,4.1C131.4,517.5,131.7,518.4,131.7,519.2L131.7,519.2z
		 M290.1,140.2c0.2,1.6-0.6,2.7-1.9,3c-0.6,0.2-1.9-0.5-2.3-1.1c-2.9-4.8-6.5-9.4-8.3-14.8c-0.7-1.9-1.8-3.3-3.2-4.6
		c-0.2-0.2-0.6-0.3-0.9-0.4c0,0.4-0.1,0.8,0,1.1c0.1,0.3,0.3,0.6,0.4,1c0.5,1.2,0.7,2.5-0.6,3.3c-1.3,0.7-2-0.4-2.7-1.4
		c-0.4-0.5-1-1.4-1.4-1.4c-2.4,0.4-3.2-1.2-4.1-2.9c-0.7-1.3-1.5-1.2-2.2,0.2c-0.7,1.3-1.2,2.7-1.7,4.1c-0.9,2.3-1.7,3-4.1,2.7
		c-3.7-0.5-5.7,1.7-7.3,4.4c-1,1.6-1.6,3.5-2.3,5.3c-1.2,3-1.8,3.4-4.9,2.5c-1-0.3-1.6-0.2-2.3,0.5c-1.4,1.5-2.9,3.1-4.5,4.4
		c-1.5,1.2-2,2.8-2.6,4.5c-0.7,2.3-1.3,4.7-1.9,7c-0.3,1-0.9,1.5-1.9,1.4c-1.1-0.1-2.3-0.1-3-1.3c-0.6-1.1-1.3-0.9-2.2-0.2
		c-1.7,1.3-2.7,2.8-3.1,4.9c-0.7,3.1-0.8,3-3.8,3.4c-0.9,0.1-2,0.1-2.5,0.6c-2.4,2.5-5.2,4.7-6.3,8.2c-0.7,2.1-1.4,4.1-2.1,6.2
		c-0.4,1.2-0.9,2.5-1.6,3.6c-1,1.7-3.7,2.1-5,0.9c-0.5-0.4-1-1.2-1.4-1.2c-0.6,0-1.2,0.6-1.7,1.1c-2.9,2.6-5.9,5.1-8.7,7.8
		c-1.1,1.1-2.1,2.3-2.8,3.7c-0.6,1.3-0.7,2.8-1,4.3c-0.3,1.4-1,2.1-2.5,2.3c-0.6,0.1-1.6,0.4-1.7,0.8c-0.6,2.3-2.4,2.2-4.2,2.3
		c-1.9,0-3.3,1-3.9,2.8c-0.4,1.3-0.9,2.6-1.4,3.9c-1.2,2.9-1.7,3.3-4.7,2.8c-1.2-0.2-2,0.1-2.9,0.8c-0.9,0.8-1.9,1.6-2.7,2.4
		c-1.5,1.6-2.9,3-3.1,5.5c-0.2,2.7-1.1,3-3.9,2.9c-0.8,0-1.8,0-2.5,0.5c-1.5,1-2.8,2.3-4.2,3.5c-1,0.9-1.7,1.9-2,3.3
		c-0.6,2.9-1.5,5.7-2.2,8.6c-0.4,1.5-1.4,1.9-2.8,1.8c-1.3-0.1-2-0.8-2-2.3c0-0.4-0.4-0.8-0.6-1.3c-0.3,0.2-0.8,0.4-1,0.7
		c-0.4,0.5-0.9,1.1-1.1,1.8c-0.6,1.7-1.1,3.5-1.6,5.3c-0.6,2.3-3.1,3.1-4.9,1.5c-0.7-0.6-0.9-0.5-1.4-0.1c-2.2,2-4.5,3.8-4.6,7.2
		c-0.1,2-0.9,2.7-2.8,2c-2-0.7-3,0.3-4.3,1.4c-1.5,1.3-2,3-2.4,4.8c-0.6,2.6-1.6,3.3-4.3,3c-1-0.1-1.5,0.1-2,0.8
		c-0.5,0.6-1.1,1.1-1.7,1.6c-2.4,2.1-4.5,4.3-4.4,7.8c0,0.9-0.5,1.9-0.8,2.8c-0.5,1.6-1.7,2.3-3.2,1.9c-0.8-0.2-1.5-0.6-2.2-0.8
		c0,0.8-0.1,1.7-0.1,2.5c-0.1,0.8-0.1,1.6-0.2,2.3c-0.5,4-1.1,7.9-1.5,11.9c-0.2,1.7,0,3.5,0,5.2c0,1-0.2,2-1.4,2.2
		c-1.3,0.2-1.5,1-1.6,2c-0.1,0.9-0.1,1.7-0.1,2.6c-0.2,4.5-0.4,9.1-0.6,13.6c0,0.4-0.2,0.9-0.1,1.3c1.2,3.5,0.9,7.3,0.8,10.8
		c-0.2,7,0.4,14.1-0.5,21.1c-0.4,3,0.4,6.1,0.4,9.1c0.1,3.2-0.1,6.5-0.1,9.7c0,6.9,0,13.8,0.1,20.7c0,3.5,0.3,7,0.2,10.5
		c-0.1,4.1-0.6,8.2-0.7,12.2c-0.1,4.6,0,9.2,0.2,13.8c0.1,3.1,0.6,6.2,0.9,9.4c0.5,5.4-1.4,10.8-0.2,16.3c0.1,0.4,0,0.9,0,1.3
		c-0.1,3.6-0.4,7.3-0.3,10.9c0.2,5.6,0.8,11.1,0.9,16.7c0.1,6.8-0.1,13.6,0,20.4c0,4.5,0.3,9,0.3,13.5c0,3.2-0.1,6.4-0.2,9.6
		c0,2-0.1,4,0,6c0.1,2.7,0.5,5.4-0.7,8c-0.1,0.3-0.2,0.8,0,1c1,1.7,0.9,3.5,0.8,5.3c-0.1,1.2,0.5,1.5,1.6,1.5c0.5,0,1-0.1,1.6-0.1
		c5.8-0.4,11.7-0.7,17.5-1.1c1.9-0.1,3.8-0.3,5.7-0.5c1.4-0.1,2-0.8,1.9-2.2c-0.1-1.1-0.2-2.3-0.2-3.4c-0.2-4.7-0.3-9.4-0.5-14.1
		c-0.4-8-1.1-16-1.5-24c-0.3-7.1-0.3-14.2-0.4-21.3c0-5.3,0.3-10.6,0.4-15.9c0.2-7.8,0.3-15.7,0.4-23.5c0.1-6.5,0.1-13,0.2-19.6
		c0-1.8,0-3.7,0.1-5.5c0.1-1.6-0.1-3.4,0.6-4.8c1.2-2.5,1.1-4.9,0.5-7.4c-0.8-3.2-0.6-3.9,3.5-4.5c0.6-0.1,1.3-0.2,1.6-0.5
		c1.2-1.4,2.7-1.4,4.3-1.3c4.3,0.3,8.7,0.6,13.1,0.8c5.3,0.2,10.6,0.3,15.9,0.4c0.9,0,1.7,0.1,2.6,0.2c1.7,0.2,3.4,0.6,5.2,0.6
		c3.6,0,7.1-0.1,10.7-0.2c2.1-0.1,4.2,0,6.2-0.3c5.8-0.9,11.5-2,17.2-2.9c3.2-0.5,6.6-1.3,9.8-0.2c1.5,0.5,3,1.5,4.4-0.2
		c0.2-0.3,1.2-0.1,1.7,0.1c0.9,0.3,1.8,0.7,2.6,1.3c1.5,1.1,2.8,2.3,2.5,4.5c-0.1,1.1,0,2.4,0.5,3.3c0.9,1.7,0.5,3.5,0.2,5
		c-0.8,3.2-0.9,6.4-0.8,9.6c0.2,3.3,0.8,6.6,0.9,9.9c0.1,2.9-0.3,5.8-0.2,8.6c0.3,8.9,1,17.8,1.1,26.6c0.1,9.2-0.4,18.5-0.6,27.8
		c0,1.4,0,2.8,0,4.2c0,2.9-0.1,5.9,0,8.8c0.1,3.9,0.5,7.8,0.7,11.7c0.1,3,0,6.1,0,9.1c-0.1,4.4-0.2,8.7-0.4,13.1
		c-0.1,2.5,0,2.6,2.6,2.6c5,0,10,0,14.9,0c9.4,0.1,18.8,0.2,28.2,0.3c6.7,0,13.4,0.8,20.1,0c1.5-0.2,3-0.3,4.4-0.3
		c8.9-0.2,17.8,0.6,26.6,0.4c4.7-0.1,9.4-0.1,14.1-0.3c3.7-0.1,7.3-0.5,11-0.6c5.9-0.1,11.8-0.1,17.8-0.1c6.2,0,12.3-0.2,18.5,0
		c8.3,0.3,16.6-0.3,24.9-0.4c1.1,0,1.6-0.4,1.7-1.4c0.1-1.6,0.3-3.1,0.3-4.7c0.1-6.6,0.2-13.1,0.1-19.7c-0.1-7.3-0.4-14.7-0.4-22
		c0-7.6,0.1-15.2,0.3-22.8c0.1-6.1,0.6-12.2,0.7-18.3c0.1-6.3-0.1-12.6-0.1-18.8c0-4.8,0.3-9.6,0.3-14.4c0-4.4-0.4-8.9-0.4-13.3
		c0-6.3,0.3-12.6,0.5-18.8c0.2-7,0.4-13.9,0.7-20.9c0.3-6.3,0.8-12.5,1-18.8c0.2-6.5-0.1-13.1,0.2-19.6c0.3-8.8,0.9-17.6,1.3-26.4
		c0.4-7.5,0.9-15,1.3-22.5c0.1-2.2,0.3-4.4-1.9-6.1c-1.3-1-1.1-2.5-0.1-3.9c0.2-0.3,0.6-0.8,0.5-1.1c-0.8-3-1.7-5.8-5.3-7.4
		c0.5,1.7,0.9,3.1,1.3,4.4c0.2,0.8,0.5,1.7,0.4,2.5c-0.1,0.7-0.7,1.6-1.2,1.7c-0.6,0.2-1.6-0.2-2-0.7c-1-1.4-2.2-2.8-2.7-4.4
		c-0.7-2.6-1.8-5.4,0.1-8c0.2-0.3,0-1.2-0.3-1.7c-0.5-0.8-1.2-1.5-1.9-2.2c-0.6-0.7-0.9-0.4-1.3,0.3c-1.3,2.2-2.3,2.2-4,0.4
		c-0.2-0.2-0.5-0.5-0.6-0.8c-1.1-2.8-2.2-5.5-3.1-8.3c-0.4-1,0.2-2.7-2-1.7c-0.3,0.2-1.3-0.5-1.7-1c-1.5-2.2-2.8-4.6-4.2-6.9
		c-0.8-1.4-1.5-2.9-2.5-4.2c-0.2-0.2-1.2-0.3-1.5,0c-0.6,0.5-0.8,1.8-2,1.2c-0.8-0.4-1.5-1.1-2.1-1.8c-0.8-0.8-1.3-2-2.2-2.6
		c-1.7-1.1-1.6-2.6-0.9-3.9c0.7-1.2,0.4-1.9-0.4-2.7c-1.1-1.1-2.2-2.3-3.3-3.3c-0.4-0.4-0.9-0.6-1.6-1.1c0.3,1.1,0.4,1.8,0.7,2.5
		c0.2,0.5,0.7,0.9,0.8,1.3c0.2,1.2,0.5,2.4,0.2,3.5c-0.5,1.8-1.8,1.9-3,0.4c-2.3-2.8-4-6-4.9-9.5c-0.3-1.3-0.1-2.7-0.2-4.1
		c0-0.7,0.2-1.5-0.1-2c-1.6-2.5-3.8-4.4-6.2-6.6c-0.1,1-0.2,1.6-0.3,2.2c-0.2,1.1-0.7,2.2-1.9,2.2c-0.7,0-1.7-0.9-2.1-1.6
		c-1.7-3.2-3.1-6.4-3.3-10.1c-0.2-2.6-2.3-3.7-3.9-5.3c-0.2-0.2-1,0-1.4,0.2c-1,0.5-1.9,0.4-2.6-0.4c-3-3-5.7-6.2-5.9-10.7
		c-0.1-1-0.5-1.5-1.3-1.7c-1.3-0.4-2.6-1-4-0.1c-0.9,0.5-1.9,0.4-2.6-0.5c-1.2-1.6-2.6-3.1-3.3-5c-0.9-2.3-2-4.2-3.6-6
		c-0.8-0.8-1.3-1.9-1.9-2.8c-0.7-1-1.3-1.8-2.8-2c-1.1-0.1-2.4-1.2-2.9-2.3c-0.7-1.3-1.1-3-0.9-4.5c0.2-1.7-0.4-2.7-1.5-3.9
		c-1.3-1.4-2.5-1.6-4.2-0.8c-0.7,0.4-1.5,0.4-2.3,0.6c-1.9,0.4-2.7,0-3.6-1.7c-0.7-1.2-1.5-2.4-2.1-3.6c-0.9-2.2-1.5-4.4-2.3-6.6
		C291.2,142.6,290.6,141.5,290.1,140.2c-0.1-0.2-0.1-0.4-0.1-0.6c0,0.1-0.1,0.1-0.1,0.2C289.9,139.9,290,140,290.1,140.2z
		 M408,124.7c-1.3-0.5-2.2-0.7-2.8-1.2c-4.5-3.9-9.9-6.8-13.5-11.8c-0.4-0.5-1.1-0.8-1.6-1.2c-1-0.8-2.1-1.5-3.1-2.4
		c-1-0.9-1.9-2.1-2.9-3c-10.1-9.5-20.3-18.9-30.4-28.5c-7.1-6.7-14.1-13.5-21.2-20.3c-2.2-2.1-2.2-2.1-4.4,0.2
		c-0.2,0.3-0.6,0.4-0.8,0.7c-1.3,1.4-1.4,2.4-0.1,3.9c1.8,2,3.6,4,5.5,6c6.1,6.2,12.2,12.4,18.4,18.6c1.2,1.2,2.6,2.3,3.8,3.6
		c3.9,4.1,7.8,8.2,11.7,12.3c3.9,4,7.8,8,11.7,12c0.7,0.7,1.7,1.4,2.1,2.3c0.5,1.1,1.3,2.9,0.8,3.5c-0.8,1-2.2-0.1-3.2-0.7
		c-4.8-2.6-8.5-6.7-12.5-10.2c-6.1-5.4-11.8-11.1-17.7-16.7c-6.5-6.3-13-12.7-19.5-19c-2-1.9-4-3.9-6.1-5.8c-1-1-2-0.9-2.9,0.1
		c-0.3,0.4-0.7,0.8-1,1.2c-0.8,1.1-1.1,2,0.2,3.3c4.3,4.2,8.4,8.6,12.6,12.9c4.4,4.6,8.9,9.1,13.4,13.6c3.7,3.6,7.5,7,11.2,10.5
		c3.5,3.5,6.9,7.1,10.4,10.6c0.5,0.5,0.8,1.1,1,1.8c0.4,1.5-0.5,2.4-2,1.8c-1.1-0.4-2.3-1-3.2-1.7c-2.3-1.6-4.5-3.3-6.6-5.2
		c-7.6-6.7-15.1-13.5-22.6-20.3c-6.1-5.6-12.1-11.4-18.1-17.1c-3.2-3.1-3.2-3.1-6.6-0.1c-1.8,1.6-1.8,1.8-0.1,3.5
		c4,3.7,8,7.2,11.9,10.9c4.3,4.1,8.5,8.2,12.8,12.3c1.3,1.3,2.9,2.3,4,3.7c3.1,3.9,7.4,6.5,10.6,10.3c1.6,1.8,3.9,3.1,5.7,4.9
		c2.5,2.7,5.2,5.1,7.7,7.7c2.1,2.1,3.8,4.7,6.2,6.3c2.9,2.1,4.9,4.9,7.5,7.3c0.7,0.7,1.5,1.7,0.7,2.5c-0.6,0.5-1.9,0.5-2.9,0.3
		c-0.5-0.1-0.9-1-1.4-1.4c-0.6-0.4-1.2-0.8-1.9-1.1c-0.9-0.4-2-0.5-2.8-1.1c-3.3-2.7-6.5-5.5-9.6-8.4c-4.3-4-8.5-8-12.7-12
		c-5.4-5.2-10.8-10.5-16.3-15.5c-8.2-7.4-16.7-14.6-25-21.9c-1.6-1.4-2.3-1.4-3.5-0.1c-1,1-0.8,1.5,0.6,3c2.3,2.5,4.5,5.1,6.9,7.5
		c2.7,2.8,5.5,5.4,8.2,8.1c5.1,5.2,10.3,10.4,15.4,15.6c6,6.2,12,12.4,18,18.5c0.6,0.6,0.7,1,0.3,1.8c-1,2.1-1.6,2.5-3.5,1.1
		c-2.9-2.1-5.8-4.2-8.4-6.6c-5.3-4.8-10.4-9.9-15.6-14.8c-5.6-5.3-11.3-10.7-16.9-16c-3.6-3.4-7.1-6.9-10.7-10.4
		c-1.4-1.3-2.8-1.1-4.3,0.5c-1,1.1-0.9,1.6,1,3.1c6,4.6,12,9.3,17.3,14.7c3.9,3.9,8.1,7.6,12.2,11.4c2.1,2,4,4.1,6.1,6.1
		c5.7,5.5,11.4,11,17.1,16.5c1.4,1.4,2.6,3,3.7,4.6c0.3,0.4,0.5,1.3,0.3,1.6c-0.3,0.4-1,0.5-1.6,0.5c-0.7,0-1.5-0.1-2-0.5
		c-2.3-1.5-4.8-2.9-6.9-4.7c-2.3-1.9-4.3-4.1-6.5-6.1c-4.1-3.7-8.2-7.3-12.2-11c-2.5-2.3-5-4.7-7.5-6.9
		c-6.3-5.6-12.6-11.1-18.9-16.6c-2.3-2-4.8-3.8-7.2-5.7c-0.7-0.6-1.6-0.8-2.2,0.2c-0.6,1,0.2,1.4,0.8,1.9c1,0.8,2.4,1.3,3,2.3
		c2.2,3.3,5.4,5.7,8.1,8.4c2,2.1,4.1,4,6.1,6.1c3.9,4,7.7,8,11.5,12.1c2.6,2.7,5.1,5.5,7.6,8.3c1.8,2,3.4,4.1,5.2,6.2
		c2.6,2.9,5.3,5.7,7.8,8.7c2.2,2.5,4.2,5.1,6.4,7.6c1.7,2,3.4,3.9,5.2,5.9c1.5,1.7,3.1,3.5,4.7,5.2c3,3.1,6.1,6.2,9.1,9.3
		c2.4,2.5,4.7,5.1,7,7.7c1.2,1.3,2.3,2.6,3.5,3.8c2.1,2.2,4.3,4.3,6.4,6.4c1.6,1.6,3.1,3.3,4.6,5c3.2,3.4,6.4,6.9,9.5,10.3
		c2.7,3,5.3,5.9,8,8.9c3.9,4.4,7.9,8.7,11.8,13.1c1.7,1.9,3.3,4,5,5.9c2.7,3.1,5.6,6.2,8.3,9.4c1.9,2.3,3.5,4.8,5.4,7
		c4.4,5.4,8.9,10.7,13.2,16.1c2.6,3.2,5.2,6.6,7.8,9.9c2.8,3.6,5.5,7.2,8.4,10.7c1.6,1.9,1.8,1.9,3.5,0.3c2.9-2.8,5.8-5.8,8.7-8.7
		c0.7-0.7,1.4-1.6,2.2-2.2c6.3-5.5,12.8-10.8,19.1-16.3c7.3-6.4,14.4-13.2,21.9-19.4c4.7-3.9,8.8-8.2,12.6-12.9
		c1-1.2,1.9-2.5,2.8-3.7c0.8-1,0.7-1.8-0.3-2.7c-1.6-1.5-3.1-3.1-4.5-4.7c-2.2-2.5-4.1-5.2-6.3-7.7c-6-6.7-12.1-13.3-18.3-19.8
		c-6.1-6.3-12.5-12.4-18.7-18.7c-1.2-1.2-2.1-2.8-3.3-4c-2.7-2.7-5.6-5.3-8.3-7.9c-2-1.9-4-3.9-6-5.9c-3-3-6-5.9-8.9-8.9
		c-4.7-4.9-9.2-10-14-14.8c-3.5-3.6-7.4-6.9-11.1-10.3c-1.1-1.1-2.2-2.2-3.4-3.3c-3.7-3.3-7.4-6.6-11.1-9.9
		c-1.9-1.7-3.9-3.5-5.8-5.2c-0.6-0.5-1.1-1.1-1.7-1.7c-3.2-3-6.3-6.1-9.5-9c-6.3-5.8-12.9-11.2-19-17.3c-5-5-10.5-9.4-15.1-14.8
		c-5-5.9-10.7-11.3-16.1-16.9c-1.6-1.6-3.1-3.3-4.7-4.9c-0.6-0.5-1.7-1.2-2.2-1c-1,0.4-1.9,1.3-2.4,2.2c-0.7,1,0.4,1.8,1,2.4
		c3.6,3.4,7.2,6.8,10.8,10.2c0.3,0.3,0.6,0.6,0.9,0.9c3.1,3.4,6.2,6.8,9.4,10.1c3,3.1,6.3,5.9,9.4,9c5.3,5.2,10.7,10.3,15.8,15.6
		c2.2,2.3,5.6,3.7,5.9,7.5c0,0.1,0.3,0.2,0.4,0.2c1.5-0.4,2.1,0.8,3.1,1.6c3.6,3,5.8,7.3,9.6,10.1c0.3,0.2,0.5,0.7,0.6,1.1
		c0.5,1.3,0.7,2.8,2.6,3.1c0.4,0,0.7,0.7,0.9,1.2C406.9,122.1,407.3,123.1,408,124.7z M444.5,313.6c-0.3,0-0.6,0-0.9,0
		c-0.1,0.8-0.1,1.7-0.2,2.5c-0.1,0.8-0.1,1.6-0.4,2.3c-0.3,0.5-1,1-1.6,1.1c-0.3,0-0.9-0.7-1.1-1.2c-0.3-0.8-0.7-1.7-0.5-2.5
		c0.6-3.1-1.6-6.1-0.4-9.2c0.1-0.3-0.9-1.1-1.3-1.6c-0.2,0.6-0.6,1.2-0.6,1.7c0.1,0.9,0.5,1.8,0.7,2.8c0.1,0.7,0.2,1.4,0.2,2
		c0.2,6.3,0.3,12.7,0.5,19c0.1,2.5,0.4,5.1,0.3,7.6c-0.1,2.5-0.8,4.9-0.8,7.4c-0.1,4.5,0,9,0,13.6c0,0.9-0.1,1.8-0.5,2.6
		c-0.2,0.5-0.9,1.1-1.5,1.2c-1.5,0.3-2.3-0.8-2.3-2.6c0-9.2-0.1-18.3-0.2-27.5c-0.1-5.1-0.3-10.1-0.7-15.2c-0.2-2.6-0.9-5.1-1.2-7.7
		c-0.1-1.1-0.1-2.3,0.3-3.3c0.6-1.4,0.4-2.7,0-4c-0.6-1.8-2-3.5-1.5-5.7c0.1-0.2-0.3-0.5-0.5-0.8c-0.2,0.3-0.7,0.5-0.7,0.8
		c-0.1,1-0.1,2-0.2,3.1c0,0.9,0,1.7-0.1,2.6c-0.3,4.9-1,9.9-0.5,14.8c0.2,1.7,0,3.5-0.1,5.2c-0.1,2.1-0.3,4.2-0.3,6.3
		c-0.1,7.3-0.1,14.6-0.3,21.9c-0.2,6.3-0.6,12.5-1,18.8c-0.1,2.2-0.6,4.4-0.1,6.5c0.7,3,0.1,5.9,0.3,8.8c0.2,4.3-0.3,8.5-0.2,12.8
		c0.1,8.9,0.5,17.8,0.7,26.7c0,1.1-0.1,2.3-0.1,3.4c0,5.4,0.2,10.8,0.1,16.2c-0.1,4.2-0.8,8.5-0.8,12.7c0,9.5,0.4,19,0.4,28.5
		c-0.1,13-0.4,26-0.6,39c0,1.9-0.1,3.8-0.1,5.7c0,0.5,0.4,0.9,0.6,1.4c0.4-0.2,0.8-0.3,1.1-0.6c1.7-1.8,3.5-3.7,5.1-5.6
		c2.2-2.7,4.1-5.6,6.3-8.3c4.5-5.6,9.1-11.2,13.8-16.8c3.9-4.6,8.1-9,11.9-13.6c4.9-5.9,9.6-11.9,14.4-17.9
		c5.2-6.5,10.3-13,15.5-19.5c3.2-4,6.6-7.9,9.8-11.9c1.6-1.9,3.1-3.8,4.7-5.7c2.8-3.3,5.7-6.5,8.5-9.9c3.1-3.8,6.1-7.8,9.2-11.7
		c3.2-4,6.5-7.9,9.7-11.9c1.2-1.5,1.5-3,1.2-4.8c-0.7-4.4-1.2-8.8-1.7-13.2c-1.1-10.6-2.1-21.2-3.2-31.8c-0.7-6.8-1.7-13.6-2.5-20.5
		c-0.5-3.8-1-7.6-1.4-11.4c-0.2-1.6-0.4-3.3-0.6-4.9c-0.4-3.5-0.9-7.1-1.2-10.7c-0.4-4.4-0.6-8.9-1-13.3c-0.4-4.3-1.1-8.7-1.5-13
		c-0.1-1.4,0-2.8-0.1-4.2c-0.1-0.6-0.3-1.3-0.8-1.8c-0.2-0.2-1.1,0.3-1.5,0.6c-0.7,0.5-1.4,1.1-2.1,1.6c-0.8,0.6-1.1,1.3-0.9,2.5
		c0.3,2,0.3,4,0.3,6c0,1.3,0,2.8-1.4,3.4c-1.2,0.6-1.3,1.4-1.3,2.5c-0.1,6.5-0.2,13.1-0.4,19.6c0,1.4-0.2,2.8-0.7,4.1
		c-0.2,0.6-1.1,0.9-1.6,1.4c-0.3-0.6-0.7-1.2-0.8-1.8c-0.1-2.1,0.1-4.2,0.1-6.3c-0.1-4.2-0.2-8.4-0.3-12.6
		c-0.1-3.4-0.3-6.8-0.6-10.2c-0.1-1.4-0.5-1.6-1.5-0.7c-2.1,1.8-4.2,3.7-6.2,5.6c-0.5,0.5-0.7,1.4-0.7,2.1c-0.2,6.3-0.1,12.7-0.4,19
		c-0.2,3.3-0.8,6.6-1.4,9.8c-0.2,0.9-1.3,2.4-1.7,2.3c-1.4-0.3-0.7-1.7-0.7-2.7c-0.2-7.4-0.4-14.8-0.6-22.3c0-0.5,0-1.1-0.1-1.6
		c-0.2-0.9-0.8-1.4-1.7-0.6c-1.3,1.2-2.6,2.3-3.8,3.6c-0.4,0.4-0.6,1.1-0.5,1.6c1.3,5,1.1,10.2,1.3,15.3c0,0.9,0.1,1.9-0.3,2.6
		c-0.3,0.7-1.2,1.1-2,1.4c-0.2,0.1-1-0.9-1.1-1.4c-0.3-1.1-0.4-2.2-0.5-3.4c-0.4-2.9-0.6-5.7-1.1-8.6c-0.1-0.7-0.7-1.4-1.1-2.1
		c-0.7,0.8-1.4,1.5-2,2.3c-0.2,0.3,0,0.8,0.1,1.3c0.2,2,0.5,4,0.6,6c0.3,7.8,0.5,15.5,0.7,23.3c0,1.5-0.2,3-0.5,4.4
		c-0.2,0.6-1,1-1.5,1.5c-0.3-0.5-0.8-1-0.9-1.6c-0.2-1.1-0.2-2.3-0.3-3.4c-0.4-6.3-0.8-12.5-1.3-18.8c-0.1-1.8-0.5-3.6-0.9-5.4
		c-0.5-2.1-0.8-2.1-2.3-0.8c-1.6,1.4-3.3,2.9-4.8,4.5c-3.6,3.8-3.6,3.8-2.7,8.9c0.1,0.7,0.4,1.4,0.4,2c0.1,2.5,0.2,5,0.1,7.6
		c0,0.6-0.8,1.3-1.4,1.6c-1,0.4-1.6-0.3-2-1.3c-0.1-0.3-0.1-0.7-0.3-1c-0.3-0.7-0.6-1.3-0.9-1.9c-0.2,0.7-0.3,1.4-0.5,2.2
		c0,0.1,0,0.2,0,0.3c0.1,5,0.3,9.9,0.3,14.9c0,1.3-0.3,2.6-0.6,3.8c-0.2,1-0.2,2.5-1.6,2.3c-1.4-0.2-1-1.6-1-2.6
		c-0.3-5.8-0.4-11.5-0.7-17.3c-0.1-2-0.3-4-0.6-6c-0.2-1.6-0.8-1.7-2.2-1c-1.2,0.6-2.4,1.6-3.7,1.9c-1.5,0.4-1.7,1.1-1.7,2.4
		c0.1,1.9,0.1,3.8,0.1,5.7c0,1.3-0.4,2.2-1.9,2.3c-1.7,0.1-1.8-1.1-2-2.2c-0.2-1.2-0.2-2.4-0.4-3.6c-0.2-1.4-0.6-2.8-0.8-4.2
		c-0.5,0.3-0.6,0.6-0.6,0.8c0.6,9.2,1.2,18.4,0.8,27.7c-0.1,1.8-0.6,2.8-1.7,2.8c-1.7-0.1-1.3-1.6-1.4-2.6
		c-0.7-9.8-1.2-19.7-2.2-29.5C446.5,321.9,445.3,317.7,444.5,313.6z M424.8,405.2c0-0.1,0.1-0.3,0.1-0.4c0,0-0.2-0.1-0.2-0.1
		c-0.1,0.1-0.2,0.2-0.3,0.3C424.5,405.1,424.7,405.1,424.8,405.2z M425,384.7c0-0.1-0.1-0.2-0.1-0.2c-0.1,0-0.2,0.1-0.3,0.2
		c0.1,0.1,0.2,0.1,0.3,0.2C424.9,384.9,424.9,384.8,425,384.7z M342,151c0-0.1,0-0.1,0-0.2c-0.1,0-0.2,0.1-0.3,0.1c0,0,0,0.1,0,0.2
		C341.8,151.1,341.9,151,342,151z M425.6,463.1l-0.1,0.1l0.1,0.1L425.6,463.1z"/>
	<path d="M268.8,459.6c-0.5-8.4-1-16.9-1.5-25.3c-0.3-5.7-0.6-11.5-1-17.2c-0.2-3-0.7-6-0.9-9.1c-0.5-8.2-0.8-16.5-1.5-24.8
		c-0.7-7.3-0.1-14.6-0.4-21.9c-0.1-3.2-0.1-6.5-0.5-9.6c-0.3-2-1-4.1-1.9-5.9c-1.3-2.5-1.2-5-0.4-7.3c0.6-1.6,1.7-3.5,3.7-4.1
		c1.8-0.5,3.7-1,5.6-0.9c6.3,0.3,12.7,0.9,19,1.4c0.9,0.1,1.9,0,2.9-0.1c7.2-1.1,14.4-0.4,21.6-0.8c5.5-0.3,10.9-1,16.4-1.2
		c7.2-0.3,14.5-0.4,21.7-0.6c3.4-0.1,6.8-0.2,10.2-0.5c3.2-0.3,6.3-1.3,9.6-1.2c0.4,0,0.9-0.5,1.3-0.7c0.5-0.2,1.1-0.4,1.7-0.3
		c1.8,0,3.6,0.3,5.4,0.2c2.5-0.1,3.8,1.1,4.2,3.5c0.4,2.8,1.3,5.6,1.6,8.4c0.4,3,0.4,6.1,0.6,9.1c0,0.7,0.1,1.4,0.3,2.1
		c0.1,0.8,0.5,1.6,0.5,2.3c-0.4,5.4,0.9,10.7-0.2,16.1c-0.1,0.7-0.2,1.4-0.1,2c1.1,3.5,0.7,7.1,0.7,10.6c0,2.7,0.1,5.4,0.1,8.1
		c0,3.3-0.1,6.6-0.1,9.9c0,6.8,0.1,13.6,0.2,20.3c0,3.3,0,6.6,0,9.9c0,2.7,0.1,5.4,0.2,8.1c0.2,4.2,0.2,8.4,0.6,12.5
		c0.4,4.7,1.2,9.3,1.8,14c0.1,1,0,2.2-0.6,2.9c-0.9,1.1-0.9,2.1-0.7,3.3c0.2,1.4,0,2.8,0,4.2c0,2.7-1.1,3.7-3.9,3.5
		c-2.1-0.1-4.2-0.2-6.2-0.2c-3.8,0-7.7,0.1-11.5,0.1c-4.4-0.1-8.8-0.3-13.2-0.4c-3.9,0-7.8,0.1-11.8,0.2c-2.9,0-5.8-0.3-8.6-0.1
		c-10.4,0.5-20.7,1.3-31.1,1.8c-6.3,0.3-12.7,0.4-19.1,0.5c-1.8,0-3.6-0.4-5.5-0.6c-0.2,0-0.4,0-0.5-0.1c-1.5-1.2-3.4-2.2-4.5-3.7
		c-1.9-2.6-3.3-5.4-3.3-8.8c0-3.1-0.8-6.2-1.2-9.3C268.5,459.6,268.6,459.6,268.8,459.6z M276.5,383.1c-0.1,0-0.3,0-0.4,0
		c0.4,4.2,0.8,8.5,1.3,12.7c0.1,1.1-0.1,2.6,0.6,3.2c0.5,0.5,2,0.1,3.1,0.2c0.9,0.1,1.9,0.3,2.8,0.4c0.8,0.1,1.5,0.4,2.3,0.5
		c6.5,0.6,13,1.3,19.5,1.8c4.8,0.4,9.6,0.6,14.3,0.9c3,0.2,3.1,0.8,3.5-3.5c0-0.2,0-0.3,0-0.5c-0.5-5.2,0.8-10.4,0-15.6
		c-0.5-3.1-0.1-6.4-0.1-9.6c0-1.3,0.4-2.6,0.2-3.9c-0.9-5.6-0.9-11.3-0.3-16.9c0.2-2.3,0.5-4.7,1-6.9c0.4-1.7,0.5-1.8-1.2-1.7
		c-2.9,0.1-5.8,0.2-8.6,0.3c-3.8,0.1-7.7,0-11.5,0.2c-4.6,0.2-9.2,0.7-13.8,0.9c-3,0.1-5.9,0-8.9-0.1c-1.5-0.1-2,0.5-2.2,1.9
		c-0.2,1.6-0.4,3.3-0.9,4.8c-1.2,3.2-1.7,6.6-1.6,10C275.7,369.2,276.2,376.1,276.5,383.1z M318.6,465.3
		C318.6,465.3,318.6,465.3,318.6,465.3c1.4,0,2.8,0,4.2,0c1.5,0,2-0.9,1.9-2.2c-0.1-0.9-0.3-1.9-0.4-2.8c-0.2-6.8-0.3-13.5-0.4-20.3
		c-0.1-8.9-0.1-17.9-0.2-26.8c0-1.9-0.5-2.5-2.4-2.5c-1.7-0.1-3.3,0-5-0.1c-5.6-0.4-11.3-1-16.9-1.4c-2.3-0.2-4.7-0.1-7.1-0.1
		c-1.3-0.1-2.6-0.6-3.9-0.4c-3.6,0.6-6.9,0.8-9.5-2.4c-0.2-0.3-0.9-0.4-1.1-0.3c-0.3,0.2-0.4,0.7-0.4,1.1c0,1.9,0,3.8,0,5.7
		c0.3,8.3,0.6,16.6,0.9,24.8c0.2,4.8,0.5,9.6,0.7,14.4c0.1,2.8,0.3,5.5,0.2,8.3c-0.2,5.8,1.3,7.4,7.1,6.9c4-0.3,8-0.9,12-1.1
		C305.2,465.7,311.9,465.6,318.6,465.3z M375.1,420.2c0-2.4,0.1-4.7,0-7.1c0-0.5-0.6-1.1-1-1.6c-0.9-0.9-2.1-1-3.4-1
		c-5.3,0.2-10.6,0.3-15.9,0.3c-3.2,0-6.4-0.4-9.7-0.3c-4,0.2-8,0.6-12,0.1c-1.2-0.1-2,0.4-2,1.8c0,1,0,1.9,0,2.9
		c0.1,2.5,0.3,5,0.3,7.6c0.2,7.9,0.3,15.9,0.5,23.8c0.1,4.3,0.4,8.5,0.6,12.8c0.1,1.2,0.2,2.4,0.4,3.6c0.2,1.5,1.1,2.1,2.5,2.1
		c1.2,0,2.4-0.1,3.7-0.1c7.2,0.4,14.4,0.9,21.7,1.1c3.9,0.1,7.8-0.3,11.7-0.2c4.8,0.2,4.2-0.5,4.1-4.4c-0.2-4.8-0.8-9.5-1.1-14.3
		C375,438.4,374.5,429.3,375.1,420.2z M375.8,370.9c0,0-0.1,0-0.1,0c0-1.7,0.1-3.3,0-5c-0.4-7.3-0.9-14.6-1.2-21.9
		c-0.1-1.2-0.5-1.9-1.6-1.9c-2.1-0.2-4.2-0.4-6.2-0.3c-5,0.3-9.9,0.9-14.9,1.3c-4.2,0.3-8.4,0.5-12.5,0.8c-2.2,0.1-4.3,0.3-6.5,0.4
		c-1.1,0.1-1.4,0.6-1.3,1.7c0.2,1.8,0.3,3.7,0,5.5c-0.9,6.6-0.4,13.3-0.4,19.9c0.1,5.1,0.2,10.3,0.2,15.4c0,4.6-0.2,9.2-0.3,13.9
		c0,2.5,0.4,2.8,2.9,2.8c3.5,0,7,0,10.4,0c5.2,0,10.5,0.1,15.7,0c4.3-0.1,8.5-0.4,12.8-0.5c2,0,2.6-0.3,2.7-2.2
		c0.2-2.8,0.3-5.6,0.4-8.3c0-2-0.1-4-0.1-6C375.8,381.3,375.8,376.1,375.8,370.9z"/>
	<path d="M265.5,282.2c-3.7,0.2-7-1-10.2-2.8c-1.6-0.9-3.5-1.2-5.1-2.1c-1.9-1-3.7-2.3-5.2-3.7c-7.2-6.6-10-15.5-12.9-24.4
		c-1.8-5.4-2.4-10.9-2.6-16.4c-0.1-3.2,0.2-6.4,0.3-9.6c0-1.6-0.1-3.3-0.3-4.9c-1-5.9-0.4-11.6,1.7-17.2c0.6-1.5,1.1-2.9,1.5-4.5
		c1.3-5.2,4.1-9.5,7.1-13.8c2.3-3.4,5.3-6.2,8.1-9.1c3.7-3.7,8.4-6.7,13.8-7.2c3.6-0.3,7.5-0.9,11,0.8c0.5,0.2,1,0.2,1.5,0.2
		c7.3,0.8,13.1,4.4,18.2,9.6c3.3,3.4,6,7.1,9,10.7c1.4,1.6,2,3.8,2.9,5.7c0.3,0.5,0.3,1.3,0.7,1.7c2.7,3.1,2.9,7,3.3,10.7
		c0.4,3.7,1.3,7.2,2.6,10.6c0.3,0.8,0.5,1.6,0.6,2.5c0.2,1.7,0.4,3.4,0.5,5.2c0,0.5,0.1,1.1-0.1,1.5c-0.5,2.4-1.1,4.7-1.7,7.1
		c0,0.2-0.1,0.3-0.1,0.5c-0.7,1.9,1,3.9,0,5.8c-1,1.7-1.8,3.5-2.8,5.3c-0.1,0.2-0.2,0.3-0.2,0.5c0.3,6-3.5,10.5-6,15.3
		c-2.7,5.3-6.7,9.9-11.8,13.4c-0.8,0.5-1.6,1.1-2.3,1.8C281,280.9,273,281.1,265.5,282.2z M277.6,226.4c0,0.1,0,0.2,0,0.2
		c-1.7,0.1-3.5,0.2-5.2,0.2c-1.4,0-1.9,0.7-1.8,2c0.1,2.4,0.1,4.9,0.3,7.3c0.1,2.2,0.6,4.3,0.7,6.5c0.3,7.2,0.4,14.5,0.6,21.7
		c0,1.4-0.2,2.9-0.6,4.3c-0.3,1-0.1,1.4,0.8,1.3c1.3-0.1,2.7-0.2,3.7-0.8c3.6-2.1,6.1-5.2,7.9-9c2.3-4.8,5-9.5,7.5-14.3
		c0.5-0.9,0.7-2,1-3c0.6-2,1.2-4,1.6-6.1c0.5-2.7,1-5.5,1.2-8.2c0.2-2.3,0-2.3-2.3-2.3C287.9,226.4,282.8,226.4,277.6,226.4z
		 M264.4,252.5c-0.1,0-0.1,0-0.2,0c-0.1-1.8-0.3-3.6-0.4-5.4c-0.3-5.6-0.6-11.2-0.9-16.7c-0.1-2.5-0.7-3.1-3.2-2.9
		c-2.1,0.2-4.1,0.6-6.2,0.8c-2.5,0.2-5.1,0.2-7.6,0.3c-2.4,0.2-2.6,0.4-2.7,2.8c-0.1,4.8,0.6,9.5,1.9,14.2c2.2,8,6.6,14.5,12.7,19.8
		c1.3,1.1,2.9,1.9,4.4,2.8c1.3,0.7,1.8,0.5,1.9-1c0.2-1.8,0.3-3.7,0.3-5.5C264.5,258.6,264.4,255.5,264.4,252.5z M259.6,219.2
		c3,0.1,2.9,0.1,2.9-2.5c-0.1-5.1,0.1-10.2-0.1-15.3c-0.2-4.7-0.8-9.5-1.3-14.2c-0.1-0.8-0.7-1.6-1.1-2.3c-0.2-0.3-0.8-0.5-1-0.4
		c-2,1.1-4.6,1.3-5.8,3.6c-1.6,3-3.2,6-4.4,9.2c-1.5,4-1.4,8.4-3.6,12.2c-0.1,0.1-0.1,0.3-0.1,0.5c-0.5,2.4-1,4.8-1.5,7.1
		c-0.6,3.1-0.4,3.4,2.9,3.5c1.2,0,2.4,0,3.6-0.1C253.3,220,256.6,219.6,259.6,219.2z M279.8,219.3c0,0,0,0.1,0,0.1
		c4.4-0.2,8.9-0.4,13.3-0.7c2.3-0.1,2.8-0.7,2.4-2.9c-0.3-1.5-0.8-3-1.2-4.5c-1-4.8-3.1-9.1-6.2-12.8c-2.8-3.4-6.1-6.4-9.3-9.4
		c-1.9-1.8-3.8-3.5-6.3-4.6c-2.2-0.9-3-0.4-2.7,1.9c0.1,1,0.5,2,0.5,3.1c0,1.7-0.2,3.4-0.2,5.1c0,2.9,0,5.8,0,8.6
		c0.1,4.6,0.2,9.3,0.5,13.9c0.1,2,0.3,2.1,2.4,2.2C275.3,219.4,277.5,219.3,279.8,219.3z"/>
	<path d="M518.8,345.8c0,4-0.3,8,0.1,12c0.5,5,1.1,10.1,3.5,14.6c0.4,0.7,0,1.8,0.4,2.5c1.4,2.9,0.3,5.1-1.7,7.1
		c-0.5,0.5-0.9,1.3-1.4,1.7c-2.1,1.8-4.4,3.4-6.4,5.4c-3.9,3.9-7.9,7.7-12.6,10.6c-0.9,0.6-1.7,1.5-2.5,2.2
		c-3.1,2.8-6.3,5.4-9.3,8.3c-3.2,3.1-6,6.6-9.3,9.5c-3.8,3.5-7.8,6.6-11.9,9.8c-1.4,1.1-3.2,1.9-4.9,2.5c-0.7,0.3-1.9,0.2-2.6-0.3
		c-2.3-1.4-2.7-3.9-2.2-6.6c0.5-2.9,0.7-5.9,0.7-8.8c0.1-5.7,0-11.3,0-17c0-0.6,0-1.2-0.1-1.8c-0.6-3.9-1.2-7.7-1.8-11.6
		c-0.4-2.7-0.7-5.4-1.1-8c-0.1-0.6-0.4-1.2-0.7-1.6c-1.5-2.1-1.6-4.7-0.2-6.7c0.1-0.2,0.5-0.4,0.5-0.6c-0.1-3.1,2.4-3.8,4.5-5.1
		c1.9-1.2,3.7-2.6,5.5-4c3.1-2.5,6.1-5.1,9.2-7.7c3.7-3.1,7.3-6.2,11-9.1c5.3-4.1,10.3-8.6,16-12.1c1.1-0.6,1.8-1.8,2.7-2.7
		c1.2-1.2,2.5-2.4,3.8-3.5c0.2-0.2,0.7-0.5,0.9-0.4c1.5,0.3,2.6,0,3.8-1c1.1-1,2.8-0.1,3.3,1.3c0.2,0.5,0.3,1,0.4,1.5
		c0.5,3.2,1,6.5,1.4,9.7c0.4,3.3,0.9,6.5,1.3,9.8C519,345.8,518.9,345.8,518.8,345.8z M462.5,376.7c-0.1,0-0.2,0-0.3,0
		c0.5,3.9,1,7.8,1.6,11.6c0.2,1.6,1,1.9,2.3,1c0.8-0.5,1.5-1.2,2.3-1.7c5.2-3,10.3-6.1,15.6-9c1.3-0.7,1.8-1.4,1.6-2.9
		c-0.7-4-1.2-7.9-1.9-11.9c-0.1-0.5-0.5-1-0.9-1.5c-0.5-0.8-1.3-1.5-1.6-2.3c-0.6-1.5-1.4-1.3-2.4-0.6c-1,0.7-1.9,1.5-2.9,2.2
		c-3.8,3.1-7.5,6.3-11.4,9.1c-1.5,1.1-2.4,2.1-2.1,4C462.4,375.5,462.4,376.1,462.5,376.7z M465.5,407.2c-0.1,0-0.2,0-0.3,0
		c0.2,1.6,0.4,3.3,0.6,4.9c0.2,1.3,0.4,2.6,0.7,3.8c0.5,1.7,1.2,1.9,2.5,0.8c0.3-0.2,0.5-0.5,0.8-0.7c2.5-2.5,4.9-5.2,7.6-7.6
		c3.2-2.8,6.6-5.4,9.9-8.1c2-1.6,2.1-1.6,1.4-4.2c-0.1-0.4-0.1-0.9-0.1-1.3c-0.5-2.7-0.8-5.3-1.4-8c-0.4-1.8-0.9-2-2.6-1.1
		c-2.2,1.2-4.5,2.3-6.6,3.6c-4,2.5-8.4,4.5-11.8,8c-1.1,1.1-1.4,2-1.2,3.4C465.2,403,465.3,405.1,465.5,407.2z M513.3,352.8
		c0-0.4,0-0.9-0.1-1.3c-0.6-4.8-1.2-9.5-1.8-14.3c-0.2-1.2-0.5-2.3-0.8-3.4c-1.2,0.6-2.3,1.1-3.5,1.7c-0.1,0.1-0.2,0.3-0.4,0.4
		c-5.8,5.2-11.5,10.4-17.3,15.5c-1.1,0.9-1.4,1.8-1,3.1c0.5,1.6,1,3.3,1.3,5c0.5,3.2,0.9,6.4,1.3,9.6c0.1,0.8,0.3,1.5,0.5,2.3
		c0.3,0.9,0.9,1.1,1.6,0.5c2.5-2.3,5-4.6,7.4-7c0.8-0.8,0.5-1.2-0.4-1.5c-1.9-0.6-3.8-1.1-5.7-1.7c-1.6-0.5-2.3-2-1.5-3.5
		c0.7-1.4,2.6-2.1,4.2-1.5c1.4,0.5,2.8,1,4.2,1.4c1.4,0.4,2.4,1,2.6,2.6c0.1,1.4,0.9,1.2,1.8,0.6c1.9-1.4,3.9-2.7,5.7-4.1
		C512.7,356.1,513.4,354.6,513.3,352.8z M514,370.9c0.2,0,0.3,0,0.5-0.1c-0.2-1.9-0.4-3.8-0.7-5.7c-0.1-1.1-0.7-1.3-1.6-0.7
		c-0.5,0.3-1.1,0.5-1.6,0.9c-2.5,1.8-5,3.5-7.4,5.4c-3.3,2.7-6.5,5.5-9.6,8.4c-0.5,0.5-0.8,1.6-0.8,2.3c0.2,2.3,0.6,4.5,1,6.7
		c0.2,1.3,0.7,2.5,1.1,3.8c0.3,0.8,0.9,1.1,1.7,0.6c0.5-0.3,1.1-0.6,1.5-1c3.2-2.6,6.5-5.3,9.7-8c1.3-1,2.6-2,3.9-3.1
		c1-0.9,2-2,2.8-3.1c0.3-0.5,0.4-1.3,0.3-1.9C514.5,374,514.2,372.5,514,370.9z"/>
	<path d="M198,488.1c0.5,4.7-2.3,8-6.3,10.6c-1.9,1.2-4.1,1-5.8-0.5c-2.8-2.5-4.2-5.9-5.7-9.3c-0.2-0.5-0.1-1.2,0.1-1.8
		c1.1-3.9,3.1-7.1,6.6-9.3c1.7-1.1,3.5-0.7,5,0.2C195.5,480.1,198.3,482.9,198,488.1z"/>
	<path d="M131.7,519.2c0.2-0.2,0.3-0.4,0.5-0.6c0.1,0.1,0.2,0.2,0.3,0.4C132.2,519,131.9,519.1,131.7,519.2
		C131.7,519.2,131.7,519.2,131.7,519.2z"/>
	<path d="M363,385.9c0,1-0.4,1.3-1.7,0.7c-0.9-0.5-1.9-1-2.6-1.7c-2.6-2.5-5.2-5.2-7.8-7.7c-2.1-2-4.2-4-6.3-5.9
		c-1.4-1.2-1.5-2.3-0.3-4.1c1.1-1.5,2.1-1.7,3.5-0.5c3.9,3.8,7.7,7.8,11.5,11.7c0.5,0.5,0.8,1.1,1.4,1.6
		C362.3,381.6,362.7,383.5,363,385.9z M360.3,382.2c0-0.1,0-0.2,0-0.2c0,0-0.1,0-0.2,0c0,0.1,0,0.2,0,0.2
		C360.1,382.2,360.2,382.2,360.3,382.2z"/>
	<path d="M367.5,367.6c-0.4,1-0.8,2-1.2,3c-0.9-0.5-2-0.9-2.8-1.6c-2.7-2.6-5.3-5.3-8-7.9c-0.9-0.9-2-1.6-3-2.5
		c-1.6-1.3-1.7-2.2-0.6-3.8c1.4-1.9,2.4-2.2,4.1-0.9c4.2,3.2,7.6,7.2,10.7,11.4C367,365.9,367.2,366.8,367.5,367.6z"/>
	<path d="M355.1,395.4c-1.5-0.8-3-1.3-4-2.3c-3.5-3.4-7.2-6.5-11.3-9.2c-1.2-0.8-1.3-1.8-0.6-2.8c0.9-1.1,3.5-1.7,4.7-0.8
		c4,2.9,7.6,6.1,10.6,9.9c0.8,1,0.9,2.6,1.2,3.9C355.9,394.4,355.5,394.9,355.1,395.4z"/>
	<path d="M275.3,208.6c-0.1-0.5-0.2-1.2-0.5-1.9c-0.6-1.9,0.9-4.3,2.9-4.3c0.5,0,1.1,0.5,1.5,0.8c1.8,1.6,3.6,3.3,5.5,4.8
		c1.8,1.5,2.4,3.1,1.7,5.3c-0.3,1-2.1,1.9-3.5,1.4c-1-0.3-1.9-0.9-2.8-1.4c-1.1-0.7-2.1-1.7-3.4-2
		C275.4,210.9,274.9,210.3,275.3,208.6z"/>
	<path d="M284.8,204.9c-2.9-0.5-5.5-2-7.1-4.9c-0.5-0.9-0.4-1.7,0.4-2.3c0.7-0.5,1.5-0.8,2.2-1.4c0.8-0.7,1.2-0.3,1.7,0.2
		c1.2,1.1,2.6,2,3.8,3.1c0.6,0.5,1.2,1.1,1.5,1.7C288.4,203.2,287.3,204.9,284.8,204.9z"/>
	<path d="M504.5,354.2c-2-0.6-3.7-0.8-5.2-1.5c-0.6-0.3-1.1-1.6-1.1-2.4c0-1.2,1.7-2.9,2.7-2.9c2.1,0.1,3.9,0.8,5.3,2.5
		c0.7,0.9,0.7,1.8,0.1,2.7C505.8,353.3,505,353.7,504.5,354.2z"/>
</g>
</svg>
