<?xml version="1.0" encoding="utf-8"?>
<!-- Generator: Adobe Illustrator 18.1.0, SVG Export Plug-In . SVG Version: 6.00 Build 0)  -->
<!DOCTYPE svg PUBLIC "-//W3C//DTD SVG 1.1//EN" "http://www.w3.org/Graphics/SVG/1.1/DTD/svg11.dtd">
<svg version="1.1" id="Layer_1" xmlns="http://www.w3.org/2000/svg" xmlns:xlink="http://www.w3.org/1999/xlink" x="0px" y="0px"
	 viewBox="0 0 81.1 210.4" style="enable-background:new 0 0 81.1 210.4;" xml:space="preserve">
<style type="text/css">
	.st0{fill:#FFFF00;}
</style>
<path class="st0" d="M57.2,109.7c0.7,1,1,3,0.5,3.9c-7.2,13-14.6,25.9-21.8,38.9c-1.8,3.3-3.2,6.9-4.5,10.5c-0.3,0.8,0.4,2.3,1,3.2
	c7.8,12.2,15.7,24.3,23.4,36.4c0.7,1,0.7,2.5,1.1,3.7c-1.6-0.3-3.7-0.1-4.8-1c-12.2-11.1-23.8-23-36.6-33.4
	c-11.5-9.3-1.6-16.2,1.6-23.3c4.1-9,9.7-17.3,15.2-25.5c3.2-4.8,2.4-8.5-0.4-12.9C24.2,97.6,16.6,84.8,9,72c-0.6-1-0.5-3.3,0.2-4.3
	C22.9,48.3,36.6,28.9,50.4,9.6c0.7-1,2.9-4.4,5.1-6.1c0.1-0.1,2.3,0.6,1.8,1.2c5.5,4,16.4,11.9,16.1,12.4
	c-7.6,10.3-15.5,20.3-23,30.7c-5.6,7.7-10.8,15.6-15.8,23.7c-0.7,1.1,0,3.7,0.8,5.1C42.6,87.7,50,98.6,57.2,109.7z"/>
<path class="st0" d="M190.9,140.8c-5.4-8.3-11.1-16.4-16.3-24.9c-2.2-3.5-5.4-8.2-4.6-11.4c3.5-13.4,8-26.5,12.8-39.5
	c1.8-4.8,2.4-8.6-0.6-12.9c-10.6-15.1-21-30.3-31.6-45.5c-0.2-0.3-10.1,7.4-14.5,10.5c-1.2,0.8-1.9,1.3-2,1.3
	c0.1,0.1,0.1,0.2,0.2,0.3c8.9,14,18,27.9,26.9,41.9c0.9,1.5,1.5,3.8,1.2,5.4c-2.7,11.8-5.8,23.5-8.4,35.4c-0.9,4.2-4.2,8.3-1.3,13.1
	c4.5,7.2,8.8,14.5,12.9,21.9c2.2,3.9,6.6,6.6,5.3,12.3c-1.7,7.2-3.2,14.6-3.9,22c-1,10.1-1.1,20.2-1.4,30.4c0,1.1,1.2,2.2,1.8,3.4
	c0.4-0.9,0.9-1.7,1.3-2.6c0.7-1.6,1.5-3.2,2.1-4.8c6.7-18.2,13.4-36.4,20.1-54.6C191,141.9,191.2,141.2,190.9,140.8z"/>
<path class="st0" d="M134.1,18.4c0.1,0.1,0.1,0.2,0.2,0.3C134.2,18.6,134.1,18.5,134.1,18.4z"/>
<path class="st0" d="M136.2,17.1c-1.2,0.8-1.9,1.3-2,1.3c-0.2-0.3,0.3-1.5,0.5-1.5C135.1,17,135.7,17,136.2,17.1z"/>
<path class="st0" d="M315.7,157.4c-1-4.5-0.8-9.8,0.7-14.2c2.4-7.4,6-14.6,9.6-21.5c2.8-5.2,4.8-8.8-0.6-14.6
	c-7.5-8-13.1-18-19.2-27.3c-1.1-1.6-1.5-4.5-0.9-6.4c2.1-6.3,4.8-12.4,7.3-18.6c1.6-3.9,4.8-7.9,4.5-11.7c-0.9-11.9-3.1-23.8-5-35.7
	c-0.1-0.6-17.3-1-23.4-0.9c-0.5-0.5,0.5,0.5,0,0c-0.2,0.4-0.5,0.9-0.7,1.3c0,0,0,0,0,0c-0.3,0.6-0.6,1.2-0.6,1.7c0.3,4,1.1,8,1.5,12
	c0.7,8,3.2,16.5,1.5,24c-2.4,11.2-7.9,21.7-11.8,32.6c-0.5,1.5-0.2,4,0.7,5.2c9.2,12,18.6,23.7,27.7,35.7c0.8,1,0.8,3.2,0.3,4.3
	c-3.1,6.8-6.6,13.3-9.6,20.1c-1.1,2.4-2.4,5.8-1.5,7.7c8.8,17,18,33.7,27.2,50.5c0.5,1,1.9,1.5,2.9,2.2c0.2-1.3,1-2.7,0.7-3.8
	C323.3,185.9,319.1,171.7,315.7,157.4z"/>
<g>
</g>
<g>
</g>
<g>
</g>
<g>
</g>
<g>
</g>
<g>
</g>
</svg>
