<svg xmlns="http://www.w3.org/2000/svg" viewBox="0 0 58 210.4" enable-background="new 0 0 58 210.4"><path d="M-326.9 109.7c.7 1 1 3 .5 3.9l-21.8 38.9c-1.8 3.3-3.2 6.9-4.5 10.5-.3.8.4 2.3 1 3.2 7.8 12.2 15.7 24.3 23.4 36.4.7 1 .7 2.5 1.1 3.7-1.6-.3-3.7-.1-4.8-1-12.2-11.1-23.8-23-36.6-33.4-11.5-9.3-1.6-16.2 1.6-23.3 4.1-9 9.7-17.3 15.2-25.5 3.2-4.8 2.4-8.5-.4-12.9-7.9-12.6-15.5-25.4-23-38.2-.6-1-.5-3.3.2-4.3 13.6-19.5 27.3-38.8 41.1-58.2.7-1 2.9-4.4 5.1-6.1.1-.1 2.3.6 1.8 1.2 5.5 4 16.4 11.9 16.1 12.4-7.6 10.3-15.5 20.3-23 30.7-5.6 7.7-10.8 15.6-15.8 23.7-.7 1.1 0 3.7.8 5.1 7.4 11.2 14.8 22.1 22 33.2zM-83 140.8c-5.4-8.3-11.1-16.4-16.3-24.9-2.2-3.5-5.4-8.2-4.6-11.4 3.5-13.4 8-26.5 12.8-39.5 1.8-4.8 2.4-8.6-.6-12.9-10.6-15.1-21-30.3-31.6-45.5-.2-.3-10.1 7.4-14.5 10.5-1.2.8-1.9 1.3-2 1.3l.2.3 26.9 41.9c.9 1.5 1.5 3.8 1.2 5.4-2.7 11.8-5.8 23.5-8.4 35.4-.9 4.2-4.2 8.3-1.3 13.1 4.5 7.2 8.8 14.5 12.9 21.9 2.2 3.9 6.6 6.6 5.3 12.3-1.7 7.2-3.2 14.6-3.9 22-1 10.1-1.1 20.2-1.4 30.4 0 1.1 1.2 2.2 1.8 3.4l1.3-2.6c.7-1.6 1.5-3.2 2.1-4.8l20.1-54.6c.1-.6.2-1.3 0-1.7zM-139.8 18.4l.2.3c-.1-.1-.2-.2-.2-.3zM-137.8 17.1c-1.2.8-1.9 1.3-2 1.3-.2-.3.3-1.5.5-1.5l1.5.2zM-216.1 100.7c-5.9-16-7.6-31.3.5-47.3 5.8-11.3 9.9-23.4 14.7-35.2.4-1-7.2-7.2-11-11l.3-.6c.3-.4-.4-2.1-.5-2.1-.6 0-1.3 0-1.9.1h-.1c-.7.1-1.3.2-1.5.6-8.4 15.1-16.9 30.2-24.9 45.5-5.3 10.2-10.7 19.8-4.5 32.7 7.8 16.4 13 34 19.2 51.2.7 1.9 1.2 4.1 1 6.1-1.5 17.5-4.3 52.4-4.1 52.4 0 2.5-.1 5 0 7.5.1 1.1.5 2.3.8 3.4.8-1 1.9-1.8 2.3-2.9 6.3-16.2 12.7-32.4 18.8-48.7 2-5.2 4.9-9.9 2.3-16.5-4.5-11.3-7.2-23.5-11.4-35.2zM-214 4.7c-.1 0-.1-.1 0-.1v.1zM41.8 157.4c-1-4.5-.8-9.8.7-14.2 2.4-7.4 6-14.6 9.6-21.5 2.8-5.2 4.8-8.8-.6-14.6-7.5-8-13.1-18-19.2-27.3-1.1-1.6-1.5-4.5-.9-6.4 2.1-6.3 4.8-12.4 7.3-18.6 1.6-3.9 4.8-7.9 4.5-11.7-.9-11.9-3.1-23.8-5-35.7-.1-.6-17.3-1-23.4-.9l-.7 1.3c-.3.6-.6 1.2-.6 1.7.3 4 1.1 8 1.5 12 .7 8 3.2 16.5 1.5 24-2.4 11.3-7.8 21.8-11.8 32.7-.5 1.5-.2 4 .7 5.2 9.2 12 18.6 23.7 27.7 35.7.8 1 .8 3.2.3 4.3-3.1 6.8-6.6 13.3-9.6 20.1-1.1 2.4-2.4 5.8-1.5 7.7 8.8 17 18 33.7 27.2 50.5.5 1 1.9 1.5 2.9 2.2.2-1.3 1-2.7.7-3.8-3.7-14.2-8-28.4-11.3-42.7z"/></svg>