<?xml version="1.0" encoding="utf-8"?>
<!-- Generator: Adobe Illustrator 18.1.0, SVG Export Plug-In . SVG Version: 6.00 Build 0)  -->
<!DOCTYPE svg PUBLIC "-//W3C//DTD SVG 1.1//EN" "http://www.w3.org/Graphics/SVG/1.1/DTD/svg11.dtd">
<svg version="1.1" id="Layer_1" xmlns="http://www.w3.org/2000/svg" xmlns:xlink="http://www.w3.org/1999/xlink" x="0px" y="0px"
	 viewBox="0 0 612 111.1" style="enable-background:new 0 0 612 111.1;" xml:space="preserve">
<style type="text/css">
	.st0{fill:#FFFFFF;}
</style>
<path class="st0" d="M-1.3,111.1c0,0-22.1-92.6,127.3-84c56.1,3.2,80.6,20.5,91.4,28.4c5.6,4.1,13.4,4.8,18.5,0
	c5.1-4.8,12.3-19.7,21-21c39.1-5.8,51.9-9.9,60.5-14.8s20.3,17.9,38.3,24.7c4.7,1.8,21-8.6,27.2-13.6c6.2-4.9,32.1-18.5,43.2-18.5
	s25.9,7.4,45.7,16s63,8.6,79,1.2s37-12.3,48.1-12.3c11.1,0,13.2,93.8,13.2,93.8H-1.3z"/>
<g>
</g>
<g>
</g>
<g>
</g>
<g>
</g>
<g>
</g>
<g>
</g>
</svg>
