<svg xmlns="http://www.w3.org/2000/svg" viewBox="0 0 194.2 51.5" enable-background="new 0 0 194.2 51.5"><style type="text/css">.st0{fill:#333333;}</style><path class="st0" d="M156.5 21.4h-1c1.2-.5 2.1-.8 3.6-1.4h-3.9v-.3c1.1-.3 2.2-.6 3.9-1l-3.9-.2c1.9-.4 3.3-.7 4.7-.9l-.1-.5-4.9.5-.1-.2c.8-.2 1.7-.4 2.6-.7-.1-.3-.1-.5-.1-.9-1 .2-2 .4-2.9.7v-.1c1.8-.5 3.6-1 5.4-1.4v-.2l-5.1.3 2.6-1.1c.1 0 .2.1 0 0h-.1c.9-.3 1.8-.7 2.9-1.1-6.2-.8-9.3 4.6-14.1 6-1.9.2-3.8.3-5.6.5 0-.2-.1-.5-.1-.9 1.1-.2 2.3-.4 3.5-.6v-.2h-5.4v-.3l3.9-.2v-.4h-4.5v-.5h-.8v-.2h3.5v-.5h-5.1l.7-1v-.1.1h-2.6c1.5-.6 2.3-.9 3-1.1v-.3l-3.5.5c0-.1 0-.2-.1-.3l2.4-.5v-.4h-3.3v.4l2.4-.4v.3c-.8.2-1.6.3-2.6.5.8 10.2 1.6 20.2 2.4 30.2-1.1.3-1.8.6-2.5.7-.7.1-1.4 0-2.3 0 .9-.4 1.5-.7 2.7-1.3-1 .1-1.5.2-2 .2-.1-.1-.2-.3-.4-.5-.5.1-1 .2-1.5.4l-.1-.3c1.1-.4 2.3-.7 3.7-1.2h-2.9l-.1-.3 2.7-1v-.3l-4 .3 4.1-1.6-.1-.3-4.5.3c1-.3 2-.6 3.2-1-.4-.2-.6-.3-.7-.3v-.3l1.9.2v-.7c-1.3.1-2.4.2-3.6.2v-.2c1.1-.3 2.2-.6 3.8-1-1.1.1-1.7.1-2.3.2l-.3-.8-2.3.3c.9-.3 1.8-.6 2.8-.9 0-.1.1-.3.1-.6-.5 0-.9.1-1.3.1 1-.6 2-1.2 3.7-2.3-2 .4-3.1.6-4.3.8.3-.2.6-.5 1.1-.9-.6.1-1 .2-1.3.2.5-.3 1.1-.8 1.7-1.2v-.1h-.1l-1.6.5 1.9-.9-.3-.3c-.8-.1-1.3-.1-1.9-.2l2.2-1.1c-1.1-.1-1.7-.2-2.4-.3 1.2-.3 2.4-.7 4.2-1.2-1.3.1-2 .1-3.1.1.5-.3.7-.4 1.3-.7-2 .2-3.5.4-4.7.5 1.6-.5 3.6-1.2 5.5-1.9l-.2-.5c-.7.2-1.4.4-2.3.7l-.2-.4v-.2c.8-.3 1.5-.6 2.4-.9v-.6c-1 0-2 .1-2.9.1v-.3c-.3.1-.6.2-.8.3l3.2-1.3c-.7 0-1.3.1-1.9.1l-.1-.3c.7-.3 1.5-.6 3-1.1-1.7.3-2.6.5-3.5.7.1-.1.1-.2.2-.4-.3 0-.6.1-1.6.2 1.7-.6 2.8-1 4.2-1.5-1.4.1-2.4.1-3.4.2v-.2l3.1-.3v-.3l-1.3.2v-.3l-2.9.3c.4-.3.8-.5 1.5-.9.7-.1 1.7-.2 3.3-.5-1.8-.3-2.9-.4-4-.6.5-.2 1-.4 2.2-.8-1.2-.1-1.6-.1-2-.1v-.2l2.9-.3v-.4c-1.3.1-2.5.1-3.6.2.1 0 .4-.2 1-.4-.4 0-.6-.1-1.1-.1 1.5-.3 2.6-.5 3.8-.7v-.4h-4.6c1-.4 2-.8 3.7-1.5-.2 0 .3-.1.9-.1v-.2l-.9.1c.3-.2.7-.4 1.8-1-1.9.3-3.1.5-4.5.7.7-.3 1.1-.5 1.4-.7 0-.1 0-.1-.1-.2-.4.1-.7.2-1.1.2 0-.1 0-.1-.1-.2l3.5-.7-.1-.4-3.5.4c.4-.3.8-.6 1.4-1-.6.1-1 .2-2.3.3 1.7-.5 2.5-.7 3.8-1.1h-4.2c.2-.5.4-.7.6-1.1.7-.1 1.5-.1 2.4-.2-.6.2-1.2.4-1.8.5l.1.3 3-.7v-.2l-1.3.1c4-2 6.7.7 9.7 2.5l5.9 3.7c.2.1.6.1.9.1v.6c.7 0 1.5.1 2.2 0 .3 0 .5-.4.9-.7-.4 0-.7-.1-1.8-.1 2.1-.6 3.5-.9 4.9-1.3v-.2c-1.4.1-2.8.2-4.1.3 1.8-.3 3.6-.7 5.5-1v-.3c-1.8.1-3.6.3-5.5.4l7.5-1.1v-.3c-1.5.1-2.9.2-5.1.3 1.7-.4 2.7-.6 3.8-.8v-.3h-1.4v-.2l5.8-.6v-.2h-5.7c2.5-.2 4.6-.5 6.8-.7v-.3c-.2 0-.4-.1-.8-.2 1.4-.2 2.6-.3 4.4-.5.1.5.5 1.3.5 2.1v36.1c-.3.1-.6.3-.6.3h-5.2c1.3-.3 1.8-.5 2.3-.6l.1-.1c.6-.2 1.1-.3 2-.6h-3.8v-.2c.5-.1 1-.1.7-.1 1.4-.6 2.1-.8 2.8-1.1l-.1-.3-3.3.5v-.2l1.8-.3v-.3l-2.2.4c.9-.3 1.8-.5 2.8-.8.3-.1.7-.2.9-.7l-2.9.3v-.2c.3-.1.6-.1 1.3-.3-.7-.1-1-.1-1.3-.2l3-.7-.1-.5-3.5.4v-.2l3.4-.5v-.3c-1.3.1-2.6.2-3.9.4.1-.2.3-.4.2-.4 1-.5 1.7-.8 2.5-1.2h-3c0-.1-.1-.2-.1-.4l4.2-1.4c0-.1 0-.2-.1-.3l-3.7.8v-.1c.6-.2 1.3-.4 1.9-.5-.8.1-1.5.2-2.3.2l.4-.6c1.1-.2 2.1-.4 3.2-.7 0-.1 0-.2-.1-.4h-3.3c.9-.2 1.8-.4 2.8-.7-.4-.3-.7-.5-1.1-.9-1.3.2-2.8.4-4.3.6 2.1-.5 4.3-1 6.5-1.5 0-.3 0-.5-.1-.8-.6.1-1 .2-1.9.4 1 .2 1.5.3 2 .5l-3.3.1c-.2 0-.4-.2-.6-.3h1.8v-.3c-.3 0-.6 0-1.1-.1.7-.3 1.3-.6 1.9-.8v.1h-1v-.4c-1.2.1-2.4.3-3.1.3.7-.3 1.8-.9 3-1.4 0-.1-.1-.2-.1-.4l-2.8.6v-.3c1.8-.3 3.6-.7 5.3-1v-.3c-1.1.1-2.3.2-3.5.3.2-.1.4-.2.6-.4l-.5-.2 3.5-.8c.1-.3.1-.5.2-.9-1.4.1-2.6.3-4.5.5 1.2-.7 1.9-1 2.8-1.5h-2.4c.3-.1.5-.3.9-.5 0-.1.1-.3.2-.5l2.9-.4-.1-.4c-1.4.3-2.7.6-4 .8v-.7c1.3-.4 2.6-.8 4-1.2v-.3c-.9.4-2 .6-3.2.7zm-21.5-11.9zm-2.5 19.4zm3.5-18.7v.1c.1 0 .1-.1 0-.1zm22.2 2.1c.2 0 .4.1 0 0zm.5 17.4c-.3.1-.1 0 0 0l1.2-.3-.1-.3c-.3.2-.7.4-1.1.6zm-16-11.3c-.5.1-1 .1-1.6.1 0 .1 0 .2.1.4.5-.1 1-.3 1.5-.5zm16.3 6.5c-.3.1-.2 0 0 0l1.1-.3c-.1-.1-.1-.2-.2-.4-.3.3-.6.5-.9.7zm-4.2-16.1c.4-.1.2-.1 0 0-.6 0-1.2.1-1.9.1v.3c.7-.2 1.3-.3 1.9-.4zm2.9 3.3l2.2-.5-.2-.5c-.7.4-1.3.7-2 1zm2.3 7.4l-.2-.3-2.6.5.1.3c1-.2 1.8-.3 2.7-.5zm-26.7-7.9c0-.2 0-.4-.1-.6l-1.5.2c0 .2 0 .3.1.5.6 0 1-.1 1.5-.1zm-3.7 22.5c1 .2 1.4.3 2 .4v-.9c-.7.1-1.1.3-2 .5zm.1-20.9v-.3c-.7.1-1.3.2-2 .4v.2c.6-.1 1.3-.2 2-.3zm30.2 15.3v-.3c-.4 0-.8 0-1.2.1v.2c.4-.1.8-.1 1.2 0zm-31.7-19.2v.3c.4-.1.8-.2 1.2-.2v-.2l-1.2.1zm-1.2-.9c0-.1 0-.2-.1-.3l-.7.2v.2c.3 0 .6-.1.8-.1zm32.3 24c0 .1 0 .2-.1.2l.6.2c0-.1 0-.2.1-.3l-.6-.1zm-28.4 9.9v.2l.5-.1v-.2c-.2 0-.3 0-.5.1zm15-27.6l-.1-.2-.5.3c.1.1.1.2.2.2.1-.1.2-.2.4-.3zm9.9 5v.2h.8v-.2h-.8zm4.1 23.3v-.2c-.2 0-.5 0-.7.1v.2c.3-.1.5-.1.7-.1zm-29.5-2.3v.2h1v-.2h-1zm-.1-10.8v.2l.8-.2v-.2c-.3.1-.6.2-.8.2zm18.1-16.9v.2l.8-.2c0-.1 0-.1-.1-.2-.2 0-.5.1-.7.2zm-20.2 4.2v-.1h-.7v.1h.7zm28 20zm-26.7-29l-.1-.2-.4.3.1.2c.1-.2.3-.3.4-.3zm30.4 11.7h-.2c0 .1 0 .2.1.3h.2s0-.2-.1-.3zm-29.4 8.9v.1h.6v-.2l-.6.1zm1.8-18v-.1h-.5v.2c.2-.1.4-.1.5-.1zm-4 12.2c.4-.2.5-.3 0 0zm1.5 4.7v.2c.1 0 .3 0 1.2-.2h-1.2zm.5-1.4v.1h.4v-.1h-.4zm26.1-12.1v.2c.1 0 .2 0 .9-.1-.7-.1-.8-.1-.9-.1zm-26 11.7c.1.1.2.1.3 0v-.1c-.1.1-.2.1-.3.1zm17.4-12c-.4.3-.3.2 0 0zm10.1 14.4h.2-.2zm.9-14.4c0 .1.1.1 0 0zm.2 30.3v.1h.3v-.1h-.3zm-28.3-16.5zm-.8 1.9l.1.1.7-.7c-.6.5-.7.6-.8.6zm27.7-4.5c.1.1.1 0 .1 0h-.1zm1.9-9.4h.1v-.1l-.1.1zm.3 20.8h-.1.1zm.7 1.3c-.7.2-.6.1 0 0zm-.8-23.9v-.1h-.3v.1c.1-.1.2-.1.3 0zm-30.2-5.3c-.1 0-.1 0-.1-.1v.1h.1zm13.9 6.3c.1.1.1 0 0 0zm-13.5 1.9zm29.9 7zm-.3 17.9zM70 33c-.7-.1-1.4-.2-2-.2.6-.2 1.2-.5 1.9-.8h-5.7v.1l7.9-1.2v-.4l-4.8.3c0-.3.1-.5.1-.9l4.3-.3v-.2h-6.1c1.8-.2 4.1-.6 6.4-.9l-.1-.6-6.6.6v-.1l6.5-1.2v-.3l-5.1.4c0-.1 0-.1-.1-.2l5.3-1.1v-.3c-1.1.1-2.3.2-4.2.3 1.3-.3 1.8-.4 2.8-.6l-1.3-.2c.6-.1 1.2-.3 2.5-.6h-3.4v-.1c.7-.1 1.4-.2 2.5-.4-.8-.1-1.1-.1-1.4-.2v-.2c.9.1 1.7.1 2.7.2l.1-.8-4.2.2v-.3l4.3-.6.1-1h-2.2v-.2c-1 .1-2 .2-3.1.3l5.5-1-.1-.3h-3.6v-.1l4-.5c0-.1 0-.3-.1-.4-2.3.2-4.6.4-7.7.7 2.4-.4 4.1-.7 5.8-1l-.1-.6c-.5.1-1 .1-1.6.2-.3-.1-.6-.2-.6-.3.8-.2 1.8-.6 2.8-.9h-2.3c1.2-.2 1.8-.3 2.5-.5 0-.1 0-.2-.1-.4l-3.4.6c0-.1 0-.2-.1-.2 1.8-.4 3.6-.9 5.3-1.3-.5-.1-1.1-.2-2.5-.4-.4 0-1.5.1-2.7.2l6-1.8-.1-.4-5.3.8v-.1l4.2-.9v-.3c-1.1-.1-2.2-.1-3.4-.2v-.2h5.2v-.5c-.8.1-1.6.2-2.4.2v-.1c1-.2 1.9-.5 3.7-.9-1.6-.1-2.3-.2-2.8-.2.7-.1 1.6-.3 2.5-.5v-.3c-.9.1-1.8.2-2.6.3l3.6-1.2v-.3l-2.4.2v-.1c1-.2 2-.4 2.9-.6 0-.1 0-.2-.1-.3-1.2.7-2.1.9-3 1.1l1-.7.8-.5 2.5-.4v-.4l-3.6.3v-.1c1.3-.2 2.6-.5 4.1-.7 0-.1.1-.3.2-.5-.2-.1-.5-.2-1.3-.7 3.8 0 7-.3 10 .1 4.7.6 9.2 6 9.5 11 .2 3.6 0 7.3 0 11.1l1.5-.3c-.5.2-1.1.4-1.1.4-1.7 4.1-2.8 8.1-4.9 11.7-2.2 3.8-5.9 5.8-11.2 5 .7.3.7.4 1.2.6h-2.5c-.7 0-1.5-.1-2.1-.2.1-.1.4-.3.8-.7-1-.2-1.7-.3-2.4-.4v-.3c.7-.1 1.4-.2 2.2-.3v-.4c-2 .1-4 .3-6.2.4.6-.1 1-.2 1.4-.3v-.9h3.1v-.3h-6.2c1.2-.3 1.7-.5 2.1-.6h2.6l.1-.4c-.5-.1-1-.2-1.8-.3.1.1-.1-.1-.1-.2h-3.3v-.1c1.3-.2 2.7-.3 4.2-.5-.1-.3-.2-.5-.2-.7h-6.2c2.2-.3 3.9-.5 5.6-.7v-.5l-3.8.3v-.2l1.5-.3v-.3l-2.8.1v-.3l4.4-.5v-.2h-1.9v-.2l-2-.1v.2l-.9-.2c.2-.3.5-.6.8-.9.4-.1 1-.2 1.5-.3l-.1-.4c-1.7.2-3.4.3-5.4.5 1.3-.3 2.2-.5 2.8-.6.9-.6 1.5-.8 2-1.1zm10.6 11.7c0-.1-.1-.2 0 0zm10-15.5c1.5-.4 2.9-.8 4.5-1.2h-3.4c-.1-.2-.2-.4-.4-.6 1.4-.1 2.7-.3 4-.4v-.3l-3.3-.3v-.2h-3.7v-.3h4.3v-.2c-.3-.1-.6-.2-.8-.2v-.2l3.8.4v-.3l-3.9-.7v-.2h3.7v-.2l-3.9-.4v-.2l2.2.1v-.3c-1.8-.2-3.5-.3-5.4-.5h4.7c1.2-.2 1.9-.3 2.6-.5v-.2l-4.6-.5v-.4h4.6v-.3c-1.3-.1-2.6-.1-3.8-.2v-.2c.4 0 .7 0 1.1-.1v-.2l-1.7-.3v-.2c1.4.1 2.8.2 4.3.2l.1-.6-3.9-.3v-.3h3.6v-.3c-1.3-.1-2.6-.2-4-.4-.1-.1-.3-.2-.6-.4h4.6c-.1-.4-.1-.8-.2-1.1h-.7l-5.2-.6 3.1.2v-.4c-.5 0-1-.1-1.4-.1v-.3c1.3.1 2.6.2 4 .4l.1-.3c-1.2-.2-2.3-.3-3.8-.5.5-.1.7-.1 1.6-.2-1.3-.1-1.9-.1-2.5-.2v-.2h2.1v-.3l-2.9-.2-.1-.6 2.6-.4v-.3h-3.5v-.3l4.3-.4v-.4l-4.9.4v-.1c1.1-.2 2.2-.5 3.2-.7v-.4h-6c1.4-.3 2.3-.5 3.2-.7l-.1-.5c-.5.1-.9.2-1.3.2l-1.6-.6h2.6c-.4-.3-.9-.4-1.3-.4-5.9.3-10.2 3.8-11.3 9-.8 3.9-1.4 8-1.4 12 0 5.9 2.6 8.9 8.3 10.3 1.4.3 2.9 0 4.3 0v-.6h.4c1.3-.6 2.1-.9 3.3-1.5-1.1.1-1.8.1-2.5.2 1.3-.4 2.6-.8 3.8-1.2 0-.1 0-.1-.1-.2l-.8.2v-.7c-1 .1-1.9.2-2.8.3 1-.3 2.1-.6 3.1-.8h1.8v-.4l-1.7.4c-.3-.2-.7-.5-1.4-1h3.8v-.3h-5.3c1.4-.2 2.2-.3 3.7-.6l-1.7-.7c1.1-.2 2.2-.5 3.4-.7v-.2h-2.5v-.2l3.8-.4c0-.1 0-.3-.1-.4h-2.4v-.3l-1.9.1v-.1l4.7-.6v-.2l-2.1.1c0-.1 0-.2.1-.3-1.2-.5-1.9-.7-2.5-.8zm-.5-16.1v.3h2.5v-.1c-.8-.1-1.6-.1-2.5-.2zm-17.8 19.3v-.3l-2 .2v.3c.7-.1 1.4-.2 2-.2zm21.2-3.2l.1.3c.4-.1.8-.2 1.3-.4-.1-.1-.1-.2-.2-.4-.4.1-.8.3-1.2.5zm-22.4 4v.3l1.3-.2c0-.1 0-.2-.1-.3-.3.1-.7.1-1.2.2zm.3 2v.1h1.5v-.3l-1.5.2zm1.3-20.3v-.3l-1.4.2v.1h1.4zm17.7-4.8v-.1h-1.2v.1h1.2zm2.9 23.7l-.1-.4c-.2.1-.5.2-.7.4 0 .1.1.2.1.2.2-.1.5-.2.7-.2zm-.9-1v.1h1.1v-.1h-1.1zm-18.5-18v-.3l-.7.2v.2c.2 0 .4 0 .7-.1zm-.9 22.2v.2l.5-.2v-.2c-.2.1-.3.2-.5.2zm-4.3-3.2v.2h.6s0-.1.1-.1c-.2-.1-.5-.1-.7-.1zm26.8-10v-.1h-1v.1h1zm-25.7 11.3c0-.1 0-.1-.1-.2l-.5.2c0 .1 0 .1.1.2.2-.1.4-.1.5-.2zm9.5 9.2v-.2l-.4-.1v.2l.4.1zm14.1-31zm-12.5 30.7v-.1c-.1 0-.2 0-.4-.1v.1c.2.1.3.1.4.1zm10.9-33.2l-.2.1.2.3.2-.1-.2-.3zm-15 31.3s0 .1.1.1.2-.1.2-.1 0-.1-.1-.1l-.2.1zm-4-23.4h.2v-.1c-.1.1-.2.1-.2.1zm0-1.6c.4-.2.5-.2 0 0zm-2.9 15.4zm.9 2.8zm5.6 6.9v-.1c-.1 0-.2 0-.2.1v.1c0-.1.1-.1.2-.1zm-4.5-7.4c.8-.2.9-.2.9-.3v-.1c-.1.1-.1.1-.9.4zM123.7 40.9c-1.6-.1-3.3-.1-5.2-.2 1.7-.2 3.2-.3 4.6-.5v-.2h-5.6c1.8-.4 3.3-.7 4.7-1.1v-.4c-1.2.1-2.3.3-3.6.4.3-.2.5-.3 1.2-.7-.8.1-1.1.2-1.5.2 1-.3 1.9-.6 3-.9-.1-.2-.3-.4-.4-.7-1.4.1-2.8.3-4.1.4v.1l-2 .1v-.1l5.6-.9v-.2c-1.3.1-2.6.2-4.4.4 1.6-.4 2.8-.8 3.9-1.1v-.3l-4.3.6v-.3l-1.2.3 2.7-.7v-.1l2.2-.8v-.2l-2 .3v-.2l-2.7.2v-.1l4.4-.8v-.3h-2v-.1c-.7.1-1.4.1-2.8.2.9-.4 1.2-.5 2-.8-.8-.3-1.2-.5-1.7-.7l3-.8v-.5l-2.9.3-1.7-.3c1.2-.4 2.4-.9 3.7-1.4l-.3-.6c-3.3 1.2-6.5 2.3-9.8 3.4.2 3 .3 5.7.5 8.6-2.5.2-4.8.4-7.5.6 1.3-.2 2.1-.4 3-.6l-.1-.5h-1.1c1.4-.6 2.5-1 3.6-1.5-.1-.1-.2-.3-.2-.4h-.9l-2.5.8c.1-.2.2-.4.3-.7l-1.7.3c0-.1 0-.2-.1-.2l4.9-1.2c-.1-.2-.1-.4-.2-.7l-3.1.7c.1-.2.2-.5.2-.6 1-.4 1.9-.7 2.8-1v-.3l-4.9.9 3-.8v-.2c-.5.1-1.1.2-1.5.2.4-.3.9-.7 1.6-1.4.3-.1 1.1-.2 1.8-.3l-.1-.4c-1.1.2-2.2.5-3.4.7.2-.1.3-.2.6-.5-1.1.1-2 .2-2.4.2 1.5-.5 3.3-1 5.1-1.6v-.2l-3.3.5v-.4l1.5-.6c0-.1 0-.2-.1-.3l-4.8.6c1.5-.4 3.1-.8 4.7-1.3-.1-.3-.2-.4-.2-.6.7-.2 1.3-.4 1.9-.6v-.2l-3.7.5v-.2c1.3-.3 2.6-.6 4-.9v-.7c-1.8.2-3.6.4-5.3.5l4.6-1.3v-.2l-4.5.3 5.1-1.4-.1-.4h-3.4c.3-.3.5-.6.9-1-.5 0-.8 0-1.1.1v-.2c1.2-.2 2.4-.4 3.5-.6v-.3h-1.6v-.3c-1.1.2-2.2.5-3.3.8.9-.4 1.6-.7 2.4-1 0-.1-.1-.2-.1-.2l1.8-.3v-.2h-3.7c.7-.2 1.1-.2 1.4-.3l1.6-1.2h1v-.3c-1.4.1-2.8.3-4 .4 1.2-.4 2.6-.9 4-1.4 0-.2-.1-.4-.1-.7l-3.9.4c1.1-.4 2.1-.8 3.7-1.4-1.2.1-1.9.2-2.7.3.2-.2.3-.4.7-.8l-2.1.3 2.1-1c.5-.1 1.4-.2 2.2-.4v-.4h-3.6c1.2-.5 2.4-1 4.1-1.7h-4.5c1.8-.5 2.8-.9 3.9-1.2v-.2l-2.6.4v-.2c.8-.2 1.7-.5 2.7-.8 0-.1.1-.3.1-.7-1 .3-1.8.6-3.2 1 .8-.4 1-.5 1.3-.7l-.1-.4-3.7.8 5.1-2.2c.2-.1.4-.2 1-.7-1.3.3-2.1.4-2.8.6 0-.1 0-.1-.1-.2l2.4-.8c0-.1 0-.2-.1-.2-1 .2-2 .3-2.9.5 5.1-1.4 9.7-6.4 15.5-3 2.2 1.3 3.7 3.8 5.6 5.7.2.2.4.6.6.9-.1 9.3-.1 9.3-3.8 14.1 3 5 6 10 9.3 15.6-2.5.3-4.6.6-6.7.8v-.2l3.9-.7c0-.1 0-.3-.1-.4-.7.1-1.4.2-1.5.3-1.3.1-2.1.1-2.7.2 0-.2.1-.4.2-.8.7.1 1.9-.1 3.1-.2zm-20.8-6.5zm12.7-8.1c-.1.1-.1 0 0 0zm-14 5.8s0 .1-.1.1c.1 0 .1 0 .1-.1.1 0 .2 0-.2.1.4-.2.3-.2.2-.1zm13.7-3.7zm-13.5-11.4l-.9-.1v.2c.3-.1.6-.1.9-.1.2-.1.5-.2 0 0 .4-.3.2-.2 0 0zm14.2-7.6l-1.8.1c-.1 0-.2-.1 0 0l1.8-.1c.1 0 .1.1 0 0zm2.4 6.8h2.1v-.3c-.7.2-1.4.2-2.1.3l-1.8.1c.7-.2 1.3-.4 2-.7v-.3h-2.1c.2-.4.4-.7.6-1 1.2-.1 2.3-.2 3.4-.3v-.5l-5.2.3v-.1l3.8-.6v-.2l-3.3.3v-.2l3.6-.4v-.2h-4.9c1.4-.4 2.7-.8 4-1.1 0-.1 0-.3-.1-.4l-4.9.6v-.1l2.5-.6-.1-.4c-.8.1-1.5.2-2.4.3.2-.2.3-.4.6-.6-.7.1-1.2.2-1.7.3.6-.5 1.2-.9 1.9-1.5-.8.2-1.4.4-1.3.4h-2.7c.2-.1.4-.2 1.1-.8-2.3.5-4 .8-6 1.2.3 6.2.6 12.1.9 18.4 1.8-.7 3.3-1.3 4.8-1.8.1 0 0-.3 0-.4 1.4-.7 2.8-1.3 4.6-2.2-1.2.3-2 .4-2.9.6l1.7-1.1c1.1-.2 2.5-.4 3.9-.7l-.1-.4-1.5.4c0-.1 0-.2-.1-.4l-2 .3c1.5-.5 3.1-1 4.6-1.4l-.1-.3c-1.4.4-2.9.7-4.1 1-.3-.2-.4-.3-.6-.4 1.6-.5 3.2-1.1 4.9-1.6l-.1-.5c-1.2.2-2.4.4-3.5.6 0-.1 0-.1-.1-.2l4.7-1.1c0-.1 0-.1-.1-.2l-4.5.3c0-.1-.1-.2-.1-.4 1.6-.4 3.3-.8 5.3-1.3h-5.8c.9-.4 1.2-.5 1.4-.6l1.8-.1zm-.5-1.7v.3l2.6-.3v-.2c-.9.1-1.8.1-2.6.2zm-15 25.4l.1.3 1-.3-.1-.3c-.4.1-.7.2-1 .3zm1.2-10l-.1-.3-1.1.5.1.2c.3-.2.7-.3 1.1-.4zm-3-19.4c0 .1 0 .1.1.2l1.1-.3v-.2c-.4.2-.8.2-1.2.3zm15.5 13.1v-.2c-.2 0-.5 0-.7.1v.2c.2-.1.4-.1.7-.1zm4.4 18v-.1l-.4.1v.2c.1-.1.2-.1.4-.2zm-18.9-28.3v.2h.6v-.1c-.3-.1-.4-.1-.6-.1zm-.9-.1c-.4.3-.3.3 0 0-.4.2-.5.2 0 0zm14.8 7.9v-.2c-.1 0-.3 0-1 .2h1zm2.6-3.2v-.1h-.2v.1h.2zm.9-5.2v.2h1c-.7-.1-.9-.1-1-.2zm-2.9-2.6v.1h.5v-.1h-.5zm-13.7 4.7c-.6.1-.5.1 0 0zm17.4 23.6zm1.4 3.1h.1c0-.1-.1-.1-.1 0zm-18-10.9v.1c.1 0 .2 0 .3-.1v-.1l-.3.1zm-1.7-5.9c.1-.1.1-.2.1-.2h-.1v.2zm10.7 2.5h.1-.1zm8.2 11c-.1.1 0 .1 0 0zm-3.1-6.5zm-15.2 1.6zm14.6-12.7zM168.2 14.6c.6-.3 1.2-.6 1.8-1l1.4-.1c0-.1 0-.2-.1-.3l-1.3.5h-1.3c.3-.1.4-.2.6-.2l-.1-.2c-.7.2-1.4.4-2 .6 0-.1 0-.1-.1-.2l6.2-2.8-.1-.2c-.6.2-1.1.3-1.5.4-.3-.1-.6-.1-.8-.2l2.8-1.1h1.2c0-.1 0-.2-.1-.3l-1.2.3c-.6.1-1.1.2-1.7.4 2.7-3.2 15.7-2.1 18.5 1.5v4.9c-1.5-.1-2.9-.1-5-.3 1.6-.1 2.5-.2 3.3-.3v-.1h-1.3l.1-.6h-4.7v-.1h2.2c-.9-.2-1.1-.3-1.4-.4.5-.1 1.1-.3 2.4-.6l-3.2-.4c.5-.1 1.1-.2 2.4-.5-2-.3-3.3-.4-4.7-.6h3.8v-.2l-2.4-.3c.1-.1.2-.1.7-.3-.7.1-1.1.1-1.5.2v-.1h-2.1c.2-.1.4-.1.5-.1-2.7-.8-6.6 2.7-6.5 5.8.1 4.5 2.4 6.7 8.4 7.6 3.3.5 6.6 1.5 8.2 4.4 1.3 2.5 1.8 5.6 1.9 8.4.3 5.5-4 10.9-9.3 11.4-3.2.3-6.5-.6-9.7-1.1-1.2-.2-2.3-.5-3.4-1.1.6.1 1.1.3 1.7.5.1-.4.1-.6.1-1-.6-.1-1.1-.2-1.6-.3v-.1h.8l.2-.2-.4-.1h2c0-.1 0-.3.1-.4l-3.3-.6c0-.1 0-.2.1-.4l2.4.2v-.3c-1.1-.1-2.2-.3-3.4-.5l.5-.7-1.5-.3.1-.2c.6.2 1.2.4 1.8.7l-.1.4 2.4.2c0-.1 0-.3.1-.4-.6-.1-1.2-.2-1.4-.2-1.1-.6-2-.9-2.8-1.4.9-.1 1.6-.2 2.4-.3l-1.4-.6c.9-.2 1.8-.3 2.8-.5v-.3l-2.2-.4c-.3-.2-.6-.4-.8-.6.3 0 .7-.1 1.3-.1-.4-.3-.7-.5-1-.7.4-.2.8-.3 1.4-.6.2 0 .7.1 1.3.1v-.2l-2.9-.7.1-.3c.6.1 1.2.2 1.8.4l.9.2v-.3l-.9.1c.4-.2.8-.4 1.9-1-1.3.2-1.9.3-2.4.3l-.3-1h-1.7v-.2h3.7v-.3c-.5-.1-.9-.2-1.9-.4h4.3c-.1 1.1-.1 2-.2 3-.7 5.1 1.5 7.7 6.6 7.7.9 0 1.8-.1 2.8-.5.6-.3 1.3-.6 2.3-1h-4.2v-.1l5.6-.5v-.5h-2.9c1.3-.3 2.5-.6 4.3-.9-1.3-.1-2.2-.2-3.2-.3.3-.3.5-.5.7-.8l.1.3h-.1.1l.3-.3 1.9-.3v-.3h-2v-.1h-2.2v-.2c1.6-.1 3.2-.3 4.7-.4v-.4l-1.5.1v-.2c1.1-.1 2.3-.3 4-.5h-5.5l2.8-1h-2.7v-.3l3.3-.3v-.5c-1.2.1-2.4.2-3.6.4v-.1l5.5-1c0-.1 0-.3-.1-.4-.7 0-1.5.1-2.1.1-.5-.1-.9-.2-1.3-.3l.2-.3h.1c.2-.1.1 0 0 0l-1.5-.3c.7-.1 1.4-.2 2.2-.4v-.4h1.9v-.3c-1.6.1-3.2.2-4.8.2v-.1c.6-.1 1.1-.1 2.3-.2-1-.3-1.4-.5-2.3-.8 1.1.2 1.6.3 2.2.4.1-.3.2-.6.2-.9-.9.2-1.8.3-2.8.5 1.3-.3 2.7-.7 3.6-.9h-2.4c.1-.2.1-.4.2-.7.5-.1.9-.1 1.3-.1v-.2h-4.2c.7-.3 1.2-.5 2.3-1h-2v-.2l1.7-.2v-.2h-5.5v-.2c1-.1 2.1-.2 3.1-.4v-.3c-2.7.1-5.4.2-8.3.4.4-.2.6-.3.9-.4l-.6-.5c.3-.2.5-.3 1.4-.9-2.1.4-3.5.6-4.9.8v-.1c.5-.2 1.1-.4 1.7-.6l-.5-.6h-1.4c1.1-.2 1.9-.4 2.8-.6 0 0 0-.1.1-.1-.1 0-.1 0-.1.1h-2v-.3l1.7-.1v-.6l-3.7.2-1.2.6s0-.1-.1-.1c.4-.2.7-.4 1.3-.8.7-.1 1.8-.3 2.8-.4v-.3h-2.5v-.2h-2.1c.5-.3 1.2-.8 1.9-1.2h.1c-.2 0-.3 0-.7.1l1.3-.7c-.9.1-1.4.1-1.9.1v-.2h.3c1.2-.6 1.9-.9 3.3-1.5-1.6.1-2.5.2-3.3.3l-.8-1.5c.2-.2.5-.4.6-.6.9-.1 1.7-.2 2.5-.3v-.3c-.9.1-1.7.1-2.9.2.5-.2.7-.3.9-.4 0-.1 0-.1-.1-.2l-1.7.4c-.3.1-.6.2-.8.3l-.1-.3 5.1-2.2-.2-.5-1.9.6c-.8-.1-1.3-.1-1.8-.1 1.3-.4 2.5-.7 4.1-1.2h-1.2v-.4c-1.2.4-1.7.5-2.3.5zm13.8-3.7zm5.9 31.4zm2-4.5zm-18.9-25.1c-.3 0-.7 0-1 .1h-.1c.4-.1.8-.1 1.1-.1.3-.1.5-.1 0 0 .5-.3.3-.1 0 0zm14.5 31.8zm-17.4-24.6l.2.4c.7-.1 1.5-.2 2.3-.3 0-.3 0-.6-.1-1-.9.3-1.6.6-2.4.9zm2.6 23.3l.1-.6-2.7-.3c0 .1 0 .2-.1.4 1 .2 1.8.4 2.7.5zm1.2 4.4v.3h1.9v-.1c-.6-.1-1.3-.2-1.9-.2zm15-5.9v-.2h-1.6v.2h1.6zm-10.9-14.1v.2h1v-.2h-1zm10.7 15.6c0 .1 0 .2.1.3l.8-.3c0-.1 0-.2-.1-.2-.3.1-.6.2-.8.2zm-15.9-21.5c0-.1 0-.2-.1-.3-.3.1-.5.2-.8.2v.2l.9-.1zm-2.4 19.6c.7.2.6.2 0 0 .6.2.6.3 0 0zm2.1 1v-.2h-.6v.1l.6.1zm1.9 4.8v.1c.1 0 .2 0 .3-.1v-.1l-.3.1zm-1.8-24.1c-.1 0-.1-.1 0 0zm-1.6 16.9v-.1h-.4v.1h.4zm20.3-5.3v.2c.1 0 .3 0 1.2-.2h-1.2zm-17.3 12v.1h.3v-.2c-.1 0-.2 0-.3.1zm3.3-19.2c.1-.1 0-.1 0 0zm14.3 13.3c-.6.1-.5.1 0 0zm-19.9-1.5c.2-.1.1-.1 0 0zm19.6 1zm-20.8-23.1zm2.2 29.5c.1.1.2.1.2.1v-.1c-.1-.1-.1 0-.2 0zm0-7.2zm-1-17.4v.1h.2v-.1h-.2zm1.2.2c.1.1.2.1.2 0v-.1c-.1.1-.2.1-.2.1zm17.3 11.1zm-3.2-18.2zm0-1.5c-.1-.1-.1-.1-.2-.1v.1h.2zm-15.7 3.6l-.1.1h.1v-.1zm1.9.8zm.3 5.5zm14.1 6.4zM46.2 23.7c1.4-.2 2.7-.5 4-.7.3-.1.5-.3 1-.7h-5.8v-.2l3-.5v-.2h-1.4v-.2l4-.3-.1-.5h-4.5c1.2-.2 2.9-.5 4.5-.7v-.4l-3.4.4-.2-.3c.3 0 .5.1.1 0 .5-.1.2-.1 0 0l-1-.3c1.5-.1 2.2-.1 3-.2v-.3h-2.2v-.1c1.3-.1 2.6-.2 4-.3v-.6c-1.2.1-2.3.2-3.5.2v-.2c.4-.1.7-.2 1.9-.5h-4.4v-.1l5.8-.4v-.3l-3.8.2v-.2l3.9-.3v-.1h-4.2c.7-.2 1-.3 1.3-.4v-.1l-.6.1c.5-.1.9-.3 1.5-.4 0-.1.1-.3.1-.5.6-.1 1.2-.2 1.9-.4v-.1c-1.2.1-2.4.2-3.7.3-.3-.1-.6-.2-1-.4 1.6-.2 3.2-.3 5-.5l.2-.7-2.6.5.5-.4h-.7v-.2c.4 0 .8-.1 1.3-.1v-.1h-2.1v-.2l3-.3s.1.1.1 0v-.1l.7-.1v-.4l-3.7.3v-.2l2.5-.6v-.3c-1.5.1-3.1.3-5.4.5 1.2-.2 1.7-.3 2.1-.4 0-.1 0-.2-.1-.2l2.5-.7-.1-.5-14.8 3.2c0-.1 0-.2-.1-.3l1.2-.4c0-.2 0-.3-.1-.5l-5 .8v-.2l3.5-.6v-.4h-3.9l4.5-.9v-.3h-2.8c.8-.1 1.4-.3 1.9-.4-.3-.3 0-.5.4-.9-.3 0-.5-.1-.7-.1.2-.1.4-.2.9-.6-1.1-.1-1.8-.1-2.5-.1.7-.2 1.5-.4 2.2-.7 0-.2 0-.3-.1-.5 10.7-.6 21.4-1.2 32.3-1.8-.1 1.2-.2 2.1-.3 3.1-3.6.3-7.2.5-10.8.7-.9 11.2-1.8 22.4-2.8 33.6h-3.6c-.8-.1-2-.3-3.2-.4 1.6-.2 3.2-.4 4.7-.6l-.1-.7c-1.8.2-3.6.4-5.5.6.7-.2 1.4-.4 2.6-.8.5 0 1.7-.1 2.9-.2v-.3c-.5 0-1 .1-.8 0-1.4-.1-2-.2-2.7-.2v-.2l3.6-.2c0-.1 0-.2-.1-.4l-6.2.5v-.1c.5-.1 1-.2 1.7-.3-.2-.2-.3-.2-.9-.7.9.2 1.4.2 2.1.4.3-.1.8-.4 1.4-.6l-.1-.5c-1.2.1-2.4.2-3.7.3v-.1l5.7-1v-.2h-3.5v-.2l3.6-.5v-.3c-1.2.1-2.4.2-4.4.4 1.2-.3 1.7-.4 2.1-.5v-.2h-1.2l3.5-.8c0-.1 0-.2.1-.2h-5.1v-.2c1.3-.2 2.7-.5 4.2-.8-.5-.1-.8-.1-1.6-.3 1-.2 1.6-.3 3-.5h-6.5v-.1c1.3-.1 2.6-.2 4.4-.4l-1.4-.5c1.1-.1 2-.2 2.9-.3v-.5c-1.8.2-3.6.3-5.3.5v-.2l5.4-1.4v-.2h-5.7c1.7-.2 3.7-.5 6.5-.9-1.5-.2-2.1-.3-2.7-.3v-.1l-1.7-.1v-.3l3.4-.4-3.5-.7h-2.2c1.2-.2 2.1-.4 2.9-.5v-.2l3.3-.3c0-.2 0-.4-.1-.6-1.7.1-3.4.1-4.8.2.6-.2 1.3-.5 2-.8l-.2-.6h3v-.3c-1.6.3-3.1.4-4.6.5zm15.1-16.9zm-14.1.1zm2.2 2.5h1.9v-.3c-.7.1-1.3.2-1.9.3zm-1.2 14.9h2.4v-.3c-.9.1-1.6.2-2.4.3zm-13.1-13.8v-.2l-2.1.3c0 .1 0 .2.1.3.7-.2 1.3-.3 2-.4zm12.1-.2v.3c.6-.1 1.1-.2 1.7-.2v-.2c-.6-.1-1.2 0-1.7.1zm3.3 27.3v-.3l-1.2.1v.3c.4 0 .8 0 1.2-.1zm-1.8-31.2c-.1.4-.2.5 0 0zm-14 3.3v.2c.1 0 .3 0 1-.2h-1zm10.2-.9zm5.6 9.7c-.1 0-.1.1 0 0zm.2-3.2c.1.1.1 0 .2 0v-.1c-.1.1-.1.1-.2.1zM9.2 12.2c-.8-.1-1.6-.2-2.3-.2 1.2-.2 2.6-.5 3.9-.8l-.1-.5c-.4.1-.9.2-1.3.2 0-.2.1-.3.2-.6.4-.1.9-.2 1.5-.3 0-.1 0-.2-.1-.3l-5 1.4v-.1c1.7-.6 3.3-1.2 5-1.7 0-.1 0-.2-.1-.3-.9.1-1.8.2-2.7.4v-.2c.8-.2 1.7-.4 2.7-.6v-.9c-1.1.1-2 .3-2.9.4v-.1c1.8-.3 3.6-.6 5.3-.9l-.1-.4c-.4.1-.8.2-.6.1-1 0-1.6-.1-2.2-.1.9-.2 1.7-.4 3-.7h-1.5v-.1c.9-.1 1.9-.2 3.4-.4-1.4-.1-2.3-.2-3.6-.3 2.1-.3 3.7-.6 5.4-.8v-.3l-3 .2v-.7c3.9.2 7.8.3 11.6.8.6.1 1.3 1.8 1.5 2.8.2 1-.2 2.1-.4 3.6-1.8-.2-3.8-.5-5.7-.8h4.4v-.4h-4v-.3h2.1c-1.5-.5-2.3-.7-3.1-1l-2.5-.6-.2-.3h3.5v-.4c-1.2 0-2.3.2-3.5.3-1.6 1.3-3.5 2.3-4.8 3.8-3.3 4.1-1.4 7.7 4.1 8.4 3 .4 6.2.6 8.4 3 1 1 2.1 2.4 2.2 3.7.2 2.9-.2 5.8-.4 8.7v-.1.1c-.1.2-.1.4-.2.7-1.8 4.4-4.8 7.1-9.8 7.2-.4 0-.8-.1-1.3-.1l.4-.6c-.9.1-1.7.2-2.5.3-.2-.3-.4-.5-.6-.7l-5-.3v-.1h3.1c-.4-.3-.6-.4-.9-.7h1.3v-.4l-3-.2v-.2l1.8-.3v-.3h-2.3c.6-.4.8-.5 1.1-.7-.9-.1-1.7-.2-3.2-.4 1.2-.4 1.8-.6 2.6-.9-1.4-.2-2.7-.3-3.9-.5v-.1h4.1v-.2h-2.2c-.3-.3-.6-.5-.8-.7l2.8.2.1-.5h-1.9v-.3c-1.5-.1-3-.3-4.3-.4 1.3-.1 2.9-.2 4.4-.4v-.2h-1.8v-.2c.9-.2 1.8-.4 2.8-.5v-.4l-4.6-.2c1.5-.1 2.8-.4 4.5-.7-1-.1-1.6-.1-2.2-.2v-.1h2.2v-.3h-3.2c.7-.3 1.2-.5 2.5-1-1.7.1-2.6.1-3.5.2v-.3c2.1-.2 4.2-.4 6.5-.6-.8 3.2-.8 6.2 2.2 7.6 2.1 1.1 4.7 1.2 7.1 1.8l.2-1c-.9-.1-1.8-.1-2.8-.2v-.3c-.3 0-.6 0-1 .1 1.9-.3 3.9-.6 5.8-1v-.3h-3.4v-.2l6-.9v-.3h-2.4v-.4l3.1-.3v-.2h-2.7c.6-.2.8-.3 1.3-.5h-1.2v-.3l3.4-.3v-.4h-3.2v-.2l1.5-.2c-.1-.1-.2-.2-.2-.3l2.7-.2v-.4c-1-.1-2.1-.1-3.9-.2 1.5-.3 2.3-.4 3-.5-1.1-.3-2.3-.6-3.7-.9.9.1 1.6.1 2.3.1.2-.3.3-.5.5-.7l2.2.3v-.5l-2.1.1c-.8-.2-1.6-.4-2.1-.5 1.2-.1 2.7-.3 4.2-.4v-.3h-3.6c.9-.4 1.1-.5 1.5-.7h-3.8v-.2h2.4v-.7c-1.3-.1-2.5-.2-3.6-.2 1.7-.2 3.6-.4 5.4-.5v-.3h-5v-.3c.5 0 1-.1 1.6-.1-.2-.5-.3-.8-.5-1.2.3 0 .6-.1.9-.2v-.4c-1.1.1-2.3.2-3.4.2-.2 0-.4-.1-.7-.2v-.1h-2.3000000000000003l-3.2-.3v-.2l2.2-.3v-.3h-4.2v-.2l2.5-.4v-.4l-5 .3v-.1l3.7-.7h-.1c-.5-.2-.9-.6-1.4-.6-1.2 0-2.5.2-4.3.4 1.5-.4 2.4-.7 3.3-.9.1 0 .1.1 0 0 .4-.1.8-.3 1.3-.4 0-.1 0-.2-.1-.3l-3 .6v-.1l2.8-.9-.1-.4-4.3.4v-.1l4.2-.7c0-.1 0-.2-.1-.3-.7.1-1.5.3-2.8.5 1.3-.5 2-.8 2.6-1.1v-.2c-1.5.2-2.9.3-4.8.6 1-.3 1.6-.5 2.2-.7.6-.3 1.1-.6 2.2-1.3-1.8.2-2.9.3-4 .4l2.8-.9 1.4-.3c0-.1-.1-.2-.1-.4l-1.3.6c-.1-.3-.2-.6-.2-1l-2.2.6v-.2c1.1-.4 2-.6 2.5-.7.5-.6.7-.9.7-.8.3-.1.2-.1 0 0zm12.9 10zm-12.2-6.7c-.3.1-.2 0 0 0 .1-.1.2-.1 0 0 .1-.2 0-.1 0 0zm14.6 9l-1.8-.3v.3h1.8zm-3.4-16.5v.2h2.7v-.2h-2.7zm5.1 18.5v-.4l-2 .2v.2h2zm-3.1 9.6v-.2l-2.3.1v.2c.7 0 1.5 0 2.3-.1zm-5.1 1.6v.1h2.4v-.1h-2.4zm-2.2-15.2v.2c.3 0 .6 0 .8-.1v-.2c-.3.1-.6.1-.8.1zm-2.9 18.8v.2c.2 0 .4 0 .5-.1v-.2c-.1 0-.3 0-.5.1zm-3.6-25.2c.6-.3.5-.3 0 0 .5-.1.6-.2 0 0zm5.1-10.8v-.1h-.4v.1h.4zm4.2 33.9c-.5-.2-.6-.2 0 0zm-8.5-26.6l-.1-.2-.4.3s0 .1.1.1c.1-.1.3-.2.4-.2zm6.6 26.5v.1h.4v-.1h-.4zm7.8-9c.1.1.2.1.3.1v-.1h-.3zm-5.1 11.4v.1c.1 0 .2 0 .3.1v-.1c-.1 0-.2 0-.3-.1zm-10.1-3.1c.5-.3.6-.3 0 0zm13.8-28h.1s-.1-.1-.1 0zm-7.7-5.4c.1.1.2.1.3.1v-.1h-.3zm11.3 22.4zm-18.9 10.5zm18-27.5s.1 0 .1.1v-.1c-.1-.1-.1-.1-.1 0zm-6.9 31.3zm1.4-3.4c-.1 0-.1-.1-.1-.1v.1h.1zM156.4 26.3l3.1-.8.1.3-3.1.8c0-.1 0-.2-.1-.3zM68.7 22.4c.9-.1 1.8-.1 2.6-.2v.2l-2.6.2v-.2zM44.1 28l2.1-.1v.1h-2.1zM128.7 12.1l-2.4.2v-.2h2.4zM6.2 35.8h-2.5 2.5zM152.8 7.3c.7-.1 1.4-.2 2-.3v.1c-.7.1-1.3.2-2 .2zM20.5 8.3l-2.2.1v-.2c.8 0 1.5 0 2.2.1zM46.5 12.1c-.6.2-1.2.3-1.9.5v-.2c.6-.1 1.2-.2 1.9-.3zM9.4 10.9l-1.5.3v-.3h1.5zM152.8 7.3h-2.2 2.2zM45.5 14c-1.1.2-1.5.2-1.9.3v-.2c.3 0 .7-.1 1.9-.1zM65.5 31h-1.3 1.3zM47.2 15.4h-1.8v-.1c.6 0 1.2 0 1.8.1zM153.6 22.8l1-.3c-.5.3-.7.5-.9.6-.1-.2-.1-.3-.1-.3zM181.2 15.4h-1v-.1c.4 0 .7 0 1 .1zM167.4 45.8c.3 0 .6 0 1.4.1h-1.4v-.1zM43.3 26.6l.8-.1v.2h-.8v-.1zM169.4 26.8h-.9v-.1c.3 0 .6 0 .9.1zM184.3 35.8c.5-.1.9-.2 1.4-.4v.2c-.4 0-.9.1-1.4.2zM9.7 21.7h.6v.1l-.6.1v-.2zM142.6 12.1h.7-.7zM155.6 27.4c-.2.1-.4.1-.7.2 0-.1 0-.1-.1-.2.2-.1.4-.1.7-.2.1 0 .1.1.1.2zM184.2 32.8c-.3 0-.6.1 0 0-.6-.1-.3-.1 0 0zM46.5 13.4l1.2-.3v.2c-.4.1-.8.1-1.2.1zM67.4 35.8c-.4.1-.8.2-1.2.2v-.1c.4 0 .8 0 1.2-.1zM167.3 37.5c-.4.1-.6.2 0 0zM156.4 42l-1.1.2v-.2h1.1zM154.8 21.6l-.7.1v-.1c.2 0 .4-.1.7 0zM126.8 25.1l1.3-.6v.2c-.4.1-.8.3-1.3.4zM66.7 25.5c-.4.1-.7.2-1.1.2v-.1c.3 0 .7-.1 1.1-.1zM45.6 23.7c-.6-.1-.3-.1 0 0zM180.6 45.2l-.9.3v-.1c.2-.1.5-.1.9-.2zM156.1 38.8l-1.1.1v-.1h1.1zM155.8 43.6c-.5.1-.6.1 0 0zM167 16l-1.2.1v-.1h1.2zM66.7 25.5c.4 0 .7 0 1.1-.1v.1h-1.1zM155 35.6l-.8.4s0-.1-.1-.1l.9-.3zM182.8 13.9c-.4 0-.8 0-1.2.1v-.2c.4.1.8.1 1.2.1zM73.9 8.3c.1-.1.3-.1 0 0zM148 9.1h.6v.1h-.6v-.1zM98.9 18.9l-.9.1v-.1h.9zM67.3 23.6c-.3 0-.5.1-.2 0-.3.1 0 .1.2 0zM74.1 9l-.9.2v-.2h.9zM99.1 15.5l-.9.1v-.1h.9zM165.8 41.3zM46.3 28.3c.1 0 .2 0 1-.1-.7.2-.9.2-1 .3v-.2zM155.5 40.4h.5v.1c-.2-.1-.4-.1-.5-.1zM114.6 35.8c-.3 0-.7 0-1 .1v-.1c.3-.1.6-.1 1 0zM169.6 10.9c-.2.1-.3.2 0 0zM10.8 41.8c.4.1.8.2 1.1.4-.3-.2-.7-.3-1.1-.4zM99 9.9l.5-.3s0 .1.1.1l-.5.3s0-.1-.1-.1zM11.9 42.2c.3 0 .6 0 .9-.1v.1h-.9zM149.5 8.9h1.1c-.7.1-.9.1-1.1 0 .1.1.1 0 0 0zM126.7 35c-.2.1-.5.2 0 0-.5.1-.2 0 0 0zM183.9 41.1h-.5v-.1c.2.1.4.1.5.1zM65.6 33.1h.3-.3zM47.4 19.6h-.8v-.1c.2 0 .5.1.8.1zM184.9 38.8zM183.3 43c-.2.1-.5.1 0 0zM98.6 28.3c-.3 0-.5.1 0 0zM154.6 15.1c-.4.1-.2 0 0 0zM73.9 8.3c-.5-.1-.3-.1 0 0zM134.1 15.5h-.3.3zM156.2 7h-.4v-.1l.4.1zM144.3 13.6c.3 0 .5-.1 0 0zM16.1 37.8c-.2-.1-.4-.1 0 0-.3-.2-.2-.1 0 0zM101.4 37.2c-.4-.1-.2 0 0 0zM167.1 41.4zM169.6 10.9h1.3-1.3zM67.6 37.2zM180.6 45.2zM99.8 8.8l-1.1.2c.4-.1.8-.2 1.1-.2zM114.5 31.6l-.8.3c.2-.1.5-.2.8-.3zM21.1 10c-.2 0-.4.1 0 0zM32.7 8.6l1-.2c-.4 0-.7.1-1 .2zM153.5 31.3h.3v.1h-.3v-.1zM118.5 38.4h-1.2c.4.1.8 0 1.2 0zM137.7 18c-.1 0-.2 0-.3.1v-.1l.3-.1v.1zM184.3 35.8c-.4-.1-.2-.1 0 0zM146.4 12.2c-.4-.1-.2-.1 0 0zM156 22.5c-.4-.1-.2-.1 0 0zM3.7 32.9c-.2.1-.3.1 0 0zM98.7 8.9c-.1.1-.3.1 0 0zM98.2 26h.2-.2zM72.8 10.7zM6.4 38.1zM153.6 26zM67.1 21.7c-.1 0-.3.1 0 0zM155 34c-.2.1-.1.1 0 0zM32.7 8.6zM101.2 38.9l-.9.2c.3 0 .6-.1.9-.2zM127.5 21.2c-.3.1-.6.1-.8.2.2-.1.5-.2.8-.2zM184.3 37.4c-.2.2-.3.2 0 0zM156.1 33.9l-1 .1c.3 0 .6 0 1-.1zM126 17.1l-.2.2c.1 0 .2-.1.2-.2zM123.8 10.9zM125.4 23.5zM76.5 44.8c0-.1.1-.1 0 0zM9.2 12.2c-.1 0-.2-.1 0 0-.2-.1-.1-.1 0 0zM126.1 10.3c-.2.1-.1 0 0 0zM126.6 21.4zM7.7 13.8h-.2c0-.1.1-.1.2 0zM44.2 15.5zM155.5 25.8zM156 31.3c-.1 0-.2-.1-.4-.2.1-.1.2-.1.2-.1.1.1.2.2.2.3zM99.5 36.3zM47 35h-.3.3zM154.7 31.3h.1-.1zM71.2 10.9zM71.2 43.2zM67.2 32.8zM68.3 35.7l-.9.1c.3 0 .6 0 .9-.1zM29.6 12zM135 15.4zM157.1 40.2zM127.9 32.2zM127.7 30.8zM128.4 33.7c0-.1-.1-.1 0 0-.1-.1 0-.1 0 0zM138.7 17.8h-.1.1zM100.3 39.1zM155.7 35.6h-.8.8zM125.6 11.9c0 .1-.1.1 0 0zM125.4 23.5zM124.7 12.1zM127.5 40h-.2v.1c.1 0 .2-.1.2-.1zM126.8 23.1h-.1.1zM126.8 25.1h-.2.2zM75.8 43.6h.1-.1zM67.2 32.8h.8-.8zM167.3 19.4zM46.5 12.1zM45.8 35.2v.1-.1zM76.5 44.8zM168.2 14.6c-.2.1-.4.1-.7.2l.5.3c.1-.2.2-.3.2-.5zM183.6 42l-.5-.1c.1 0 .2-.1.2-.1l.3.2zM167.3 20.9c.3 0 .5 0 .8-.1-.3 0-.6 0-.8.1zM78.2 6.1h-.1v-.1c0 .1 0 .1.1.1zM5.9 15.1c0 .1-.1.1 0 0zM32.1 7.6h-.1.1zM31.2 8.6v.1-.1zM185.1 41h.4-.4zM156.1 24.2zM45.6 23.7h.6-.6zM155 25.8zM113.7 31.9zM10.8 41.8zM126 17.1l.2.3c.2-.1.3-.2.4-.3h-.6zM117.3 38.5zM125.8 19.1zM124.9 10.5h.1l-.1.1zM123.8 10.9zM167.6 14.8zM166.7 21.2h.1s0-.1-.1 0zM99.2 29.5h-.1.1zM73.4 6.3h.1v.1zM166.7 21.2zM167.9 41.5zM167.3 20.9zM183.6 42zM155.9 31zM183.1 41.9h.1-.1zM146.4 11.2zM46.5 13.4l.1.1-.1-.1zM45.8 41.6v.1-.1zM67.3 23.7c.1-.1 0-.1 0 0zM18 7.7zM29.7 10.9h.1-.1zM125.1 13.9zM127.1 38.4c-.1.1-.1 0 0 0zM127.3 28h.1-.1zM97.1 11.8zM93.9 16.9h-3.3v-.3l3.3.3zM88 19.8h1.6-1.6zM87.1 16h.7v.1c-.3 0-.5 0-.7-.1zM90.6 29.2zM90.2 24.4zM89.2 16c-.2.1-.4.1 0 0zM87.1 13.6zM88.9 30.7c0 .1-.1.1 0 0zM91 24.5zM88.6 13.7v.1zM93.9 16.9h.2-.2zM94.4 16.6l-.2.2.2-.2zM114.6 21.2l-1.9.3v-.2c.6 0 1.2-.1 1.9-.1zM110.1 9.1l-1.6.3v-.1c.5-.1 1.1-.2 1.6-.2zM113.6 22.3l-1.1.6-.1-.2c.4-.2.8-.3 1.2-.4zM112.8 24l-1.2.2v-.2h1.2zM115 16.6h-.6v-.1c.2.1.4.1.6.1zM114.7 22.2h-1.1 1.1zM112.3 10.2zM109.2 26h-.2.2zM110.2 25.6c-.1 0-.1-.1 0 0-.2.1-.1.1 0 0zM111 25.6h-.8.8zM110.8 10.4l.1-.1-.1.1zM116.4 15.3c0-.1-.1-.1 0 0z"/></svg>