<?xml version="1.0" encoding="utf-8"?>
<!-- Generator: Adobe Illustrator 18.1.0, SVG Export Plug-In . SVG Version: 6.00 Build 0)  -->
<!DOCTYPE svg PUBLIC "-//W3C//DTD SVG 1.1//EN" "http://www.w3.org/Graphics/SVG/1.1/DTD/svg11.dtd">
<svg version="1.1" id="Layer_1" xmlns="http://www.w3.org/2000/svg" xmlns:xlink="http://www.w3.org/1999/xlink" x="0px" y="0px"
	 viewBox="0 0 194.2 51.5" style="enable-background:new 0 0 194.2 51.5;" xml:space="preserve">
<style type="text/css">
	.st0{fill:#FFFFFF;}
</style>
<g>
	<path class="st0" d="M156.5,21.4c-0.2,0-0.4,0-1,0c1.2-0.5,2.1-0.8,3.6-1.4c-1.7,0-2.8,0-3.9,0c0-0.1,0-0.2,0-0.3
		c1.1-0.3,2.2-0.6,3.9-1c-1.5-0.1-2.4-0.1-3.9-0.2c1.9-0.4,3.3-0.7,4.7-0.9c0-0.2-0.1-0.3-0.1-0.5c-1.6,0.2-3.3,0.3-4.9,0.5
		c0-0.1-0.1-0.1-0.1-0.2c0.8-0.2,1.7-0.4,2.6-0.7c-0.1-0.3-0.1-0.5-0.1-0.9c-1,0.2-2,0.4-2.9,0.7c0,0,0-0.1,0-0.1
		c1.8-0.5,3.6-1,5.4-1.4c0-0.1,0-0.2,0-0.2c-1.7,0.1-3.4,0.2-5.1,0.3l0,0c0.9-0.4,1.7-0.7,2.6-1.1c0.1,0,0.2,0.1,0,0
		c0.2,0,0,0-0.1,0c0.9-0.3,1.8-0.7,2.9-1.1c-6.2-0.8-9.3,4.6-14.1,6c-1.9,0.2-3.8,0.3-5.6,0.5c0-0.2-0.1-0.5-0.1-0.9
		c1.1-0.2,2.3-0.4,3.5-0.6c0-0.1,0-0.2,0-0.2c-1.8,0-3.6,0-5.4,0c0-0.1,0-0.2,0-0.3c1.3-0.1,2.6-0.1,3.9-0.2c0-0.1,0-0.3,0-0.4
		c-1.5,0-3,0-4.5,0c0-0.1,0-0.3,0-0.5c-0.3,0-0.5,0-0.8,0c0-0.1,0-0.2,0-0.2c1.2,0,2.3,0,3.5,0c0-0.2,0-0.3,0-0.5
		c-1.6,0-3.2,0-5.1,0c0.4-0.6,0.6-0.8,0.7-1c0,0,0,0,0-0.1c0,0,0,0,0,0.1c-0.6,0-1.2,0-2.6,0c1.5-0.6,2.3-0.9,3-1.1
		c0-0.1,0-0.2,0-0.3c-1.2,0.2-2.3,0.3-3.5,0.5c0-0.1,0-0.2-0.1-0.3c0.8-0.2,1.6-0.3,2.4-0.5c0-0.1,0-0.3,0-0.4c-1.1,0-2.2,0-3.3,0
		c0,0.1,0,0.2,0,0.4c0.8-0.1,1.6-0.3,2.4-0.4c0,0.1,0,0.2,0,0.3c-0.8,0.2-1.6,0.3-2.6,0.5c0.8,10.2,1.6,20.2,2.4,30.2
		c-1.1,0.3-1.8,0.6-2.5,0.7c-0.7,0.1-1.4,0-2.3,0c0.9-0.4,1.5-0.7,2.7-1.3c-1,0.1-1.5,0.2-2,0.2c-0.1-0.1-0.2-0.3-0.4-0.5
		c-0.5,0.1-1,0.2-1.5,0.4c0-0.1-0.1-0.2-0.1-0.3c1.1-0.4,2.3-0.7,3.7-1.2c-1.1,0-2,0-2.9,0c0-0.1-0.1-0.2-0.1-0.3
		c0.9-0.3,1.8-0.7,2.7-1c0-0.1,0-0.2,0-0.3c-1.3,0.1-2.7,0.2-4,0.3c0,0,0,0,0,0c1.4-0.5,2.7-1.1,4.1-1.6c0-0.1-0.1-0.2-0.1-0.3
		c-1.5,0.1-3,0.2-4.5,0.3c0,0,0,0,0,0c1-0.3,2-0.6,3.2-1c-0.4-0.2-0.6-0.3-0.7-0.3c0-0.1,0-0.2,0-0.3c0.6,0.1,1.3,0.1,1.9,0.2
		c0-0.1,0-0.4,0-0.7c-1.3,0.1-2.4,0.2-3.6,0.2c0-0.1,0-0.1,0-0.2c1.1-0.3,2.2-0.6,3.8-1c-1.1,0.1-1.7,0.1-2.3,0.2
		c-0.1-0.3-0.2-0.5-0.3-0.8c-0.8,0.1-1.5,0.2-2.3,0.3l0,0c0.9-0.3,1.8-0.6,2.8-0.9c0-0.1,0.1-0.3,0.1-0.6c-0.5,0-0.9,0.1-1.3,0.1
		l0,0c1-0.6,2-1.2,3.7-2.3c-2,0.4-3.1,0.6-4.3,0.8l0,0c0.3-0.2,0.6-0.5,1.1-0.9c-0.6,0.1-1,0.2-1.3,0.2c0.5-0.3,1.1-0.8,1.7-1.2
		c0,0,0-0.1,0-0.1l-0.1,0c-0.5,0.2-1.1,0.3-1.6,0.5l0,0c0.6-0.3,1.3-0.6,1.9-0.9c-0.2-0.2-0.3-0.3-0.3-0.3c-0.8-0.1-1.3-0.1-1.9-0.2
		c0.6-0.3,1.2-0.6,2.2-1.1c-1.1-0.1-1.7-0.2-2.4-0.3l0,0c1.2-0.3,2.4-0.7,4.2-1.2c-1.3,0.1-2,0.1-3.1,0.1c0.5-0.3,0.7-0.4,1.3-0.7
		c-2,0.2-3.5,0.4-4.7,0.5c1.6-0.5,3.6-1.2,5.5-1.9c-0.1-0.2-0.1-0.3-0.2-0.5c-0.7,0.2-1.4,0.4-2.3,0.7c0,0-0.1-0.2-0.2-0.4
		c0,0,0,0,0,0c0-0.1,0-0.1,0-0.2l0,0c0.8-0.3,1.5-0.6,2.4-0.9c0-0.1,0-0.4,0-0.6c-1,0-2,0.1-2.9,0.1c0-0.1,0-0.2,0-0.3
		c-0.3,0.1-0.6,0.2-0.8,0.3l0,0c1.1-0.4,2.1-0.9,3.2-1.3c-0.7,0-1.3,0.1-1.9,0.1c0-0.1-0.1-0.2-0.1-0.3c0.7-0.3,1.5-0.6,3-1.1
		c-1.7,0.3-2.6,0.5-3.5,0.7l0,0c0.1-0.1,0.1-0.2,0.2-0.4c-0.3,0-0.6,0.1-1.6,0.2c1.7-0.6,2.8-1,4.2-1.5c-1.4,0.1-2.4,0.1-3.4,0.2
		c0-0.1,0-0.1,0-0.2c1-0.1,2.1-0.2,3.1-0.3c0-0.1,0-0.2,0-0.3c-0.4,0.1-0.9,0.1-1.3,0.2c0-0.1,0-0.2,0-0.3c-1,0.1-1.9,0.2-2.9,0.3
		l0,0c0.4-0.3,0.8-0.5,1.5-0.9c0.7-0.1,1.7-0.2,3.3-0.5c-1.8-0.3-2.9-0.4-4-0.6c0,0,0,0,0,0c0.5-0.2,1-0.4,2.2-0.8
		c-1.2-0.1-1.6-0.1-2-0.1c0-0.1,0-0.1,0-0.2c1-0.1,1.9-0.2,2.9-0.3c0-0.1,0-0.3,0-0.4c-1.3,0.1-2.5,0.1-3.6,0.2c0.1,0,0.4-0.2,1-0.4
		c-0.4,0-0.6-0.1-1.1-0.1c1.5-0.3,2.6-0.5,3.8-0.7c0-0.1,0-0.3,0-0.4c-1.5,0-3.1,0-4.6,0l0,0c1-0.4,2-0.8,3.7-1.5
		c-0.2,0,0.3-0.1,0.9-0.1c0-0.1,0-0.1,0-0.2c-0.3,0-0.6,0.1-0.9,0.1l0,0c0.3-0.2,0.7-0.4,1.8-1c-1.9,0.3-3.1,0.5-4.5,0.7
		c0.7-0.3,1.1-0.5,1.4-0.7c0-0.1,0-0.1-0.1-0.2c-0.4,0.1-0.7,0.2-1.1,0.2c0-0.1,0-0.1-0.1-0.2c1.2-0.2,2.3-0.5,3.5-0.7
		c0-0.1-0.1-0.3-0.1-0.4c-1.2,0.1-2.3,0.3-3.5,0.4l0,0c0.4-0.3,0.8-0.6,1.4-1c-0.6,0.1-1,0.2-2.3,0.3c1.7-0.5,2.5-0.7,3.8-1.1
		c-1.7,0-2.9,0-4.2,0c0.2-0.5,0.4-0.7,0.6-1.1c0.7-0.1,1.5-0.1,2.4-0.2c-0.6,0.2-1.2,0.4-1.8,0.5c0,0.1,0.1,0.2,0.1,0.3
		c1-0.2,2-0.5,3-0.7c0-0.1,0-0.1,0-0.2c-0.4,0-0.9,0.1-1.3,0.1c4-2,6.7,0.7,9.7,2.5c2,1.2,3.9,2.5,5.9,3.7c0.2,0.1,0.6,0.1,0.9,0.1
		l0,0c0,0.2,0,0.4,0,0.6c0.7,0,1.5,0.1,2.2,0c0.3,0,0.5-0.4,0.9-0.7c-0.4,0-0.7-0.1-1.8-0.1c2.1-0.6,3.5-0.9,4.9-1.3
		c0-0.1,0-0.1,0-0.2c-1.4,0.1-2.8,0.2-4.1,0.3l0,0c1.8-0.3,3.6-0.7,5.5-1c0-0.1,0-0.2,0-0.3c-1.8,0.1-3.6,0.3-5.5,0.4l0,0
		c2.5-0.4,5-0.7,7.5-1.1c0-0.1,0-0.2,0-0.3c-1.5,0.1-2.9,0.2-5.1,0.3c1.7-0.4,2.7-0.6,3.8-0.8c0-0.1,0-0.2,0-0.3c-0.5,0-0.9,0-1.4,0
		c0-0.1,0-0.1,0-0.2c1.9-0.2,3.9-0.4,5.8-0.6c0-0.1,0-0.1,0-0.2c-1.8,0-3.6,0-5.7,0c2.5-0.2,4.6-0.5,6.8-0.7c0-0.1,0-0.2,0-0.3
		c-0.2,0-0.4-0.1-0.8-0.2c1.4-0.2,2.6-0.3,4.4-0.5c0.1,0.5,0.5,1.3,0.5,2.1c0,9.9,0,19.9,0,29.8c0,2.1,0,4.2,0,6.3
		c-0.3,0.1-0.6,0.3-0.6,0.3c-1.7,0-3.1,0-5.2,0c1.3-0.3,1.8-0.5,2.3-0.6c0,0,0.1-0.1,0.1-0.1c0.6-0.2,1.1-0.3,2-0.6
		c-1.5,0-2.7,0-3.8,0c0-0.1,0-0.2,0-0.2c0.5-0.1,1-0.1,0.7-0.1c1.4-0.6,2.1-0.8,2.8-1.1c0-0.1-0.1-0.2-0.1-0.3
		c-1.1,0.2-2.2,0.3-3.3,0.5c0-0.1,0-0.1,0-0.2c0.6-0.1,1.2-0.2,1.8-0.3c0-0.1,0-0.2,0-0.3c-0.7,0.1-1.5,0.3-2.2,0.4l0,0
		c0.9-0.3,1.8-0.5,2.8-0.8c0.3-0.1,0.7-0.2,0.9-0.7c-1,0.1-1.9,0.2-2.9,0.3c0-0.1,0-0.1,0-0.2c0.3-0.1,0.6-0.1,1.3-0.3
		c-0.7-0.1-1-0.1-1.3-0.2c0,0,0,0,0,0c1-0.2,2-0.5,3-0.7c0-0.2-0.1-0.3-0.1-0.5c-1.2,0.1-2.3,0.3-3.5,0.4c0-0.1,0-0.1,0-0.2
		c1.1-0.2,2.3-0.3,3.4-0.5c0-0.1,0-0.2,0-0.3c-1.3,0.1-2.6,0.2-3.9,0.4l0,0c0.1-0.2,0.3-0.4,0.2-0.4c1-0.5,1.7-0.8,2.5-1.2
		c0,0,0,0,0,0c-1,0-2,0-3,0c0-0.1-0.1-0.2-0.1-0.4c1.4-0.5,2.8-0.9,4.2-1.4c0-0.1,0-0.2-0.1-0.3c-1.2,0.3-2.5,0.5-3.7,0.8
		c0,0,0-0.1,0-0.1c0.6-0.2,1.3-0.4,1.9-0.5c0,0,0,0,0,0l0,0c-0.8,0.1-1.5,0.2-2.3,0.2l0,0c0.1-0.2,0.3-0.4,0.4-0.6
		c1.1-0.2,2.1-0.4,3.2-0.7c0-0.1,0-0.2-0.1-0.4c-1.1,0-2.2,0-3.3,0l0,0c0.9-0.2,1.8-0.4,2.8-0.7c-0.4-0.3-0.7-0.5-1.1-0.9
		c-1.3,0.2-2.8,0.4-4.3,0.6c2.1-0.5,4.3-1,6.5-1.5c0-0.3,0-0.5-0.1-0.8c-0.6,0.1-1,0.2-1.9,0.4c1,0.2,1.5,0.3,2,0.5
		c-1.1,0-2.2,0.1-3.3,0.1c-0.2,0-0.4-0.2-0.6-0.3l0,0c0.6,0,1.2,0,1.8,0c0-0.1,0-0.2,0-0.3c-0.3,0-0.6,0-1.1-0.1
		c0.7-0.3,1.3-0.6,1.9-0.8c0,0,0,0,0,0c0,0,0,0,0,0.1c-0.3,0-0.6,0-1,0c0-0.1,0-0.3,0-0.4c-1.2,0.1-2.4,0.3-3.1,0.3
		c0.7-0.3,1.8-0.9,3-1.4c0-0.1-0.1-0.2-0.1-0.4c-0.9,0.2-1.9,0.4-2.8,0.6c0-0.1,0-0.2,0-0.3c1.8-0.3,3.6-0.7,5.3-1
		c0-0.1,0-0.2,0-0.3c-1.1,0.1-2.3,0.2-3.5,0.3c0.2-0.1,0.4-0.2,0.6-0.4c-0.2-0.1-0.3-0.1-0.5-0.2c1.2-0.3,2.3-0.5,3.5-0.8
		c0.1-0.3,0.1-0.5,0.2-0.9c-1.4,0.1-2.6,0.3-4.5,0.5c1.2-0.7,1.9-1,2.8-1.5c-1,0-1.7,0-2.4,0l0,0c0.3-0.1,0.5-0.3,0.9-0.5
		c0-0.1,0.1-0.3,0.2-0.5c1-0.1,1.9-0.3,2.9-0.4c0-0.1-0.1-0.3-0.1-0.4c-1.4,0.3-2.7,0.6-4,0.8c0-0.2,0-0.5,0-0.7l0,0
		c1.3-0.4,2.6-0.8,4-1.2c0-0.1,0-0.2,0-0.3C158.8,21.1,157.7,21.3,156.5,21.4C156.5,21.5,156.5,21.4,156.5,21.4z M135,9.5L135,9.5
		C134.9,9.5,135,9.5,135,9.5L135,9.5L135,9.5z M132.5,28.9C132.5,28.9,132.5,28.9,132.5,28.9C132.5,28.9,132.5,28.9,132.5,28.9
		L132.5,28.9C132.6,29,132.5,28.9,132.5,28.9z M136,10.2c0,0,0,0.1,0,0.1C136.1,10.3,136.1,10.2,136,10.2
		C136,10.2,136,10.2,136,10.2C136,10.2,136,10.2,136,10.2z M158.2,12.3L158.2,12.3L158.2,12.3C158.4,12.3,158.6,12.4,158.2,12.3
		C158.6,12.3,158.4,12.3,158.2,12.3z M158.7,29.7C158.6,29.7,158.4,29.7,158.7,29.7C158.4,29.8,158.6,29.7,158.7,29.7
		c0.4-0.1,0.8-0.2,1.2-0.3c0-0.1-0.1-0.2-0.1-0.3C159.5,29.3,159.1,29.5,158.7,29.7z M142.7,18.4C142.7,18.4,142.7,18.5,142.7,18.4
		c-0.5,0.1-1,0.1-1.6,0.1c0,0.1,0,0.2,0.1,0.4C141.7,18.8,142.2,18.6,142.7,18.4z M159,24.9C158.8,24.9,158.7,24.9,159,24.9
		C158.7,25,158.8,24.9,159,24.9c0.4-0.1,0.7-0.2,1.1-0.3c-0.1-0.1-0.1-0.2-0.2-0.4C159.6,24.5,159.3,24.7,159,24.9z M154.8,8.8
		C155,8.8,155.2,8.8,154.8,8.8C155.2,8.7,155,8.7,154.8,8.8c-0.6,0-1.2,0.1-1.9,0.1c0,0.1,0,0.2,0,0.3C153.6,9,154.2,8.9,154.8,8.8z
		 M157.7,12.1C157.7,12.1,157.6,12.1,157.7,12.1C157.6,12.1,157.7,12.1,157.7,12.1c0.7-0.2,1.5-0.3,2.2-0.5
		c-0.1-0.2-0.1-0.3-0.2-0.5C159,11.5,158.4,11.8,157.7,12.1z M160,19.5c-0.1-0.1-0.1-0.2-0.2-0.3c-0.9,0.2-1.7,0.3-2.6,0.5
		c0,0.1,0.1,0.2,0.1,0.3C158.3,19.8,159.1,19.7,160,19.5z M133.3,11.6c0-0.2,0-0.4-0.1-0.6c-0.5,0.1-1,0.1-1.5,0.2
		c0,0.2,0,0.3,0.1,0.5C132.4,11.7,132.8,11.6,133.3,11.6z M129.6,34.1c1,0.2,1.4,0.3,2,0.4c0-0.3,0-0.6,0-0.9
		C130.9,33.7,130.5,33.9,129.6,34.1z M129.7,13.2c0-0.1,0-0.2,0-0.3c-0.7,0.1-1.3,0.2-2,0.4c0,0.1,0,0.2,0,0.2
		C128.3,13.4,129,13.3,129.7,13.2z M159.9,28.5c0-0.1,0-0.2,0-0.3c-0.4,0-0.8,0-1.2,0.1c0,0.1,0,0.1,0,0.2
		C159.1,28.4,159.5,28.4,159.9,28.5z M128.2,9.3c0,0.1,0,0.2,0,0.3c0.4-0.1,0.8-0.2,1.2-0.2c0-0.1,0-0.1,0-0.2
		C129,9.2,128.6,9.3,128.2,9.3z M127,8.4c0-0.1,0-0.2-0.1-0.3c-0.2,0.1-0.5,0.1-0.7,0.2c0,0.1,0,0.1,0,0.2
		C126.5,8.5,126.8,8.4,127,8.4z M159.3,32.4c0,0.1,0,0.2-0.1,0.2c0.2,0.1,0.4,0.1,0.6,0.2c0-0.1,0-0.2,0.1-0.3
		C159.7,32.5,159.5,32.4,159.3,32.4z M130.9,42.3c0,0.1,0,0.1,0,0.2c0.2,0,0.3-0.1,0.5-0.1c0-0.1,0-0.1,0-0.2
		C131.2,42.2,131.1,42.2,130.9,42.3z M145.9,14.7c0-0.1-0.1-0.1-0.1-0.2c-0.2,0.1-0.3,0.2-0.5,0.3c0.1,0.1,0.1,0.2,0.2,0.2
		C145.6,14.9,145.7,14.8,145.9,14.7z M155.8,19.7c0,0.1,0,0.2,0,0.2c0.3,0,0.5,0,0.8,0c0-0.1,0-0.1,0-0.2
		C156.3,19.7,156.1,19.7,155.8,19.7z M159.9,43c0-0.1,0-0.2,0-0.2c-0.2,0-0.5,0-0.7,0.1c0,0.1,0,0.1,0,0.2
		C159.5,43,159.7,43,159.9,43z M130.4,40.7c0,0.1,0,0.1,0,0.2c0.3,0,0.7,0,1,0c0-0.1,0-0.1,0-0.2C131.1,40.7,130.8,40.7,130.4,40.7z
		 M130.3,29.9c0,0.1,0,0.1,0,0.2c0.3-0.1,0.5-0.1,0.8-0.2c0-0.1,0-0.1,0-0.2C130.8,29.8,130.5,29.9,130.3,29.9z M148.4,13
		c0,0.1,0,0.1,0,0.2c0.3-0.1,0.5-0.1,0.8-0.2c0-0.1,0-0.1-0.1-0.2C148.9,12.8,148.6,12.9,148.4,13z M128.2,17.2c0,0,0-0.1,0-0.1
		c-0.2,0-0.5,0-0.7,0c0,0,0,0.1,0,0.1C127.8,17.2,128,17.2,128.2,17.2z M156.2,37.2C156.9,36.8,156.9,36.8,156.2,37.2
		C156.9,36.9,156.9,36.9,156.2,37.2z M129.5,8.2c0-0.1-0.1-0.1-0.1-0.2c-0.1,0.1-0.3,0.2-0.4,0.3c0,0.1,0.1,0.1,0.1,0.2
		C129.2,8.3,129.4,8.2,129.5,8.2z M159.9,19.9c-0.1,0-0.1,0-0.2,0c0,0.1,0,0.2,0.1,0.3c0.1,0,0.1,0,0.2,0
		C160,20.2,160,20,159.9,19.9z M130.5,28.8c0,0,0,0.1,0,0.1c0.2,0,0.4,0,0.6,0c0-0.1,0-0.1,0-0.2C130.9,28.7,130.7,28.8,130.5,28.8z
		 M132.3,10.8c0,0,0-0.1,0-0.1c-0.2,0-0.3,0-0.5,0c0,0.1,0,0.1,0,0.2C132,10.8,132.2,10.8,132.3,10.8z M128.3,23
		C128.7,22.8,128.8,22.7,128.3,23C128.7,22.7,128.7,22.7,128.3,23z M129.8,27.7c0,0.1,0,0.1,0,0.2c0.1,0,0.3,0,1.2-0.2
		C130,27.7,129.9,27.7,129.8,27.7z M130.3,26.3c0,0,0,0.1,0,0.1c0.1,0,0.2,0,0.4,0c0,0,0-0.1,0-0.1
		C130.5,26.3,130.4,26.3,130.3,26.3z M156.4,14.2c0,0.1,0,0.1,0,0.2c0.1,0,0.2,0,0.9-0.1C156.6,14.2,156.5,14.2,156.4,14.2z
		 M130.4,25.9C130.4,26,130.4,26,130.4,25.9c0.1,0.1,0.2,0.1,0.3,0c0,0,0-0.1,0-0.1C130.6,25.9,130.5,25.9,130.4,25.9z M147.8,13.9
		C147.4,14.2,147.5,14.1,147.8,13.9C147.4,14,147.4,14,147.8,13.9z M157.9,28.3C157.9,28.3,157.9,28.4,157.9,28.3c0.1,0,0.1,0,0.2,0
		c0,0,0,0,0,0C158,28.3,158,28.3,157.9,28.3z M158.8,13.9C158.9,13.9,158.8,13.9,158.8,13.9C158.8,14,158.9,14,158.8,13.9z
		 M159,44.2c0,0,0,0.1,0,0.1c0.1,0,0.2,0,0.3,0c0,0,0-0.1,0-0.1C159.3,44.2,159.2,44.2,159,44.2z M130.7,27.7L130.7,27.7L130.7,27.7
		L130.7,27.7z M129.9,29.6c0,0,0.1,0.1,0.1,0.1c0.1-0.1,0.1-0.1,0.7-0.7C130.1,29.5,130,29.6,129.9,29.6z M157.6,25.1
		C157.6,25.1,157.7,25.2,157.6,25.1c0.1,0.1,0.1,0,0.1,0C157.7,25.1,157.7,25.1,157.6,25.1z M159.5,15.7c0.1,0,0.1,0,0.1,0
		c0,0,0-0.1,0-0.1C159.5,15.7,159.5,15.7,159.5,15.7z M159.8,36.5C159.8,36.5,159.8,36.5,159.8,36.5c0,0-0.1,0-0.1,0c0,0,0,0,0,0
		C159.8,36.5,159.8,36.5,159.8,36.5z M160.5,37.8C159.8,38,159.9,37.9,160.5,37.8C159.9,37.8,159.8,37.8,160.5,37.8z M159.7,13.9
		c0,0,0-0.1,0-0.1c-0.1,0-0.2,0-0.3,0c0,0,0,0.1,0,0.1C159.5,13.8,159.6,13.8,159.7,13.9z M129.5,8.6c-0.1,0-0.1,0-0.1-0.1
		c0,0,0,0.1,0,0.1C129.4,8.6,129.4,8.6,129.5,8.6z M143.4,14.9C143.4,15,143.4,15,143.4,14.9C143.5,15,143.5,15,143.4,14.9
		C143.5,15,143.5,14.9,143.4,14.9C143.5,14.9,143.5,14.9,143.4,14.9z M129.9,16.8L129.9,16.8L129.9,16.8L129.9,16.8z M159.8,23.8
		L159.8,23.8L159.8,23.8L159.8,23.8z M159.5,41.7L159.5,41.7L159.5,41.7L159.5,41.7z"/>
	<path class="st0" d="M70,33c-0.7-0.1-1.4-0.2-2-0.2c0,0,0,0,0,0c0.6-0.2,1.2-0.5,1.9-0.8c-2,0-3.8,0-5.7,0c0,0,0,0.1,0,0.1
		c2.6-0.4,5.3-0.8,7.9-1.2c0-0.1,0-0.3,0-0.4c-1.6,0.1-3.2,0.2-4.8,0.3c0-0.3,0.1-0.5,0.1-0.9c1.4-0.1,2.9-0.2,4.3-0.3
		c0-0.1,0-0.1,0-0.2c-2.2,0-4.4,0-6.1,0c1.8-0.2,4.1-0.6,6.4-0.9c0-0.2-0.1-0.4-0.1-0.6c-2.2,0.2-4.4,0.4-6.6,0.6c0,0,0-0.1,0-0.1
		c2.2-0.4,4.3-0.8,6.5-1.2c0-0.1,0-0.2,0-0.3c-1.7,0.1-3.4,0.3-5.1,0.4c0-0.1,0-0.1-0.1-0.2c1.8-0.4,3.5-0.7,5.3-1.1
		c0-0.1,0-0.2,0-0.3c-1.1,0.1-2.3,0.2-4.2,0.3c1.3-0.3,1.8-0.4,2.8-0.6c-0.8-0.1-1-0.2-1.3-0.2c0.6-0.1,1.2-0.3,2.5-0.6
		c-1.6,0-2.5,0-3.4,0c0,0,0-0.1,0-0.1c0.7-0.1,1.4-0.2,2.5-0.4c-0.8-0.1-1.1-0.1-1.4-0.2c0-0.1,0-0.1,0-0.2c0.9,0.1,1.7,0.1,2.7,0.2
		c0-0.3,0.1-0.5,0.1-0.8c-1.4,0.1-2.8,0.1-4.2,0.2c0-0.1,0-0.2,0-0.3c1.4-0.2,2.9-0.4,4.3-0.6c0-0.4,0.1-0.6,0.1-1
		c-0.8,0-1.5,0-2.2,0c0-0.1,0-0.1,0-0.2c-1,0.1-2,0.2-3.1,0.3l0,0c1.8-0.3,3.7-0.7,5.5-1c0-0.1-0.1-0.2-0.1-0.3c-1.2,0-2.4,0-3.6,0
		c0,0,0-0.1,0-0.1c1.3-0.2,2.7-0.3,4-0.5c0-0.1,0-0.3-0.1-0.4c-2.3,0.2-4.6,0.4-7.7,0.7c2.4-0.4,4.1-0.7,5.8-1
		c0-0.2-0.1-0.4-0.1-0.6c-0.5,0.1-1,0.1-1.6,0.2c-0.3-0.1-0.6-0.2-0.6-0.3c0.8-0.2,1.8-0.6,2.8-0.9c0,0,0.1,0,0,0c0,0,0,0,0,0
		c-0.6,0-1.1,0-2.3,0c1.2-0.2,1.8-0.3,2.5-0.5c0-0.1,0-0.2-0.1-0.4c-1.1,0.2-2.3,0.4-3.4,0.6c0-0.1,0-0.2-0.1-0.2
		c1.8-0.4,3.6-0.9,5.3-1.3c-0.5-0.1-1.1-0.2-2.5-0.4c-0.4,0-1.5,0.1-2.7,0.2c2-0.6,4-1.2,6-1.8c0-0.1-0.1-0.3-0.1-0.4
		c-1.8,0.3-3.5,0.5-5.3,0.8c0,0,0-0.1,0-0.1c1.4-0.3,2.8-0.6,4.2-0.9c0-0.1,0-0.2,0-0.3c-1.1-0.1-2.2-0.1-3.4-0.2c0-0.1,0-0.1,0-0.2
		c1.7,0,3.4,0,5.2,0c0-0.2,0-0.3,0-0.5c-0.8,0.1-1.6,0.2-2.4,0.2c0,0,0-0.1,0-0.1c1-0.2,1.9-0.5,3.7-0.9c-1.6-0.1-2.3-0.2-2.8-0.2
		c0.7-0.1,1.6-0.3,2.5-0.5c0-0.1,0-0.2,0-0.3c-0.9,0.1-1.8,0.2-2.6,0.3l0,0c1.2-0.4,2.4-0.8,3.6-1.2c0-0.1,0-0.2,0-0.3
		c-0.8,0.1-1.6,0.1-2.4,0.2c0,0,0-0.1,0-0.1c1-0.2,2-0.4,2.9-0.6c0-0.1,0-0.2-0.1-0.3C75.9,8.6,75,8.8,74.1,9l0,0
		c0.3-0.2,0.7-0.5,1-0.7c0,0,0,0,0,0l0,0c0.3-0.2,0.5-0.3,0.8-0.5c0.1,0.1,0.1,0.1,0,0c0.2,0,0.1,0,0,0c0.8-0.1,1.7-0.3,2.5-0.4
		c0-0.1,0-0.2,0-0.4c-1.2,0.1-2.4,0.2-3.6,0.3c0,0,0-0.1,0-0.1c1.3-0.2,2.6-0.5,4.1-0.7c0-0.1,0.1-0.3,0.2-0.5c0,0,0.1,0,0,0
		c0.1,0,0.1,0,0,0c-0.2-0.1-0.5-0.2-1.3-0.7c3.8,0,7-0.3,10,0.1c4.7,0.6,9.2,6,9.5,11c0.2,3.6,0,7.3,0,11.1c0.5-0.1,1-0.2,1.5-0.3
		c0,0,0,0,0,0c-0.5,0.2-1.1,0.4-1.1,0.4c-1.7,4.1-2.8,8.1-4.9,11.7c-2.2,3.8-5.9,5.8-11.2,5c0.7,0.3,0.7,0.4,1.2,0.6
		c-1.1,0-1.8,0-2.5,0c-0.7,0-1.5-0.1-2.1-0.2c0.1-0.1,0.4-0.3,0.8-0.7c-1-0.2-1.7-0.3-2.4-0.4c0-0.1,0-0.2,0-0.3
		c0.7-0.1,1.4-0.2,2.2-0.3c0-0.1,0-0.2,0-0.4c-2,0.1-4,0.3-6.2,0.4c0.6-0.1,1-0.2,1.4-0.3c0-0.3,0-0.6,0-0.9c1.1,0,2.1,0,3.1,0
		c0-0.1,0-0.2,0-0.3c-1.8,0-3.6,0-6.2,0c1.2-0.3,1.7-0.5,2.1-0.6c0.9,0,1.8,0,2.6,0c0-0.1,0.1-0.3,0.1-0.4c-0.5-0.1-1-0.2-1.8-0.3
		c0.1,0.1-0.1-0.1-0.1-0.2c-1.1,0-2.2,0-3.3,0c0,0,0-0.1,0-0.1c1.3-0.2,2.7-0.3,4.2-0.5c-0.1-0.3-0.2-0.5-0.2-0.7c-2,0-3.8,0-6.2,0
		c2.2-0.3,3.9-0.5,5.6-0.7c0-0.2,0-0.3,0-0.5c-1.3,0.1-2.5,0.2-3.8,0.3c0-0.1,0-0.1,0-0.2c0.5-0.1,1-0.2,1.5-0.3c0-0.1,0-0.2,0-0.3
		c-0.9,0-1.9,0.1-2.8,0.1c0-0.1,0-0.2,0-0.3c1.5-0.2,2.9-0.3,4.4-0.5c0-0.1,0-0.1,0-0.2c-0.6,0-1.3,0-1.9,0c0-0.1,0-0.2,0-0.2
		c-0.7,0-1.3-0.1-2-0.1c0,0.1,0,0.1,0,0.2c-0.3-0.1-0.6-0.1-0.9-0.2l0,0c0.2-0.3,0.5-0.6,0.8-0.9c0.4-0.1,1-0.2,1.5-0.3
		c0-0.1-0.1-0.3-0.1-0.4c-1.7,0.2-3.4,0.3-5.4,0.5c1.3-0.3,2.2-0.5,2.8-0.6C68.9,33.5,69.5,33.3,70,33C70,33,70,33,70,33z
		 M80.6,44.7C80.6,44.6,80.5,44.5,80.6,44.7C80.4,44.5,80.5,44.6,80.6,44.7L80.6,44.7L80.6,44.7z M90.6,29.2
		c1.5-0.4,2.9-0.8,4.5-1.2c-1.2,0-2.3,0-3.4,0c-0.1-0.2-0.2-0.4-0.4-0.6c1.4-0.1,2.7-0.3,4-0.4c0-0.1,0-0.2,0-0.3
		c-1.1-0.1-2.2-0.2-3.3-0.3c0-0.1,0-0.2,0-0.2c-1.2,0-2.5,0-3.7,0c0-0.1,0-0.2,0-0.3c1.4,0,2.9,0,4.3,0c0-0.1,0-0.2,0-0.2
		c-0.3-0.1-0.6-0.2-0.8-0.2c0-0.1,0-0.1,0-0.2c1.3,0.1,2.5,0.3,3.8,0.4c0-0.1,0-0.2,0-0.3c-1.3-0.2-2.6-0.5-3.9-0.7
		c0-0.1,0-0.1,0-0.2c1.2,0,2.5,0,3.7,0c0-0.1,0-0.1,0-0.2c-1.3-0.1-2.6-0.3-3.9-0.4c0-0.1,0-0.2,0-0.2c0.7,0,1.5,0.1,2.2,0.1
		c0-0.1,0-0.2,0-0.3c-1.8-0.2-3.5-0.3-5.4-0.5c1.8,0,3.5,0,4.7,0c1.2-0.2,1.9-0.3,2.6-0.5c0-0.1,0-0.2,0-0.2
		c-1.5-0.2-3.1-0.3-4.6-0.5c0-0.1,0-0.2,0-0.4c1.5,0,3,0,4.6,0c0-0.1,0-0.2,0-0.3c-1.3-0.1-2.6-0.1-3.8-0.2c0-0.1,0-0.2,0-0.2
		c0.4,0,0.7,0,1.1-0.1c0-0.1,0-0.2,0-0.2c-0.6-0.1-1.1-0.2-1.7-0.3c0-0.1,0-0.1,0-0.2c1.4,0.1,2.8,0.2,4.3,0.2
		c0-0.2,0.1-0.4,0.1-0.6c-1.3-0.1-2.6-0.2-3.9-0.3c0-0.1,0-0.2,0-0.3c1.2,0,2.4,0,3.6,0c0-0.1,0-0.2,0-0.3c-1.3-0.1-2.6-0.2-4-0.4
		c-0.1-0.1-0.3-0.2-0.6-0.4c1.5,0,3,0,4.6,0c-0.1-0.4-0.1-0.8-0.2-1.1c-0.3,0-0.5,0-0.7,0c0,0,0,0,0,0c-1.7-0.2-3.5-0.4-5.2-0.6l0,0
		c1,0.1,2.1,0.1,3.1,0.2c0-0.1,0-0.3,0-0.4c-0.5,0-1-0.1-1.4-0.1c0-0.1,0-0.2,0-0.3c1.3,0.1,2.6,0.2,4,0.4c0-0.1,0.1-0.2,0.1-0.3
		c-1.2-0.2-2.3-0.3-3.8-0.5c0.5-0.1,0.7-0.1,1.6-0.2c-1.3-0.1-1.9-0.1-2.5-0.2c0-0.1,0-0.2,0-0.2c0.7,0,1.4,0,2.1,0
		c0-0.1,0-0.2,0-0.3c-1-0.1-1.9-0.1-2.9-0.2c0-0.2-0.1-0.4-0.1-0.6c0.9-0.1,1.7-0.3,2.6-0.4c0-0.1,0-0.2,0-0.3c-1.2,0-2.3,0-3.5,0
		c0-0.1,0-0.2,0-0.3c1.4-0.1,2.9-0.3,4.3-0.4c0-0.1,0-0.3,0-0.4c-1.6,0.1-3.3,0.3-4.9,0.4c0,0,0-0.1,0-0.1c1.1-0.2,2.2-0.5,3.2-0.7
		c0-0.1,0-0.3,0-0.4c-1.9,0-3.7,0-6,0c1.4-0.3,2.3-0.5,3.2-0.7c0-0.2-0.1-0.3-0.1-0.5c-0.5,0.1-0.9,0.2-1.3,0.2
		c-0.6-0.2-1-0.4-1.6-0.6c0.9,0,1.8,0,2.6,0c-0.4-0.3-0.9-0.4-1.3-0.4c-5.9,0.3-10.2,3.8-11.3,9c-0.8,3.9-1.4,8-1.4,12
		c0,5.9,2.6,8.9,8.3,10.3c1.4,0.3,2.9,0,4.3,0c0-0.2,0-0.4,0-0.6c0.4,0,0.7,0,0.4,0c1.3-0.6,2.1-0.9,3.3-1.5
		c-1.1,0.1-1.8,0.1-2.5,0.2c1.3-0.4,2.6-0.8,3.8-1.2c0-0.1,0-0.1-0.1-0.2c-0.3,0.1-0.5,0.1-0.8,0.2c0-0.3,0-0.5,0-0.7
		c-1,0.1-1.9,0.2-2.8,0.3c1-0.3,2.1-0.6,3.1-0.8c0.6,0,1.2,0,1.8,0c0-0.1,0-0.3,0-0.4c-0.6,0.1-1.1,0.3-1.7,0.4
		c-0.3-0.2-0.7-0.5-1.4-1c1.6,0,2.7,0,3.8,0c0-0.1,0-0.2,0-0.3c-1.5,0-3.1,0-5.3,0c1.4-0.2,2.2-0.3,3.7-0.6c-1-0.4-1.4-0.6-1.7-0.7
		c1.1-0.2,2.2-0.5,3.4-0.7c0-0.1,0-0.2,0-0.2c-0.8,0-1.6,0-2.5,0c0-0.1,0-0.2,0-0.2c1.3-0.1,2.5-0.3,3.8-0.4c0-0.1,0-0.3-0.1-0.4
		c-0.8,0-1.6,0-2.4,0c0-0.1,0-0.2,0-0.3c-0.6,0-1.3,0.1-1.9,0.1c0,0,0-0.1,0-0.1c1.6-0.2,3.1-0.4,4.7-0.6c0-0.1,0-0.2,0-0.2
		c-0.7,0-1.4,0.1-2.1,0.1c0-0.1,0-0.2,0.1-0.3C91.9,29.5,91.2,29.3,90.6,29.2L90.6,29.2z M90.1,13.1c0,0.1,0,0.2,0,0.3
		c0.8,0,1.7,0,2.5,0c0,0,0-0.1,0-0.1C91.8,13.2,91,13.2,90.1,13.1z M72.3,32.4c0-0.1,0-0.2,0-0.3c-0.7,0.1-1.3,0.1-2,0.2
		c0,0.1,0,0.2,0,0.3C71,32.5,71.7,32.4,72.3,32.4z M93.5,29.2c0,0.1,0.1,0.2,0.1,0.3c0.4-0.1,0.8-0.2,1.3-0.4
		c-0.1-0.1-0.1-0.2-0.2-0.4C94.3,28.8,93.9,29,93.5,29.2z M71.1,33.2c0,0.1,0,0.2,0,0.3c0.4-0.1,0.9-0.1,1.3-0.2
		c0-0.1,0-0.2-0.1-0.3C72,33.1,71.6,33.1,71.1,33.2z M71.4,35.2c0,0,0,0.1,0,0.1c0.5,0,1,0,1.5,0c0-0.1,0-0.2,0-0.3
		C72.4,35.1,71.9,35.1,71.4,35.2z M72.7,14.9c0-0.1,0-0.2,0-0.3c-0.5,0.1-0.9,0.1-1.4,0.2c0,0,0,0.1,0,0.1
		C71.8,14.9,72.2,14.9,72.7,14.9z M90.4,10.1c0,0,0-0.1,0-0.1c-0.4,0-0.8,0-1.2,0c0,0,0,0.1,0,0.1C89.6,10.1,90,10.1,90.4,10.1z
		 M93.3,33.8c0-0.1-0.1-0.3-0.1-0.4c-0.2,0.1-0.5,0.2-0.7,0.4c0,0.1,0.1,0.2,0.1,0.2C92.8,33.9,93.1,33.8,93.3,33.8z M92.4,32.8
		c0,0,0,0.1,0,0.1c0.4,0,0.7,0,1.1,0c0,0,0-0.1,0-0.1C93.1,32.8,92.8,32.8,92.4,32.8z M73.9,14.8c0-0.1,0-0.2,0-0.3
		c-0.2,0.1-0.5,0.1-0.7,0.2c0,0.1,0,0.1,0,0.2C73.4,14.9,73.6,14.9,73.9,14.8z M73,37c0,0.1,0,0.1,0,0.2c0.2-0.1,0.3-0.1,0.5-0.2
		c0-0.1,0-0.1,0-0.2C73.3,36.9,73.2,37,73,37z M68.7,33.8c0,0.1,0,0.2,0,0.2c0.2,0,0.4,0,0.6,0c0,0,0-0.1,0.1-0.1
		C69.2,33.8,68.9,33.8,68.7,33.8z M95.5,23.8c0,0,0-0.1,0-0.1c-0.3,0-0.7,0-1,0c0,0,0,0.1,0,0.1C94.9,23.8,95.2,23.8,95.5,23.8z
		 M69.8,35.1c0-0.1,0-0.1-0.1-0.2c-0.2,0.1-0.3,0.1-0.5,0.2c0,0.1,0,0.1,0.1,0.2C69.5,35.2,69.7,35.2,69.8,35.1z M79.3,44.3
		c0-0.1,0-0.1,0-0.2c-0.1,0-0.3-0.1-0.4-0.1c0,0.1,0,0.1,0,0.2C79,44.2,79.2,44.3,79.3,44.3z M93.4,13.3
		C93.7,13.3,93.7,13.3,93.4,13.3C93.7,13.4,93.7,13.4,93.4,13.3z M80.9,44c0,0,0-0.1,0-0.1c-0.1,0-0.2,0-0.4-0.1c0,0,0,0.1,0,0.1
		C80.7,44,80.8,44,80.9,44z M91.8,10.8c-0.1,0-0.1,0.1-0.2,0.1c0.1,0.1,0.1,0.2,0.2,0.3c0.1,0,0.1-0.1,0.2-0.1
		C91.9,11,91.9,10.9,91.8,10.8z M76.8,42.1c0,0,0,0.1,0.1,0.1c0.1,0,0.2-0.1,0.2-0.1c0,0,0-0.1-0.1-0.1C76.9,42,76.9,42.1,76.8,42.1
		z M72.8,18.7C72.8,18.7,72.8,18.8,72.8,18.7c0.1,0,0.1,0,0.2,0c0,0,0,0,0-0.1C72.9,18.7,72.8,18.7,72.8,18.7z M72.8,17.1
		C73.2,16.9,73.3,16.9,72.8,17.1C73.2,16.9,73.2,16.9,72.8,17.1z M69.9,32.5C69.8,32.6,69.8,32.6,69.9,32.5
		C69.8,32.5,69.8,32.5,69.9,32.5z M70.8,35.3L70.8,35.3L70.8,35.3L70.8,35.3z M76.4,42.2c0,0,0-0.1,0-0.1c-0.1,0-0.2,0-0.2,0.1
		c0,0,0,0.1,0,0.1C76.2,42.2,76.3,42.2,76.4,42.2z M71.9,34.8c0.8-0.2,0.9-0.2,0.9-0.3c0,0,0-0.1,0-0.1
		C72.7,34.5,72.7,34.5,71.9,34.8z"/>
	<path class="st0" d="M123.7,40.9c-1.6-0.1-3.3-0.1-5.2-0.2c1.7-0.2,3.2-0.3,4.6-0.5c0-0.1,0-0.2,0-0.2c-1.8,0-3.5,0-5.6,0
		c1.8-0.4,3.3-0.7,4.7-1.1c0-0.1,0-0.3,0-0.4c-1.2,0.1-2.3,0.3-3.6,0.4c0.3-0.2,0.5-0.3,1.2-0.7c-0.8,0.1-1.1,0.2-1.5,0.2l0,0
		c1-0.3,1.9-0.6,3-0.9c-0.1-0.2-0.3-0.4-0.4-0.7c-1.4,0.1-2.8,0.3-4.1,0.4c0,0,0,0,0,0.1c-0.7,0-1.3,0.1-2,0.1c0,0,0-0.1,0-0.1
		c1.9-0.3,3.7-0.6,5.6-0.9c0-0.1,0-0.1,0-0.2c-1.3,0.1-2.6,0.2-4.4,0.4c1.6-0.4,2.8-0.8,3.9-1.1c0-0.1,0-0.2,0-0.3
		c-1.4,0.2-2.9,0.4-4.3,0.6c0-0.1,0-0.2,0-0.3c-0.4,0.1-0.8,0.2-1.2,0.3c0,0,0,0,0,0c0.9-0.2,1.8-0.5,2.7-0.7c0,0,0-0.1,0-0.1
		c0.7-0.3,1.5-0.5,2.2-0.8c0-0.1,0-0.1,0-0.2c-0.7,0.1-1.3,0.2-2,0.3c0-0.1,0-0.1,0-0.2c-0.9,0.1-1.8,0.1-2.7,0.2c0,0,0-0.1,0-0.1
		c1.5-0.3,2.9-0.5,4.4-0.8c0-0.1,0-0.2,0-0.3c-0.7,0-1.3,0-2,0c0,0,0-0.1,0-0.1c-0.7,0.1-1.4,0.1-2.8,0.2c0.9-0.4,1.2-0.5,2-0.8
		c-0.8-0.3-1.2-0.5-1.7-0.7c0,0,0,0,0,0c1-0.3,2-0.5,3-0.8c0-0.2,0-0.3,0-0.5c-1,0.1-1.9,0.2-2.9,0.3c-0.6-0.1-1.1-0.2-1.7-0.3
		c1.2-0.4,2.4-0.9,3.7-1.4c0,0-0.1-0.2-0.3-0.6c-3.3,1.2-6.5,2.3-9.8,3.4c0.2,3,0.3,5.7,0.5,8.6c-2.5,0.2-4.8,0.4-7.5,0.6
		c1.3-0.2,2.1-0.4,3-0.6c0-0.2-0.1-0.3-0.1-0.5c-0.3,0-0.5,0-1.1,0c1.4-0.6,2.5-1,3.6-1.5c-0.1-0.1-0.2-0.3-0.2-0.4
		c-0.3,0-0.6,0-0.9,0c0.1,0,0.1,0,0,0c0.1-0.1,0,0,0,0c-0.8,0.3-1.7,0.5-2.5,0.8l0,0c0.1-0.2,0.2-0.4,0.3-0.7
		c-0.6,0.1-1.1,0.2-1.7,0.3c0-0.1,0-0.2-0.1-0.2c1.6-0.4,3.3-0.8,4.9-1.2c-0.1-0.2-0.1-0.4-0.2-0.7c-1,0.2-2.1,0.5-3.1,0.7
		c0,0,0,0,0,0c0.1-0.2,0.2-0.5,0.2-0.6c1-0.4,1.9-0.7,2.8-1c0-0.1,0-0.2,0-0.3c-1.6,0.3-3.3,0.6-4.9,0.9l0,0c1-0.3,2-0.5,3-0.8
		c0-0.1,0-0.1,0-0.2c-0.5,0.1-1.1,0.2-1.5,0.2c0.4-0.3,0.9-0.7,1.6-1.4c0.3-0.1,1.1-0.2,1.8-0.3c0-0.1-0.1-0.3-0.1-0.4
		c-1.1,0.2-2.2,0.5-3.4,0.7c0.2-0.1,0.3-0.2,0.6-0.5c-1.1,0.1-2,0.2-2.4,0.2c1.5-0.5,3.3-1,5.1-1.6c0-0.1,0-0.1,0-0.2
		c-1.1,0.2-2.2,0.3-3.3,0.5c0-0.1,0-0.3,0-0.4c0.5-0.2,1-0.4,1.5-0.6c0-0.1,0-0.2-0.1-0.3c-1.6,0.2-3.2,0.4-4.8,0.6
		c1.5-0.4,3.1-0.8,4.7-1.3c-0.1-0.3-0.2-0.4-0.2-0.6c0.7-0.2,1.3-0.4,1.9-0.6c0-0.1,0-0.1,0-0.2c-1.2,0.2-2.5,0.3-3.7,0.5
		c0-0.1,0-0.1,0-0.2c1.3-0.3,2.6-0.6,4-0.9c0-0.2,0-0.5,0-0.7c-1.8,0.2-3.6,0.4-5.3,0.5c0,0,0,0,0,0c1.5-0.4,3.1-0.9,4.6-1.3
		c0-0.1,0-0.2,0-0.2c-1.5,0.1-3,0.2-4.5,0.3c0,0,0,0,0,0c1.7-0.5,3.4-0.9,5.1-1.4c0-0.1-0.1-0.3-0.1-0.4c-1.1,0-2.2,0-3.4,0
		c0.3-0.3,0.5-0.6,0.9-1c-0.5,0-0.8,0-1.1,0.1c0-0.1,0-0.1,0-0.2c1.2-0.2,2.4-0.4,3.5-0.6c0-0.1,0-0.2,0-0.3c-0.5,0-1.1,0-1.6,0
		c0-0.1,0-0.2,0-0.3c-1.1,0.2-2.2,0.5-3.3,0.8c0.9-0.4,1.6-0.7,2.4-1c0-0.1-0.1-0.2-0.1-0.2c0.6-0.1,1.2-0.2,1.8-0.3
		c0-0.1,0-0.2,0-0.2c-1.1,0-2.2,0-3.7,0c0.7-0.2,1.1-0.2,1.4-0.3c0.6-0.4,1-0.8,1.6-1.2c0.2,0,0.6,0,1,0c0-0.1,0-0.2,0-0.3
		c-1.4,0.1-2.8,0.3-4,0.4c1.2-0.4,2.6-0.9,4-1.4c0-0.2-0.1-0.4-0.1-0.7c-1.3,0.1-2.6,0.3-3.9,0.4l0,0c1.1-0.4,2.1-0.8,3.7-1.4
		c-1.2,0.1-1.9,0.2-2.7,0.3c0.2-0.2,0.3-0.4,0.7-0.8c-0.8,0.1-1.3,0.2-2.1,0.3c0.7-0.3,1.2-0.6,2.1-1c0.5-0.1,1.4-0.2,2.2-0.4
		c0-0.1,0-0.3,0-0.4c-1.2,0-2.4,0-3.6,0l0,0c1.2-0.5,2.4-1,4.1-1.7c-1.6,0-2.7,0-4.5,0c1.8-0.5,2.8-0.9,3.9-1.2c0-0.1,0-0.1,0-0.2
		c-0.9,0.1-1.7,0.3-2.6,0.4c0-0.1,0-0.1,0-0.2c0.8-0.2,1.7-0.5,2.7-0.8c0-0.1,0.1-0.3,0.1-0.7c-1,0.3-1.8,0.6-3.2,1
		c0.8-0.4,1-0.5,1.3-0.7c0-0.1-0.1-0.3-0.1-0.4c-1.2,0.3-2.5,0.5-3.7,0.8c0,0,0,0,0,0c1.7-0.7,3.4-1.5,5.1-2.2
		c0.2-0.1,0.4-0.2,1-0.7c-1.3,0.3-2.1,0.4-2.8,0.6c0-0.1,0-0.1-0.1-0.2c0.8-0.3,1.6-0.5,2.4-0.8c0-0.1,0-0.2-0.1-0.2
		c-1,0.2-2,0.3-2.9,0.5l0,0c5.1-1.4,9.7-6.4,15.5-3c2.2,1.3,3.7,3.8,5.6,5.7c0.2,0.2,0.4,0.6,0.6,0.9c-0.1,9.3-0.1,9.3-3.8,14.1
		c3,5,6,10,9.3,15.6c-2.5,0.3-4.6,0.6-6.7,0.8c0-0.1,0-0.2,0-0.2c1.3-0.2,2.6-0.5,3.9-0.7c0-0.1,0-0.3-0.1-0.4
		c-0.7,0.1-1.4,0.2-1.5,0.3c-1.3,0.1-2.1,0.1-2.7,0.2c0-0.2,0.1-0.4,0.2-0.8C121.3,41.2,122.5,41,123.7,40.9
		C123.7,40.9,123.7,41,123.7,40.9L123.7,40.9z M102.9,34.4L102.9,34.4C102.9,34.5,102.9,34.4,102.9,34.4z M115.6,26.3L115.6,26.3
		C115.5,26.4,115.5,26.3,115.6,26.3L115.6,26.3L115.6,26.3z M101.6,32.1c0,0,0,0.1-0.1,0.1C101.6,32.2,101.6,32.2,101.6,32.1
		c0.1,0,0.2,0-0.2,0.1C101.8,32,101.7,32,101.6,32.1z M115.3,28.4L115.3,28.4L115.3,28.4C115.5,28.4,115.7,28.4,115.3,28.4
		C115.7,28.2,115.5,28.3,115.3,28.4z M101.8,17c-0.3,0-0.6-0.1-0.9-0.1c0,0.1,0,0.2,0,0.2C101.2,17,101.5,17,101.8,17
		C102,16.9,102.3,16.8,101.8,17C102.2,16.7,102,16.8,101.8,17z M116,9.4c-0.6,0-1.2,0.1-1.8,0.1c-0.1,0-0.2-0.1,0,0
		c-0.2,0-0.1,0,0,0C114.8,9.5,115.4,9.4,116,9.4C116.1,9.4,116.1,9.5,116,9.4C116.1,9.4,116.1,9.4,116,9.4z M118.4,16.2
		c0.7,0,1.4,0,2.1,0c0-0.1,0-0.2,0-0.3C119.8,16.1,119.1,16.1,118.4,16.2c-0.6,0-1.2,0.1-1.8,0.1c0.7-0.2,1.3-0.4,2-0.7
		c0-0.1,0-0.2,0-0.3c-0.7,0-1.4,0-2.1,0l0,0c0.2-0.4,0.4-0.7,0.6-1c1.2-0.1,2.3-0.2,3.4-0.3c0-0.2,0-0.3,0-0.5
		c-1.7,0.1-3.5,0.2-5.2,0.3c0,0,0-0.1,0-0.1c1.3-0.2,2.5-0.4,3.8-0.6c0-0.1,0-0.2,0-0.2c-1.1,0.1-2.2,0.2-3.3,0.3c0-0.1,0-0.1,0-0.2
		c1.2-0.1,2.4-0.3,3.6-0.4c0-0.1,0-0.2,0-0.2c-1.6,0-3.2,0-4.9,0c1.4-0.4,2.7-0.8,4-1.1c0-0.1,0-0.3-0.1-0.4
		c-1.6,0.2-3.3,0.4-4.9,0.6c0,0,0-0.1,0-0.1c0.8-0.2,1.7-0.4,2.5-0.6c0-0.1-0.1-0.3-0.1-0.4c-0.8,0.1-1.5,0.2-2.4,0.3
		c0.2-0.2,0.3-0.4,0.6-0.6c-0.7,0.1-1.2,0.2-1.7,0.3c0,0,0,0,0,0c0.6-0.5,1.2-0.9,1.9-1.5c-0.8,0.2-1.4,0.4-1.3,0.4
		c-1.3,0-2,0-2.7,0l0,0c0.2-0.1,0.4-0.2,1.1-0.8c-2.3,0.5-4,0.8-6,1.2c0.3,6.2,0.6,12.1,0.9,18.4c1.8-0.7,3.3-1.3,4.8-1.8
		c0.1,0,0-0.3,0-0.4c0,0,0,0,0,0c1.4-0.7,2.8-1.3,4.6-2.2c-1.2,0.3-2,0.4-2.9,0.6l0,0c0.5-0.3,0.9-0.6,1.7-1.1
		c1.1-0.2,2.5-0.4,3.9-0.7c0-0.1-0.1-0.3-0.1-0.4c-0.5,0.1-1,0.3-1.5,0.4c0-0.1,0-0.2-0.1-0.4c-0.7,0.1-1.3,0.2-2,0.3l0,0
		c1.5-0.5,3.1-1,4.6-1.4c0-0.1-0.1-0.2-0.1-0.3c-1.4,0.4-2.9,0.7-4.1,1c-0.3-0.2-0.4-0.3-0.6-0.4l0,0c1.6-0.5,3.2-1.1,4.9-1.6
		c0-0.2-0.1-0.3-0.1-0.5c-1.2,0.2-2.4,0.4-3.5,0.6c0-0.1,0-0.1-0.1-0.2c1.6-0.4,3.1-0.7,4.7-1.1c0-0.1,0-0.1-0.1-0.2
		c-1.5,0.1-3,0.2-4.5,0.3c0-0.1-0.1-0.2-0.1-0.4c1.6-0.4,3.3-0.8,5.3-1.3c-2,0-3.6,0-5.8,0c0.9-0.4,1.2-0.5,1.4-0.6
		C117.2,16.3,117.8,16.2,118.4,16.2z M117.9,14.5c0,0.1,0,0.2,0,0.3c0.9-0.1,1.7-0.2,2.6-0.3c0-0.1,0-0.2,0-0.2
		C119.6,14.4,118.7,14.4,117.9,14.5z M102.9,39.9c0,0.1,0.1,0.2,0.1,0.3c0.3-0.1,0.7-0.2,1-0.3c0-0.1-0.1-0.2-0.1-0.3
		C103.5,39.7,103.2,39.8,102.9,39.9z M104.1,29.9c0-0.1-0.1-0.2-0.1-0.3c-0.4,0.2-0.7,0.3-1.1,0.5c0,0.1,0.1,0.1,0.1,0.2
		C103.3,30.1,103.7,30,104.1,29.9z M101.1,10.5c0,0.1,0,0.1,0.1,0.2c0.4-0.1,0.7-0.2,1.1-0.3c0-0.1,0-0.1,0-0.2
		C101.9,10.4,101.5,10.4,101.1,10.5z M116.6,23.6c0-0.1,0-0.1,0-0.2c-0.2,0-0.5,0-0.7,0.1c0,0.1,0,0.1,0,0.2
		C116.1,23.6,116.3,23.6,116.6,23.6z M121,41.6c0,0,0-0.1,0-0.1c-0.1,0-0.3,0.1-0.4,0.1c0,0.1,0,0.1,0,0.2
		C120.7,41.7,120.8,41.7,121,41.6z M102.1,13.3c0,0.1,0,0.1,0,0.2c0.2,0,0.4,0,0.6,0c0,0,0-0.1,0-0.1
		C102.4,13.3,102.3,13.3,102.1,13.3z M101.2,13.2C100.8,13.5,100.9,13.5,101.2,13.2C100.8,13.4,100.7,13.4,101.2,13.2z M116,21.1
		c0-0.1,0-0.1,0-0.2c-0.1,0-0.3,0-1,0.2C115.7,21.1,115.9,21.1,116,21.1z M118.6,17.9c0,0,0-0.1,0-0.1c-0.1,0-0.2,0-0.2,0
		c0,0,0,0.1,0,0.1C118.4,17.9,118.5,17.9,118.6,17.9z M119.5,12.7c0,0.1,0,0.1,0,0.2c0.1,0,0.2,0,1,0
		C119.8,12.8,119.6,12.8,119.5,12.7z M116.6,10.1c0,0,0,0.1,0,0.1c0.2,0,0.3,0,0.5,0c0,0,0-0.1,0-0.1
		C116.9,10.1,116.7,10.1,116.6,10.1z M102.9,14.8C102.3,14.9,102.4,14.9,102.9,14.8C102.4,14.8,102.3,14.8,102.9,14.8z M120.3,38.4
		C120.2,38.4,120.3,38.4,120.3,38.4C120.3,38.4,120.2,38.4,120.3,38.4z M121.7,41.5c0.1,0,0.1,0,0.1,0
		C121.8,41.4,121.7,41.4,121.7,41.5C121.7,41.4,121.7,41.4,121.7,41.5z M103.7,30.6c0,0,0,0.1,0,0.1c0.1,0,0.2,0,0.3-0.1
		c0,0,0-0.1,0-0.1C103.9,30.5,103.8,30.6,103.7,30.6z M102,24.7C102.1,24.7,102.1,24.7,102,24.7c0.1-0.1,0.1-0.2,0.1-0.2
		c0,0-0.1,0-0.1,0C102,24.6,102,24.6,102,24.7z M112.7,27.2C112.7,27.2,112.7,27.3,112.7,27.2c0,0,0.1,0,0.1,0c0,0,0,0,0,0
		C112.8,27.2,112.7,27.2,112.7,27.2z M120.9,38.2C120.9,38.2,120.9,38.2,120.9,38.2C120.9,38.2,120.8,38.3,120.9,38.2
		C120.8,38.3,120.9,38.3,120.9,38.2C120.9,38.3,120.9,38.3,120.9,38.2z M117.8,31.7C117.9,31.7,117.9,31.7,117.8,31.7
		C117.9,31.7,117.9,31.7,117.8,31.7z M102.6,33.3C102.6,33.3,102.6,33.3,102.6,33.3C102.6,33.3,102.6,33.3,102.6,33.3
		C102.6,33.3,102.6,33.3,102.6,33.3z M117.2,20.6L117.2,20.6L117.2,20.6L117.2,20.6z"/>
	<path class="st0" d="M168.2,14.6c0.6-0.3,1.2-0.6,1.8-1c0.5,0,0.9-0.1,1.4-0.1c0-0.1,0-0.2-0.1-0.3c-0.4,0.2-0.9,0.3-1.3,0.5
		c-0.3,0-0.7,0-1.3,0c0.3-0.1,0.4-0.2,0.6-0.2c0-0.1-0.1-0.1-0.1-0.2c-0.7,0.2-1.4,0.4-2,0.6c0-0.1,0-0.1-0.1-0.2
		c2.1-0.9,4.1-1.9,6.2-2.8c0-0.1-0.1-0.1-0.1-0.2c-0.6,0.2-1.1,0.3-1.5,0.4c-0.3-0.1-0.6-0.1-0.8-0.2c0,0,0,0,0,0
		c0.9-0.4,1.9-0.7,2.8-1.1c0.4,0,0.8,0,1.2,0c0-0.1,0-0.2-0.1-0.3c-0.4,0.1-0.8,0.2-1.2,0.3c-0.6,0.1-1.1,0.2-1.7,0.4
		c2.7-3.2,15.7-2.1,18.5,1.5c0,1.6,0,3.1,0,4.9c-1.5-0.1-2.9-0.1-5-0.3c1.6-0.1,2.5-0.2,3.3-0.3c0,0,0-0.1,0-0.1c-0.4,0-0.8,0-1.3,0
		c0-0.2,0.1-0.4,0.1-0.6c-1.6,0-3.2,0-4.7,0c0,0,0-0.1,0-0.1c0.5,0,1,0,2.2,0c-0.9-0.2-1.1-0.3-1.4-0.4c0.5-0.1,1.1-0.3,2.4-0.6
		c-1.6-0.2-2.4-0.3-3.2-0.4l0,0c0.5-0.1,1.1-0.2,2.4-0.5c-2-0.3-3.3-0.4-4.7-0.6c1.3,0,2.6,0,3.8,0c0-0.1,0-0.1,0-0.2
		c-0.8-0.1-1.6-0.2-2.4-0.3c0.1-0.1,0.2-0.1,0.7-0.3c-0.7,0.1-1.1,0.1-1.5,0.2c0,0,0-0.1,0-0.1l0,0c-0.7,0-1.3,0-2.1,0
		c0.2-0.1,0.4-0.1,0.5-0.1c-2.7-0.8-6.6,2.7-6.5,5.8c0.1,4.5,2.4,6.7,8.4,7.6c3.3,0.5,6.6,1.5,8.2,4.4c1.3,2.5,1.8,5.6,1.9,8.4
		c0.3,5.5-4,10.9-9.3,11.4c-3.2,0.3-6.5-0.6-9.7-1.1c-1.2-0.2-2.3-0.5-3.4-1.1c0.6,0.1,1.1,0.3,1.7,0.5c0.1-0.4,0.1-0.6,0.1-1
		c-0.6-0.1-1.1-0.2-1.6-0.3c0,0,0-0.1,0-0.1c0.3,0,0.5,0,0.8,0c0.1-0.1,0.1-0.1,0.2-0.2c-0.1,0-0.3-0.1-0.4-0.1c0.7,0,1.4,0,2,0
		c0-0.1,0-0.3,0.1-0.4c-1.1-0.2-2.2-0.4-3.3-0.6c0-0.1,0-0.2,0.1-0.4c0.8,0.1,1.6,0.1,2.4,0.2c0-0.1,0-0.2,0-0.3
		c-1.1-0.1-2.2-0.3-3.4-0.5c0.2-0.3,0.3-0.4,0.5-0.7c-0.5-0.1-1-0.2-1.5-0.3c0-0.1,0.1-0.1,0.1-0.2c0.6,0.2,1.2,0.4,1.8,0.7
		c0,0.1-0.1,0.3-0.1,0.4c0.8,0.1,1.6,0.1,2.4,0.2c0-0.1,0-0.3,0.1-0.4c-0.6-0.1-1.2-0.2-1.4-0.2c-1.1-0.6-2-0.9-2.8-1.4
		c0.9-0.1,1.6-0.2,2.4-0.3c0,0,0,0,0,0l0,0c-0.5-0.2-0.9-0.4-1.4-0.6l0,0c0.9-0.2,1.8-0.3,2.8-0.5c0-0.1,0-0.2,0-0.3
		c-0.7-0.1-1.5-0.3-2.2-0.4c-0.3-0.2-0.6-0.4-0.8-0.6c0.3,0,0.7-0.1,1.3-0.1c-0.4-0.3-0.7-0.5-1-0.7c0.4-0.2,0.8-0.3,1.4-0.6
		c0.2,0,0.7,0.1,1.3,0.1c0-0.1,0-0.1,0-0.2c-1-0.2-1.9-0.5-2.9-0.7c0-0.1,0.1-0.2,0.1-0.3c0.6,0.1,1.2,0.2,1.8,0.4
		c0.3,0.1,0.6,0.1,0.9,0.2c0-0.1,0-0.2,0-0.3c-0.3,0-0.6,0.1-0.9,0.1c0.4-0.2,0.8-0.4,1.9-1c-1.3,0.2-1.9,0.3-2.4,0.3
		c-0.1-0.3-0.2-0.7-0.3-1c-0.6,0-1.1,0-1.7,0c0-0.1,0-0.1,0-0.2c1.2,0,2.5,0,3.7,0c0-0.1,0-0.2,0-0.3c-0.5-0.1-0.9-0.2-1.9-0.4
		c1.7,0,2.8,0,4.3,0c-0.1,1.1-0.1,2-0.2,3c-0.7,5.1,1.5,7.7,6.6,7.7c0.9,0,1.8-0.1,2.8-0.5c0.6-0.3,1.3-0.6,2.3-1
		c-1.7,0-2.9,0-4.2,0c0,0,0-0.1,0-0.1c1.9-0.2,3.7-0.3,5.6-0.5c0-0.2,0-0.3,0-0.5c-1,0-1.9,0-2.9,0l0,0c1.3-0.3,2.5-0.6,4.3-0.9
		c-1.3-0.1-2.2-0.2-3.2-0.3c0.3-0.3,0.5-0.5,0.7-0.8l0,0c0,0.1,0.1,0.2,0.1,0.3c0,0,0,0-0.1,0c0,0,0,0,0.1,0
		c0.1-0.1,0.2-0.2,0.3-0.3l0,0c0.6-0.1,1.3-0.2,1.9-0.3c0-0.1,0-0.2,0-0.3c-0.7,0-1.4,0-2,0c0,0,0-0.1,0-0.1c-0.7,0-1.5,0-2.2,0
		c0-0.1,0-0.1,0-0.2c1.6-0.1,3.2-0.3,4.7-0.4c0-0.1,0-0.3,0-0.4c-0.5,0-1,0.1-1.5,0.1c0-0.1,0-0.1,0-0.2c1.1-0.1,2.3-0.3,4-0.5
		c-2.2,0-3.8,0-5.5,0l0,0c0.9-0.3,1.9-0.7,2.8-1c-0.9,0-1.8,0-2.7,0c0-0.1,0-0.2,0-0.3c1.1-0.1,2.2-0.2,3.3-0.3c0-0.2,0-0.3,0-0.5
		c-1.2,0.1-2.4,0.2-3.6,0.4c0,0,0-0.1,0-0.1c1.8-0.3,3.7-0.7,5.5-1c0-0.1,0-0.3-0.1-0.4c-0.7,0-1.5,0.1-2.1,0.1
		c-0.5-0.1-0.9-0.2-1.3-0.3c0.1-0.1,0.1-0.2,0.2-0.3c0.2,0,0.3,0,0.1,0c0.2-0.1,0.1,0,0,0c-0.5-0.1-1-0.2-1.5-0.3
		c0.7-0.1,1.4-0.2,2.2-0.4c0-0.1,0-0.2,0-0.4c0.6,0,1.3,0,1.9,0c0-0.1,0-0.2,0-0.3c-1.6,0.1-3.2,0.2-4.8,0.2c0,0,0-0.1,0-0.1
		c0.6-0.1,1.1-0.1,2.3-0.2c-1-0.3-1.4-0.5-2.3-0.8c1.1,0.2,1.6,0.3,2.2,0.4c0.1-0.3,0.2-0.6,0.2-0.9c0,0,0,0,0,0l0,0
		c-0.9,0.2-1.8,0.3-2.8,0.5l0,0c1.3-0.3,2.7-0.7,3.6-0.9c-0.5,0-1.4,0-2.4,0c0.1-0.2,0.1-0.4,0.2-0.7c0.5-0.1,0.9-0.1,1.3-0.1
		c0-0.1,0-0.1,0-0.2c-1.3,0-2.6,0-4.2,0c0.7-0.3,1.2-0.5,2.3-1c-1.1,0-1.6,0-2,0c0-0.1,0-0.2,0-0.2c0.6-0.1,1.1-0.1,1.7-0.2
		c0-0.1,0-0.1,0-0.2c-1.8,0-3.7,0-5.5,0c0-0.1,0-0.1,0-0.2c1-0.1,2.1-0.2,3.1-0.4c0-0.1,0-0.2,0-0.3c-2.7,0.1-5.4,0.2-8.3,0.4
		c0.4-0.2,0.6-0.3,0.9-0.4c-0.2-0.2-0.4-0.3-0.6-0.5c0.3-0.2,0.5-0.3,1.4-0.9c-2.1,0.4-3.5,0.6-4.9,0.8c0,0,0-0.1,0-0.1
		c0.5-0.2,1.1-0.4,1.7-0.6c-0.2-0.2-0.3-0.4-0.5-0.6c-0.4,0-0.8,0-1.4,0c1.1-0.2,1.9-0.4,2.8-0.6c0,0,0-0.1,0.1-0.1
		c-0.1,0-0.1,0-0.1,0.1c-0.7,0-1.3,0-2,0c0-0.1,0-0.2,0-0.3c0.6,0,1.1-0.1,1.7-0.1c0-0.2,0-0.4,0-0.6c-1.2,0.1-2.5,0.1-3.7,0.2
		c-0.4,0.2-0.8,0.4-1.2,0.6c0,0,0-0.1-0.1-0.1c0.4-0.2,0.7-0.4,1.3-0.8c0.7-0.1,1.8-0.3,2.8-0.4c0-0.1,0-0.2,0-0.3
		c-0.8,0-1.7,0-2.5,0c0-0.1,0-0.1,0-0.2c-0.8,0-1.5,0-2.1,0c0.5-0.3,1.2-0.8,1.9-1.2c0,0,0,0,0.1,0c0,0,0,0,0,0
		c-0.2,0-0.3,0-0.7,0.1c0.5-0.3,0.8-0.4,1.3-0.7c-0.9,0.1-1.4,0.1-1.9,0.1c0-0.1,0-0.1,0-0.2c0.3,0,0.6-0.1,0.3,0
		c1.2-0.6,1.9-0.9,3.3-1.5c-1.6,0.1-2.5,0.2-3.3,0.3c0,0,0,0,0,0c-0.3-0.5-0.5-1-0.8-1.5l0,0c0.2-0.2,0.5-0.4,0.6-0.6
		c0.9-0.1,1.7-0.2,2.5-0.3c0-0.1,0-0.2,0-0.3c-0.9,0.1-1.7,0.1-2.9,0.2c0.5-0.2,0.7-0.3,0.9-0.4c0-0.1,0-0.1-0.1-0.2
		c-0.6,0.1-1.1,0.3-1.7,0.4c-0.3,0.1-0.6,0.2-0.8,0.3c0-0.1-0.1-0.2-0.1-0.3c1.7-0.7,3.4-1.5,5.1-2.2c-0.1-0.2-0.1-0.3-0.2-0.5
		c-0.7,0.2-1.5,0.5-1.9,0.6c-0.8-0.1-1.3-0.1-1.8-0.1l0,0c1.3-0.4,2.5-0.7,4.1-1.2c-0.6,0-0.9,0-1.2,0c0-0.1,0-0.3,0-0.4
		C169.3,14.5,168.8,14.6,168.2,14.6L168.2,14.6z M182,10.9L182,10.9C182,11,182,10.9,182,10.9L182,10.9L182,10.9z M187.9,42.3
		L187.9,42.3L187.9,42.3C187.9,42.3,187.9,42.3,187.9,42.3C187.9,42.3,187.9,42.3,187.9,42.3z M189.9,37.8L189.9,37.8L189.9,37.8
		C189.8,37.8,189.9,37.8,189.9,37.8z M171,12.7c-0.3,0-0.7,0-1,0.1c-0.2,0-0.5,0-0.1,0c-0.4,0.2-0.2,0.1,0,0
		C170.3,12.7,170.7,12.7,171,12.7C171.3,12.6,171.5,12.6,171,12.7C171.5,12.4,171.3,12.6,171,12.7z M185.5,44.5L185.5,44.5
		L185.5,44.5C185.3,44.6,185.1,44.7,185.5,44.5C185.2,44.8,185.3,44.7,185.5,44.5z M168.1,19.9c0.1,0.1,0.1,0.3,0.2,0.4
		c0.7-0.1,1.5-0.2,2.3-0.3c0-0.3,0-0.6-0.1-1C169.6,19.3,168.9,19.6,168.1,19.9z M170.7,43.2c0-0.2,0.1-0.4,0.1-0.6
		c-0.9-0.1-1.8-0.2-2.7-0.3c0,0.1,0,0.2-0.1,0.4C169,42.9,169.8,43.1,170.7,43.2z M171.9,47.6c0,0.1,0,0.2,0,0.3c0.6,0,1.2,0,1.9,0
		c0,0,0-0.1,0-0.1C173.2,47.7,172.5,47.6,171.9,47.6z M186.9,41.7c0-0.1,0-0.1,0-0.2c-0.5,0-1.1,0-1.6,0c0,0.1,0,0.1,0,0.2
		C185.8,41.7,186.3,41.7,186.9,41.7z M176,27.6c0,0.1,0,0.2,0,0.2c0.3,0,0.6,0,1,0c0-0.1,0-0.1,0-0.2
		C176.7,27.6,176.3,27.6,176,27.6z M186.7,43.2c0,0.1,0,0.2,0.1,0.3c0.3-0.1,0.5-0.2,0.8-0.3c0-0.1,0-0.2-0.1-0.2
		C187.2,43.1,186.9,43.2,186.7,43.2z M170.8,21.7c0-0.1,0-0.2-0.1-0.3c-0.3,0.1-0.5,0.2-0.8,0.2c0,0.1,0,0.1,0,0.2
		C170.2,21.8,170.5,21.7,170.8,21.7z M168.4,41.3C169.1,41.5,169,41.5,168.4,41.3C169,41.5,169,41.6,168.4,41.3z M170.5,42.3
		c0-0.1,0-0.1,0-0.2c-0.2,0-0.4,0-0.6,0c0,0,0,0.1,0,0.1C170.1,42.2,170.3,42.3,170.5,42.3z M172.4,47.1c0,0,0,0.1,0,0.1
		c0.1,0,0.2,0,0.3-0.1c0,0,0-0.1,0-0.1C172.6,47,172.5,47.1,172.4,47.1z M170.6,23C170.5,23,170.5,23,170.6,23
		C170.5,23,170.5,22.9,170.6,23z M169,39.9c0,0,0-0.1,0-0.1c-0.1,0-0.3,0-0.4,0c0,0,0,0.1,0,0.1C168.7,39.9,168.9,39.9,169,39.9z
		 M189.3,34.6c0,0.1,0,0.1,0,0.2c0.1,0,0.3,0,1.2-0.2C189.6,34.6,189.5,34.6,189.3,34.6z M172,46.6c0,0,0,0.1,0,0.1
		c0.1,0,0.2,0,0.3,0c0-0.1,0-0.1,0-0.2C172.2,46.5,172.1,46.5,172,46.6z M175.3,27.4C175.4,27.3,175.3,27.3,175.3,27.4
		C175.3,27.4,175.4,27.4,175.3,27.4z M189.6,40.7C189,40.8,189.1,40.8,189.6,40.7C189.1,40.7,189.1,40.7,189.6,40.7z M169.7,39.2
		C169.9,39.1,169.8,39.1,169.7,39.2C169.8,39.2,169.9,39.2,169.7,39.2z M189.3,40.2C189.4,40.2,189.5,40.2,189.3,40.2
		C189.5,40.2,189.4,40.2,189.3,40.2z M168.5,17.1C168.8,17.1,168.8,17.1,168.5,17.1C168.8,17.2,168.8,17.2,168.5,17.1z M170.7,46.6
		C170.7,46.6,170.7,46.6,170.7,46.6c0.1,0.1,0.2,0.1,0.2,0.1c0,0,0-0.1,0-0.1C170.8,46.5,170.8,46.6,170.7,46.6z M170.7,39.4
		C170.6,39.4,170.6,39.4,170.7,39.4C170.7,39.3,170.7,39.2,170.7,39.4z M169.7,22c0,0,0,0.1,0,0.1c0.1,0,0.2,0,0.2,0
		c0,0,0-0.1,0-0.1C169.9,22,169.8,22,169.7,22z M170.9,22.2C170.9,22.3,170.9,22.3,170.9,22.2c0.1,0.1,0.2,0.1,0.2,0
		c0,0,0-0.1,0-0.1C171,22.2,170.9,22.2,170.9,22.2z M188.2,33.3C188.3,33.3,188.2,33.3,188.2,33.3C188.3,33.3,188.3,33.3,188.2,33.3
		z M185,15.1C185.1,15.1,185.1,15.1,185,15.1C185,15.1,185.1,15.2,185,15.1z M185,13.6C185,13.6,185,13.5,185,13.6
		c-0.1-0.1-0.1-0.1-0.2-0.1c0,0,0,0.1,0,0.1C184.9,13.6,185,13.6,185,13.6z M169.3,17.2c0,0-0.1,0.1-0.1,0.1c0,0,0,0,0.1,0
		C169.3,17.3,169.3,17.3,169.3,17.2z M171.2,18L171.2,18L171.2,18L171.2,18z M171.5,23.5C171.5,23.5,171.5,23.5,171.5,23.5
		C171.5,23.5,171.5,23.5,171.5,23.5C171.5,23.5,171.5,23.5,171.5,23.5C171.6,23.5,171.5,23.5,171.5,23.5z M185.6,29.9L185.6,29.9
		L185.6,29.9L185.6,29.9z"/>
	<path class="st0" d="M46.2,23.7c1.4-0.2,2.7-0.5,4-0.7c0.3-0.1,0.5-0.3,1-0.7c-2.2,0-4,0-5.8,0c0-0.1,0-0.1,0-0.2
		c1-0.2,2-0.3,3-0.5c0-0.1,0-0.2,0-0.2c-0.5,0-1,0-1.4,0c0-0.1,0-0.2,0-0.2c1.3-0.1,2.7-0.2,4-0.3c0-0.2-0.1-0.3-0.1-0.5
		c-1.6,0-3.3,0-4.5,0c1.2-0.2,2.9-0.5,4.5-0.7c0-0.1,0-0.3,0-0.4c-1.1,0.1-2.3,0.3-3.4,0.4l0,0c-0.1-0.1-0.1-0.2-0.2-0.3
		c0.3,0,0.5,0.1,0.1,0c0.5-0.1,0.2-0.1,0,0c-0.1,0-0.3-0.1-1-0.3c1.5-0.1,2.2-0.1,3-0.2c0-0.1,0-0.2,0-0.3c-0.7,0-1.5,0-2.2,0
		c0,0,0-0.1,0-0.1c1.3-0.1,2.6-0.2,4-0.3c0-0.2,0-0.4,0-0.6c-1.2,0.1-2.3,0.2-3.5,0.2c0-0.1,0-0.1,0-0.2c0.4-0.1,0.7-0.2,1.9-0.5
		c-2,0-3.2,0-4.4,0c0,0,0,0,0-0.1c1.9-0.1,3.9-0.3,5.8-0.4c0-0.1,0-0.2,0-0.3c-1.3,0.1-2.5,0.1-3.8,0.2c0-0.1,0-0.1,0-0.2
		c1.3-0.1,2.6-0.2,3.9-0.3c0,0,0-0.1,0-0.1c-1.3,0-2.5,0-4.2,0c0.7-0.2,1-0.3,1.3-0.4c0,0,0-0.1,0-0.1c-0.2,0-0.4,0.1-0.6,0.1l0,0
		c0.5-0.1,0.9-0.3,1.5-0.4c0-0.1,0.1-0.3,0.1-0.5c0.6-0.1,1.2-0.2,1.9-0.4c0,0,0-0.1,0-0.1c-1.2,0.1-2.4,0.2-3.7,0.3
		c-0.3-0.1-0.6-0.2-1-0.4c1.6-0.2,3.2-0.3,5-0.5c0-0.1,0.1-0.3,0.2-0.7c-0.9,0.2-1.7,0.3-2.6,0.5c0.2-0.2,0.3-0.2,0.5-0.4
		c-0.3,0-0.5,0-0.7,0c0-0.1,0-0.1,0-0.2c0.4,0,0.8-0.1,1.3-0.1c0,0,0-0.1,0-0.1c-0.7,0-1.4,0-2.1,0c0-0.1,0-0.1,0-0.2
		c1-0.1,2-0.2,3-0.3c0,0,0.1,0.1,0.1,0c0,0,0,0,0-0.1c0.2,0,0.5-0.1,0.7-0.1c0-0.1,0-0.3,0-0.4c-1.2,0.1-2.5,0.2-3.7,0.3
		c0-0.1,0-0.1,0-0.2c0.8-0.2,1.7-0.4,2.5-0.6c0-0.1,0-0.2,0-0.3c-1.5,0.1-3.1,0.3-5.4,0.5c1.2-0.2,1.7-0.3,2.1-0.4
		c0-0.1,0-0.2-0.1-0.2c0.8-0.2,1.7-0.5,2.5-0.7c0-0.2-0.1-0.3-0.1-0.5c-4.9,1.1-9.9,2.1-14.8,3.2c0-0.1,0-0.2-0.1-0.3
		c0.4-0.1,0.8-0.3,1.2-0.4c0-0.2,0-0.3-0.1-0.5c-1.7,0.3-3.3,0.5-5,0.8c0-0.1,0-0.1,0-0.2c1.2-0.2,2.3-0.4,3.5-0.6
		c0-0.1,0-0.2,0-0.4c-1.3,0-2.6,0-3.9,0l0,0c1.5-0.3,3-0.6,4.5-0.9c0-0.1,0-0.2,0-0.3c-0.9,0-1.7,0-2.8,0c0.8-0.1,1.4-0.3,1.9-0.4
		C33.7,9,34,8.8,34.4,8.4c-0.3,0-0.5-0.1-0.7-0.1c0,0,0,0,0,0c0.2-0.1,0.4-0.2,0.9-0.6c-1.1-0.1-1.8-0.1-2.5-0.1l0,0
		c0.7-0.2,1.5-0.4,2.2-0.7c0-0.2,0-0.3-0.1-0.5c10.7-0.6,21.4-1.2,32.3-1.8c-0.1,1.2-0.2,2.1-0.3,3.1C62.6,8,59,8.2,55.4,8.4
		c-0.9,11.2-1.8,22.4-2.8,33.6c-1.2,0-2.2,0-3.6,0c-0.8-0.1-2-0.3-3.2-0.4c0,0,0,0,0,0c1.6-0.2,3.2-0.4,4.7-0.6
		c0-0.2-0.1-0.5-0.1-0.7c-1.8,0.2-3.6,0.4-5.5,0.6c0.7-0.2,1.4-0.4,2.6-0.8c0.5,0,1.7-0.1,2.9-0.2c0-0.1,0-0.2,0-0.3
		c-0.5,0-1,0.1-0.8,0c-1.4-0.1-2-0.2-2.7-0.2c0-0.1,0-0.2,0-0.2c1.2-0.1,2.4-0.1,3.6-0.2c0-0.1,0-0.2-0.1-0.4
		c-2.1,0.2-4.1,0.3-6.2,0.5c0,0,0-0.1,0-0.1c0.5-0.1,1-0.2,1.7-0.3c-0.2-0.2-0.3-0.2-0.9-0.7c0.9,0.2,1.4,0.2,2.1,0.4
		c0.3-0.1,0.8-0.4,1.4-0.6c0-0.2-0.1-0.3-0.1-0.5c-1.2,0.1-2.4,0.2-3.7,0.3c0,0,0-0.1,0-0.1c1.9-0.3,3.8-0.7,5.7-1
		c0-0.1,0-0.1,0-0.2c-1.2,0-2.3,0-3.5,0c0-0.1,0-0.1,0-0.2c1.2-0.2,2.4-0.3,3.6-0.5c0-0.1,0-0.2,0-0.3c-1.2,0.1-2.4,0.2-4.4,0.4
		c1.2-0.3,1.7-0.4,2.1-0.5c0-0.1,0-0.2,0-0.2C47.9,35,47.5,35,47,35l0,0c1.2-0.3,2.3-0.5,3.5-0.8c0-0.1,0-0.2,0.1-0.2
		c-1.7,0-3.4,0-5.1,0c0-0.1,0-0.1,0-0.2c1.3-0.2,2.7-0.5,4.2-0.8c-0.5-0.1-0.8-0.1-1.6-0.3c1-0.2,1.6-0.3,3-0.5c-2.7,0-4.6,0-6.5,0
		c0,0,0-0.1,0-0.1c1.3-0.1,2.6-0.2,4.4-0.4c-0.8-0.3-0.9-0.3-1.4-0.5c1.1-0.1,2-0.2,2.9-0.3c0-0.2,0-0.3,0-0.5
		c-1.8,0.2-3.6,0.3-5.3,0.5c0-0.1,0-0.1,0-0.2c1.8-0.5,3.6-0.9,5.4-1.4c0-0.1,0-0.1,0-0.2c-2,0-4,0-5.7,0c1.7-0.2,3.7-0.5,6.5-0.9
		c-1.5-0.2-2.1-0.3-2.7-0.3c0,0,0,0,0-0.1c-0.6,0-1.1-0.1-1.7-0.1c0-0.1,0-0.2,0-0.3c1.1-0.1,2.3-0.3,3.4-0.4
		c-1.2-0.2-2.3-0.5-3.5-0.7c0,0,0,0,0,0l0,0c-0.6,0-1.2,0-2.2,0c1.2-0.2,2.1-0.4,2.9-0.5c0-0.1,0-0.1,0-0.2c1.1-0.1,2.2-0.2,3.3-0.3
		c0-0.2,0-0.4-0.1-0.6c-1.7,0.1-3.4,0.1-4.8,0.2c0.6-0.2,1.3-0.5,2-0.8c-0.1-0.2-0.1-0.4-0.2-0.6c1,0,2,0,3,0c0-0.1,0-0.2,0-0.3
		C49.2,23.5,47.7,23.6,46.2,23.7C46.2,23.7,46.2,23.7,46.2,23.7z M61.3,6.8L61.3,6.8L61.3,6.8C61.3,6.8,61.4,6.8,61.3,6.8z
		 M47.2,6.9C47.2,6.9,47.2,6.8,47.2,6.9L47.2,6.9L47.2,6.9z M49.4,9.4L49.4,9.4c0.6,0,1.2,0,1.9,0c0-0.1,0-0.2,0-0.3
		C50.6,9.2,50,9.3,49.4,9.4z M48.2,24.3L48.2,24.3L48.2,24.3c0.8,0,1.6,0,2.4,0c0-0.1,0-0.2,0-0.3C49.7,24.1,49,24.2,48.2,24.3z
		 M35.1,10.5c0-0.1,0-0.2,0-0.2c-0.7,0.1-1.4,0.2-2.1,0.3c0,0.1,0,0.2,0.1,0.3C33.8,10.7,34.4,10.6,35.1,10.5z M47.2,10.3
		c0,0.1,0,0.2,0,0.3c0.6-0.1,1.1-0.2,1.7-0.2c0-0.1,0-0.2,0-0.2C48.3,10.1,47.7,10.2,47.2,10.3z M50.5,37.6c0-0.1,0-0.2,0-0.3
		c-0.4,0-0.8,0.1-1.2,0.1c0,0.1,0,0.2,0,0.3C49.7,37.7,50.1,37.7,50.5,37.6z M48.7,6.4C48.7,6.9,48.7,6.8,48.7,6.4
		C48.6,6.8,48.5,6.9,48.7,6.4z M34.7,9.7c0,0.1,0,0.1,0,0.2c0.1,0,0.3,0,1-0.2C35,9.7,34.9,9.7,34.7,9.7z M44.9,8.8L44.9,8.8
		L44.9,8.8L44.9,8.8z M50.5,18.5C50.5,18.5,50.5,18.5,50.5,18.5C50.4,18.5,50.4,18.6,50.5,18.5C50.5,18.6,50.5,18.6,50.5,18.5
		C50.5,18.6,50.5,18.5,50.5,18.5z M50.7,15.3C50.7,15.4,50.7,15.4,50.7,15.3c0.1,0.1,0.1,0,0.2,0c0,0,0-0.1,0-0.1
		C50.8,15.3,50.8,15.3,50.7,15.3z"/>
	<path class="st0" d="M9.2,12.2c-0.8-0.1-1.6-0.2-2.3-0.2c1.2-0.2,2.6-0.5,3.9-0.8c0-0.2-0.1-0.3-0.1-0.5c-0.4,0.1-0.9,0.2-1.3,0.2
		l0,0c0-0.2,0.1-0.3,0.2-0.6c0.4-0.1,0.9-0.2,1.5-0.3c0-0.1,0-0.2-0.1-0.3c-1.7,0.5-3.3,0.9-5,1.4c0,0,0-0.1,0-0.1
		c1.7-0.6,3.3-1.2,5-1.7c0-0.1,0-0.2-0.1-0.3C10,9.1,9.1,9.2,8.2,9.4c0-0.1,0-0.1,0-0.2C9,9,9.9,8.8,10.9,8.6c0-0.3,0-0.6,0-0.9
		C9.8,7.8,8.9,8,8,8.1C8,8.1,8,8,8,8c1.8-0.3,3.6-0.6,5.3-0.9c0-0.1-0.1-0.3-0.1-0.4c-0.4,0.1-0.8,0.2-0.6,0.1c-1,0-1.6-0.1-2.2-0.1
		c0.9-0.2,1.7-0.4,3-0.7c-0.8,0-1.1,0-1.5,0c0,0,0-0.1,0-0.1c0.9-0.1,1.9-0.2,3.4-0.4c-1.4-0.1-2.3-0.2-3.6-0.3
		c2.1-0.3,3.7-0.6,5.4-0.8c0-0.1,0-0.2,0-0.3c-1,0.1-2,0.1-3,0.2c0-0.2,0-0.5,0-0.7c3.9,0.2,7.8,0.3,11.6,0.8
		c0.6,0.1,1.3,1.8,1.5,2.8c0.2,1-0.2,2.1-0.4,3.6C25,10.6,23,10.3,21.1,10c0,0,0,0,0,0c1.5,0,2.9,0,4.4,0c0-0.1,0-0.3,0-0.4
		c-1.3,0-2.7,0-4,0c0-0.1,0-0.2,0-0.3c0.5,0,0.9,0,2.1,0c-1.5-0.5-2.3-0.7-3.1-1c0,0,0,0,0,0c-0.8-0.2-1.7-0.4-2.5-0.6c0,0,0,0,0,0
		c-0.1-0.1-0.1-0.2-0.2-0.3c1.2,0,2.3,0,3.5,0c0-0.1,0-0.3,0-0.4C20.1,7,19,7.2,17.8,7.3c-1.6,1.3-3.5,2.3-4.8,3.8
		c-3.3,4.1-1.4,7.7,4.1,8.4c3,0.4,6.2,0.6,8.4,3c1,1,2.1,2.4,2.2,3.7c0.2,2.9-0.2,5.8-0.4,8.7c0,0,0-0.1,0-0.1c0,0,0,0,0,0.1
		c-0.1,0.2-0.1,0.4-0.2,0.7c0,0,0,0,0,0l0,0c-1.8,4.4-4.8,7.1-9.8,7.2c-0.4,0-0.8-0.1-1.3-0.1c0.2-0.2,0.2-0.4,0.4-0.6
		c-0.9,0.1-1.7,0.2-2.5,0.3c-0.2-0.3-0.4-0.5-0.6-0.7c-1.7-0.1-3.3-0.2-5-0.3c0,0,0-0.1,0-0.1c1,0,1.9,0,3.1,0
		c-0.4-0.3-0.6-0.4-0.9-0.7c0.5,0,0.9,0,1.3,0c0-0.1,0-0.2,0-0.4c-1-0.1-2-0.1-3-0.2c0-0.1,0-0.2,0-0.2c0.6-0.1,1.2-0.2,1.8-0.3
		c0-0.1,0-0.2,0-0.3c-0.6,0-1.3,0-2.3,0c0.6-0.4,0.8-0.5,1.1-0.7c-0.9-0.1-1.7-0.2-3.2-0.4c1.2-0.4,1.8-0.6,2.6-0.9
		c-1.4-0.2-2.7-0.3-3.9-0.5c0,0,0-0.1,0-0.1c1.4,0,2.8,0,4.1,0c0-0.1,0-0.2,0-0.2c-0.8,0-1.5,0-2.2,0c-0.3-0.3-0.6-0.5-0.8-0.7
		c0,0,0,0,0,0c0.9,0.1,1.9,0.1,2.8,0.2c0-0.2,0.1-0.3,0.1-0.5c-0.6,0-1.2,0-1.9,0c0-0.1,0-0.2,0-0.3c-1.5-0.1-3-0.3-4.3-0.4
		c1.3-0.1,2.9-0.2,4.4-0.4c0-0.1,0-0.1,0-0.2c-0.6,0-1.2,0-1.8,0c0-0.1,0-0.1,0-0.2c0.9-0.2,1.8-0.4,2.8-0.5c0-0.1,0-0.3,0-0.4
		c-1.5-0.1-3.1-0.1-4.6-0.2l0,0C5,32.7,6.3,32.4,8,32.1c-1-0.1-1.6-0.1-2.2-0.2c0,0,0-0.1,0-0.1c0.7,0,1.5,0,2.2,0
		c0-0.1,0-0.2,0-0.3c-1,0-2,0-3.2,0c0.7-0.3,1.2-0.5,2.5-1c-1.7,0.1-2.6,0.1-3.5,0.2c0-0.1,0-0.2,0-0.3c2.1-0.2,4.2-0.4,6.5-0.6
		C9.5,33,9.5,36,12.5,37.4c2.1,1.1,4.7,1.2,7.1,1.8c0.1-0.3,0.1-0.7,0.2-1C18.9,38.1,18,38.1,17,38c0-0.1,0-0.2,0-0.3
		c-0.3,0-0.6,0-1,0.1l0,0c1.9-0.3,3.9-0.6,5.8-1c0-0.1,0-0.2,0-0.3c-1.1,0-2.3,0-3.4,0c0-0.1,0-0.1,0-0.2c2-0.3,4-0.6,6-0.9
		c0-0.1,0-0.2,0-0.3c-0.8,0-1.6,0-2.4,0c0-0.1,0-0.3,0-0.4c1-0.1,2.1-0.2,3.1-0.3c0-0.1,0-0.2,0-0.2c-0.7,0-1.5,0-2.7,0
		c0.6-0.2,0.8-0.3,1.3-0.5c-0.7,0-0.9,0-1.2,0c0-0.1,0-0.2,0-0.3c1.1-0.1,2.3-0.2,3.4-0.3c0-0.1,0-0.3,0-0.4c-1.1,0-2.1,0-3.2,0
		c0-0.1,0-0.1,0-0.2c0.5-0.1,1-0.1,1.5-0.2C24.1,32.2,24,32.1,24,32c0.9-0.1,1.8-0.1,2.7-0.2c0-0.1,0-0.3,0-0.4
		c-1-0.1-2.1-0.1-3.9-0.2c1.5-0.3,2.3-0.4,3-0.5c-1.1-0.3-2.3-0.6-3.7-0.9c0.9,0.1,1.6,0.1,2.3,0.1c0.2-0.3,0.3-0.5,0.5-0.7
		c0.7,0.1,1.5,0.2,2.2,0.3c0-0.2,0-0.3,0-0.5c-0.7,0-1.4,0.1-2.1,0.1c-0.8-0.2-1.6-0.4-2.1-0.5c1.2-0.1,2.7-0.3,4.2-0.4
		c0-0.1,0-0.2,0-0.3c-1,0-1.9,0-3.6,0c0.9-0.4,1.1-0.5,1.5-0.7c-1.4,0-2.6,0-3.8,0c0-0.1,0-0.1,0-0.2c0.8,0,1.6,0,2.4,0
		c0-0.2,0-0.5,0-0.7c-1.3-0.1-2.5-0.2-3.6-0.2c1.7-0.2,3.6-0.4,5.4-0.5c0-0.1,0-0.2,0-0.3c-1.7,0-3.3,0-5,0c0-0.1,0-0.2,0-0.3
		c0.5,0,1-0.1,1.6-0.1c-0.2-0.5-0.3-0.8-0.5-1.2c0.3,0,0.6-0.1,0.9-0.2c0-0.1,0-0.3,0-0.4c-1.1,0.1-2.3,0.2-3.4,0.2
		c-0.2,0-0.4-0.1-0.7-0.2c0,0,0-0.1,0-0.1l-0.1,0c-0.7,0-1.5,0-2.2,0c-1.1-0.1-2.1-0.2-3.2-0.3c0-0.1,0-0.1,0-0.2
		c0.7-0.1,1.5-0.2,2.2-0.3c0-0.1,0-0.2,0-0.3c-1.4,0-2.8,0-4.2,0c0-0.1,0-0.2,0-0.2c0.8-0.1,1.7-0.3,2.5-0.4c0-0.1,0-0.3,0-0.4
		c-1.7,0.1-3.3,0.2-5,0.3c0,0,0-0.1,0-0.1c1.2-0.2,2.5-0.5,3.7-0.7c0,0,0.1,0,0,0c0.1,0,0,0-0.1,0c-0.5-0.2-0.9-0.6-1.4-0.6
		c-1.2,0-2.5,0.2-4.3,0.4c1.5-0.4,2.4-0.7,3.3-0.9c0.1,0,0.1,0.1,0,0c0.2,0,0.1,0,0,0c0.4-0.1,0.8-0.3,1.3-0.4c0-0.1,0-0.2-0.1-0.3
		c-1,0.2-2,0.4-3,0.6c0,0,0-0.1,0-0.1c0.9-0.3,1.9-0.6,2.8-0.9c0-0.1-0.1-0.3-0.1-0.4c-1.4,0.1-2.9,0.3-4.3,0.4c0,0,0-0.1,0-0.1
		c1.4-0.2,2.8-0.5,4.2-0.7c0-0.1,0-0.2-0.1-0.3c-0.7,0.1-1.5,0.3-2.8,0.5c1.3-0.5,2-0.8,2.6-1.1c0-0.1,0-0.2,0-0.2
		c-1.5,0.2-2.9,0.3-4.8,0.6c1-0.3,1.6-0.5,2.2-0.7c0.6-0.3,1.1-0.6,2.2-1.3c-1.8,0.2-2.9,0.3-4,0.4c0,0,0,0,0,0
		c0.9-0.3,1.9-0.6,2.8-0.9c0.5-0.1,0.9-0.2,1.4-0.3c0-0.1-0.1-0.2-0.1-0.4c-0.4,0.2-0.9,0.4-1.3,0.6c-0.1-0.3-0.2-0.6-0.2-1
		c0,0,0.1,0.1,0,0c0.1,0,0.1,0,0,0c-0.7,0.2-1.5,0.4-2.2,0.6c0-0.1,0-0.1,0-0.2C7.1,13.3,8,13.1,8.5,13C9,12.4,9.2,12.1,9.2,12.2
		C9.5,12.1,9.4,12.1,9.2,12.2C9.2,12.2,9.2,12.2,9.2,12.2z M22.1,22.2L22.1,22.2C22.1,22.2,22.1,22.2,22.1,22.2L22.1,22.2L22.1,22.2
		z M9.9,15.5C9.7,15.5,9.6,15.5,9.9,15.5C9.6,15.6,9.7,15.5,9.9,15.5C10,15.4,10.1,15.4,9.9,15.5C10,15.3,9.9,15.4,9.9,15.5z
		 M24.5,24.5c-0.6-0.1-1.2-0.2-1.8-0.3c0,0.1,0,0.2,0,0.3C23.3,24.5,23.9,24.5,24.5,24.5L24.5,24.5z M21.1,8c0,0.1,0,0.1,0,0.2
		c0.9,0,1.8,0,2.7,0c0-0.1,0-0.1,0-0.2C22.9,8,22,8,21.1,8z M26.2,26.5c0-0.1,0-0.3,0-0.4c-0.7,0.1-1.3,0.1-2,0.2c0,0.1,0,0.1,0,0.2
		C24.9,26.5,25.5,26.5,26.2,26.5z M23.1,36.1c0-0.1,0-0.1,0-0.2c-0.8,0-1.5,0.1-2.3,0.1c0,0.1,0,0.1,0,0.2
		C21.5,36.2,22.3,36.2,23.1,36.1z M18,37.7c0,0,0,0.1,0,0.1c0.8,0,1.6,0,2.4,0c0,0,0-0.1,0-0.1C19.6,37.7,18.8,37.7,18,37.7z
		 M15.8,22.5c0,0.1,0,0.1,0,0.2c0.3,0,0.6,0,0.8-0.1c0-0.1,0-0.1,0-0.2C16.3,22.5,16,22.5,15.8,22.5z M12.9,41.3c0,0.1,0,0.2,0,0.2
		c0.2,0,0.4,0,0.5-0.1c0-0.1,0-0.2,0-0.2C13.3,41.2,13.1,41.2,12.9,41.3z M9.3,16.1C9.9,15.8,9.8,15.8,9.3,16.1
		C9.8,16,9.9,15.9,9.3,16.1z M14.4,5.3c0,0,0-0.1,0-0.1c-0.1,0-0.2,0-0.4,0c0,0,0,0.1,0,0.1C14.1,5.3,14.2,5.3,14.4,5.3z M18.6,39.2
		C17.9,39.2,18.1,39.2,18.6,39.2C18.1,39,18,39,18.6,39.2z M10.1,12.6c0-0.1-0.1-0.1-0.1-0.2c-0.1,0.1-0.3,0.2-0.4,0.3
		c0,0,0,0.1,0.1,0.1C9.8,12.7,10,12.6,10.1,12.6z M16.7,39.1c0,0,0,0.1,0,0.1c0.1,0,0.3,0,0.4,0c0,0,0-0.1,0-0.1
		C17,39.1,16.9,39.1,16.7,39.1z M24.5,30.1C24.5,30.1,24.5,30.1,24.5,30.1c0.1,0.1,0.2,0.1,0.3,0.1c0,0,0-0.1,0-0.1
		C24.7,30.1,24.6,30.1,24.5,30.1z M19.4,41.5c0,0,0,0.1,0,0.1c0.1,0,0.2,0,0.3,0.1c0,0,0-0.1,0-0.1C19.6,41.6,19.5,41.6,19.4,41.5z
		 M9.3,38.4C9.8,37.9,9.7,38,9.3,38.4C9.8,38.1,9.9,38.1,9.3,38.4z M23.1,10.4c0,0,0.1,0,0.1,0C23.2,10.4,23.1,10.3,23.1,10.4
		C23.1,10.3,23.1,10.3,23.1,10.4z M15.4,5C15.4,5,15.4,5,15.4,5c0.1,0.1,0.2,0.1,0.3,0.1c0,0,0-0.1,0-0.1C15.6,5,15.5,5,15.4,5z
		 M26.7,27.4C26.7,27.4,26.7,27.4,26.7,27.4C26.7,27.4,26.7,27.4,26.7,27.4z M7.8,37.9C7.7,38,7.8,37.9,7.8,37.9
		C7.7,37.9,7.7,37.9,7.8,37.9z M25.8,10.4c0,0,0.1,0,0.1,0.1c0,0,0-0.1,0-0.1C25.8,10.3,25.8,10.3,25.8,10.4z M18.9,41.7
		C18.8,41.7,18.8,41.7,18.9,41.7C18.8,41.6,18.8,41.6,18.9,41.7z M20.3,38.3c-0.1,0-0.1-0.1-0.1-0.1c0,0,0,0,0,0.1
		C20.2,38.3,20.2,38.3,20.3,38.3z"/>
	<path class="st0" d="M156.4,26.3c1-0.3,2.1-0.5,3.1-0.8c0,0.1,0.1,0.2,0.1,0.3c-1,0.3-2.1,0.5-3.1,0.8
		C156.5,26.5,156.5,26.4,156.4,26.3z"/>
	<path class="st0" d="M68.7,22.4c0.9-0.1,1.8-0.1,2.6-0.2c0,0.1,0,0.1,0,0.2c-0.9,0.1-1.7,0.1-2.6,0.2
		C68.7,22.5,68.7,22.4,68.7,22.4z"/>
	<path class="st0" d="M44.1,28c0.7,0,1.4-0.1,2.1-0.1c0,0,0,0.1,0,0.1C45.5,28,44.8,28,44.1,28z"/>
	<path class="st0" d="M128.7,12.1c-0.8,0.1-1.6,0.1-2.4,0.2c0-0.1,0-0.1,0-0.2C127.1,12.1,127.9,12.1,128.7,12.1
		C128.7,12.1,128.7,12.1,128.7,12.1z"/>
	<path class="st0" d="M6.2,35.8c-0.8,0-1.7,0-2.5,0C4.5,35.8,5.3,35.8,6.2,35.8C6.2,35.8,6.2,35.8,6.2,35.8z"/>
	<path class="st0" d="M152.8,7.3c0.7-0.1,1.4-0.2,2-0.3c0,0,0,0.1,0,0.1C154.1,7.2,153.5,7.3,152.8,7.3L152.8,7.3z"/>
	<path class="st0" d="M20.5,8.3c-0.7,0-1.5,0.1-2.2,0.1c0-0.1,0-0.1,0-0.2C19.1,8.2,19.8,8.2,20.5,8.3C20.5,8.3,20.5,8.3,20.5,8.3z"
		/>
	<path class="st0" d="M46.5,12.1c-0.6,0.2-1.2,0.3-1.9,0.5c0-0.1,0-0.1,0-0.2C45.2,12.3,45.8,12.2,46.5,12.1L46.5,12.1z"/>
	<path class="st0" d="M9.4,10.9c-0.5,0.1-1,0.2-1.5,0.3c0-0.1,0-0.2,0-0.3C8.4,10.9,8.9,10.9,9.4,10.9C9.4,10.9,9.4,10.9,9.4,10.9z"
		/>
	<path class="st0" d="M152.8,7.3c-0.7,0-1.4,0-2.2,0C151.3,7.3,152,7.3,152.8,7.3C152.8,7.3,152.8,7.3,152.8,7.3z"/>
	<path class="st0" d="M45.5,14c-1.1,0.2-1.5,0.2-1.9,0.3c0-0.1,0-0.1,0-0.2C43.9,14.1,44.3,14,45.5,14z"/>
	<path class="st0" d="M65.5,31c-0.4,0-0.9,0-1.3,0c0,0,0,0,0,0C64.6,31,65,31,65.5,31C65.5,31,65.5,31,65.5,31z"/>
	<path class="st0" d="M47.2,15.4c-0.6,0-1.2,0-1.8,0c0,0,0-0.1,0-0.1C46,15.3,46.6,15.3,47.2,15.4C47.2,15.4,47.2,15.4,47.2,15.4z"
		/>
	<path class="st0" d="M153.6,22.8c0.2-0.1,0.4-0.1,1-0.3c-0.5,0.3-0.7,0.5-0.9,0.6C153.6,22.9,153.6,22.8,153.6,22.8z"/>
	<path class="st0" d="M181.2,15.4c-0.3,0-0.7,0-1,0c0,0,0,0,0-0.1C180.6,15.3,180.9,15.3,181.2,15.4
		C181.2,15.3,181.2,15.4,181.2,15.4z"/>
	<path class="st0" d="M167.4,45.8c0.3,0,0.6,0,1.4,0.1c-0.8,0-1.1,0-1.4,0C167.4,45.9,167.4,45.9,167.4,45.8z"/>
	<path class="st0" d="M43.3,26.6c0.3,0,0.5-0.1,0.8-0.1c0,0.1,0,0.1,0,0.2c-0.3,0-0.5,0-0.8,0C43.3,26.7,43.3,26.7,43.3,26.6z"/>
	<path class="st0" d="M169.4,26.8c-0.3,0-0.6,0-0.9,0c0,0,0,0,0-0.1C168.8,26.7,169.1,26.7,169.4,26.8
		C169.4,26.7,169.4,26.7,169.4,26.8z"/>
	<path class="st0" d="M184.3,35.8c0.5-0.1,0.9-0.2,1.4-0.4c0,0.1,0,0.1,0,0.2C185.3,35.6,184.8,35.7,184.3,35.8L184.3,35.8z"/>
	<path class="st0" d="M9.7,21.7c0.2,0,0.4,0,0.6,0c0,0,0,0.1,0,0.1c-0.2,0-0.4,0.1-0.6,0.1C9.7,21.9,9.7,21.8,9.7,21.7z"/>
	<path class="st0" d="M142.6,12.1c0.2,0,0.4,0,0.7,0c0,0,0,0,0,0C143.1,12.1,142.8,12.1,142.6,12.1
		C142.6,12.1,142.6,12.1,142.6,12.1z"/>
	<path class="st0" d="M155.6,27.4c-0.2,0.1-0.4,0.1-0.7,0.2c0-0.1,0-0.1-0.1-0.2c0.2-0.1,0.4-0.1,0.7-0.2
		C155.6,27.2,155.6,27.3,155.6,27.4z"/>
	<path class="st0" d="M184.2,32.8C183.9,32.8,183.6,32.9,184.2,32.8C183.6,32.7,183.9,32.7,184.2,32.8
		C184.2,32.8,184.2,32.8,184.2,32.8z"/>
	<path class="st0" d="M46.5,13.4c0.4-0.1,0.8-0.2,1.2-0.3c0,0.1,0,0.1,0,0.2C47.3,13.4,46.9,13.4,46.5,13.4L46.5,13.4z"/>
	<path class="st0" d="M67.4,35.8c-0.4,0.1-0.8,0.2-1.2,0.2c0,0,0,0,0-0.1C66.6,35.9,67,35.9,67.4,35.8
		C67.4,35.8,67.4,35.8,67.4,35.8z"/>
	<path class="st0" d="M167.3,37.5C166.7,37.5,166.9,37.5,167.3,37.5C166.9,37.6,166.7,37.7,167.3,37.5z"/>
	<path class="st0" d="M156.4,42c-0.4,0.1-0.7,0.1-1.1,0.2c0-0.1,0-0.1,0-0.2C155.7,42,156.1,42,156.4,42C156.4,42,156.4,42,156.4,42
		z"/>
	<path class="st0" d="M154.8,21.6c-0.2,0-0.5,0.1-0.7,0.1c0,0,0-0.1,0-0.1C154.3,21.6,154.5,21.5,154.8,21.6
		C154.8,21.5,154.8,21.6,154.8,21.6z"/>
	<path class="st0" d="M126.8,25.1c0.4-0.2,0.9-0.4,1.3-0.6c0,0,0,0,0,0c0,0.1,0,0.1,0,0.2c0,0,0,0,0,0
		C127.7,24.8,127.3,25,126.8,25.1L126.8,25.1z"/>
	<path class="st0" d="M66.7,25.5c-0.4,0.1-0.7,0.2-1.1,0.2c0,0,0,0,0-0.1C65.9,25.6,66.3,25.5,66.7,25.5L66.7,25.5z"/>
	<path class="st0" d="M45.6,23.7C45.3,23.7,45,23.7,45.6,23.7C45,23.6,45.3,23.6,45.6,23.7C45.6,23.7,45.6,23.7,45.6,23.7z"/>
	<path class="st0" d="M180.6,45.2c-0.3,0.1-0.6,0.2-0.9,0.3c0,0,0-0.1,0-0.1C179.9,45.3,180.2,45.3,180.6,45.2
		C180.6,45.2,180.6,45.2,180.6,45.2z"/>
	<path class="st0" d="M156.1,38.8c-0.4,0-0.7,0.1-1.1,0.1c0,0,0-0.1,0-0.1C155.4,38.8,155.7,38.8,156.1,38.8
		C156.1,38.8,156.1,38.8,156.1,38.8z"/>
	<path class="st0" d="M155.8,43.6C155.3,43.7,155.2,43.7,155.8,43.6C155.2,43.6,155.4,43.6,155.8,43.6z"/>
	<path class="st0" d="M167,16c-0.4,0-0.8,0.1-1.2,0.1c0,0,0-0.1,0-0.1C166.2,16,166.6,16,167,16C167,16,167,16,167,16z"/>
	<path class="st0" d="M66.7,25.5c0.4,0,0.7,0,1.1-0.1c0,0,0,0,0,0.1C67.4,25.5,67.1,25.5,66.7,25.5C66.7,25.5,66.7,25.5,66.7,25.5z"
		/>
	<path class="st0" d="M155,35.6c-0.3,0.1-0.5,0.3-0.8,0.4c0,0,0-0.1-0.1-0.1C154.4,35.8,154.7,35.7,155,35.6
		C155,35.6,155,35.6,155,35.6z"/>
	<path class="st0" d="M182.8,13.9c-0.4,0-0.8,0-1.2,0.1c0-0.1,0-0.1,0-0.2C182,13.9,182.4,13.9,182.8,13.9
		C182.8,13.9,182.8,13.9,182.8,13.9z"/>
	<path class="st0" d="M73.9,8.3C74,8.2,74.2,8.2,73.9,8.3C74.2,8.3,74,8.3,73.9,8.3C73.9,8.3,73.9,8.3,73.9,8.3z"/>
	<path class="st0" d="M148,9.1c0.2,0,0.4,0,0.6,0c0,0,0,0.1,0,0.1c-0.2,0-0.4,0-0.6,0C148,9.1,148,9.1,148,9.1z"/>
	<path class="st0" d="M98.9,18.9c-0.3,0-0.6,0.1-0.9,0.1c0,0,0-0.1,0-0.1C98.3,18.9,98.6,18.9,98.9,18.9
		C98.9,18.9,98.9,18.9,98.9,18.9z"/>
	<path class="st0" d="M67.3,23.6c-0.3,0-0.5,0.1-0.2,0C66.8,23.7,67.1,23.7,67.3,23.6C67.3,23.7,67.3,23.6,67.3,23.6z"/>
	<path class="st0" d="M74.1,9c-0.3,0.1-0.6,0.1-0.9,0.2c0-0.1,0-0.1,0-0.2C73.5,9,73.8,9,74.1,9C74.1,9,74.1,9,74.1,9z"/>
	<path class="st0" d="M99.1,15.5c-0.3,0-0.6,0.1-0.9,0.1c0,0,0-0.1,0-0.1C98.5,15.5,98.8,15.5,99.1,15.5
		C99.1,15.5,99.1,15.5,99.1,15.5z"/>
	<path class="st0" d="M165.8,41.3C166.1,41.3,166,41.3,165.8,41.3C166,41.3,166.1,41.3,165.8,41.3z"/>
	<path class="st0" d="M46.3,28.3c0.1,0,0.2,0,1-0.1c-0.7,0.2-0.9,0.2-1,0.3C46.3,28.4,46.3,28.4,46.3,28.3z"/>
	<path class="st0" d="M155.5,40.4c0.2,0,0.3,0,0.5,0c0,0,0,0,0,0.1C155.8,40.4,155.6,40.4,155.5,40.4
		C155.5,40.4,155.5,40.4,155.5,40.4z"/>
	<path class="st0" d="M114.6,35.8c-0.3,0-0.7,0-1,0.1c0,0,0-0.1,0-0.1C113.9,35.7,114.2,35.7,114.6,35.8
		C114.6,35.8,114.6,35.8,114.6,35.8z"/>
	<path class="st0" d="M169.6,10.9C169.4,11,169.3,11.1,169.6,10.9C169.2,10.9,169.4,10.9,169.6,10.9L169.6,10.9z"/>
	<path class="st0" d="M10.8,41.8c0.4,0.1,0.8,0.2,1.1,0.4l0,0C11.6,42,11.2,41.9,10.8,41.8L10.8,41.8z"/>
	<path class="st0" d="M99,9.9c0.2-0.1,0.3-0.2,0.5-0.3c0,0,0,0.1,0.1,0.1c-0.2,0.1-0.3,0.2-0.5,0.3C99.1,10,99.1,9.9,99,9.9z"/>
	<path class="st0" d="M11.9,42.2c0.3,0,0.6,0,0.9-0.1c0,0,0,0.1,0,0.1C12.6,42.2,12.3,42.2,11.9,42.2C11.9,42.2,11.9,42.2,11.9,42.2
		z"/>
	<path class="st0" d="M149.5,8.9c0.2,0,0.3,0,1.1,0C149.9,9,149.7,9,149.5,8.9C149.6,9,149.6,8.9,149.5,8.9z"/>
	<path class="st0" d="M126.7,35C126.5,35.1,126.2,35.2,126.7,35C126.2,35.1,126.5,35,126.7,35C126.8,35,126.7,35,126.7,35z"/>
	<path class="st0" d="M183.9,41.1c-0.2,0-0.3,0-0.5,0c0,0,0,0,0-0.1C183.6,41.1,183.8,41.1,183.9,41.1
		C183.9,41.1,183.9,41.1,183.9,41.1z"/>
	<path class="st0" d="M65.6,33.1c0.1,0,0.2,0,0.3,0c0,0,0,0,0,0C65.8,33.1,65.7,33.1,65.6,33.1C65.6,33.1,65.6,33.1,65.6,33.1z"/>
	<path class="st0" d="M47.4,19.6c-0.3,0-0.6,0-0.8,0c0,0,0-0.1,0-0.1C46.8,19.5,47.1,19.6,47.4,19.6C47.4,19.6,47.4,19.6,47.4,19.6z
		"/>
	<path class="st0" d="M184.9,38.8C184.6,38.8,184.4,38.8,184.9,38.8C184.4,38.8,184.6,38.8,184.9,38.8
		C184.9,38.8,184.9,38.8,184.9,38.8z"/>
	<path class="st0" d="M183.3,43C183.1,43.1,182.8,43.1,183.3,43C182.8,43,183.1,43,183.3,43C183.3,43,183.3,43,183.3,43z"/>
	<path class="st0" d="M98.6,28.3C98.3,28.3,98.1,28.4,98.6,28.3C98.1,28.3,98.3,28.3,98.6,28.3C98.6,28.3,98.6,28.3,98.6,28.3z"/>
	<path class="st0" d="M154.6,15.1C154.4,15.2,154.2,15.3,154.6,15.1C154.2,15.2,154.4,15.1,154.6,15.1
		C154.6,15.1,154.6,15.1,154.6,15.1z"/>
	<path class="st0" d="M73.9,8.3C73.6,8.3,73.4,8.3,73.9,8.3C73.4,8.2,73.6,8.2,73.9,8.3C73.9,8.3,73.9,8.3,73.9,8.3z"/>
	<path class="st0" d="M134.1,15.5c-0.1,0-0.2,0-0.3,0c0,0,0,0,0,0C133.9,15.5,134,15.5,134.1,15.5C134.1,15.5,134.1,15.5,134.1,15.5
		z"/>
	<path class="st0" d="M156.2,7c-0.1,0-0.3,0-0.4,0c0,0,0-0.1,0-0.1C156,7,156.1,6.9,156.2,7C156.2,7,156.2,7,156.2,7z"/>
	<path class="st0" d="M144.3,13.6C144.6,13.6,144.8,13.5,144.3,13.6C144.8,13.6,144.6,13.6,144.3,13.6
		C144.3,13.6,144.3,13.6,144.3,13.6z"/>
	<path class="st0" d="M16.1,37.8C15.9,37.7,15.7,37.7,16.1,37.8C15.8,37.6,15.9,37.7,16.1,37.8C16.1,37.8,16.1,37.8,16.1,37.8z"/>
	<path class="st0" d="M101.4,37.2C101.2,37.2,101,37.2,101.4,37.2C101,37.1,101.2,37.2,101.4,37.2C101.4,37.2,101.4,37.2,101.4,37.2
		z"/>
	<path class="st0" d="M167.1,41.4C167.2,41.4,167.2,41.4,167.1,41.4C167.2,41.4,167.2,41.4,167.1,41.4z"/>
	<path class="st0" d="M169.6,10.9c0.4,0,0.8,0,1.3,0c0,0,0,0,0,0C170.5,10.9,170,10.9,169.6,10.9C169.6,10.9,169.6,10.9,169.6,10.9z
		"/>
	<path class="st0" d="M67.6,37.2C67.4,37.2,67.3,37.2,67.6,37.2C67.3,37.2,67.4,37.2,67.6,37.2z"/>
	<path class="st0" d="M180.6,45.2C180.8,45.2,181,45.2,180.6,45.2C181,45.2,180.8,45.2,180.6,45.2C180.6,45.2,180.6,45.2,180.6,45.2
		z"/>
	<path class="st0" d="M99.8,8.8c-0.4,0.1-0.7,0.1-1.1,0.2c0,0,0,0,0,0C99.1,8.9,99.5,8.8,99.8,8.8C99.8,8.8,99.8,8.8,99.8,8.8z"/>
	<path class="st0" d="M114.5,31.6c-0.3,0.1-0.5,0.2-0.8,0.3l0,0C113.9,31.8,114.2,31.7,114.5,31.6C114.5,31.6,114.5,31.6,114.5,31.6
		z"/>
	<path class="st0" d="M21.1,10C20.9,10,20.7,10.1,21.1,10C20.7,10,20.9,10,21.1,10C21.1,10,21.1,10,21.1,10z"/>
	<path class="st0" d="M32.7,8.6c0.3-0.1,0.7-0.1,1-0.2c0,0,0,0,0,0C33.3,8.4,33,8.5,32.7,8.6L32.7,8.6z"/>
	<path class="st0" d="M153.5,31.3c0.1,0,0.2,0,0.3,0c0,0,0,0.1,0,0.1c-0.1,0-0.2,0-0.3,0C153.5,31.4,153.5,31.4,153.5,31.3z"/>
	<path class="st0" d="M118.5,38.4c-0.4,0-0.8,0-1.2,0c0,0,0,0,0,0C117.7,38.5,118.1,38.4,118.5,38.4
		C118.5,38.4,118.5,38.4,118.5,38.4z"/>
	<path class="st0" d="M137.7,18c-0.1,0-0.2,0-0.3,0.1c0,0,0-0.1,0-0.1c0.1,0,0.2-0.1,0.3-0.1C137.7,18,137.7,18,137.7,18z"/>
	<path class="st0" d="M184.3,35.8C184.1,35.8,183.9,35.8,184.3,35.8C183.9,35.7,184.1,35.7,184.3,35.8
		C184.3,35.8,184.3,35.8,184.3,35.8z"/>
	<path class="st0" d="M146.4,12.2C146.2,12.2,146,12.2,146.4,12.2C146,12.1,146.2,12.1,146.4,12.2C146.4,12.2,146.4,12.2,146.4,12.2
		z"/>
	<path class="st0" d="M156,22.5C155.8,22.5,155.6,22.5,156,22.5C155.6,22.4,155.8,22.4,156,22.5C156,22.5,156,22.5,156,22.5z"/>
	<path class="st0" d="M3.7,32.9C3.5,33,3.4,33,3.7,32.9C3.3,32.9,3.5,32.9,3.7,32.9C3.7,33,3.7,32.9,3.7,32.9z"/>
	<path class="st0" d="M98.7,8.9C98.6,9,98.4,9,98.7,8.9C98.4,8.9,98.6,8.9,98.7,8.9C98.8,9,98.7,8.9,98.7,8.9z"/>
	<path class="st0" d="M98.2,26c0.1,0,0.2,0,0.2,0c0,0,0,0,0,0C98.3,26,98.3,26,98.2,26C98.2,26,98.2,26,98.2,26z"/>
	<path class="st0" d="M72.8,10.7C72.6,10.7,72.5,10.7,72.8,10.7C72.5,10.7,72.6,10.7,72.8,10.7C72.8,10.7,72.8,10.7,72.8,10.7z"/>
	<path class="st0" d="M6.4,38.1C6.1,38.1,6.1,38.1,6.4,38.1C6.1,38.1,6.1,38.1,6.4,38.1z"/>
	<path class="st0" d="M153.6,26C154.1,26,154.2,26,153.6,26C154.2,26,154.1,26,153.6,26z"/>
	<path class="st0" d="M67.1,21.7C67,21.7,66.8,21.8,67.1,21.7C66.8,21.7,67,21.7,67.1,21.7C67.1,21.7,67.1,21.7,67.1,21.7z"/>
	<path class="st0" d="M155,34C154.9,34.1,154.8,34.2,155,34C154.8,34.1,154.9,34.1,155,34C155,34,155,34,155,34z"/>
	<path class="st0" d="M32.7,8.6C32.5,8.6,32.3,8.6,32.7,8.6C32.3,8.6,32.5,8.6,32.7,8.6C32.7,8.6,32.7,8.6,32.7,8.6z"/>
	<path class="st0" d="M101.2,38.9c-0.3,0.1-0.6,0.1-0.9,0.2c0,0,0,0,0,0C100.6,39.1,100.9,39,101.2,38.9
		C101.2,38.9,101.2,38.9,101.2,38.9z"/>
	<path class="st0" d="M127.5,21.2c-0.3,0.1-0.6,0.1-0.8,0.2c0,0,0,0,0,0C126.9,21.3,127.2,21.2,127.5,21.2
		C127.5,21.2,127.5,21.2,127.5,21.2z"/>
	<path class="st0" d="M184.3,37.4C184.1,37.6,184,37.6,184.3,37.4C184,37.6,184,37.6,184.3,37.4z"/>
	<path class="st0" d="M156.1,33.9c-0.3,0-0.7,0.1-1,0.1c0,0,0,0,0,0C155.4,34,155.7,34,156.1,33.9C156.1,34,156.1,33.9,156.1,33.9z"
		/>
	<path class="st0" d="M126,17.1c-0.1,0.1-0.1,0.1-0.2,0.2C125.9,17.3,126,17.2,126,17.1L126,17.1z"/>
	<path class="st0" d="M123.8,10.9C123.9,11,124,11.1,123.8,10.9C124,10.9,123.9,10.9,123.8,10.9C123.8,10.9,123.8,10.9,123.8,10.9z"
		/>
	<path class="st0" d="M125.4,23.5C125.5,23.5,125.5,23.5,125.4,23.5C125.4,23.4,125.4,23.4,125.4,23.5
		C125.4,23.5,125.4,23.5,125.4,23.5z"/>
	<path class="st0" d="M76.5,44.8C76.5,44.7,76.6,44.7,76.5,44.8C76.6,44.8,76.6,44.8,76.5,44.8L76.5,44.8z"/>
	<path class="st0" d="M9.2,12.2C9.1,12.2,9,12.1,9.2,12.2C9,12.1,9.1,12.1,9.2,12.2C9.2,12.2,9.2,12.2,9.2,12.2z"/>
	<path class="st0" d="M126.1,10.3C126,10.3,125.9,10.3,126.1,10.3C125.9,10.4,126,10.3,126.1,10.3C126.1,10.3,126.1,10.3,126.1,10.3
		z"/>
	<path class="st0" d="M126.6,21.4C126.5,21.4,126.4,21.4,126.6,21.4C126.4,21.4,126.5,21.4,126.6,21.4
		C126.6,21.3,126.6,21.4,126.6,21.4z"/>
	<path class="st0" d="M7.7,13.8c-0.1,0-0.1,0-0.2,0c0,0,0,0,0,0C7.5,13.7,7.6,13.7,7.7,13.8C7.7,13.7,7.7,13.7,7.7,13.8z"/>
	<path class="st0" d="M44.2,15.5C44.1,15.5,44.1,15.5,44.2,15.5C44.1,15.5,44.1,15.5,44.2,15.5z"/>
	<path class="st0" d="M155.5,25.8C155.6,25.8,155.5,25.8,155.5,25.8C155.5,25.8,155.6,25.8,155.5,25.8z"/>
	<path class="st0" d="M156,31.3c-0.1,0-0.2-0.1-0.4-0.2c0.1-0.1,0.2-0.1,0.2-0.1l0,0C155.9,31.1,156,31.2,156,31.3
		C156,31.3,156,31.3,156,31.3z"/>
	<path class="st0" d="M99.5,36.3C99.4,36.3,99.2,36.3,99.5,36.3C99.2,36.3,99.4,36.3,99.5,36.3C99.5,36.3,99.5,36.3,99.5,36.3z"/>
	<path class="st0" d="M47,35c-0.1,0-0.2,0-0.3,0C46.8,35,46.9,35,47,35C47,35,47,35,47,35z"/>
	<path class="st0" d="M154.7,31.3c0,0,0.1,0,0.1,0C154.8,31.3,154.8,31.3,154.7,31.3C154.7,31.4,154.7,31.3,154.7,31.3z"/>
	<polygon class="st0" points="71.2,10.9 71.2,10.9 71.2,10.9 	"/>
	<path class="st0" d="M71.2,43.2C71.1,43.2,71.1,43.2,71.2,43.2C71.1,43.2,71.1,43.2,71.2,43.2z"/>
	<path class="st0" d="M67.2,32.8C67.1,32.7,67,32.6,67.2,32.8C66.9,32.8,67.1,32.8,67.2,32.8L67.2,32.8z"/>
	<path class="st0" d="M68.3,35.7c-0.3,0-0.6,0.1-0.9,0.1c0,0,0,0,0,0C67.7,35.8,68,35.8,68.3,35.7C68.3,35.7,68.3,35.7,68.3,35.7z"
		/>
	<path class="st0" d="M29.6,12C29.5,12.1,29.6,12,29.6,12C29.6,12,29.6,12.1,29.6,12z"/>
	<polygon class="st0" points="135,15.4 135,15.4 135,15.4 	"/>
	<path class="st0" d="M157.1,40.2C157.1,40.2,157,40.2,157.1,40.2C157,40.2,157.1,40.2,157.1,40.2C157.2,40.2,157.1,40.2,157.1,40.2
		z"/>
	<path class="st0" d="M127.9,32.2C127.8,32.2,127.7,32.2,127.9,32.2C127.7,32.2,127.8,32.2,127.9,32.2
		C127.9,32.2,127.9,32.2,127.9,32.2z"/>
	<path class="st0" d="M127.7,30.8C127.6,30.8,127.5,30.8,127.7,30.8C127.5,30.8,127.6,30.8,127.7,30.8
		C127.7,30.8,127.7,30.8,127.7,30.8z"/>
	<path class="st0" d="M128.4,33.7C128.4,33.6,128.3,33.6,128.4,33.7C128.3,33.6,128.4,33.6,128.4,33.7
		C128.4,33.6,128.4,33.7,128.4,33.7z"/>
	<path class="st0" d="M138.7,17.8c0,0-0.1,0-0.1,0C138.6,17.8,138.6,17.8,138.7,17.8C138.7,17.8,138.7,17.8,138.7,17.8z"/>
	<path class="st0" d="M100.3,39.1C100.3,39.1,100.2,39.1,100.3,39.1C100.2,39.1,100.3,39.1,100.3,39.1
		C100.4,39.1,100.3,39.1,100.3,39.1z"/>
	<path class="st0" d="M155.7,35.6c-0.2,0-0.5,0-0.8,0c0,0,0,0,0,0C155.2,35.6,155.5,35.6,155.7,35.6
		C155.7,35.6,155.7,35.6,155.7,35.6z"/>
	<path class="st0" d="M125.6,11.9C125.6,11.9,125.6,12,125.6,11.9C125.6,12,125.5,12,125.6,11.9C125.5,11.9,125.5,11.9,125.6,11.9z"
		/>
	<path class="st0" d="M125.4,23.5C125.4,23.5,125.3,23.5,125.4,23.5C125.3,23.5,125.4,23.5,125.4,23.5
		C125.4,23.5,125.4,23.5,125.4,23.5z"/>
	<path class="st0" d="M124.7,12.1C124.8,12.1,124.8,12.1,124.7,12.1C124.8,12.1,124.8,12.1,124.7,12.1z"/>
	<path class="st0" d="M127.5,40c-0.1,0-0.1,0-0.2,0c0,0,0,0.1,0,0.1C127.4,40.1,127.5,40,127.5,40C127.5,40,127.5,40,127.5,40z"/>
	<path class="st0" d="M126.8,23.1c0,0-0.1,0-0.1,0C126.7,23.1,126.8,23.1,126.8,23.1C126.8,23.1,126.8,23.1,126.8,23.1z"/>
	<path class="st0" d="M126.8,25.1c-0.1,0-0.1,0-0.2,0C126.7,25.1,126.7,25.1,126.8,25.1C126.8,25.1,126.8,25.1,126.8,25.1z"/>
	<polygon class="st0" points="75.8,43.6 75.9,43.6 75.8,43.6 	"/>
	<path class="st0" d="M67.2,32.8c0.3,0,0.5,0,0.8,0c0,0,0,0,0,0C67.8,32.8,67.5,32.8,67.2,32.8C67.2,32.8,67.2,32.8,67.2,32.8z"/>
	<path class="st0" d="M167.3,19.4C167.2,19.4,167.1,19.4,167.3,19.4C167.1,19.4,167.2,19.4,167.3,19.4
		C167.3,19.4,167.3,19.4,167.3,19.4z"/>
	<path class="st0" d="M46.5,12.1C46.5,12.1,46.6,12.1,46.5,12.1C46.6,12.2,46.5,12.1,46.5,12.1C46.5,12.1,46.5,12.1,46.5,12.1z"/>
	<polygon class="st0" points="45.8,35.2 45.8,35.3 45.8,35.2 	"/>
	<path class="st0" d="M76.5,44.8C76.5,44.8,76.4,44.7,76.5,44.8C76.4,44.8,76.5,44.8,76.5,44.8C76.5,44.8,76.5,44.8,76.5,44.8z"/>
	<path class="st0" d="M168.2,14.6c-0.2,0.1-0.4,0.1-0.7,0.2l0,0c0.2,0.1,0.3,0.2,0.5,0.3C168.1,14.9,168.2,14.8,168.2,14.6
		C168.2,14.6,168.2,14.6,168.2,14.6z"/>
	<path class="st0" d="M183.6,42c-0.2,0-0.3-0.1-0.5-0.1l0,0c0.1,0,0.2-0.1,0.2-0.1C183.4,41.9,183.5,41.9,183.6,42
		C183.6,42,183.6,42,183.6,42z"/>
	<path class="st0" d="M167.3,20.9c0.3,0,0.5,0,0.8-0.1c0,0,0,0,0,0C167.8,20.8,167.5,20.8,167.3,20.9
		C167.3,20.9,167.3,20.9,167.3,20.9z"/>
	<path class="st0" d="M78.2,6.1c-0.1,0-0.1,0-0.1,0c0,0,0,0,0-0.1C78.1,6.1,78.1,6.1,78.2,6.1z"/>
	<path class="st0" d="M5.9,15.1C5.9,15.2,5.8,15.2,5.9,15.1C5.8,15.1,5.9,15.1,5.9,15.1C6,15.2,5.9,15.1,5.9,15.1z"/>
	<polygon class="st0" points="32.1,7.6 32,7.6 32.1,7.6 	"/>
	<polygon class="st0" points="31.2,8.6 31.2,8.7 31.2,8.6 	"/>
	<path class="st0" d="M185.1,41c0.1,0,0.3,0,0.4,0c0,0,0,0,0,0C185.4,41,185.3,41,185.1,41L185.1,41z"/>
	<path class="st0" d="M156.1,24.2C156.1,24.2,156,24.2,156.1,24.2C156,24.2,156.1,24.2,156.1,24.2C156.1,24.2,156.1,24.2,156.1,24.2
		z"/>
	<path class="st0" d="M45.6,23.7c0.2,0,0.4,0,0.6,0c0,0,0,0,0,0C46,23.7,45.8,23.7,45.6,23.7C45.6,23.7,45.6,23.7,45.6,23.7z"/>
	<path class="st0" d="M155,25.8C155,25.8,155,25.9,155,25.8C155,25.9,155,25.8,155,25.8C154.9,25.8,155,25.8,155,25.8
		C155,25.8,155,25.8,155,25.8z"/>
	<path class="st0" d="M113.7,31.9C113.6,31.9,113.6,31.9,113.7,31.9C113.6,31.9,113.6,31.9,113.7,31.9
		C113.7,31.9,113.7,31.9,113.7,31.9z"/>
	<path class="st0" d="M10.8,41.8C10.8,41.8,10.7,41.8,10.8,41.8C10.7,41.8,10.8,41.8,10.8,41.8C10.8,41.8,10.8,41.8,10.8,41.8z"/>
	<path class="st0" d="M126,17.1c0.1,0.1,0.1,0.2,0.2,0.3c0.2-0.1,0.3-0.2,0.4-0.3c0,0,0,0,0,0C126.4,17.1,126.2,17.1,126,17.1
		C126,17.1,126,17.1,126,17.1z"/>
	<path class="st0" d="M117.3,38.5C117.3,38.5,117.3,38.5,117.3,38.5C117.3,38.5,117.3,38.5,117.3,38.5
		C117.3,38.5,117.3,38.5,117.3,38.5z"/>
	<path class="st0" d="M125.8,19.1C125.8,19.1,125.8,19.2,125.8,19.1C125.8,19.2,125.8,19.2,125.8,19.1
		C125.9,19.1,125.8,19.1,125.8,19.1z"/>
	<polygon class="st0" points="124.9,10.5 125,10.5 124.9,10.6 	"/>
	<path class="st0" d="M123.8,10.9C123.7,10.9,123.7,10.9,123.8,10.9C123.7,10.9,123.8,10.9,123.8,10.9
		C123.8,10.9,123.8,10.9,123.8,10.9z"/>
	<path class="st0" d="M167.6,14.8C167.6,14.8,167.6,14.8,167.6,14.8C167.6,14.8,167.6,14.8,167.6,14.8
		C167.6,14.8,167.6,14.8,167.6,14.8z"/>
	<path class="st0" d="M166.7,21.2c0,0,0.1,0,0.1,0C166.8,21.2,166.8,21.1,166.7,21.2C166.7,21.1,166.7,21.2,166.7,21.2L166.7,21.2z"
		/>
	<path class="st0" d="M99.2,29.5c0,0-0.1,0-0.1,0C99.1,29.5,99.2,29.5,99.2,29.5z"/>
	<polygon class="st0" points="73.4,6.3 73.5,6.3 73.5,6.4 	"/>
	<polygon class="st0" points="166.7,21.2 166.7,21.2 166.7,21.2 	"/>
	<path class="st0" d="M167.9,41.5C167.9,41.5,168,41.5,167.9,41.5C168,41.5,167.9,41.5,167.9,41.5z"/>
	<path class="st0" d="M167.3,20.9C167.3,20.9,167.3,20.9,167.3,20.9C167.3,20.9,167.3,20.9,167.3,20.9
		C167.3,20.9,167.3,20.9,167.3,20.9z"/>
	<path class="st0" d="M183.6,42C183.6,42,183.6,42,183.6,42C183.6,42,183.6,42,183.6,42C183.6,42,183.6,42,183.6,42z"/>
	<polygon class="st0" points="155.9,31 155.9,31 155.9,31 	"/>
	<polygon class="st0" points="183.1,41.9 183.2,41.9 183.1,41.9 	"/>
	<polygon class="st0" points="146.4,11.2 146.4,11.2 146.4,11.2 	"/>
	<polygon class="st0" points="46.5,13.4 46.6,13.5 46.5,13.4 	"/>
	<polygon class="st0" points="45.8,41.6 45.8,41.7 45.8,41.6 	"/>
	<path class="st0" d="M67.3,23.7C67.3,23.7,67.4,23.6,67.3,23.7C67.4,23.6,67.3,23.6,67.3,23.7C67.3,23.6,67.3,23.7,67.3,23.7z"/>
	<polygon class="st0" points="18,7.7 18,7.7 18,7.7 	"/>
	<polygon class="st0" points="29.7,10.9 29.8,10.9 29.7,10.9 	"/>
	<polygon class="st0" points="125.1,13.9 125.1,13.9 125.1,13.9 	"/>
	<path class="st0" d="M127.1,38.4C127,38.4,127,38.4,127.1,38.4C127,38.5,127,38.4,127.1,38.4C127.1,38.4,127.1,38.4,127.1,38.4z"/>
	<polygon class="st0" points="127.3,28 127.4,28 127.3,28 	"/>
	<path class="st0" d="M97.1,11.8C97.1,11.8,97.1,11.8,97.1,11.8C97.1,11.8,97.1,11.8,97.1,11.8C97.1,11.8,97.1,11.8,97.1,11.8z"/>
	<path class="st0" d="M93.9,16.9c-1.1,0-2.2,0-3.3,0c0-0.1,0-0.2,0-0.3C91.7,16.7,92.8,16.8,93.9,16.9L93.9,16.9z"/>
	<path class="st0" d="M88,19.8c0.5,0,1.1,0,1.6,0c0,0,0,0,0,0C89.1,19.8,88.6,19.8,88,19.8C88,19.8,88,19.8,88,19.8z"/>
	<path class="st0" d="M87.1,16c0.2,0,0.4,0,0.7,0c0,0,0,0,0,0.1C87.5,16.1,87.3,16.1,87.1,16C87.1,16.1,87.1,16.1,87.1,16z"/>
	<path class="st0" d="M90.6,29.2C90.4,29.2,90.2,29.2,90.6,29.2C90.2,29.2,90.4,29.2,90.6,29.2C90.6,29.2,90.6,29.2,90.6,29.2z"/>
	<path class="st0" d="M90.2,24.4C89.9,24.4,90,24.4,90.2,24.4C90,24.4,89.9,24.4,90.2,24.4z"/>
	<path class="st0" d="M89.2,16C89,16.1,88.8,16.1,89.2,16C88.8,16,89,16,89.2,16C89.2,16,89.2,16,89.2,16z"/>
	<path class="st0" d="M87.1,13.6C86.3,13.6,86.4,13.6,87.1,13.6C86.4,13.6,86.3,13.6,87.1,13.6z"/>
	<path class="st0" d="M88.9,30.7C88.9,30.8,88.9,30.8,88.9,30.7C88.9,30.8,88.8,30.8,88.9,30.7C88.8,30.8,88.8,30.8,88.9,30.7
		C88.8,30.7,88.9,30.7,88.9,30.7z"/>
	<path class="st0" d="M91,24.5C91,24.5,91,24.5,91,24.5C90.9,24.5,91,24.5,91,24.5C91,24.5,91,24.5,91,24.5z"/>
	<polygon class="st0" points="88.6,13.7 88.6,13.7 88.6,13.8 	"/>
	<path class="st0" d="M93.9,16.9c0.1,0,0.2,0,0.2,0c0,0,0,0,0,0C94.1,16.9,94,16.9,93.9,16.9C93.9,16.9,93.9,16.9,93.9,16.9z"/>
	<path class="st0" d="M94.4,16.6c-0.1,0.1-0.2,0.2-0.2,0.2c0,0,0,0,0,0C94.2,16.8,94.3,16.7,94.4,16.6
		C94.4,16.6,94.4,16.6,94.4,16.6z"/>
	<path class="st0" d="M114.6,21.2c-0.6,0.1-1.3,0.2-1.9,0.3c0-0.1,0-0.1,0-0.2C113.3,21.3,113.9,21.2,114.6,21.2
		C114.6,21.2,114.6,21.2,114.6,21.2z"/>
	<path class="st0" d="M110.1,9.1c-0.5,0.1-1.1,0.2-1.6,0.3c0,0,0-0.1,0-0.1C109,9.2,109.6,9.1,110.1,9.1
		C110.1,9.1,110.1,9.1,110.1,9.1z"/>
	<path class="st0" d="M113.6,22.3c-0.4,0.2-0.7,0.4-1.1,0.6c0-0.1-0.1-0.1-0.1-0.2C112.8,22.5,113.2,22.4,113.6,22.3
		C113.6,22.3,113.6,22.3,113.6,22.3z"/>
	<path class="st0" d="M112.8,24c-0.4,0.1-0.8,0.1-1.2,0.2c0-0.1,0-0.1,0-0.2C112,24,112.4,24,112.8,24C112.8,24,112.8,24,112.8,24z"
		/>
	<path class="st0" d="M115,16.6c-0.2,0-0.4,0-0.6,0c0,0,0,0,0-0.1C114.6,16.6,114.8,16.6,115,16.6C115,16.6,115,16.6,115,16.6z"/>
	<path class="st0" d="M114.7,22.2c-0.4,0-0.7,0-1.1,0c0,0,0,0,0,0C114,22.2,114.3,22.2,114.7,22.2C114.7,22.2,114.7,22.2,114.7,22.2
		z"/>
	<path class="st0" d="M112.3,10.2C112.1,10.2,111.9,10.2,112.3,10.2C111.9,10.2,112.1,10.2,112.3,10.2
		C112.3,10.2,112.3,10.2,112.3,10.2z"/>
	<path class="st0" d="M109.2,26c-0.1,0-0.1,0-0.2,0c0,0,0,0,0,0C109.1,26,109.2,26,109.2,26C109.2,26,109.2,26,109.2,26z"/>
	<path class="st0" d="M110.2,25.6C110.1,25.6,110.1,25.5,110.2,25.6C110,25.7,110.1,25.7,110.2,25.6
		C110.2,25.6,110.2,25.6,110.2,25.6z"/>
	<path class="st0" d="M111,25.6c-0.3,0-0.5,0-0.8,0c0,0,0,0,0,0C110.5,25.6,110.7,25.6,111,25.6C111,25.6,111,25.6,111,25.6z"/>
	<polygon class="st0" points="110.8,10.4 110.9,10.3 110.8,10.4 	"/>
	<path class="st0" d="M116.4,15.3C116.4,15.2,116.3,15.2,116.4,15.3C116.3,15.2,116.4,15.3,116.4,15.3
		C116.4,15.3,116.4,15.3,116.4,15.3z"/>
</g>
<g>
</g>
<g>
</g>
<g>
</g>
<g>
</g>
<g>
</g>
<g>
</g>
</svg>
