<?xml version="1.0" encoding="utf-8"?>
<!-- Generator: Adobe Illustrator 18.1.0, SVG Export Plug-In . SVG Version: 6.00 Build 0)  -->
<!DOCTYPE svg PUBLIC "-//W3C//DTD SVG 1.1//EN" "http://www.w3.org/Graphics/SVG/1.1/DTD/svg11.dtd">
<svg version="1.1" id="Layer_1" xmlns="http://www.w3.org/2000/svg" xmlns:xlink="http://www.w3.org/1999/xlink" x="0px" y="0px"
	 viewBox="0 0 287.5 503.5" style="enable-background:new 0 0 287.5 503.5;" xml:space="preserve">
<g>
	<path d="M245.4,131.8c2.7,2.1,5.5,4.2,8.2,6.4c0.5,0.4,1.2,1,1.3,1.7c0.3,2.2,1.5,3.2,2.7,4.1c1.3,1,1.5,2.3,1.5,4.2
		c-0.1,7.5-3.4,12.1-7.7,15.4c-4.8,3.7-10.1,5.6-15.4,7.2c-3.2,0.9-6.4,2.1-9.6,2.7c-3.3,0.6-6.6,1.7-9.9,2.4
		c-1.1,0.2-2.2,0.1-3.4,0.2c-0.1,0-0.2,0.2-0.3,0.4c0.1,0.2,0.2,0.4,0.3,0.4c1.4,0.1,2.8,0.3,4.1,0.2c2.4-0.1,4.8,0.2,7.1,1.3
		c2.2,1,4.6,1.2,6.9,2c2.4,0.9,4.8,2.1,7.2,3.2c0.3,0.1,0.8,0.4,0.9,0.7c1,2.7,3.2,3.1,4.7,4.8c0.9,1,1.5,1.9,1.6,3.5
		c0.1,1.1,0.3,2.1,0.4,3.2c0,0.6,0,1.3-0.2,1.7c-1.7,2.6-2.6,6.3-5.4,7.5c-4.5,5.6-10.1,7.2-15.7,8.5c-2.6,0.6-5.2,1-7.8,2.2
		c-2.1,1-4.4,0.9-6.6,1.2c-2.5,0.3-5,0.4-7.5,0.5c-1.2,0.1-2.1,0.8-3.2,1.8c-2.3,2.1-4.8,3.5-7.6,3.8c-5.1,0.5-10.1,1.2-15.2,1.8
		c-0.3,0-0.5,0-0.8,0.1c-3.7,2.3-7.7,2.5-11.6,3.4c-0.9,0.2-1.7,0.4-2.5,0.7c-2.1,0.7-4.2,1.5-6.3,2.2c-4.1,1.4-8.2,3.2-12.3,4.2
		c-2.7,0.6-5.1,2.1-7.6,3.6c-0.3,0.2-0.5,0.6-0.7,0.9c0.3,0.2,0.6,0.5,0.9,0.6c1.7,0.4,3.4,0.8,5.1,1c3.6,0.4,7.2,1.3,10.8,0.6
		c1.7-0.3,3.6,0.7,5.4,0.6c3.5-0.1,16.5,0.2,17.9,0.3c0.3,0,28.8-2.1,30.3-1.4c0.4,0.2,5.5-2.6,7.7-2.1c2.1,0.5,13.5-5.3,15.7-6.6
		c0.5-0.3,1.1-0.9,1.3-1.5c0.8-2,0.7-2,1.8-0.4c0.3,0.5,0.6,0.9,0.8,1.4c1.2,2.6,0.9,3.9-0.7,5.8c-3.1,3.6-6.6,6-10.5,7.5
		c-1.1,0.4-2.1,1-3.2,1.4c-0.7,0.2-1.3,0.4-2,0.4c-1.9,0.1-3.9,0-6.4,0c1.6,1.8,3.1,1.7,4.4,2c2.3,0.4,4.6,0.9,6.7,2.5
		c1.7,1.2,2.9,3,3.8,5.1c0.7,1.5,0.7,3.5,1,5.3c0,0.2-0.1,0.5-0.2,0.7c-2.2,3-4.1,6.4-7.2,7.8c-0.8,0.4-1.5,1.2-2.3,1.6
		c-1.3,0.8-2.7,1.4-4.1,2.1c-1.1,0.6-2.3,1.1-3.4,1.9c-0.3,0.2-0.5,0.9-0.5,1.5c0,0.2,0.5,0.7,0.7,0.7c1.9,0.6,10.9,2.9,11.5,3
		c1.9,0.3,3.2,1.6,4,4c0.4,1.1,1.1,2.1,1.8,3c1.3,1.6,1.5,2.1,0.6,4.3c-1.2,2.7-2.4,5.4-4.8,6.4c-0.6,0.3-1.2,0.9-1.7,1.4
		c-0.6,0.6-1.2,1.3-1.8,2c-2.4,2.6-5.3,2.5-8.1,3.3c-2,0.6-4,1.4-6,2.1c-0.5,0.2-1,0.6-1.5,0.5c-2.4-0.5-4.6,1-6.9,1.3
		c-2.6,0.4-5.1,0.7-7.7,0.9c-3.9,0.2-7.8,0.4-11.7,0.3c-3.9-0.1-7.8-0.5-11.7-0.7c-2.9-0.2-5.7-0.2-8.6-0.5
		c-7.2-0.7-14.5-1.9-21.5-4.5c-2.4-0.9-5.6,1.3-6.5,4.7c-0.2,0.5,0,1.5,0.2,1.9c0.6,0.9,1.3,1.6,2,2.2c2.8,2.2,5.6,4.2,8.7,5.5
		c4.5,1.9,9.1,3.9,13.7,5.5c2.3,0.8,4.8,1,7.2,1.5c0.6,0.1,1.2,0.3,1.8,0.5c3,0.9,6,1.2,9,1.2c3.1-0.1,6.2,0.2,9.3,0.4
		c0.5,0,0.9,0.5,1.4,0.7c0.6,0.3,1.5,0.8,1.9,0.5c1.3-0.9,2.4-0.3,3.6,0.2c0.8,0.3,1.7,0.1,2.6,0.2c2.4,0.4,4.8,0.4,6.9,2.5
		c0.5,0.5,1.1,0.8,1.6,0.8c3.7,0.2,7,1.5,9.3,5.9c0.3,0.6,1,0.8,1.5,1.2c1.4,1.2,2.6,2.5,3.3,4.9c0.7,2.5,1.4,4.8-0.7,6.6
		c-1.3,3.9-3.9,5.5-6.6,7c-0.4,0.2-0.6,0.7-0.9,1.1c0.3,0.3,0.6,0.7,1,0.9c0.3,0.2,0.7,0.3,1,0.3c2.5-0.4,4.2,1.9,6,3.7
		c1.9,2,1.8,5.3-0.2,6.9c-2.1,1.6-4.2,3.2-6.4,4.7c-0.8,0.6-1.8,0.7-2.8,1c-2.3,0.8-4.7,1.6-7,2.4c-0.3,0.1-0.5,0.3-0.7,0.4
		c-3.3,0.5-6.7,0.9-10,1.4c-2.8,0.3-5.7-1.1-8.4,0.8c-3.1-0.8-5.5,1.5-8,3.3c-2.7,1.8-5.4,3.7-8.1,5.6c-0.6,0.4-1.1,1.1-1.6,1.7
		c-1.2,1.6-1.2,2,0.4,2.7c1.8,0.7,3.7,1.3,5.5,1.9c4.5,1.4,9,2.8,13.5,4c2.3,0.6,4.6,0.9,6.9,1.1c1.5,0.2,3.1,0.4,4.6,0.8
		c2.4,0.6,4.8,0.4,7.2,0.6c2.2,0.2,4.3,0.5,6.5,0.8c1,0.2,1.8,0.9,2,2.4c0.2,1.6,0.2,3.2-1,4.1c-1.4,1-2.9,2.1-4.4,3
		c-0.4,0.2-0.8,0-1.3,0c-1.1,0-2.3-0.4-3.3,0.1c-3.1,1.3-6.2,0.6-9.3,1c-0.7,0.1-1.4,0.1-2,0.4c-5.6,2.7-11.1,5.5-16.3,9.1
		c-0.8,0.5-1.4,1.3-2.1,2c0.7,0.6,1.4,1.3,2.2,1.7c2.2,0.9,4.5,1.9,6.8,2.3c1.7,0.3,3.5,0,5.2-0.2c1.8-0.3,3.6-0.6,5.4-1.3
		c3.3-1.3,6.6-1.9,10-1.5c3,0.4,6,0.2,9,0.4c1.6,0.1,3.1,0.6,4.4,2c1,1.1,2.2,1.9,3.3,2.9c1,1,1.2,1.7,0.4,2.9
		c-1.4,2.2-2.7,4.6-4.9,5.6c-2,0.9-4,2.1-6.1,3c-1.4,0.6-2.8,1-4.3,0.5c-0.8-0.3-1.8,0.3-2.8,0.4c-3.7,0.3-7.4,0.6-11.2,0.7
		c-1.3,0-2.6-0.5-3.8-0.7c-2.7-0.4-5.4,0.2-7.9,1.5c-2.7,1.4-5.3,2.9-7.8,4.7c-1,0.7-1.9,2.2-2.6,3.5c-0.8,1.5-0.7,3,0.1,4.6
		c1.5,3,3.5,4.9,5.7,6.7c2.4,2,4.7,4.1,7.2,5.6c4.8,2.8,9.4,6.2,14.5,7.6c0.4,0.1,0.8,0.2,1.3,0.3c2,0.1,3.7,0.8,5.2,2.7
		c0.9,1.1,2.1,1.7,3,2.8c0.5,0.5,0.9,1.6,0.8,2.4c0,1.2-0.8,1.6-1.7,1.8c-0.8,0.2-1.7,0.5-2.4,1.1c-1,0.9-2.1,1-3.2,0.8
		c-3.4-0.6-6.7-1.5-10.1-2.5c-3.9-1.2-7.5-3.6-11.3-5.3c-6.2-2.7-11.2-8-15.6-14.5c-2.8-4.1-4.3-9.4-3.7-14.9
		c0.4-3.8,0.9-8.2,3.4-10.9c0.5-0.6,1-1.3,1.5-2c0.8-1.1,0.8-1.7,0-3.2c-1.9-3.7-3.5-7.5-3.3-12.5c0.2-3.5,1.2-6.2,2.9-8.5
		c1.1-1.4,2.3-2.5,3.5-3.7c0.5-0.5,0.7-1.1-0.1-1.5c-1.4-0.7-2.7-1.5-4.1-2.2c-0.6-0.4-1.3-0.8-1.8-1.3c-3.9-3.4-3.9-3.4-6.1-8.8
		c-0.7-1.8-1.2-3.7-0.8-5.9c0.6-3.4,1.3-6.6,3.4-9c1.3-1.5,2.5-3.2,4.1-4.2c0.3-0.2,0.5-0.6,0.7-0.9c-0.3-0.3-0.5-0.6-0.8-0.7
		c-2.4-1-4.9-1.8-7.2-3.2c-2.9-1.8-5.5-4.1-7.4-8.1c-1.1-2.3-2.1-4.6-2.8-7.2c-0.7-2.4-0.7-4.9-0.3-7.4c0.3-1.6,0.5-3.2,0.7-4.8
		c0.5-5.2,2.9-8.6,5.6-11.6c0.3-0.3,0.6-0.6,0.8-0.9c0.7-0.8,0.6-1.3-0.3-1.7c-1.3-0.5-2.5-0.8-3.8-1.3c-3.6-1.6-7.4-2.8-10.8-4.9
		c-3.6-2.2-6.3-5.9-8.2-11c-1.2-3.3-1.5-6.2-0.9-9.5c0.2-1.3,0.6-2.5,1.3-3.4c0.6-0.8,1.2-1.8,1.8-2.6c0.6-0.8,0.4-1.5-0.2-2
		c-0.2-0.2-0.4-0.4-0.7-0.5c-2.4-1.1-4.3-3.4-5.7-6c-2.5-4.6-5.1-9.5-3.7-16c0.1-0.6,0.2-1.2,0.4-1.7c1-2.9,0.8-2.6-0.6-5.3
		c-2.1-3.8-4.2-7.7-5.6-12c-0.8-2.3-0.2-5.4,0.8-8c1.8-4.6,1.7-4.6-1.7-6.4c-1.1-0.6-2.3-1.2-3.4-1.6c-2.5-0.9-4.7-2.7-6.6-4.8
		c-1.8-1.9-3.3-4.6-4.8-7c-0.6-0.9-0.9-2-1.4-3c-2.6-5-2-11.5,0.4-15c0.4-0.5,0.8-1.1,0.9-1.7c0.3-1.7,0.9-2.7,2.1-3.2
		c0.5-0.2,0.6-0.9,0-1.3c-0.9-0.7-1.8-1.4-2.8-1.9c-3.7-1.8-6.1-5.6-8.4-9.8c-1.6-2.9-2.5-6.2-3.4-9.6c-0.7-2.8-0.7-5.7,0.2-8.4
		c0.4-1.2,0.3-1.5-0.7-1.9c-1.6-0.6-3.2-1.5-4.8-2.6c-1.6-1.1-3.2-2.5-4.8-3.6c-2.9-2.1-4.9-5.6-7.1-8.7c-0.3-0.4-0.3-1.1-0.4-1.6
		c-0.2-1.1-0.2-2.7-0.7-3.4c-2.1-2.8-1.1-6.1-0.8-9.1c0.2-2.5,0.4-2.5-1.3-3.6c-3.1-2-6.3-3.9-9.4-6c-3.3-2.2-5.7-5.9-7.6-10.1
		c-0.8-1.9-1.2-4.2-1.5-6.5c-0.3-1.9-1-2.6-2.4-3.1c-5.2-1.8-10.3-4.1-14.9-8.3c-2.6-2.4-5.2-4.7-6.8-8.7c-1.2-3-2.7-5.9-3.9-8.9
		c-0.4-1-0.6-2.3-0.5-3.4c0.1-2.1-0.4-4.2,0.4-6.2c-1-1.7-0.2-3.4,0.1-5.1c0.1-0.5,0.1-1,0.3-1.4c2.4-4.6,4.7-9.2,8.1-12.5
		c0.5-0.5,1-0.8,1.5-1.4c3.3-4.2,7.3-6.8,11.3-9.5c3.8-2.6,7.7-4.9,11.7-7c4.1-2.2,8.3-4,12.5-6c3.3-1.6,6.9-2.3,10.1-4.5
		c0.8-0.5,12.1-5.1,16-5.6c2.4-0.3,4.7-1.5,7.1-2.2c2.7-0.8,5.4-1.4,8.1-2.6c2-1,4.2-1,6.4-1.5c4.3-1,8.7-2.2,13-3.2
		c1.9-0.4,3.8-0.5,5.7-1c3.3-0.8,6.6-1.8,9.9-2.4c2.1-0.4,4.3-0.4,6.4-0.5c4.3-0.3,15.9-1.3,17.3-1.6c0.5-0.1,1.1-0.5,1.5-0.3
		c1.8,0.8,25.1-2.1,27.7-1.8c4.2,0.5,8.4,1.3,12.6,1.8c6,0.7,12,1.2,18.1,1.8c0.9,0.1,1.8,0.6,2.8,0.7c2.7,0.2,5.5,0.1,8.3,0.6
		c3.1,0.5,6.1,1.5,9.2,2.2c3.9,0.9,7.7,2.8,11.5,4.3c6.1,2.5,11.9,5.7,17.1,10.8c1.2,1.1,2.2,2.7,3.1,4.2c1.8,3.1,3.6,6.1,5.2,9.4
		c0.7,1.4,0.9,3.3,1.3,5.1c0.3,1.2-0.1,1.9-0.9,2.5c-2.2,1.6-2.4,5.2-0.5,7.2c1.5,1.6,3,3.2,4.6,4.5c2,1.7,2.6,4.6,2.6,7.4
		c0,2.9-0.7,5.9-1.8,8.5c-0.3,0.6-0.6,1.1-1,1.6c-1.2,1.6-2.3,3.4-3.6,4.7c-1.7,1.6-3.5,2.9-5.4,4.3c-0.6,0.5-1.4,0.6-1.9,1.2
		c-1.9,2.3-4.1,3.5-6.5,4.2c-0.2,0.1-0.5,0.2-0.7,0.4c-0.2,0.2-0.4,0.5-0.6,0.7c0.2,0.3,0.4,0.7,0.6,0.9c1.5,1.3,3.3,2.3,4.6,3.9
		c1.5,1.7,2.9,3.8,3.9,6c0.7,1.5,0.5,3.6-0.2,5.2c-1.1,2.6-2.5,4.8-4.1,6.9c-3.2,4-7.1,5.8-11.2,7c-0.8,0.2-1.5,0.7-2.2,1
		C248.2,130.7,246.8,131.3,245.4,131.8z M141.9,24.2c0-0.1,0-0.1,0-0.2c-0.9,0.1-1.7,0.2-2.6,0.4c-1.9,0.4-3.8,0.9-5.7,1.1
		c-6.8,0.5-13.3,2.8-20,4.4c-5.8,1.4-11.5,3.4-17.3,5.2C86.1,38.2,76,41.6,66.1,46.6c-5.3,2.7-10.5,5.4-15.8,8.1
		c-7.5,3.7-14.4,8.9-21.1,14.7c-1.2,1.1-2.6,2.1-3.6,3.6c-2.1,3.1-4.6,5.8-5.4,10.3c-0.5,2.8-0.2,5,1,7c2.3,3.7,4.9,7.1,8.3,8.9
		c2.9,1.6,5.9,2.9,8.8,4.2c0.4,0.2,1.1,0.1,1.5-0.2c1.8-1.7,3.5-3.5,5.1-5.3c0.7-0.8,0.6-1.7-0.1-2.4c-0.3-0.4-0.7-0.6-1.1-0.9
		c-2.7-1.5-5.4-3-8.2-4.5c-1.4-0.7-2.3-2-2.8-3.9c-0.4-1.8-0.2-2.3,1.2-2.4c1.5-0.1,2.9-0.3,4.4-0.2c1.5,0,2.9,0,4.3,1
		c1,0.7,2.1,1,3.2,1.3c2.8,0.7,5.6,1.4,8.4,2.1c0.9,0.2,1.3-0.1,1.9-1.1c1.7-2.7,4-4.7,6.8-4.7c0.6,0,1.2-0.1,1.8-0.3
		c0.1,0-0.1-1.8,0.5-2.2c0.5-0.4,1.1-0.7,1.7-1.1c0.8-0.5,9.9-5.1,11.3-5.7c1.6-0.6,9.5-4.4,10.2-4.5c1.4-0.2,14.1-5.7,16-6.2
		c0.5-0.1,1.1,0,1.5-0.3c2.3-1.8,8.2-1,8.5-2c0.1-0.5,16.2-4.5,17.2-5c5.2-2.2,27.8-5.6,28.4-5.6c2.1,0.3,4.1-1.6,6.1-0.2
		c0.1,0.1,0.4,0,0.5-0.2c2.1-1.7,13.2-2,15.2-1.4c2.8,1,5.6,0.4,8.5,0.7c0.4,0,2.8-1,3.7-0.8c0.8,0.1,1.6,0.4,2.3,0.1
		c0.9-0.4,1.6-0.5,2.5-0.2c1.4,0.4,8.2,0.7,10.2,0.5c1.5-0.2,10.8,0.5,12.7,0.7c3.8,0.5,7.7-1.2,11.5,0.7c0.1,0,0.2,0,0.3,0
		c4,0.5,7.9,0.6,11.8,1.6c3.3,0.9,6.6,1.6,10,2.5c0.6,0.2,1.2,0.8,1.6,1.4c0.3,0.6,6.6,1.2,8.6,2c1,0.4,1.5-0.1,2-1
		c1.6-2.8,1.4-6.1-0.4-8.8c-2.7-3.8-5.8-6.9-9.2-9.1c-2-1.3-4-2.2-6-3.5c-7.3-4.6-15-7.3-22.9-8.8c-4.6-0.9-9.3-1.8-13.9-2.6
		c-3.7-0.6-7.4-1.2-11.1-1.4c-5.8-0.3-11.6-0.4-17.4-0.5c-2.3-0.1-4.7-0.3-7-0.2c-4.9,0.2-9.9,0.3-14.8,0.7c-4.7,0.4-9.3,1-14,1.5
		C147.7,23.4,144.8,23.8,141.9,24.2z M180.7,60.4c0-0.2,0-0.4,0-0.6c-3.8,0.7-7.6,1.4-11.3,2c-7.2,1.2-14.5,2.2-21.7,3.4
		c-4.3,0.7-8.6,1.7-12.8,2.7c-1,0.2-2,0.8-3,1c-4.2,1.1-8.5,2-12.7,3.3c-4.6,1.4-9,3.4-13.6,4.6c-4.8,1.2-9.3,3.7-13.9,5.6
		c-5.4,2.2-10.7,4.9-16,7.4c-0.9,0.4-1.7,1.1-2.5,1.8c-0.1,0.1,0.1,1,0.2,1c3.6,1.1,7.2,2.3,10.9,3c2.8,0.6,5.6,1.9,8.5,1.3
		c0.4-0.1,0.8,0.2,1.3,0.3c0.8,0.2,1.7,0.5,2.5,0.6c1.5,0.2,3,0.1,4.4,0.6c4.9,1.8,9.9,0.5,14.9,0.9c2.9,0.2,5.8,0.5,8.6,1.8
		c1,0.5,2.2,0.2,3.3,0.2c0.1,0,0.4-0.8,0.3-1c-0.5-0.8-0.2-1,0.3-1.2c0.3-0.1,0.8-0.2,1,0c1.6,1.4,2.6,0.2,3.9-0.9
		c2.1-1.8,17.9-4.8,20.8-5.4c1.4-0.3,19.8-1.6,20.1-1.8c1.7-0.8,25.1-0.6,27.8-0.6c4.3,0,22.9,1.1,27.1,2c2.7,0.6,5.4,0.7,8.2,1.2
		c3.2,0.5,6.2,0.1,9-2.2c0.7-0.6,1.7-0.6,2.5-0.9c1.1-0.3,2.5-0.1,3.2-1c1.8-2,4-2.1,5.9-3.5c1.1-0.8,2.3-1.8,3.5-2.2
		c1.2-0.4,2.2-1.2,3.3-2.1c0.6-0.6,1.3-1.4,2-1.6c2.6-0.8,4-3.8,5.8-5.9c0.9-1,0.8-2-0.1-3c-1.4-1.4-2.9-2.7-4.3-3.9
		c-1-0.8-1.9-0.5-3,0.2c-2.1,1.4-4.2,2.7-6.4,4c-0.5,0.3-1,0.7-1.5,0.5c-0.6-0.2-1.2-0.7-1.8-1.1c0.3-0.7,0.6-1.4,1-1.9
		c0.3-0.4,0.7-0.6,1.1-1c0.8-0.8,1.7-1.7,2.5-2.5c0.2-0.2,0.3-0.7,0.3-0.9c-0.1-0.2-0.4-0.4-0.6-0.4c-0.8-0.2-1.7-0.2-2.5-0.5
		c-1.9-0.6-3.8-1.6-5.8-2.1c-2-0.4-4,0.2-6.1-0.5c-3.7-1.1-7.6-0.1-11.3-1.8c-0.3-0.2-0.7-0.2-1-0.2c-1.8,0-3.6,0-5.5,0
		c-2.6,0-5.3,0.6-7.8-0.1c-3.8-1.1-7.6,0-11.3-0.9c-0.6-0.1-1.2,0.3-1.8,0.4c-1.2,0.2-2.4,0.4-3.6,0.4c-3.7,0.1-7.4-0.1-11.2,0.2
		C188.1,59.3,184.4,59.9,180.7,60.4z M135.2,149.2c0-0.1,0-0.3,0-0.4c-0.3,0.1-0.5,0.2-0.8,0.3c-5.4,1.2-10.6,3.5-15.8,5.6
		c-1.2,0.5-2.6,0.7-3.8,1.3c-2,1-4.2,1.3-5.9,3.3c-0.6,0.8-1.5,1.1-2.3,1.7c-2.9,2-5.9,4-8.8,6.1c-0.3,0.2-0.4,0.7-0.6,1.1
		c0.3,0.2,0.5,0.5,0.8,0.6c4,0.6,8.1,1.2,12.1,1.7c5.4,0.7,10.8,1,16.2,0.5c1.1-0.1,2.3-0.2,3.4,0.2c1.8,0.7,11.1-0.7,11.7,0.9
		c0.1,0.4,9.4,0.4,9.9-2.1c0-0.1,0.3-0.1,0.5,0c2.3,1.2,4.6,0.4,6.9,0.1c2-0.3,7-0.1,7.4-0.3c1.3-0.7,2.6-0.5,3.9,0.1
		c1.1,0.5,24.8-5,28.1-5c2.8,0.1,5.7,0,8.4-1.6c0.4-0.2,0.8-0.2,1.2-0.2c0.9,0,1.9,0.2,2.8,0.1c2-0.2,4-0.6,5.9-0.8
		c0.4,0,4-0.8,4.8-0.6c0.8,0.2,1.7,0.1,2.5-0.1c2.3-0.5,9.4-2,10.4-3.3c0.4-0.5,1-1.1,1.3-1c1.4,0.7,2.6,0.1,3.8-0.8
		c0.6-0.4,1.5,0.1,2-0.4c2.4-2.6,5.4-3.6,7.9-5.6c2-1.6,2.2-4.3,0.3-5.9c-2-1.8-4.1-3.5-6.7-3.8c-1.2-0.2-2.4-0.5-3.6-0.9
		c-2.2-0.7-4.3-2.7-6.7-1.7c-0.3,0.1-0.7-0.3-1-0.3c-0.9-0.1-1.7-0.4-2.6-0.3c-2.1,0.3-4.1,0.7-6.2,1.2c-3.8,0.8-7.5,1.8-11.3,2.5
		c-1.5,0.3-3.1,0.1-4.6,0.1c-0.6,0-1.2,0.1-1.8,0.3c-1.2,0.3-2.3,0.8-3.5,1c-2.5,0.4-5.1,0-7.4,1.1c-2.5,1.2-5.1,1.4-7.6,1.8
		c-4.2,0.7-8.4,1-12.7,1.3c-2.4,0.2-4.8,1.4-7.2,0.1c-0.3-0.1-0.7,0.1-1,0.2c-1.2,0.2-2.4,0.6-3.6,0.7c-1.4,0.1-2.8,0.1-4.2,0.2
		c-3.5,0.3-7.1,0.8-10.6,0.9c-1.3,0-2.5-0.9-3.8-1.5c-1,1.7-2.4,1.6-3.8,1.6C138.5,149.2,136.9,149.2,135.2,149.2z M188.6,182.5
		c-0.5,0-1.4-0.2-2.2,0.2c-2.2,1.2-4.6,0.9-6.9,1.3c-3.5,0.6-7.1,0.1-10.5,1.7c-0.6,0.3-1.2,0.2-1.8,0.3c-2.2,0.3-4.5,0.1-6.6,1.3
		c-0.8,0.5-1.9,0.2-2.8,0.4c-0.8,0.1-1.7,0.3-2.5,0.6c-2.2,0.7-4.3,1.8-6.5,2c-2.1,0.2-3.9,1.1-5.7,2.2c-1.7,1.1-3.4,1.7-5.3,1.6
		c-0.5,0-1,0.2-1.5,0.4c-2.9,1.2-5.7,2.6-8.6,3.8c-3.4,1.4-6.8,2.7-10.2,4.1c-0.5,0.2-0.9,0.7-1.3,1c0.5,0.3,1,0.6,1.6,0.8
		c2,0.7,4,1.6,6.1,1.3c0.3-0.1,0.7,0.2,1,0.3c1.1,0.3,2.2,0.7,3.3,0.7c2.6,0,5.2,0.3,7.7,1.1c1.9,0.6,3.9,0.7,5.9,0.8
		c2.7,0.2,5.3,0.4,8,0.5c3.3,0.1,12.7-0.7,13.8,0c1.9,1.2,21.7-0.9,23.8-1.6c0.3-0.1,25.2-3.7,26.5-3.6c2.7,0.1,5.3-0.6,7.8-1.9
		c1-0.5,2.1-0.9,3.2-1.3c0.6-0.2,1.2-0.8,1.7-0.6c1.3,0.5,2.3-0.3,3.4-1c1.3-0.9,2.7-1.5,4-2.3c1-0.7,2-1.4,2.9-2.3c1-1,1.1-2,0-2.8
		c-1.3-1-2.7-1.7-3.4-3.7c-0.1-0.3-0.6-0.6-0.9-0.7c-3.6-0.9-6.9-3.2-10.6-3.2c-2.6,0-5.2-0.4-7.8-0.8c-4.1-0.6-8.3-1-12.4-0.5
		c-1.2,0.2-2.4,0-3.6,0C195.2,182.5,192.1,182.5,188.6,182.5z M97,125.3c0-0.1,0-0.3-0.1-0.4c-1.2,0.3-2.4,0.6-3.5,1.1
		c-1.8,0.8-3.5,2-5.3,2.7c-1.3,0.5-2.4,1-3.5,2.3c-0.8,0.9-1.8,1.3-2.7,2c-0.7,0.5-1.4,0.9-2.1,1.5c-0.3,0.3-0.5,0.8-0.8,1.2
		c0.4,0.2,0.8,0.5,1.2,0.5c1.5,0.1,2.9,0.1,4.4,0.2c1.5,0.1,3.1,0.4,4.6,0.6c1.2,0.1,2.4,0.2,3.6,0.4c1.7,0.3,3.4,1.1,5.1,1.1
		c5,0,10,0.6,14.9,1c1.7,0.1,3.5,0.6,5.1,0.2c2.6-0.7,5.6,0.9,7.9-2c0.1-0.1,0.2,0,0.3,0c1.4-0.4,2.7-0.7,4.1-1.1
		c3.4-0.9,6.8-1.9,10.1-2.8c1-0.3,2-0.4,3-0.8c2.9-1.1,24.5-3.3,25.7-2.6c0,0,0.5-0.8,0.4-1c-0.3-1.4,6.6-2.3,8.4-2.3
		c0.5,2.1,1.7,1.2,2.7,1.1c3.3-0.1,15.6-0.9,18.4-1c3.2-0.1,6.5-0.8,9.7-0.1c0.7,0.1,1.4,0.3,2.1,0.3c0.7,0,6.1-1.3,7.1-1.1
		c1.2,0.2,10.2-1.4,11.3-1.3c0.6,0.1,1.2,0.2,1.7-0.1c2.4-1.8,5-2.4,7.7-2.8c0.6-0.1,1.2-0.2,1.8-0.4c3.1-1.6,6.2-2.8,9.5-3.5
		c0.4-0.1,0.8-0.3,1.2-0.6c2.4-1.5,4.9-2.9,7.3-4.4c0.5-0.3,0.8-0.8,1.2-1.3c1.4-1.8,1.3-3.3-0.4-4.3c-1.7-1.1-3.6-1.7-5.4-2.6
		c-3.7-1.9-7.3-1.1-10.9,0.6c-5,2.4-10.1,4.3-15.3,5.3c-0.5,0.1-1,0.3-1.5,0.4c-2,0.5-4.1,1.1-6.1,1.3c-2.1,0.3-4.2,0-6,1.8
		c-0.4,0.4-1,0.4-1.5,0.4c-2.4,0.1-4.8,0.7-7.1,1.7c-0.7,0.3-1.5,0.5-2.3,0.6c-5.9,0.7-11.7,1.6-17.6,2.1c-2.6,0.2-5.2,1.3-7.8,1.4
		c-2.5,0-4.9,0.7-7.3,1.3c-2.2,0.5-4.3,1-6.7,0.1c-1.7-0.6-4-0.6-5.6,0.4c-2.4,1.5-4.6,1.1-7,0.9c-1.3-0.1-2.6,0.2-3.8,0.4
		c-0.5,0.1-1,0.5-1.5,0.5c-4.3,0.3-8.6,0.6-12.9,0.8c-2.2,0.1-4.3-0.1-6.5,0c-2.7,0.2-5.4,0.6-8.2,0.8c-3.5,0.2-6.9-0.6-10.4,0
		c-1.5,0.3-3.1,0.2-4.6-0.3c-1.1-0.4-2-0.6-3-0.3C99.1,125.1,98.1,125.2,97,125.3z M137.7,268.3c0.9,0.3,1.6,0.5,2.2,0.6
		c3.1,0.6,6.2,1.3,9.3,1.8c2.6,0.4,5.3,0.9,8,1.1c4.3,0.2,8.6-0.1,12.9,0.4c4.6,0.6,9.3,0.9,13.9,1.1c0.8,0,28.4-8.2,29.3-8.6
		c2.7-0.9,4.7-3.4,6.7-6c0.9-1.2,0.8-2.4-0.4-3.1c-1.5-0.9-3.1-1.7-4.6-2.1c-6-1.3-11.9-3-18-1.4c-0.2,0.1-0.5,0-0.8,0
		c-3.7,0.2-7.4,0.4-11.1,0.8c-2.8,0.3-5.5,0.8-8.2,1.4c-2.9,0.7-5.8,1.6-8.6,2.3c-3.7,0.9-7.5,1.5-11.2,2.7c-4.5,1.5-9,3.3-13.5,5.2
		C141.6,265.4,139.5,266.1,137.7,268.3z M203.1,283.7c0,0,0,0.1,0,0.1c-1.3,0-2.6-0.1-3.9,0c-3.8,0.4-7.6,0.7-11.4,1.2
		c-9.1,1.3-18.3,2.5-27.2,5.2c-4.6,1.4-9.1,3-13.6,4.6c-0.3,0.1-0.6,0.4-0.9,0.7c0.3,0.3,0.6,0.8,1,0.8c4,0.9,8,1.7,12,2.5
		c5,0.9,10,0,15,1.1c0.3,0.1,0.7-0.2,1-0.2c2.7,0.1,5.4-1.4,8.1,0.3c0.3,0.2,0.9,0.2,1.3-0.1c1.3-1.1,2.7-0.5,4.1-0.6
		c1.4,0,2.7-0.1,4.1-0.3c3.2-0.4,18.5-5.2,19.5-5.6c2.4-1,4.8-2.2,7.2-3.1c0.8-0.3,1.3-1,1.7-2c0.5-1.1,0.3-1.6-0.4-1.9
		c-2.6-1.2-5-3-7.9-2.4c-0.3,0.1-0.7,0-1,0C208.8,284.1,205.9,283.9,203.1,283.7z M133,227.2c0.8,0.2,1.8,1,2.1-0.9
		c0-0.3,0.7-0.4,1.1-0.6c0.5-0.2,1.2-0.1,1.4-0.5c0.6-1.4,1.6-1.2,2.5-1.4c2-0.4,4.3-0.3,6.1-1.4c2-1.3,4-1.2,5.9-2
		c1.2-0.5,2.5-0.6,3.8-0.9c0.4-0.1,0.7-0.6,1-0.9c-0.4-0.3-0.8-0.8-1.2-0.8c-1.3,0-2.6,0.3-3.8,0.2c-6.2-0.2-12.4-0.4-18.6-0.7
		c-1.9-0.1-3.8-0.7-5.7-0.6c-2.2,0.1-4.3-0.1-6.4-0.7c-2.4-0.7-5-0.9-7.4-1.4c-3-0.6-6-0.7-8.8-2.7c-0.6-0.5-1.8-0.4-2.5,0.1
		c-2.1,1.8-4.2,3.7-5.7,6.6c-0.9,1.8-0.9,3.9,0.1,5.6c1.3,2.3,2.8,4.1,4.8,5.4c4.4,2.9,9.3,3.6,13.9,5.8c1.2,0.6,2.1,0.3,3.2-0.5
		c1.1-0.8,2.2-1.3,3.4-1.6c1-0.2,1.7-0.5,2.3-1.8c0.4-0.8,1.2-1.3,1.9-1.7c1.2-0.7,2.4-1.2,3.7-1.7C131,227.6,132,227.5,133,227.2z
		 M214.2,103.4c1.4,0.1,2.4,0,3.2-1.3c0.4-0.7,1-1.2,1.5-1.9c0.2-0.2,0.4-0.6,0.4-0.8c-0.1-0.3-0.4-0.6-0.6-0.6
		c-1.9-0.1-3.8-0.1-5.7-0.1c-4,0.1-8.1,0.3-12.1,0.6c-4.4,0.3-8.8,0.4-13.2,0.9c-8.7,1.1-17.4,1.5-26.1,3.4
		c-3.1,0.7-6.2,0.9-9.3,1.6c-3.8,0.8-7.5,1.9-11.2,2.8c-3.2,0.7-6.3,1.2-9.5,2.1c-2.5,0.7-4.8,2.7-7.5,2.2c-0.2,0-0.8,0.7-0.8,1.1
		c0,0.4,0.3,1.1,0.6,1.3c0.6,0.3,1.2,0.3,1.8,0.2c2.2-0.2,8-1,8.5-0.5c2.7,2.7,10.5-1.3,11.9-0.4c0.3,0.2,0.7,0.1,1,0
		c2.6-1.4,17.7-2.7,19.8-3.1c1.2-0.2,2.4-0.3,3.6-0.4c1.2-0.1,2.6,0.3,3.5-0.5c2.2-1.8,4.2-1.4,6.5-1c1.8,0.3,3.8-0.6,5.7-0.7
		c3.8-0.3,7.4-2.1,11.2-1.8C198.2,106.6,214.1,103.4,214.2,103.4z M189.2,354.8c1.9-0.3,3.8,0.4,5.6-0.9c1.6-1.2,3.6-1.5,5.3-2.5
		c1.9-1,3.8-2.3,5.6-3.6c0.4-0.3,0.8-1.1,0.8-1.6c0-0.5-0.6-1.3-1-1.4c-3.6-1-7.1-3.2-10.9-3.2c-4.6,0-9.1,0.1-13.7,0.3
		c-0.4,0-0.8,0.3-1.2,0.4c-1.4,0.3-2.7,0.7-4.1,0.9c-2.1,0.4-4.1,0.5-6.2,1.1c-3.9,1.2-7.7,2.7-11.5,3.9c-2.2,0.7-4.4,1.5-6.3,3.3
		c-0.3,0.3-0.5,0.9-0.8,1.3c0.4,0.3,0.7,0.7,1.1,1c0.1,0.1,0.3,0.2,0.5,0.2c3.2,0.8,6.4,1.9,9.7,2.4c2.9,0.5,5.9,0.5,8.8,0.3
		c3.1-0.2,6.2,0.6,9.3-0.6c0.4-0.1,0.9,0,1.3,0c1.5-0.2,3.1-0.3,4.6-0.6C187.2,355.4,188.2,355,189.2,354.8z M128.9,187
		c1.4-0.5,3.1-1.2,4.8-1.9c0.3-0.1,0.5-0.6,0.7-0.9c-0.3-0.3-0.6-0.9-0.9-0.9c-4.1-0.5-8.2-0.9-12.4-1.3c-0.3,0-0.7,0.2-1,0.2
		c-1.8,0.2-3.6,0.6-5.4,0.5c-2.6-0.1-5.1-0.5-7.7-0.7c-5.8-0.6-11.5-1-17.2-2.6c-1.7-0.5-2.1-0.1-2.6,2.2c-0.3,1.4-0.4,2.8,0.3,4.1
		c1.3,2.7,2.4,5.5,4.6,7c0.6,0.4,1.1,1.1,1.8,1.5c2.5,1.4,5,2.7,7.5,4c0.4,0.2,0.9,0,1.3-0.2c1.8-1,3.7-1.9,5.5-3
		c2.9-1.7,5.7-3.4,8.9-3.3c1.9,0.1,3.3-0.8,4.7-2.4C123.1,187.2,128,186.9,128.9,187z M113,105.4c-0.2-0.1-0.3-0.3-0.4-0.3
		c-3.2-0.2-6.3-0.5-9.5-0.7c-1.5,1.8-3.3,1-4.9,0.9c-5.9-0.2-11.8,0.2-17.6-1.2c-6.2-1.4-12.5-2.4-18.8-3.5
		c-0.6-0.1-1.3-0.4-1.8-0.1c-2.6,2.1-5.2,4.3-7.7,6.6c-0.5,0.4-0.3,1.4,0.4,1.5c1.5,0.3,3.1,0.7,4.6,0.9c5.6,0.7,11.2,1.4,16.8,2.1
		c0.4,0.1,0.8,0.3,1.2,0.5c1.4,0.5,2.7,1.1,4.3,0.2c0.7-0.4,1.8,0.2,2.8,0.4c1.3,0.4,2.6,1.1,4,0.6c1.4-0.5,3-0.9,4.3-0.4
		c2.5,0.9,4.8-0.5,7.1-0.6c0.4,0,1-0.1,1.2-0.5c1.5-2.1,3.4-2.5,5.2-3.5C107,106.6,109.9,105.8,113,105.4z M67.2,150.2
		c0,2.6,1,4.3,2.1,5.6c2.3,2.6,4.6,5.5,7.5,6.9c1.5,0.7,3,1.3,4.4,2.3c1.2,0.8,2.1,0.4,3.2-0.2c1.3-0.7,1.9-2.2,2.8-3.5
		c0.8-1.2,2.3-1.4,3.4-2.2c0.4-0.2,0.5-0.9,0.9-1.3c0.4-0.5,0.9-0.9,1.4-1.2c1-0.6,2.6-0.9,2.9-1.9c0.7-2.2,1.9-2.5,3.2-3
		c0.5-0.2,0.9-1,1.3-1.5c-0.5-0.3-1.1-0.7-1.6-0.7c-1.3,0-2.6,0.7-3.8,0.3c-3.3-1-6.7-0.5-10-1c-4.9-0.7-9.8-1-14.6-2.9
		c-1.3-0.5-2.2,0.2-2.7,2C67.4,148.7,67.3,149.6,67.2,150.2z M149,283.9c0,0,0-0.1,0-0.1c-3.7-0.5-7.4-1-11.1-1.5
		c-3.7-0.5-7.3-1.6-10.8-3.2c-1.4-0.6-2.9-0.9-4.3-1c-0.8-0.1-1.8,0.2-2.1,1.6c-0.3,1.3-0.9,2.6,0.1,3.9c0.7,0.9,1.2,2.1,2,2.8
		c2.9,2.6,5.7,5.4,9.2,6.3c2.3,0.6,4.4,1.2,6.8-0.3c3.1-1.9,6.4-2.9,9.6-4.1c2.2-0.9,4.5-1.5,6.8-2.2c0.3-0.1,0.7-0.3,0.9-0.6
		c0.2-0.2,0.2-0.6,0.3-0.9c-0.2-0.1-0.3-0.3-0.5-0.3C153.6,284.2,151.3,284,149,283.9z M122.4,248.5c-3.2-0.7-5,2.3-6.7,5.1
		c-1,1.6-0.7,2.8,0.3,4.5c1.3,2.1,3.1,3.1,4.8,4.1c0.4,0.3,1.1,0.2,1.5,0c1.8-0.9,3.5-2,5.2-3c1.4-0.8,2.8-1.7,4.3-2.5
		c2.2-1.1,4.4-2,6.6-3.1c0.3-0.2,0.6-0.8,0.9-1.2c-0.4-0.2-0.7-0.6-1.1-0.7c-1.9-0.3-3.8-0.4-5.7-0.8
		C129.1,250.3,125.8,249.4,122.4,248.5z M52.4,121.1c0,0.1,0,0.1,0,0.2c-0.2,0-0.3,0-0.5,0c-0.2,0-0.5,0.1-0.7,0.1
		c0.1,0.4,0.2,0.9,0.4,1.1c0.8,0.8,1.8,1.4,2.6,2.4c3,4.1,6.9,4.7,10.8,5.3c1.4,0.2,3-0.3,4.3-1c1.8-1,3.5-2.6,5.2-4
		c0.2-0.2,0.4-0.7,0.4-1.2c0-0.1-0.4-0.5-0.6-0.6c-1.2-0.1-2.4,0-3.6,0c-0.6,0-1.3,0.4-1.7,0.1c-1.2-1.2-2.3-1-3.7-0.4
		c-0.6,0.3-1.4-0.2-2-0.3C59.6,122.4,56,121.7,52.4,121.1z M167.2,367.8c-1.1,0-2.2,0-3.4,0c-0.2,0-0.4,0.3-0.7,0.4
		c0.2,0.3,0.4,0.9,0.6,0.9c1.3,0.2,2.6,0.1,3.8,0.5c1.8,0.5,3.4-0.3,5-1.2c0.2-0.1,0.3-0.4,0.5-0.7c-0.3-0.2-0.7-0.6-0.8-0.5
		C170.6,368.5,168.9,367.6,167.2,367.8z M159.1,130.4c0,0.3,0.1,0.5,0.1,0.8c1.2-0.2,2.5-0.5,3.7-0.7c0-0.2,0-0.5-0.1-0.7
		C161.5,130,160.3,130.2,159.1,130.4z"/>
</g>
</svg>
