<?xml version="1.0" encoding="utf-8"?>
<!-- Generator: Adobe Illustrator 18.1.0, SVG Export Plug-In . SVG Version: 6.00 Build 0)  -->
<!DOCTYPE svg PUBLIC "-//W3C//DTD SVG 1.1//EN" "http://www.w3.org/Graphics/SVG/1.1/DTD/svg11.dtd">
<svg version="1.1" id="Layer_1" xmlns="http://www.w3.org/2000/svg" xmlns:xlink="http://www.w3.org/1999/xlink" x="0px" y="0px"
	 viewBox="0 0 792 612" enable-background="new 0 0 792 612" xml:space="preserve">
<path fill="#fff" d="M387.2,167.2c13.3,6.6,26.5,13.3,37.6,22.1c108.4,81.9,216.8,165.9,323,247.8c4.4,4.4,2.2,13.3,4.4,17.7
	c-11.1,0-24.3,2.2-33.2-2.2c-92.9-57.5-188-112.8-278.7-177c-44.2-31-75.2-6.6-108.4,13.3C238.9,341.9,146,397.3,53.1,448.1
	c-6.6,2.2-15.5-2.2-24.3-4.4c2.2-8.8,0-19.9,6.6-22.1L369.5,176C373.9,173.8,380.5,171.6,387.2,167.2L387.2,167.2z M-1342.9,411.1
	c0-68.6,48.7-48.7,73-53.1c143.8-26.5,287.6-46.5,431.4-68.6c6.6,0,15.5,6.6,24.3,11.1c-6.6,8.8-11.1,24.3-19.9,26.5
	c-99.6,24.3-199.1,48.7-300.9,70.8c-61.9,13.3-126.1,26.5-190.3,35.4C-1329.6,433.2-1340.6,413.3-1342.9,411.1L-1342.9,411.1z
	 M-847.3,229.7c-157.1-15.5-305.3-28.8-451.3-44.2c-8.8,0-17.7-22.1-26.5-33.2c11.1-6.6,22.1-15.5,33.2-15.5
	c148.2,4.4,296.4,8.8,444.7,17.7c11.1,0,28.8,28.8,31,44.2C-816.3,207.6-838.5,220.8-847.3,229.7L-847.3,229.7z M-1311.9,85.9
	c-8.8-13.3-19.9-26.5-26.5-44.2c-2.2-2.2,15.5-17.7,24.3-19.9c137.2-26.5,274.3-53.1,411.5-77.4c15.5-2.2,33.2,0,50.9,2.2
	c6.6,2.2,13.3,13.3,15.5,22.1c0,4.4-11.1,13.3-17.7,15.5l-438,97.3C-1296.4,83.7-1298.6,83.7-1311.9,85.9L-1311.9,85.9z"/>
</svg>
