<?xml version="1.0" encoding="utf-8"?>
<!-- Generator: Adobe Illustrator 18.1.0, SVG Export Plug-In . SVG Version: 6.00 Build 0)  -->
<!DOCTYPE svg PUBLIC "-//W3C//DTD SVG 1.1//EN" "http://www.w3.org/Graphics/SVG/1.1/DTD/svg11.dtd">
<svg version="1.1" id="Layer_1" xmlns="http://www.w3.org/2000/svg" xmlns:xlink="http://www.w3.org/1999/xlink" x="0px" y="0px"
	 viewBox="0 0 900.2 582.1" style="enable-background:new 0 0 900.2 582.1;" xml:space="preserve">
<style type="text/css">
	.st0{fill:#FFFFFF;}
	.st1{fill:#12436B;}
</style>
<polygon class="st0" points="610.4,149.6 643.4,167.1 648.2,181.5 635.7,202.7 637.6,213.3 629.3,225.8 636.6,232.5 640.5,242.6 
	642.4,254.7 648.2,254.7 680.9,225.8 720.4,174.8 720.4,116.1 687.7,67 630.9,46.7 567.3,46.7 553.9,55.4 562.5,66 541.3,85.3 
	541.3,101.6 559.6,101.6 567.3,150.7 "/>
<g>
	<path class="st1" d="M887.5,428.4c0.5-1.5-0.1-4.5-1.2-5.1c-1-0.6-2.1-1.4-3.3-1.3c-2.2,0.3-4.1,2-6.1,2.9
		c-28.4,13.2-59.5,19.7-90.5,24.9c-32,5.3-64.2,11.4-96.4,9.8c-10.5-0.5-21-1.6-31.4-3.2c-10.2-1.5-20.1-3.9-30.2-6.3
		c-11.6-2.8-23.3-5-34.9-7.7c-7.5-1.7-14.6-4.4-22-6.2c-12.1-3-24.5-4.2-36.6-6.7c-22.6-4.7-44.9-10.5-67.2-16.3
		c-43.7-11.2-87.1-23.5-132-22.8c-3.8,0.1-7.6,0.5-11.4,0.9c-1.3,0.1-2.6,0.3-3.8,0.4c-0.5,0.1-1,0.1-1.5,0.2c0,0,0,0,0,0
		c-2,0.3-3.9,0.6-5.9,0.9c-4.5,0.7-8.9,1.5-13.4,2.4c-8.7,1.7-17.3,3.8-25.8,5.9c-12.2,3-24.8,4.9-36.6,9.1
		c-0.6,0.2-1.1,0.5-1.7,0.6c-8,1.7-15.9,3.9-23.6,6.4c-7.1,2.3-14.2,5-21.1,7.7c-1.9,0.8-16.3,6.8-19.5,8.2
		c-13.7,6-27.3,12.3-41.1,18.2c-1.3,0.6-2.7,0.7-3.9,1.2c-0.9,0.3-1.6,1.1-2.4,1.6c-11.3,7.3-23.6,12.6-35.2,19.3
		c-4.9,2.8-9.8,5.8-13.8,9.7c-0.9,0.9-1.9,1.6-3,2.2c-0.8,0.4-1.5,1-2.3,1.6c-2.2,1.8-4.2,3.9-6.2,6c-2.2,2.3-4.2,4.8-6.3,7.2
		c-4.1,4.7-8.8,9-12.2,14.1c-5.6,8.3-11.9,16.3-15.8,25.7c-2.4,5.8-4.6,11.5-4.5,17.9c0,1.8,0.3,3.9,2.3,4.3
		c2.3,0.5,4.5,2.7,6.9,0.7c2.1-1.7,47-32,47.7-32.4c0.3-0.2,0.6-0.4,0.8-0.6c4-2.6,18-11,20.7-12.8c6.7-4.4,13.9-7.4,21.3-10.4
		c15.2-6.1,30.6-11.4,46.1-16.8c14.9-5.2,29.9-10,45.2-14c30.2-8,61.6-12.4,92.9-10.4c18.6,1.2,37.1,3.9,55.6,6.6
		c1.2,0.2,2.5,0.2,3.7,0.4c7.2,0.8,14.5,1.6,21.6,2.7c9.3,1.5,18.6,3.1,27.9,4.9c7.6,1.4,15.2,2.9,22.8,4.5
		c5.8,1.2,11.5,2.6,17.2,3.7c10.3,2,20.7,4,31,5.8c7,1.2,14.1,2.7,21.2,3.4c15.5,1.5,30.8,4.3,46,7.7c7.8,1.7,15.6,3.4,23.5,4.7
		c7.7,1.2,15.4,1.6,23.1,2.1c16,1,32,2.4,48,2.7c8.1,0.1,16.2-0.1,24.3-0.8c7.7-0.7,15.1-2.3,22.7-4c16.1-3.5,32.8-3,48.9-6.8
		c0.3-0.1,0.5-0.1,0.8-0.1c6.6-1.2,12.9-3.6,19.4-5.2c12.3-3,24.8-4.6,37-7.9c18.6-5,35.7-13.8,52.1-24.4
		C868.1,457.1,886.8,430.6,887.5,428.4z"/>
	<path class="st1" d="M735.2,136.8c-0.8-10.3-3.3-20.1-7.8-29.3c-0.8-1.7-2.9-4.9-3.3-6c-1.6-4.1-3-8.5-5.5-12.1
		c-6.6-9.6-13.6-18.8-23.4-25.7c-12.1-8.5-25.1-15.3-39-20.2c-6.9-2.4-14.3-3.7-21.6-5.1c-5.6-1.1-11.4-2.2-17.1-2.3
		c-10.7-0.2-21.4,0.1-32,0.4c-6.9,0.2-13.8,0.8-20.7,1.5c-9.6,1-19.2,2.2-28.8,3.6c-7.2,1.1-14.4,2.5-21.5,4.2
		c-7,1.7-13.8,4-20.6,6.2c-8.3,2.7-16.6,5.4-24.8,8.4c-4.9,1.8-9.6,4.2-14.3,6.2c-5.3,2.3-10.7,4.2-15.8,6.8
		c-7.3,3.7-14.5,7.6-21.6,11.7c-7.7,4.4-15.4,9-23,13.6c-6,3.7-12.1,7.4-18,11.3c-6.9,4.6-13.8,9.3-20.5,14.1
		c-5.1,3.7-10.1,7.7-15,11.8c-4.3,3.6-8.3,7.6-12.7,11.1c-10.2,8.3-20.7,16.3-30.7,24.8c-7,5.9-13.5,12.4-20.1,18.7
		c-3.9,3.8-7.6,7.8-11.4,11.6c-6.4,6.4-12.8,12.8-19.1,19.3c-6.9,7.1-13.6,14.2-20.3,21.4c-6.6,7.2-13.2,14.4-19.7,21.7
		c-6.9,7.8-13.6,15.8-20.3,23.8c-4.9,5.8-9.9,11.6-14.7,17.4c-8.4,10-16.8,20-25,30.1c-2.7,3.3-4.8,7-7.2,10.5
		c-3.1,4.6-6.2,9.2-9.2,13.9c-3.8,6.1-7.3,12.5-11.3,18.4c-4.9,7.2-11,13.7-15,21.3c-3.9,7.4-10.9,11.5-15.4,18.1
		c-1.3,1.9-11,17.9-11.4,20.8c-0.5,3.5,0,7.1,3.5,9.3c0.6,0.4,1.2,1.1,1.9,1c2.3-0.3,3.8-2.7,5.8-4c13.5-8.9,29.1-13.8,43.7-20.9
		c1.4-0.7,2.7-1.2,4.1-1.5c3.3-0.8,6.3-2.2,9.5-3.3c20.3-6.9,40.6-13.9,60.7-21.4c22-8.2,44.1-16.5,67.1-21.4
		c20.3-4.3,41.1-5.2,61.9-5.5c6.1-0.1,12.2-0.3,18.4,0c1.7,0.1,3.1,0.8,4.5,1.2c6.4,1.9,13.2,1.7,19.9,2.2
		c3.1,0.2,41.7,4.3,44.4,5.3c3.5,1.4,16.3,1.9,19.1,2.3c4.2,0.6,8.5,1.4,12.7,2.1c1.2,0.2,46.8,12.5,67.3,17.4
		c36.7,8.6,73.9,15.6,111.2,21.3c9.2,1.4,18.5,2.8,27.8,4c2.9,0.4,5.8,1,8.8,1.2c0,0,0.1,0,0.1,0c1.2-0.2,2.3-0.7,3.4-0.8
		c7.9-0.5,15.8-0.2,23.6-0.7c0.4,0,0.8,0.1,1.2-0.2c1.6-1.1,1.8-3.5,2.9-5c2.9-4,1.8-8.2,0.9-12.4c-0.3-1.3-1.8-2.7-3-3.2
		c-6.9-3-14-5.8-21-8.7c-9.9-4.1-19.9-8.2-29.8-12.3c-6.4-2.6-12.9-5.2-19.4-7.8c-7.6-3-15.3-5.9-22.8-9c-4.4-1.8-8.6-4-12.9-6
		c-6.7-3.2-13.5-6.3-20.2-9.5c-1.1-0.5-2.1-1.3-3.3-1.6c-8.5-2.5-16.1-7.2-23.7-11.6c-7.2-4.1-13.8-9.2-20.3-14.3
		c-8.4-6.7-14.8-15-18.9-25.1c-2.6-6.3-4.3-12.8-4.6-19.5c-0.5-10.8,1.9-21.4,5.6-31.5c3.8-10.2,9.2-19.6,15.5-28.4
		c3.6-5,8.2-9.3,12.1-14c6.6-8,14.4-14.8,22.4-21.2c9.1-7.3,19.5-12.4,30.6-16.1c8.6-2.9,17.4-4.3,26.4-3.9
		c9.4,0.4,18.5,1.7,25.1,9.7c1.6,1.9,1.8,3.6,1.2,5.6c-0.5,1.7-1,3.4-1.9,4.9c-2.8,4.4-5.3,9-8.7,12.8c-2.5,2.7-4.5,5-4.1,8.8
		c0.2,2.1,0.1,4.8,1.7,5.6c0.1,0,2.3,0.8,3,1.7c0.2,0.3,0.4,0.6,0.6,0.8c0,0,0,0,0.1,0c0,0,0,0,0,0c0,1.5,0,2.8-1.1,4.3
		c-2.4,3.1-3.8,6.9-4.6,10.7c-0.7,3.1,1.7,5.6,5.1,7c0.9,0.4,1.8,1.6,2.6,2.6c1.7,2.1,2.8,4.5,1.8,7.2c-0.8,2-2.6,3.3-4.1,4.8
		c-3,2.9-2.9,9.2-1,12.7c0.9,1.7,2.1,3,4.3,2.8c0.9-0.1,1.8,0.6,2.7,0.6c1.1,0.1,2.5,0.2,3.4-0.3c3.9-2.2,7.7-4.8,11.5-7.1
		c2.4-1.5,5.1-2.5,7.4-4.2c5.3-3.9,10.5-8.1,15.8-12.2c2-1.5,4.4-2.4,6.2-4.1c5-4.5,9.9-9.2,14.8-13.9c2.4-2.3,4.6-4.9,6.9-7.4
		c4.3-4.6,9.5-8.2,12.6-13.9c1.1-2,2.9-3.7,4.1-5.7c5.4-9,11.8-18.6,12.2-29.1c0-1.1-0.1-2.4,0.1-3.5c0.8-4.6,1.8-9.2,2.6-13.9
		c0.6-3.5,1.3-7,1.6-10.6C736.1,140.7,735.4,138.7,735.2,136.8z M712.5,165.4c-0.9,3.9-1.5,7.9-2.9,11.7c-1.4,3.9-3.1,7.9-5.5,11.2
		c-3.7,5-8,9.6-11.8,14.5c-8.9,11.7-19.6,21.6-29.9,32.1c-0.4,0.4-0.7,0.8-1.1,1.2c-2.8,2.8-5,6.1-7.7,8.9c-3.2,3.2-7.2,0.8-8.5-2.4
		c-0.3-0.6-0.5-1.3-0.5-2.1c0.1-2.5,0.8-4.8,2-7c0.1-0.2,0.2-0.5,0.4-0.7c0-0.1,0.1-0.1,0.1-0.2c0.8-1.3,1.9-2.6,2-4.1
		c0-0.4,0.2-1-0.1-1.2c-0.6-0.3-1.2,0.7-1.8,1c-2.5,1.3-5.5,0.7-7-1.8c-1.3-2.3-0.6-5.8,1.8-7c0,0,0,0,0.1,0c1.6-1.2,2.7-3,3.5-4.8
		c0.9-1.8,1.7-3.9,0.9-5.7c-0.2-0.5-0.8-0.8-1.1-1.3c-2.4-3.6-0.6-8.5,2.8-10.7c0.3-0.2,0.6-0.4,0.9-0.6c0.7-0.5-0.8-0.7-0.2,0.2
		c0.3,0.5,1.2-1.1,1.7-1.5c0.5-0.5,1-1.1,1.5-1.6c0.1-0.1,0.2-0.2,0.4-0.4c1-1,1.7-2.6,2.4-3.7c0.7-1.2,1.3-2.4,2-3.7
		c0.6-1.2,1.2-2.3,1.6-3.5c0.1-0.2,0.1-0.4,0.1-0.6c0-0.1,0-0.3,0.1-0.6c0.1-0.9,0.1-1.8,0.1-2.8c0-1.8-0.1-3.7-0.3-5.5
		c0-0.4,0-0.7-0.1-1.1c-1.6-4.7-5.4-8.2-8.9-11.7c-1.5-1.5-3.4-2.7-5.3-3.5c-4.8-2.1-9.7-3.9-14.6-5.7c-2-0.7-4.7-0.4-6-1.7
		c-1.1-1.1-1-3.8-1-5.8c0.2-5.5-4.3-8-7.2-11.5c-1.7-2.1-3.2-4.3-5-6.3c-1.5-1.7-3.6-2.6-6-2.7c-3.8-0.2-7.5-0.5-11.3-1
		c-1.5-0.2-3.8-0.3-4.3-1.8c-0.6-1.7,1.7-3.2,2.7-4.6c0.4-0.6,1.3-0.9,2.1-1.2c3.5-1.4,4.1-5.1,5.9-7.8c0.8-1.1,1.1-3.1,0.6-4.4
		c-1-2.8-1.4-5.3-4.8-7.5c-7.1-4.5-12.6-4.1-19.2-3.9c-5.8,0.2-11.6,1.4-17.4,2.1c-1.4,0.2-2.9,0.1-4.3-0.2
		c-2.4-0.6-2.8-1.8-0.9-3.4c2.8-2.4,5.9-4.4,9-6.4c3.7-2.4,7.9-4.1,11.2-7c2.8-2.4,5.9-5.1,5.2-10c-0.4-2.9-2.1-4.5-4-5.7
		c-1.7-1.1-4-1.3-6-2.1c-0.9-0.3-2.2-1-2.3-1.6c-0.2-1.5,1-2,2.4-2c4.6-0.3,9.2-0.8,13.9-1.1c7.4-0.3,14.9-1.1,22.2-0.6
		c9.3,0.7,18.7,0.4,28,2.5c6.1,1.4,12.1,3.1,18.1,4.7c4.9,1.3,9.7,3.6,14.2,6.1c6.8,3.7,13.3,7.8,19.9,11.9
		c6.2,3.9,10.4,9.6,14.7,15.5c5.3,7.2,8.8,15.3,12.7,23.2c2.9,5.8,3.6,12.5,4.5,19C718.6,146,714.6,155.5,712.5,165.4z"/>
</g>
</svg>
